<svg xmlns="http://www.w3.org/2000/svg" viewBox="0 0 350 310"><defs><style>.a{fill:#131112;}.b{fill:none;stroke:#0c0b0b;stroke-miterlimit:10;stroke-width:3px;}.c{fill:#0c0b0b;}</style></defs><rect class="a" y="-16.23404" width="350" height="350"/><path class="b" d="M0,22.93138s101.00946-2.94882,121.097-2.94882,111.53849,5.28618,132.15461,5.28618S350,22.62565,350,22.62565"/><path class="b" d="M0,239.50861s101.00946-2.94883,121.097-2.94883S232.63545,241.846,253.25157,241.846,350,239.20288,350,239.20288"/><path class="b" d="M-.001,65.13458S112.46836,69.376,128.32692,67.79012,301.35584,66.501,301.35584,66.501L350,65.13458"/><path class="b" d="M-.00245,199.45027s114.61352,2.84533,130.47208,1.25948,170.88621.10692,170.88621.10692L350,199.45027"/><path class="b" d="M0,112.319s91.77107-.678,99.73044-.678,82.62234,1.13527,94.815,1.13706S215.211,110.50664,220.17068,110.3c1.39444-.0581,24.26168,1.76678,49.55949,2.28421,19.48545.39855,40.38869-.48408,54.1815-.48408,24.38533,0,26.08833.00744,26.08833.00744"/><path class="b" d="M350,155.224s-85.841-.19041-114.65824-1.44333-124.66592,3.44554-149.72439,3.44554-27.65317-.318-42.375-.99486S0,154.62962,0,154.62962"/><path class="b" d="M350,286.79862s-85.841-.19041-114.65824-1.44334-124.66592,3.44554-149.72439,3.44554-24.79039-.318-39.51225-.99486-46.10608,0-46.10608,0"/><path class="c" d="M350,31.60074s-25.94367,1.29718-29.51091,1.94576,29.51091,0,29.51091,0Z"/><path class="c" d="M37.68258,14.92511c8.64716,0,53.32417-2.30591,63.70076-2.59415l10.3766-.28824s-1.03079-.7152-4.03133-.7152-15.225.33339-18.33665.44452-9.77955-.44452-12.89122-.44452A83.72257,83.72257,0,0,0,64.054,12.66109c-4.55638.77792-23.33756,1.22245-24.33774,1.22245A3.59217,3.59217,0,0,0,37.68258,14.92511Z"/><path class="c" d="M74.72126,176.14433c8.64716,0,53.32417-2.30591,63.70076-2.59415l10.3766-.28824s-1.03079-.7152-4.03133-.7152-15.225.33339-18.33665.44452-9.77955-.44452-12.89122-.44452a83.72257,83.72257,0,0,0-12.4467,1.33357c-4.55638.77792-23.33756,1.22245-24.33774,1.22245A3.59217,3.59217,0,0,0,74.72126,176.14433Z"/><path class="c" d="M349.99478,90.4866c-17.25311.777-41.10089,1.91458-47.17439,1.91458a3.59216,3.59216,0,0,1,2.03372-1.04158c1.00019,0,19.78136-.44452,24.33774-1.22244a83.72271,83.72271,0,0,1,12.4467-1.33357c3.11167,0,5.24978-.48779,8.36145-.59892Z"/><path class="c" d="M.00277,90.4866c17.25311.777,31.60632-.30276,37.67981-.30276l7.49662-.39813a47.45225,47.45225,0,0,0-10.53385-1.8192c-5.28809-.29243-11.60653.60861-13.77631.23816-4.55638-.77792-9.39837.59892-12.51.59892s-5.24978-.48779-8.36145-.59892Z"/><path class="c" d="M11.76916,106.24115c8.64716,0,53.32416-2.30591,63.70076-2.59415l10.37659-.28824s-1.03078-.7152-4.03132-.7152-15.225.33339-18.33666.44452-9.77955-.44452-12.89122-.44452a83.72271,83.72271,0,0,0-12.4467,1.33357c-4.55638.77792-23.33755,1.22245-24.33774,1.22245A3.59213,3.59213,0,0,0,11.76916,106.24115Z"/><path class="c" d="M126.17755,178.42877c-3.02583,1.274,28.06648,1.21441,32.11453,1.21441s9.71531-1.34935,14.573-2.42883,6.47688-.251,7.01662-1.07-1.88909-.81907-3.50831-.68413-7.55636.94454-10.52493,1.48428-6.61181.33814-10.25505.57388S128.74132,177.34929,126.17755,178.42877Z"/><path class="c" d="M190.87055,60.95941c-3.02583,1.274,28.06647,1.21441,32.11452,1.21441s9.71532-1.34935,14.573-2.42883,6.47688-.251,7.01662-1.07-1.88909-.81907-3.50831-.68413-7.55636.94454-10.52493,1.48428-6.61181.33814-10.25506.57388S193.43431,59.87993,190.87055,60.95941Z"/><path class="c" d="M148.59167,142.32073c3.02583-1.274-28.06647-1.21441-32.11452-1.21441s-9.71532,1.34935-14.573,2.42883-6.47688.251-7.01662,1.07,1.88909.81907,3.50831.68413,7.55635-.94454,10.52492-1.48428,6.61182-.33814,10.25506-.57388S146.02791,143.40021,148.59167,142.32073Z"/><path class="c" d="M239.81939,253.74318c-11.61477.56657-18.69694-4.24931-33.14458-2.83287s-17.84708,4.2493-35.97744,5.09916-30.31171-.56657-38.81032,0a6.25877,6.25877,0,0,0,3.09115,1.10751c1.54463,0,24.86859,1.08124,29.50249,1.39017s19.7713.15446,25.02306-1.08124,17.45435-4.016,23.16949-4.325,15.24677,2.62587,20.98446,3.08926,11.14391-.15446,19.176-.77232,6.17854-.46207,3.55266-.77166S239.81939,253.74318,239.81939,253.74318Z"/><path class="c" d="M236.15167,258.6441c-4.75616-.57112-15.6008-4.46061-23.324-3.99788s-19.77131,6.64127-27.49447,6.64127-16.52758.30893-19.77131,0,2.78034,1.54463,7.25978,1.39017,18.39594.24,22.4382.00916,11.09521-4.43788,15.92091-5.1803,16.08567,1.60857,19.17907,2.10351S238.49926,258.926,236.15167,258.6441Z"/><path class="c" d="M216.726,272.099c6.51634-2.71515-4.80121-1.0026-13.46985-.96315-7.67916.035-12.22-1.69126-16.07291-2.36032a35.22823,35.22823,0,0,0-13.66237,0s12.10693,1.90316,14.95562,3.44418S213.87732,273.286,216.726,272.099Z"/><path class="c" d="M267.42706,100.77954c6.51634-2.71514-4.80122-1.0026-13.46986-.96315-7.67916.03495-12.22-1.69126-16.07291-2.36032a35.22823,35.22823,0,0,0-13.66237,0s12.10694,1.90316,14.95563,3.44418S264.57837,101.96649,267.42706,100.77954Z"/><path class="c" d="M319.94387,202.33605C327.38405,204.22063,350,205.22182,350,205.22182v-1.44289a81.80213,81.80213,0,0,1-9.10088,0c-3.01211-.317-13.84413-2.05472-15.98736-2.576s-3.01212.11585-6.14008,0S319.94387,202.33605,319.94387,202.33605Z"/><path class="c" d="M31.57325,204.08945C24.13308,205.974,0,205.22182,0,205.22182v-1.44289a81.80213,81.80213,0,0,0,9.10088,0c3.01211-.317,13.84413-2.05472,15.98736-2.576s25.76782.11585,28.89578,0S31.57325,204.08945,31.57325,204.08945Z"/><path class="c" d="M251.12377,209.28253c-8.68724-.75541-29.27223-2.45831-37.95947-2.4567a153.08342,153.08342,0,0,0-17.75219,1.22835s13.7196.16231,17.45074.48212,18.12272,1.066,23.986,1.49246,13.96515,0,15.67081,0S251.12377,209.28253,251.12377,209.28253Z"/><path class="c" d="M0,222.7759s36.15116,2.06007,51.16022,2.94295c0,0-33.99263-.19556-38.42573,0s-12.73449,0-12.73449,0Z"/><path class="c" d="M350,222.7759a165.805,165.805,0,0,0-21.13659,0c-9.94529.57053-23.39138,2.55282-30.02363,2.94295,0,0,33.99263-.19556,38.42573,0s12.73449,0,12.73449,0Z"/><path class="c" d="M233.48211,214.1763c-2.62084-1.14661,41.17075-.40763,44.83943,0s-.40764.81527-11.41368,1.42671S236.74316,215.603,233.48211,214.1763Z"/><path class="c" d="M320.107,87.5919c2.62084,1.14661-41.17075.40763-44.83943,0s.40763-.81527,11.41367-1.42671S316.84593,86.16519,320.107,87.5919Z"/><path class="c" d="M62.82612,97.68614c-2.62084-1.14662,41.17074-.40763,44.83942,0s-.40763.81526-11.41367,1.42671S66.08717,99.11285,62.82612,97.68614Z"/><path class="c" d="M81.09871,297.30638c-2.62084-1.14662,41.17075-.40764,44.83943,0s-.40763.81526-11.41367,1.4267S84.35976,298.73308,81.09871,297.30638Z"/><path class="c" d="M67.52686,300.642c-2.591-.696,41.13474,1.73344,44.78977,2.10964s-.42636.388-11.4346.17556S70.75073,301.508,67.52686,300.642Z"/><path class="c" d="M128.4458,235.736l10.00574.82379,6.2782-5.53241S134.72388,233.97024,128.4458,235.736Z"/><path class="c" d="M141.41113,237.54513l6.141.82379,3.85315-5.53241S145.2644,235.77939,141.41113,237.54513Z"/><path class="c" d="M122.223,21.06986l-8.24379,5.54871a.16776.16776,0,0,0,.15754.29429l14.19015-5.843Z"/><path class="c" d="M237.86291,110.98656l-8.2438,5.54871a.16776.16776,0,0,0,.15755.2943l14.19014-5.843Z"/><path class="c" d="M167.62183,52.16653a47.23413,47.23413,0,0,0-10.81275-1.44134A135.33771,135.33771,0,0,0,136.257,52.26767c-6.32373,1.05609-18.60633,1.741-24.49695,0s-17.7019-2.75855-22.20142-3.00177a21.61432,21.61432,0,0,0-6.98364.5382c4.14551,0,12.57178,1.63434,20.82129,3.12336l-.01221-.00214c-4.47924.69269-30.65088-.89429-34.1311-.65765,0,0,6.87622.93274,13.322,1.35034s28.40955.61511,28.40955.61511l-.01453-.0025a72.06287,72.06287,0,0,0,10.14539,1.08581C129.99426,55.31643,152.92236,52.16653,167.62183,52.16653Z"/><path class="c" d="M14.0458,36.93382c-5.165-.49191,19.00326-1.84008,23.63678-1.84008C37.68258,35.09374,24.58443,37.9375,14.0458,36.93382Z"/><path class="c" d="M262.49465,147.19605c-5.165-.49191,19.00327-1.84008,23.63679-1.84008C286.13144,145.356,273.03329,148.19972,262.49465,147.19605Z"/><path class="c" d="M81.70545,150.84675c-5.165-.49191,19.00326-1.84008,23.63678-1.84008C105.34223,149.00667,92.24408,151.85043,81.70545,150.84675Z"/></svg>