<svg xmlns="http://www.w3.org/2000/svg" viewBox="0 0 350 310"><defs><style>.a{fill:#131112;}.b{fill:#0c0b0b;}</style></defs><rect class="a" width="350" height="309.90314"/><path class="b" d="M203.2561,271.13586c-7.67907.035-12.22-1.69122-16.07287-2.36029a35.22791,35.22791,0,0,0-13.66236,0s12.10694,1.90314,14.95569,3.44416,25.40076,1.06628,28.24951-.12073C223.24243,269.38391,211.9248,271.09644,203.2561,271.13586Z"/><path class="b" d="M253.252,240.34619c-10.33984,0-39.0166-1.356-66.749-2.66748-12.89392-.60962-25.99243-1.22894-37.27759-1.71228l2.17993-3.12994s-3.07251,1.47229-6.23437,2.959q-2.907-.12039-5.59693-.22479l5.15577-4.54334s-8.3064,2.443-14.53162,4.21289c-3.78259-.11535-6.88708-.18066-9.10144-.18066C101.332,235.05957,2.134,237.946,0,238.008v1.50079l.044,1.49951c1.00976-.02978,101.21679-2.94873,121.05273-2.94873,9.94336,0,38.06641,1.33008,65.26465,2.61572,27.76758,1.313,56.48047,2.6709,66.89062,2.6709,20.2229,0,94.67066-2.57092,96.74805-2.64276v-1.50079l-.05176-1.499C349.18652,237.73,273.60645,240.34619,253.252,240.34619Z"/><path class="b" d="M252.83374,255.41791c8.032-.61786,6.17847-.4621,3.55261-.77167s-16.567-.90308-16.567-.90308c-11.61475.56659-18.6969-4.24926-33.14454-2.83288s-17.847,4.24933-35.97741,5.09918-30.31165-.56659-38.81043,0a6.25937,6.25937,0,0,0,3.09131,1.10754c1.54456,0,24.86853,1.08124,29.50244,1.39014s19.77124.15448,25.023-1.08124,17.45447-4.01605,23.16956-4.325,15.2467,2.62586,20.98449,3.08924S244.80164,256.03577,252.83374,255.41791Z"/><path class="b" d="M236.15161,258.6441c-4.7561-.5711-15.60083-4.46063-23.324-3.99786s-19.77124,6.64124-27.49439,6.64124-16.52759.309-19.77124,0c-3.24389-.3089,2.78028,1.54467,7.25977,1.39019s18.39587.24,22.43811.00916,11.09521-4.43787,15.921-5.1803,16.08557,1.60858,19.17895,2.10352S238.49927,258.926,236.15161,258.6441Z"/><path class="b" d="M233.48218,214.17633c3.261,1.4267,22.41968,2.03815,33.42566,1.4267s15.08239-1.01911,11.41369-1.4267S230.86133,213.02966,233.48218,214.17633Z"/><path class="b" d="M328.8634,222.77588c-9.94519.57056-23.39135,2.55286-30.02356,2.943,0,0,33.99256-.19555,38.42566,0s12.7345,0,12.7345,0v-2.943A165.80922,165.80922,0,0,0,328.8634,222.77588Z"/><path class="b" d="M251.12378,209.28253c-8.68726-.75543-29.27222-2.45831-37.95947-2.45672a153.086,153.086,0,0,0-17.7522,1.22839s13.7196.16229,17.45068.48212,18.12281,1.066,23.98609,1.49243,13.96508,0,15.67065,0C254.22534,210.02875,251.12378,209.28253,251.12378,209.28253Z"/><path class="b" d="M301.37207,199.31689c-6.333-.06884-155.28906-1.6748-171.05176-.0996-15.583,1.55957-129.13965-1.2378-130.28613-1.26661L0,199.33179v1.61889c1.39917.03473,10.65186.26245,23.68066.54261-3.67163.69824-11.99585,2.01373-14.57983,2.28564a81.80389,81.80389,0,0,1-9.10083,0v1.44287s24.13306.75226,31.57324-1.13232c0,0,10.53-1.238,17.23865-2.09351,20.17883.371,42.6571.69788,59.23206.69788,10.7666,0,19.042-.13819,22.57519-.49121,15.59375-1.56006,169.1709.09668,170.77832.11377l17.058-.47925c.66431.25946,1.48841.4989,1.48841.4989C327.384,204.22064,350,205.2218,350,205.2218v-1.44287a81.80389,81.80389,0,0,1-9.10083,0c-2.45557-.25836-10.10535-1.46063-14.01074-2.17871L350,200.95087V199.4502l-.042-1.49952Z"/><path class="b" d="M114.52441,298.73309c11.00611-.61145,15.0824-1.0191,11.4137-1.42675s-47.46033-1.14661-44.83948,0C84.35974,298.73309,103.51843,299.34454,114.52441,298.73309Z"/><path class="b" d="M38.14063,103.97711c-4.5564.778-23.33765,1.22247-24.33777,1.22247a3.59225,3.59225,0,0,0-2.03369,1.04157c8.64709,0,53.32409-2.30591,63.7008-2.59418l10.37647-.28821s-1.03077-.71521-4.03125-.71521-15.225.33338-18.33667.44452-9.77955-.44452-12.89124-.44452A83.72584,83.72584,0,0,0,38.14063,103.97711Z"/><path class="b" d="M37.68262,90.18384l7.49658-.39813a47.45178,47.45178,0,0,0-10.53394-1.81922c-5.28808-.29242-11.60644.60864-13.77624.23816-4.55628-.77789-9.39832.59894-12.51.59894-3.11084,0-5.24866-.48743-8.359-.59882v1.08655l.00269,1.19531C17.25586,91.26361,31.60913,90.18384,37.68262,90.18384Z"/><path class="b" d="M137.72852,285.834c-22.82911.78711-42.54493,1.4668-52.11133,1.4668-19.91406,0-23.68946-.19531-31.96094-.623-2.09863-.10888-4.47852-.23193-7.48145-.37011C31.69678,285.64258.84521,286.288,0,286.306v1.54559l.03125,1.4541c.31445-.00683,31.50293-.66894,46.00488-.001,2.99707.13769,5.3711.26025,7.46485.36865,8.32519.43066,12.125.62744,32.11621.62744,9.61816,0,29.35742-.68066,52.21386-1.46875,35.51563-1.2251,79.71875-2.74707,97.44532-1.978,28.51855,1.23975,113.86133,1.44288,114.7207,1.44483l.00293-1.5v-1.5c-.93311-.00214-86.14856-.20514-114.59277-1.4419C217.56055,283.08057,175.14844,284.54346,137.72852,285.834Z"/><path class="b" d="M96.25195,99.11285c11.006-.61145,15.08228-1.0191,11.41358-1.42669s-47.46021-1.14661-44.83936,0C66.08716,99.11285,85.24585,99.7243,96.25195,99.11285Z"/><path class="b" d="M76.50073,11.32751A83.72724,83.72724,0,0,0,64.054,12.66107c-4.55628.778-23.33741,1.22247-24.33765,1.22247a3.59177,3.59177,0,0,0-2.03369,1.04157c8.64721,0,53.32422-2.30591,63.70068-2.59418L111.76,12.04272s-1.03088-.71521-4.03137-.71521-15.225.33338-18.33667.44452S79.61243,11.32751,76.50073,11.32751Z"/><path class="b" d="M12.7345,225.71887c4.4331-.19555,38.42566,0,38.42566,0C36.15112,224.83594,0,222.77588,0,222.77588v2.943S8.30139,225.91443,12.7345,225.71887Z"/><path class="b" d="M67.52686,300.642c3.22387.866,22.34692,2.07275,33.35522,2.28522s15.0896.20062,11.43457-.1756S64.93591,299.946,67.52686,300.642Z"/><path class="b" d="M267.427,100.77954c6.51636-2.71515-4.80115-1.00262-13.46972-.96313-7.6792.03491-12.22-1.69129-16.073-2.36036a35.22909,35.22909,0,0,0-13.66236,0s12.10694,1.9032,14.95557,3.44422S264.57837,101.96649,267.427,100.77954Z"/><path class="b" d="M37.68262,35.09375c-4.63355,0-28.80176,1.34814-23.63684,1.84009C24.58447,37.9375,37.68262,35.09375,37.68262,35.09375Z"/><path class="b" d="M301.3584,65.001c-6.42285-.01319-157.42871-.2793-173.18067,1.29638C112.60059,67.854,1.17969,63.67822.05566,63.63574L0,65.10895v1.527c4.3927.16534,80.436,3.01049,114.32227,3.01049,6.59277,0,11.59179-.10791,14.15429-.36377,15.60157-1.56054,171.30274-1.28759,172.9209-1.28222L350,66.63544V65.13477l-.042-1.49952Z"/><path class="b" d="M69.25293,52.26764s6.87622.93274,13.322,1.35034,28.40955.61511,28.40955.61511l-.01453-.0025a72.06312,72.06312,0,0,0,10.14539,1.08582c8.8789,0,31.807-3.14991,46.50647-3.14991a47.23479,47.23479,0,0,0-10.81275-1.44134A135.33771,135.33771,0,0,0,136.257,52.26764c-6.32373,1.05609-18.60633,1.741-24.49695,0s-17.7019-2.75855-22.20142-3.00177a21.6141,21.6141,0,0,0-6.98364.53821c4.14551,0,12.57178,1.63434,20.82129,3.12335l-.01221-.00214C98.90479,53.618,72.73315,52.031,69.25293,52.26764Z"/><path class="b" d="M253.252,23.76855c-10.33984,0-39.0166-1.35595-66.749-2.667-27.23242-1.2876-55.3916-2.61914-65.40625-2.61914C101.332,18.48242,2.134,21.36835,0,21.43036v1.50079l.044,1.49951c1.00976-.02978,101.21679-2.94824,121.05273-2.94824.16113,0,.34.00134.5105.002l-7.62793,5.13415a.16772.16772,0,0,0,.15747.29425l12.95935-5.33612c12.80737.32483,36.363,1.43842,59.26526,2.52142,27.76758,1.313,56.48047,2.67041,66.89062,2.67041,20.2229,0,94.67066-2.57043,96.74805-2.64227V22.62549l-.05176-1.499C349.18652,21.15283,273.60645,23.76855,253.252,23.76855Z"/><path class="b" d="M329.19189,90.13715c-4.55639.77795-23.33764,1.22247-24.33776,1.22247a3.59281,3.59281,0,0,0-2.03382,1.04156c6.07349,0,29.92139-1.13757,47.17456-1.91455L350,88.20465c-3.11169.11115-5.24976.59894-8.36145.59894A83.72475,83.72475,0,0,0,329.19189,90.13715Z"/><path class="b" d="M222.98511,62.17383c4.04809,0,9.71533-1.34937,14.573-2.42883s6.4768-.251,7.0166-1.07-1.88916-.81909-3.5083-.68415-7.5564.94452-10.52491,1.48426-6.61181.33819-10.25512.57391-26.85205-.16907-29.41577.9104C187.84473,62.23346,218.937,62.17383,222.98511,62.17383Z"/><path class="b" d="M126.43066,172.99127c-3.11169.11115-9.77954-.44452-12.89123-.44452a83.726,83.726,0,0,0-12.44666,1.33356c-4.55639.77789-23.33764,1.22247-24.33777,1.22247a3.59279,3.59279,0,0,0-2.03381,1.04157c8.64722,0,53.32422-2.30591,63.70081-2.59418l10.37658-.28821s-1.03076-.71521-4.03125-.71521S129.54224,172.88013,126.43066,172.99127Z"/><path class="b" d="M350,33.54651V31.60077s-25.9436,1.29712-29.511,1.94574C316.92188,34.19507,350,33.54651,350,33.54651Z"/><path class="b" d="M81.70544,150.84674c10.5387,1.00366,23.63685-1.84009,23.63685-1.84009C100.70874,149.00665,76.54053,150.35486,81.70544,150.84674Z"/><path class="b" d="M137.72852,154.25928c-22.82911.78711-42.54493,1.46679-52.11133,1.46679-21.56055,0-26.33692-.22949-36.80371-.73291-1.66309-.08007-3.4668-.1665-5.502-.26025C28.74805,154.06348.334,153.13965.04883,153.13037L0,154.62939V156.13c1.05737.03443,28.83569.941,43.17285,1.6,2.0332.09326,3.835.17969,5.4961.25977,10.5166.50537,15.3164.73632,36.94824.73632,9.61816,0,29.35742-.68066,52.21386-1.46875,35.51563-1.22461,79.71875-2.74755,97.44532-1.978,28.51855,1.23974,113.86133,1.44287,114.7207,1.44482l.00293-1.5v-1.5c-.93311-.00214-86.14856-.20514-114.59277-1.44189C217.56055,151.50439,175.14844,152.96826,137.72852,154.25928Z"/><path class="b" d="M158.292,179.64319c4.0481,0,9.71533-1.34937,14.573-2.42883s6.47693-.251,7.0166-1.07-1.889-.81909-3.5083-.68414-7.55627.94451-10.5249,1.48425-6.61182.33813-10.255.57391-26.852-.16907-29.41589.9104C123.15173,179.70282,154.244,179.64319,158.292,179.64319Z"/><path class="b" d="M306.00293,110.855c-11.2627.22461-24.02637.48-36.24219.22949-18.44433-.37695-35.74316-1.46-44.05664-1.98047-3.82422-.23925-5.168-.32568-5.5957-.30273-1.82422.07617-4.085.4165-6.70215.81055a119.02624,119.02624,0,0,1-18.84473,1.666h-.01562c-6.7207-.001-32.66309-.34961-55.55176-.65722-19.14941-.25733-35.68848-.4795-39.26367-.4795-7.86084,0-98.53662.66877-99.73047.67768v1.50006l.01074,1.5c.918-.00684,91.85742-.67774,99.71973-.67774,3.55566,0,20.88086.23291,39.22363.4795,22.89746.30761,48.85059.65625,55.5918.65722h.01465a123.3573,123.3573,0,0,0,19.293-1.69922c2.53125-.38134,4.71777-.71093,6.376-.77978.33887-.019,2.52832.12646,5.28711.29931,2.51782.15754,5.86878.36689,9.8147.59241l-5.71216,3.84473a.16775.16775,0,0,0,.15747.29431l9.51831-3.91925c8.58142.46265,19.27442.94586,30.40528,1.17316,12.27832.2539,25.07421-.00293,36.3623-.229,6.55176-.13086,12.74023-.25439,17.84961-.25439,24.27637,0,26.06738.00732,26.08105.00732l.00684-1.5v-1.5c-.13184-.00049-2.50732-.00732-26.08789-.00732C318.77344,110.6001,312.57031,110.72412,306.00293,110.855Z"/><path class="b" d="M320.10693,87.59192c-3.261-1.42676-22.41967-2.03815-33.42578-1.42676s-15.08227,1.01911-11.41357,1.42676S322.72778,88.73853,320.10693,87.59192Z"/><path class="b" d="M286.13135,145.356c-4.63343,0-28.80176,1.3482-23.63672,1.84008C273.0332,148.19971,286.13135,145.356,286.13135,145.356Z"/><path class="b" d="M98.39587,145.28931c1.61927-.135,7.55628-.94458,10.52491-1.48432s6.61181-.33813,10.255-.57385,26.852.16907,29.41589-.9104c3.02576-1.274-28.06652-1.21442-32.1145-1.21442s-9.71533,1.34937-14.573,2.42884-6.47692.251-7.0166,1.07S96.77661,145.42426,98.39587,145.28931Z"/></svg>