<svg xmlns="http://www.w3.org/2000/svg" viewBox="0 0 350 56"><defs><style>.a{fill:#131112;}.b{fill:none;stroke:#0c0b0b;stroke-miterlimit:10;stroke-width:3px;}.c{fill:#0c0b0b;}</style></defs><path class="a" d="M307.64081,1.82544c-23.01361-.353-54.02424,1.01178-66.89571,1.01178S136.59818,4.14734,125.67644,4.18073,96.22612,2.83722,90.76574,2.61609s-16.66935-.414-20.57-.02706S60.49509,4.25544,56.61187,4.18134C52.49856,4.10285,1.34909,2.83722-2.53191,2.83722v50s34.7329.654,43.94952,1.19184,65.60154-1.19184,101.11208-1.19184,140.03606,1.39924,207.72563,1.29554V2.83722S330.65466,2.17841,307.64081,1.82544Z"/><path class="b" d="M0,2.83724c3.8504,0,54.59563,1.26561,58.67657,1.34409,3.85245.07409,8.45106-1.07074,12.32087-1.45772s16.14594-.32863,21.56315-.1075,23.79935,1.598,34.63483,1.56462S228.58508,2.83724,241.35494,2.83724s43.53541-1.36478,66.36731-1.01179S350,2.83724,350,2.83724"/><path class="b" d="M0,52.83724s34.45848.654,43.60232,1.19182,65.08331-1.19182,100.31322-1.19182,138.92883.11752,206.0836.01382"/><path class="c" d="M17.509,13.4033c8.31238.2309,21.47364-.11545,25.05258-.57725a116.50367,116.50367,0,0,1,15.781-.22748s-7.584,1.10913-10.70118,1.61288-11.77587.34635-18.01015.4618A55.58268,55.58268,0,0,1,17.509,13.4033Z"/><path class="c" d="M269.45229,47.22674c8.31238.2309,21.47364-.11545,25.05258-.57725a116.50387,116.50387,0,0,1,15.781-.22749s-7.584,1.10913-10.70118,1.61289-11.77587.34634-18.01016.46179A55.583,55.583,0,0,1,269.45229,47.22674Z"/><path class="c" d="M289.865,44.222c-8.31558.00813-21.46145.73266-25.02564,1.29714a116.50436,116.50436,0,0,1-15.76791.681s7.549-1.32667,10.6504-1.91982,11.76105-.6847,17.98944-.9793A55.58258,55.58258,0,0,1,289.865,44.222Z"/><path class="c" d="M10.82759,18.149c5.32466.09509,16.06908-1.99675,18.06583-1.80658a12.787,12.787,0,0,0,2.69789.079,8.32964,8.32964,0,0,1-2.88806.81975c-2.37708.43242-9.22308,1.38325-12.551,1.57342A12.77917,12.77917,0,0,1,10.82759,18.149Z"/><path class="c" d="M222.9655,18.149c5.32467.09509,16.06908-1.99675,18.06583-1.80658a12.787,12.787,0,0,0,2.69789.079,8.32964,8.32964,0,0,1-2.88806.81975c-2.37708.43242-9.22308,1.38325-12.551,1.57342A12.7792,12.7792,0,0,1,222.9655,18.149Z"/><path class="c" d="M70.2737,30.14141S83.08839,30.27563,87.762,28.768s16.13143-4.07055,19.14666-2.7137,10.101,2.7137,14.02078,3.01522a14.87678,14.87678,0,0,0,6.25638-.6547s.92858.15-.54968.59994a23.49853,23.49853,0,0,1-7.64837,1.1297c-3.40643-.10135-8.2911-1.92108-12.01889-2.23238s-12.79014,1.19478-17.35346,2.24135S72.14177,30.56105,70.2737,30.14141Z"/><path class="c" d="M79.7809,31.70045c-3.22255-.17577,8.31989-.34412,11.15768-.97825A61.041,61.041,0,0,1,99.452,29.44312s-4.64366,1.16092-7.35246,1.74137A62.686,62.686,0,0,1,79.7809,31.70045Z"/><path class="c" d="M116.30047,32.5824c-5.69708.82253-11.28867,3.77658-14.13721,4.40959a20.41,20.41,0,0,1-10.65565-1.17054,31.57371,31.57371,0,0,0-7.59612-1.678s5.80259,2.25533,7.49061,3.13219,8.96764,2.4594,12.55469,1.40438A27.93508,27.93508,0,0,0,111.4474,35.304C113.55743,34.03794,116.30047,32.5824,116.30047,32.5824Z"/><path class="c" d="M104.94928,30.15682c-5.20874.29059-8.84082,1.65747-10.07861,2.72955s5.39295,3.10547,7.60315,1.60248c.184-.12506.36853-.22418.55286-.32855-.07361-.19306-.35192-.29988-.7641-.40392a9.32572,9.32572,0,0,0-2.69227-.18209c.24531-.29788,3.1735-1.84687,7.21418-.8886a3.54788,3.54788,0,0,0,1.34753-.86145C109.28132,30.54512,106.9715,30.044,104.94928,30.15682Z"/><path class="c" d="M153.306,30.7222c-12.00165.18167-35.01851,5.27826-39.29307,6.92233A151.26987,151.26987,0,0,1,99.452,41.91909c-.4,0,8.97113-.98644,13.57451-1.97288s10.93566-3.59787,21.29869-5.8505C143.96956,31.99928,153.306,30.7222,153.306,30.7222Z"/><path class="c" d="M157.24747,32.71936c3.59714-1.60373-18.77337,2.303-21.70671,3.0614C135.54076,35.78076,149.22968,36.294,157.24747,32.71936Z"/><path class="c" d="M247.748,4.18477c4.19247,1.20037,13.07063,2.18684,14.67363,2.43345,0,0-9.00147-3.33869-10.35786-3.64227S247.748,4.18477,247.748,4.18477Z"/><path class="c" d="M350,39.02s-20.18856-1.7665-23.8002-2.00114-12.72672,0-12.72672,0L350,40.91178Z"/><path class="c" d="M0,39.02s7.213.26456,10.82759.449c3.79134.19348,14.49755,4.0632,14.49755,4.0632L12.87756,41.46834,0,40.91178Z"/></svg>