<?xml version="1.0" encoding="utf-8"?>
<!-- Generator: Adobe Illustrator 24.2.0, SVG Export Plug-In . SVG Version: 6.00 Build 0)  -->
<svg version="1.1" xmlns="http://www.w3.org/2000/svg" xmlns:xlink="http://www.w3.org/1999/xlink" x="0px" y="0px"
	 viewBox="0 0 1009 362.2" style="enable-background:new 0 0 1009 362.2;" xml:space="preserve">
<style type="text/css">
	.st0{fill:#DDCDBA;}
	.st1{fill:#C6B1A3;}
	.st2{fill:#C6B6AF;}
</style>
<g id="schedule-mountiains">
</g>
<g id="schedule-fog">
	<path class="st2" d="M1009,201.8c-1-0.2-1.6-0.3-1.6-0.3s5.9-25.1-30.8-64.2c-36.7-39.1-78.9-15.3-78.9-15.3
		c-53.2-85.7-108.8-43.2-108.8-43.2s-3.2-13.3-30-13.3c-26.8,0-36.9,21.9-36.9,21.9c-116.1-36.6-143.6,61.2-143.6,61.2
		c-11.5-24.7-51.5-15.8-51.5-15.8c15.8-58.2-30.1-58.8-30.1-58.8s7.7-25.9-21.1-52.7c-47.7-40.2-84.5,5.7-84.5,5.7
		c-29.5-40.1-75.9-8.5-75.9-8.5S307.2,0,252.4,0c-54.8,0-68.3,50.2-68.3,50.2s-41.3-23.4-91,2.5c-49.8,25.9-36.5,81.2-36.5,81.2
		c-45.9,4.8-55,37.5-56.5,55.6v123.7c9.6,0.1,16.7-3,16.7-3c28.4,36.5,58,18.4,58,18.4s1.7,5.7,16,5.7s19.7-9.3,19.7-9.3
		c8.7,2.2,16.5,3.3,23.4,3.5c38.2,10.4,69.6,0.2,69.6,0.2s3,5.2,26.7,5.6c0,4.2,1.8,11.4,11.7,18.9c25.4,17.2,45.1-2.4,45.1-2.4
		c15.7,17.1,40.5,3.6,40.5,3.6s4.4,7.8,33.6,7.8c29.2,0,36.4-21.4,36.4-21.4s22,10,48.6-1.1c11.2-4.7,16.4-11.6,18.7-18
		c7.9,8.9,30.8,9,30.8,9s-7.7,11,21.1,22.5c47.7,17.2,84.5-2.4,84.5-2.4c29.5,17.1,75.9,3.6,75.9,3.6s8.2,7.8,63,7.8
		c17.3,0,30.5-2.1,40.4-5.1c21.9,9.6,37.9-6.4,37.9-6.4c15.7,17.1,40.5,3.6,40.5,3.6s4.4,7.8,33.6,7.8c29.2,0,36.4-21.4,36.4-21.4
		s22,10,48.6-1.1c26.5-11.1,19.5-34.6,19.5-34.6c4.8-0.4,8.8-1.3,12.2-2.4V201.8z"/>
</g>
</svg>
