<?xml version="1.0" encoding="utf-8"?>
<!-- Generator: Adobe Illustrator 24.2.0, SVG Export Plug-In . SVG Version: 6.00 Build 0)  -->
<svg version="1.1" id="schedule-mountiains" xmlns="http://www.w3.org/2000/svg" xmlns:xlink="http://www.w3.org/1999/xlink"
	 x="0px" y="0px" viewBox="0 0 1200 290.4" style="enable-background:new 0 0 1200 290.4;" xml:space="preserve">
<style type="text/css">
	.st0{fill:#DDCDBA;}
	.st1{fill:#C6B1A3;}
</style>
<g>
	<path class="st0" d="M989.2,0c-51.4,0-178.6,71.1-211.3,95c-32.8,24-60.5-34-204.2-34c-59,0-150.7,38.7-238.3,84.2
		c0,0-95.9-73.4-173-83.3C85.1,52,0,123.2,0,123.2v167.2h92h243.3H1200l0-167.2C1104.4,59.4,1012,0,989.2,0z"/>
	<path class="st1" d="M1045.6,290.4h-301H573.1H92c0,0,171.5-116.5,322.1-183.4c-38,38.5-27.4,71.4,25,92.4
		c38.2,15.3,105.4,35.6,167,53.2c36.1-40,97.4-104,160.7-152.5c3.7-0.8,7.3-2.4,11-5.1c16.5-12,56.7-35.9,99.2-56.8
		c-0.1,0.1-85.8,66.9-64.4,107C834.2,185.3,1012.6,175.8,1045.6,290.4z M0,123.2V210V123.2c10.5,6.8,20.3,13.4,29.7,19.8
		c21-31.1,55.9-64.8,112.9-81.9C71.3,63.5,0,123.2,0,123.2z"/>
</g>
</svg>
