<?xml version="1.0" encoding="utf-8"?>
<!-- Generator: Adobe Illustrator 24.1.2, SVG Export Plug-In . SVG Version: 6.00 Build 0)  -->
<svg version="1.1" id="Layer_1" xmlns="http://www.w3.org/2000/svg" xmlns:xlink="http://www.w3.org/1999/xlink" x="0px" y="0px"
	 viewBox="0 0 1200 1200" style="enable-background:new 0 0 1200 1200;" xml:space="preserve">
<style type="text/css">
	.st0{fill:url(#SVGID_1_);}
</style>
<linearGradient id="SVGID_1_" gradientUnits="userSpaceOnUse" x1="600" y1="-52.4468" x2="600" y2="1176.5968">
	<stop  offset="0.1458" style="stop-color:#000000;stop-opacity:0"/>
	<stop  offset="1" style="stop-color:#000000"/>
</linearGradient>
<polygon class="st0" points="1186.9,1186.7 1121,1182.9 1051.6,1192.6 982.2,1193.5 912.7,1189 843.3,1179 773.9,1182 704.5,1199.4 
	635.1,1195.8 565.6,1198.4 496.2,1195.9 426.8,1180.3 357.3,1200 287.9,1190.2 218.5,1190.8 149.1,1191.5 79.6,1184.2 8.8,1191.6 
	14.3,1120.8 12.7,1051.4 3.4,982 0,912.5 18.9,843.1 0.3,773.7 13.6,704.3 14.9,634.8 10.3,565.4 16.6,496 4.1,426.6 11.8,357.1 
	0.8,287.7 19.7,218.3 4.6,148.9 17.9,79.4 9.5,9.3 79.6,16.6 149,14.6 218.5,2.8 287.9,6.1 357.3,18.4 426.7,3 496.2,17.6 
	565.6,0.2 635,2.3 704.4,12.5 773.9,0 843.3,4.2 912.7,16.5 982.1,11.2 1051.6,15.4 1121,11.8 1195.3,5.1 1185.9,79.4 1195.7,148.8 
	1194.7,218.3 1187.2,287.7 1178.7,357.1 1183.3,426.5 1190.1,496 1183.8,565.4 1191.7,634.8 1197.5,704.2 1180.1,773.7 
	1198.8,843.1 1182,912.5 1200,981.9 1191.9,1051.4 1185.2,1120.7 "/>
</svg>
