<svg xmlns="http://www.w3.org/2000/svg" viewBox="0 0 300 300"><defs><style>.a{fill:#fff;}</style></defs><path class="a" d="M41.73364,37.39944c.62814,13.31029,18.609,24.13775,26.35214,31.546,15.09026,17.66484,45.51154,35.81441,63.90228,49.76932,10.071,6.39435,30.36794,25.02715,39.52849,26.40815-16.142,12.82067-14.2205,17.40662-26.50838,28.05151-16.19352,9.76782-16.05054,9.76844-30.209,23.25926q-2.30845,1.43493-4.65738,2.89252a5.05124,5.05124,0,0,0-2.35607,3.73515l-1.44,13.08856a1.80591,1.80591,0,0,1-2.57867,1.42957l-10.27156-4.9467a5.04126,5.04126,0,0,0-4.93388.30846c-12.73877,8.27643-25.40165,17.12666-36.67933,26.783C20.20206,267.211,58.4672,318.5637,93.207,293.12667c24.15429-23.7666,46.4894-39.33266,76.39362-55.2806,13.56095-10.88607,31.70271-28.52477,42.48644-40.29838,17.57476-9.58983,48.79052-18.6328,47.77022-46.59206,1.04013-12.54629-8.44513-26.86047-17.26587-34.04479a6.627,6.627,0,0,0-5.173-1.39976l-7.328-.52351-6.31462.38467-4.21386-1.64665,5.57373-9.84693a.9978.9978,0,0,0-.18586-1.22475c-1.44431-1.33515-2.96216-2.64539-4.53329-3.93383l-4.50993,1.651-.9135-1.97135-.3947-4.17724c-15.52065-11.35753-34.46811-20.80413-46.26154-28.68164-6.89023-3.38814-23.49877-18.24782-27.84781-23.51426C122.80527,33.82512,113.6138,18.87512,96.0736,6.32982,73.54216-10.88537,38.0159,9.52579,41.73364,37.39944Z"/></svg>