<?xml version="1.0" encoding="utf-8"?>
<!-- Generator: Adobe Illustrator 24.2.1, SVG Export Plug-In . SVG Version: 6.00 Build 0)  -->
<svg version="1.1" id="Capa_1" xmlns="http://www.w3.org/2000/svg" xmlns:xlink="http://www.w3.org/1999/xlink" x="0px" y="0px"
	 viewBox="0 0 473 473" style="enable-background:new 0 0 473 473;" xml:space="preserve">
<style type="text/css">
	.st0{fill:#FFFFFF;}
</style>
<g>
	<path class="st0" d="M467.7,229.3l-139.3-42.5l36.4-68.5c1.5-2.9,1-6.5-1.3-8.8s-5.9-2.9-8.8-1.3l-68.5,36.4L243.7,5.3
		c-1-3.2-3.9-5.3-7.2-5.3s-6.2,2.2-7.2,5.3l-42.5,139.3l-68.5-36.4c-2.9-1.5-6.5-1-8.8,1.3s-2.9,5.9-1.3,8.8l36.4,68.5L5.3,229.3
		c-3.2,1-5.3,3.9-5.3,7.2s2.2,6.2,5.3,7.2l139.3,42.5l-36.4,68.5c-1.6,2.9-1,6.5,1.3,8.8c1.4,1.4,3.4,2.2,5.3,2.2
		c1.2,0,2.4-0.3,3.5-0.9l68.5-36.4l42.5,139.3c1,3.2,3.9,5.3,7.2,5.3s6.2-2.2,7.2-5.3l42.5-139.3l68.5,36.4c1.1,0.6,2.3,0.9,3.5,0.9
		c1.9,0,3.9-0.8,5.3-2.2c2.3-2.3,2.9-5.9,1.3-8.8l-36.4-68.5l139.3-42.5c3.2-1,5.3-3.9,5.3-7.2S470.8,230.3,467.7,229.3z
		 M236.5,303.8c-37.1,0-67.3-30.2-67.3-67.3s30.2-67.3,67.3-67.3s67.3,30.2,67.3,67.3S273.6,303.8,236.5,303.8z M154.5,229H57.7
		l107-32.7C159.2,206.2,155.6,217.2,154.5,229z M154.5,244c1.1,11.8,4.6,22.8,10.1,32.7L57.7,244H154.5z M229,318.5v96.8l-32.7-107
		C206.2,313.8,217.2,317.4,229,318.5z M244,318.5c11.8-1.1,22.8-4.6,32.7-10.1l-32.7,107L244,318.5L244,318.5z M318.5,244h96.8
		l-107,32.7C313.8,266.8,317.4,255.8,318.5,244z M318.5,229c-1.1-11.8-4.6-22.8-10.1-32.7l107,32.7H318.5z M340.1,132.9l-26.3,49.4
		l-17.7-5.4l-5.4-17.7L340.1,132.9z M132.9,132.9l49.4,26.3l-5.4,17.7l-17.7,5.4L132.9,132.9z M132.9,340.1l26.3-49.4l17.7,5.4
		l5.4,17.7L132.9,340.1z M340.1,340.1l-49.4-26.3l5.4-17.7l17.7-5.4L340.1,340.1z"/>
	<path class="st0" d="M236.7,186.6c-0.1,0-0.2,0-0.3,0c-12.8,0-24.9,5-34,14c-9.1,9.1-14.2,21.2-14.2,34.1v24c0,4.1,3.4,7.5,7.5,7.5
		c5.5,0,10,4.5,10,10v2.5c0,4.1,3.4,7.5,7.5,7.5h46.6c4.1,0,7.5-3.4,7.5-7.5v-2.5c0-5.5,4.5-10,10-10c4.1,0,7.5-3.4,7.5-7.5v-24
		c0-12.9-5-25-14.2-34.1C261.5,191.6,249.5,186.6,236.7,186.6z M269.8,252.5c-8.6,2.7-15.2,9.9-17,18.9h-32.6
		c-1.8-9-8.4-16.2-17-18.9v-17.6c0-8.9,3.5-17.2,9.8-23.5c6.3-6.2,14.6-9.7,23.5-9.7c0.1,0,0.2,0,0.2,0c8.8,0,17.1,3.4,23.4,9.7
		s9.8,14.6,9.8,23.5L269.8,252.5L269.8,252.5z"/>
	<path class="st0" d="M226.9,236c-2.6-6.1-11.5-6-13.9,0.1c-1.2,3-0.2,6.6,2.4,8.6c2.3,1.8,5.6,2.1,8.2,0.7
		C226.9,243.7,228.4,239.5,226.9,236C226.7,235.5,227.1,236.4,226.9,236z"/>
	<path class="st0" d="M259.2,234.7c-1.7-2.6-4.9-3.8-7.9-3.2c-3.2,0.7-5.7,3.6-5.8,6.9c-0.3,6.7,8,10.4,12.8,5.7
		C260.8,241.7,261.2,237.6,259.2,234.7C259,234.3,259.5,235.1,259.2,234.7z"/>
	<path class="st0" d="M243.4,250.3c-2.6-6.1-11.5-6-13.9,0.2c-2.5,6.5,4.8,12.7,10.8,9.2C243.5,257.8,244.8,253.7,243.4,250.3
		C243.2,249.8,243.6,250.7,243.4,250.3z"/>
</g>
</svg>
