<svg xmlns="http://www.w3.org/2000/svg" viewBox="0 0 200 200"><defs><style>.a{fill:#ba9365;}</style></defs><path class="a" d="M92.19707,19.22563c11.988,6.00206,17.25251,25.37189,4.39654,42.80064-9.791,13.27365-17.9483,14.27345-15.87144,22.19652S91.083,113.172,91.083,113.172l.09314-.03694a139.67139,139.67139,0,0,1,14.56325-5.77364l.07375-.0292s-4.92182-11.854-7.44017-18.29539,21.66248-21.742,23.423-47.56474S111.97521,2.84773,89.53933.5393,40.9862,2.95512,31.55223,22.091c-8.16479,16.56136-3.61866,31.52567,1.90764,37.75678a1.44357,1.44357,0,0,0,2.538-.87648c.30689-8.04157,2.35489-29.81014,16.1322-37.04992C68.35543,13.39524,79.65235,12.94483,92.19707,19.22563Z"/><path class="a" d="M176.31383,146.56131c-1.71157-1.51754-7.4323-.46767-7.4323-.46767L71.974,175.012l-4.9624,1.53978a3.0295,3.0295,0,0,0-1.95447,3.92727c2.14655,5.918,6.95778,18.614,8.96288,19.29679.81521.27763,6.80716-2.08277,21.13644-6.218L98.484,185.6438a.21283.21283,0,0,1,.40057-.13136l3.34959,6.8331c.91678-.266,1.85021-.53765,2.79139-.81213l1.45986-3.23823a1.26015,1.26015,0,0,1,1.47923-.69815l5.43856,1.47773c2.16568-.63792,2.207-.65313,4.437-1.31579l.37286-2.99513a.52524.52524,0,0,1,.67347-.4378l5.19163,1.57237c27.98829-8.37834,57.43691-17.59121,58.25712-18.412C183.88786,165.93277,178.0254,148.07886,176.31383,146.56131Z"/><path class="a" d="M166.91958,140.09435c-2.1438-6.22516-5.75079-15.75574-9.32586-20.91321-16.46253-23.74951-58.83246-6.666-80.90381,6.77734-16.42865,10.0066-11.01349,32.2909-7.1706,43.033ZM72.2825,162.401c-1.22766-.6-1.15338-3.22547,0-4.10987.94018-.72094,2.55456-.33654,2.94354,1.55243A2.27,2.27,0,0,1,72.2825,162.401Zm-2.8147-15.47894c.33386-6.52527,1.8241-10.01319,4.98846-13.51032,0,0,4.13086-4.80811,5.08875-1.79925s-5.49957,7.41363-6.185,13.99261-.06946,10.64111-1.08508,10.787S69.13394,153.44725,69.4678,146.92205Z"/></svg>