<svg xmlns="http://www.w3.org/2000/svg" viewBox="0 0 200 200"><defs><style>.a{fill:#d3c7b6;}.b{fill:#63362f;}.c{fill:#a59f93;}</style></defs><path class="a" d="M27.59931,31.15966s-.7361,5.1314,2.1872,6.40661S36.552,33.27649,36.552,33.27649s-3.9402,9.6462-1.08325,18.00675,12.75668,5.69085,13.813-1.15722,14.44727,1.53634,13.03187-8.22133a26.12262,26.12262,0,0,0,3.0343-.14815,17.34924,17.34924,0,0,1,.46437-2.67053C66.87739,34.95919,69.93306,29.33885,78.443,26.002a30.588,30.588,0,0,1,11.19805-2.16775A29.06783,29.06783,0,0,1,100.2005,25.8141c-1.42024-3.22825-5.1287-4.117-6.78947-3.55914,0,0-1.70317-9.35918-7.40406-7.86774S79.407,19.60678,79.407,19.60678s-3.44989-8.64889-9.72509-9.19637S60.9238,13.207,60.9238,13.207c-4.61139-3.782-12.76138-4.61534-17.66721-1.25721a18.04837,18.04837,0,0,0-18.335-2.62784C14.08646,13.5705,21.28314,22.255,21.28314,22.255s-7.78214-.7069-6.05835,6.0135S27.59931,31.15966,27.59931,31.15966Z"/><path class="b" d="M56.967,51.64174c.21976,0,.46949-.00027.74073-.00525-.14233,17.3442-.28474,31.48092-.42707,45.95766-.12054.00027-.2408.002-.36141.002a139.02183,139.02183,0,0,1-23.72085-2.039C34.69794,84.108,36.23553,72.5327,37.98,60.2734a10.75259,10.75259,0,0,0,3.97549.7579,12.07641,12.07641,0,0,0,11.6481-9.37738c.26848-.02048.6366-.03543,1.14034-.03543.34487,0,.69306.00609,1.04181.01108C56.18149,51.63621,56.57673,51.64174,56.967,51.64174ZM26.40257,146.132A145.89542,145.89542,0,0,0,48.97021,148.107c1.46369,0,2.937-.04428,4.40609-.08587,1.11149-7.66783,2.34047-15.99787,3.6392-23.673.04387-6.15812.08774-12.31991.13161-16.95518-.47164.00519-.94306.0101-1.40937.0101a115.65092,115.65092,0,0,1-24.25-2.76374C29.89722,116.79072,28.27113,133.06073,26.40257,146.132ZM61.90306,58.32015c-.09653-.37642-.17444-.74309-.24634-1.1065-.09334,13.61823-.11867,26.9866-.13493,40.32154.24973-.00629.49676-.01792.74607-.02511,2.05773-12.03774,3.927-22.93362,5.219-30.45469A16.03385,16.03385,0,0,1,61.90306,58.32015ZM12.93221,90.29388c.813.29851,1.81216.64767,2.9662,1.02569l2.08168-5.679,1.504,6.78331c.898.25976,1.87645.52519,2.89072.79139l2.66479-2.93805,1.36294,3.70584a27.779,27.779,0,0,0,2.83044.83339c1.59628-12.163,3.22182-24.39481,5.01481-37.02092a13.14142,13.14142,0,0,1-3.07027-5.04615,26.70252,26.70252,0,0,1-1.18961-10.49558,6.78232,6.78232,0,0,1-2.015-.53087,8.00051,8.00051,0,0,1-4.39585-5.05681c-.55709.05923-1.1364.09224-1.72242.10414-1.69148,9.83836-5.39143,31.38571-9.10543,53.19524A.29.29,0,0,0,12.93221,90.29388Zm37.8121,75.45592c.31076-1.90031.6602-4.20113,1.04326-6.79465A151.08935,151.08935,0,0,1,4.1834,152.40247a.71342.71342,0,0,0-.92307.56955c-.39835,2.525-.64185,4.17443-.68905,4.71055-.43883,4.98693,11.80151,11.741,48.27184,12.5848A12.35411,12.35411,0,0,1,50.74431,165.7498ZM5.01645,141.51663c2.30995.64463,8.90152,2.39818,17.39319,3.93467,1.84642-12.8984,3.50261-29.34922,5.129-41.73a139.78129,139.78129,0,0,1-16.56928-5.19222.29441.29441,0,0,0-.39552.23346c-2.49409,14.7017-4.80861,32.45817-6.302,41.58707A1.03031,1.03031,0,0,0,5.01645,141.51663Z"/><path class="a" d="M83.56119,55.60476s-.7361,5.1314,2.1872,6.40661,6.76553-4.28978,6.76553-4.28978-3.9402,9.6462-1.08326,18.00675,12.75668,5.69085,13.813-1.15722,14.44727,1.53634,13.03187-8.22133c0,0,11.41519.29276,11.428-5.53142l.01287-5.82412s1.49331,6.34011,8.01817,5.82412,8.09761-3.82825,8.09761-3.82825,9.68668,4.56317,10.77581-2.29231-4.97578-8.75662-7.23508-7.99775c0,0-1.70318-9.35918-7.40406-7.86774s-6.59994,5.21956-6.59994,5.21956-3.44988-8.64889-9.72508-9.19637-8.75815,2.79654-8.75815,2.79654c-4.6114-3.782-12.76139-4.61534-17.66721-1.25721a18.0484,18.0484,0,0,0-18.335-2.62784C70.04834,38.0156,77.245,46.70006,77.245,46.70006s-7.78215-.7069-6.05835,6.0135S83.56119,55.60476,83.56119,55.60476Z"/><path class="b" d="M137.63238,65.35766c-.21444.00976-.43324.02547-.64006.02547a12.13357,12.13357,0,0,1-3.73988-.5663c-1.68727,3.1055-5.46811,5.17084-10.78233,5.83678a7.42181,7.42181,0,0,1-1.44867,2.578,7.6448,7.6448,0,0,1-3.26721,2.19239c-.01847,1.36779-.037.49274-.05542.01855l-.0301.0101c-.00623.24966-.01239.70365-.01862,1.47061-.12386,15.27028-.14828,30.17527-.16641,45.05708a235.98194,235.98194,0,0,0,25.10206-2.07Q140.109,92.634,137.63238,65.35766Zm14.2713-2.3449a17.8552,17.8552,0,0,1-4.83206-.7534,14.795,14.795,0,0,1-5.45137,2.508,2.28268,2.28268,0,0,1,.07584.39669l1.25009,13.76715c1.29769,14.292,2.53906,27.40689,3.77427,40.39323,6.861-1.02382,12.53186-2.12859,16.22815-2.91223a.29228.29228,0,0,0,.22468-.34328c-3.71857-20.82834-7.53484-41.9648-9.56435-53.1823A11.51716,11.51716,0,0,1,151.90368,63.01276Zm-.69355,104.1356c9.39253-1.824,16.71044-3.55581,19.22266-4.166a1.03381,1.03381,0,0,0,.78-1.18407c-1.38592-8.156-3.42255-23.75739-5.65584-36.341a.294.294,0,0,0-.34784-.24475c-3.96145.82274-10.09342,2.02363-17.24581,3.17857C149.02687,139.58654,150.09885,154.95826,151.21013,167.14836Zm-33.89155,4.90438a300.66136,300.66136,0,0,0,29.87-4.14267c-.31381-2.93431-.4605-2.37825-.8271-6.41643-.86114-9.48353-1.72221-22.96711-2.58328-32.45063-3.67912.55024-4.06032.65362-7.99339,1.09246l-2.542,7.44-3.84547-4.73034-2.54654,6.46639-2.108-8.03665c-2.44606.19541-4.883.35186-7.2775.44943C117.44707,143.72111,117.413,159.77607,117.31858,172.05274Zm-56.34025-6.091c2.31.64463,8.90152,2.39818,17.3932,3.93467,1.84641-12.8984,3.50261-29.34922,5.129-41.73a139.78159,139.78159,0,0,1-16.56929-5.19222.2944.2944,0,0,0-.39552.23346c-2.49408,14.7017-4.8086,32.45817-6.302,41.58707A1.03029,1.03029,0,0,0,60.97833,165.96173Zm52.69129-89.88014c-.27125.005-.521.00525-.74074.00525-.39026,0-.78551-.00553-1.1813-.01217-.34875-.005-.69694-.01108-1.04181-.01108-.50375,0-.87187.01495-1.14034.03543a12.07642,12.07642,0,0,1-11.6481,9.37738,10.75255,10.75255,0,0,1-3.97549-.7579c-1.74442,12.2593-3.282,23.83461-4.78155,35.2837a139.02173,139.02173,0,0,0,23.72085,2.03905c.1206,0,.24087-.00173.36141-.002C113.38488,107.56251,113.52728,93.42579,113.66962,76.08159ZM68.89409,114.739c.813.29851,1.81217.64767,2.96621,1.02569l2.08168-5.679,1.504,6.78331c.89795.25976,1.87645.52519,2.89071.79139l2.66479-2.93805,1.36295,3.70584a27.77815,27.77815,0,0,0,2.83044.83339c1.59627-12.163,3.22181-24.39481,5.01481-37.02092a13.14131,13.14131,0,0,1-3.07028-5.04615A26.70271,26.70271,0,0,1,85.94982,66.699a6.78226,6.78226,0,0,1-2.015-.53087A8.00045,8.00045,0,0,1,79.539,61.11127c-.5571.05923-1.1364.09224-1.72242.10414-1.69148,9.83836-5.39144,31.38571-9.10544,53.19524A.29.29,0,0,0,68.89409,114.739Zm42.80553,17.10915a115.65082,115.65082,0,0,1-24.25-2.76374c-1.59053,12.15143-3.21663,28.42144-5.08518,41.49275a145.8954,145.8954,0,0,0,22.56763,1.97491c2.01055,0,4.04656-.03986,6.05212-.11791q1.10913-.04317,2.239-.105c-.03508-4.00842-.37227-6.907-.33767-11.17148.07445-9.18086.149-21.45033.22343-29.31959C112.63736,131.84322,112.16593,131.84813,111.69962,131.84813Zm60.5537,42.52909a.71729.71729,0,0,0-.88985-.57889c-9.44547,2.51325-34.33662,8.50988-60.20281,9.517a151.818,151.818,0,0,1-51.01537-6.46778.71342.71342,0,0,0-.92307.56955c-.39836,2.525-.64186,4.17443-.68905,4.71055-.4688,5.32771,13.52932,12.67337,56.08775,12.67337s58.10708-13.04162,58.43382-14.82784C173.09543,179.75088,172.7992,177.728,172.25332,174.37722Z"/><path class="c" d="M160.70155,75.94141s27.27712-5.70306,32.75645,1.35569,6.35367,41.155.15759,50.15967-20.30841,13.159-20.30841,13.159l-2.38894-12.32807s13.54029,2.63583,16.861-9.36683,1.155-27.15561-2.31756-33.1503-22.21853.93232-22.21853.93232Z"/></svg>