<svg xmlns="http://www.w3.org/2000/svg" viewBox="0 0 200 200"><defs><style>.a{fill:#ba9365;}</style></defs><path class="a" d="M146.71945,78.98444l43.87768,11.761a.08308.08308,0,0,1,.00171.16l-9.87707,2.87988a.08169.08169,0,0,1-.04688-.00012L145.44143,83.3053a2.108,2.108,0,0,1-1.28747-2.95716l.131-.26409A2.10828,2.10828,0,0,1,146.71945,78.98444Zm-42.658-41.85773L99.24,30.4455l5.26635,3.77807,1.394-9.09515,2.36145,5.00574.61859,1.0061,1.71808-4.36859-.33954,6.6109.00012.00024.12225-.516,5.36548,1.27252a13.61172,13.61172,0,0,1,4.78613,2.18622c1.0929-1.15491,4.59-4.4975,8.63923-4.69037,4.89764-.23321,10.72833,2.9859,13.76025,2.54248s6.53033-.7951,6.53033-.7951l3.26508,14.81164s-6.76349,1.16608-9.329,1.3993-6.53027-3.03186-11.428-2.09894a20.9757,20.9757,0,0,0-5.79364,1.776L124.99514,71.9588l1.28125-1.05487-1.4934,6.75189-2.99738,19.11652a.2919.2919,0,0,1-.13538.20337l-7.52545,4.63507a.29206.29206,0,0,1-.44159-.29443l3.78748-23.88721L111.62179,59.861c1.20014-1.31921,1.78339-3.65393,1.13641-4.62341-.79345-1.189-1.436-2.08075-1.436-2.08075a4.44779,4.44779,0,0,0-.59448-2.67535,3.40583,3.40583,0,0,0-2.5174-.86774L104.0588,37.14392Zm6.40906-3.14948L123.84011,71.544l.1109.06933,1.22583-23.5285a12.59316,12.59316,0,0,0-9.67437-12.91419Zm53.71777,48.00025,7.25171,2.157v-4.795L174.182,71.895,171.44,75.24628V68.85083h-1.48267l-2.14325,7.37555-1.37591-5.00812h-2.24988v7.159l-4.20807-1.54913,4.20807,3.44177Zm35.55719,7.98774-.15192,1.92986a.55587.55587,0,0,1-.35564.4756l-5.70539,2.18138a.66051.66051,0,0,0,.19776,1.27637l4.73776.27393a.55593.55593,0,0,1,.52261.59191l-1.22748,18.44507-9.74536,2.23426-4.66687.75879a.42529.42529,0,0,0-.01966.83587l2.21253.46759a1.91149,1.91149,0,0,1,1.4673,2.3L183.174,138.3634c-2.26636.1839-4.73664,1.75226-4.59308,4.02143l-4.399,2.1947,2.36865,1.82721s.01166,4.398,3.57727,5.15649l-1.60591,6.95912a2.69274,2.69274,0,0,1-1.92625,1.99412c-8.46832,2.25945-11.92472,6.717-25.545,6.717-18.24152,0-18.24152-8-36.483-8-18.239,0-18.239,8-36.478,8-15.43165,0-17.811-5.72479-29.22325-7.48767a4.648,4.648,0,0,1-3.68055-3.10006c-3.67613-10.77986-16.80635-49.29252-16.80635-49.29252a.70745.70745,0,0,1,.82373-.91864l10.81391,2.41382a.2559.2559,0,0,0,.15478-.48572l-11.2698-4.73019a25.84194,25.84194,0,0,1-3.99472-2.10446L-.28843,85.295V83.8175l69.013,18.515a10.14706,10.14706,0,0,1,6.59254,5.5672L86.087,131.361a10.13968,10.13968,0,0,0,9.21511,5.90946h32.93639a10.13958,10.13958,0,0,0,9.106-5.67951l11.57361-23.62945a10.1473,10.1473,0,0,1,6.20788-5.25913l9.06232-2.70779V90.8363L171.44,92.84644V97.8277l27.76752-8.29706A.41923.41923,0,0,1,199.74551,89.96522ZM60.52493,118.63959a4.4542,4.4542,0,1,0-4.45423,4.4541A4.45419,4.45419,0,0,0,60.52493,118.63959Zm21.0216,29.42724L77.92709,149.299l1.07806-4.85168-6.7763,1.79858a5.33955,5.33955,0,0,0-5.17408,1.58722c-1.48144,1.5-2.11175,3.58838-1.16009,4.69867L60.906,158.401l5.42889-1.46728,1.19568,2.29974,2.38739-1.23218s3.92756,1.7713,6.39185-.92413a8.84224,8.84224,0,0,0,2.54144-5.15979Zm78.43372-18.43811a4.4542,4.4542,0,1,0-4.45416,4.45417A4.45417,4.45417,0,0,0,159.98025,129.62872Zm15.91394,0a4.45416,4.45416,0,1,0-4.45416,4.45417A4.45417,4.45417,0,0,0,175.89419,129.62872Zm-91.51288-7.40234a.3181.3181,0,0,1,.12421-.41l53.81024-32.08863a2.38146,2.38146,0,0,1,1.75726-.29248,2.97043,2.97043,0,0,1,2.07874,1.76935,3.36327,3.36327,0,0,1,.30151,2.28583,2.06872,2.06872,0,0,1-1.01477,1.25537L139.101,96.1347h.53021v20.58509a3.546,3.546,0,0,1-1.16742,2.81579,4.36311,4.36311,0,0,1-2.864.89978c-4.65509,0-12.87415-5.19006-14.16156-13.80627L87.06417,127.05273a.31815.31815,0,0,1-.4497-.13671Zm38.02936-16.175c.97669,8.3089,8.80109,13.32373,13.18915,13.32373a3.33689,3.33689,0,0,0,2.179-.64868,2.4937,2.4937,0,0,0,.79212-2.00665V96.44965ZM44.80715,94.28845l7.25171,1.84625V77.59576l2.74195-7.44439-2.74195,3.35119V67.10712H50.5762L48.433,74.48267,47.057,69.47455H44.80715v7.159l-4.20806-1.54907,4.20806,3.44178Zm74.13746,16.76874-7.80994,4.65582-.07306.11267-2.225,18.87537a.40393.40393,0,0,0,.40424.45117l6.43274-.04925a.4037.4037,0,0,0,.39734-.35114l3.102-23.53949A.15225.15225,0,0,0,118.94461,111.05719Zm51.3515,62.46576a36.81162,36.81162,0,0,1,17.2373-3.78955,2.5,2.5,0,0,0,0-5,41.52164,41.52164,0,0,0-19.24511,4.21045,36.81238,36.81238,0,0,1-17.2378,3.78955,36.81,36.81,0,0,1-17.2373-3.78955,41.52244,41.52244,0,0,0-19.24561-4.21045,41.51558,41.51558,0,0,0-19.24316,4.21045,36.7987,36.7987,0,0,1-17.23487,3.78955,36.80025,36.80025,0,0,1-17.23486-3.78955,41.51867,41.51867,0,0,0-19.24414-4.21045,2.5,2.5,0,1,0,0,5A36.801,36.801,0,0,1,58.84591,173.523a41.51807,41.51807,0,0,0,19.24365,4.21045A41.51647,41.51647,0,0,0,97.33322,173.523a36.798,36.798,0,0,1,17.23437-3.78955,36.8123,36.8123,0,0,1,17.23779,3.78955,41.52185,41.52185,0,0,0,19.24512,4.21045A41.52257,41.52257,0,0,0,170.29611,173.523ZM151.0505,188.48584a41.52185,41.52185,0,0,1-19.24512-4.21045,36.8123,36.8123,0,0,0-17.23779-3.78955,36.798,36.798,0,0,0-17.23437,3.78955,41.51647,41.51647,0,0,1-19.24366,4.21045,41.51807,41.51807,0,0,1-19.24365-4.21045,36.801,36.801,0,0,0-17.23535-3.78955,2.5,2.5,0,1,1,0-5,41.51867,41.51867,0,0,1,19.24414,4.21045,36.80025,36.80025,0,0,0,17.23486,3.78955,36.7987,36.7987,0,0,0,17.23487-3.78955,41.51558,41.51558,0,0,1,19.24316-4.21045,41.52244,41.52244,0,0,1,19.24561,4.21045,36.81,36.81,0,0,0,17.2373,3.78955,36.81238,36.81238,0,0,0,17.2378-3.78955,41.52164,41.52164,0,0,1,19.24511-4.21045,2.5,2.5,0,0,1,0,5,36.81162,36.81162,0,0,0-17.2373,3.78955A41.52257,41.52257,0,0,1,151.0505,188.48584Z"/></svg>