<svg xmlns="http://www.w3.org/2000/svg" viewBox="0 0 200 200"><defs><style>.a{fill:#7c6e61;}.b{fill:#43945f;}.c{fill:#427a53;}.d{fill:#c7d1b8;}.e{fill:#995652;}.f{fill:#894c4a;}.g{fill:#d3ceb8;}</style></defs><ellipse class="a" cx="102.06114" cy="163.13486" rx="67.01498" ry="8.40225"/><path class="b" d="M198.09586,64.6487a1.73746,1.73746,0,0,0-2.19953-2.3423c-4.25373,1.59657-11.99323,5.20421-22.51611,12.99693-9.036,6.69167-16.47855,17.271-21.38858,25.52348l3.5563,2.46692-5.15353.28652c-3.10681,5.49912-4.8447,9.42112-4.8447,9.42112l3.15568,7.348s19.36791-11.82468,30.58471-24.5167a79.15238,79.15238,0,0,0,6.38326-8.42478l-2.44288-4.27543,4.1567,1.62951q.276-.43914.54709-.87959l-3.28922-3.30814,4.71591.94481A185.83171,185.83171,0,0,0,198.09586,64.6487Z"/><path class="c" d="M179.3195,80.31355s-.21777-2.26333-3.80069-4.50625l2.83033,5.64612Z"/><path class="c" d="M177.9473,81.68908s-.27445-2.17386-3.78065-4.26725l2.84161,5.41185Z"/><path class="c" d="M176.48142,82.98087s-.33112-2.08437-3.7606-4.02824l2.85289,5.17757Z"/><path class="c" d="M175.06237,84.31453s-.38779-1.9949-3.74055-3.78923l2.86417,4.94329Z"/><path class="c" d="M173.64333,85.64818s-.44446-1.90541-3.7205-3.55022l2.87545,4.709Z"/><path class="c" d="M172.22428,86.98184s-.50113-1.81593-3.70045-3.31121l2.88673,4.47473Z"/><path class="c" d="M170.80524,88.3155s-.5578-1.72645-3.68041-3.0722l2.898,4.24045Z"/><path class="c" d="M169.3862,89.64916s-.61448-1.637-3.66036-2.8332l2.90929,4.00618Z"/><path class="c" d="M167.96715,90.98282s-.67114-1.5475-3.64031-2.59419l2.92057,3.77189Z"/><path class="c" d="M166.54811,92.31648s-.72782-1.458-3.62027-2.35519l2.93186,3.53762Z"/><path class="c" d="M165.23142,93.74163s-.78448-1.36853-3.60021-2.11617l2.94313,3.30334Z"/><path class="c" d="M163.93242,95.18259s-.84116-1.27906-3.58017-1.87717l2.95441,3.06906Z"/><path class="c" d="M162.63341,96.62354s-.89782-1.18957-3.56012-1.63816l2.96569,2.83479Z"/><path class="c" d="M161.33441,98.0645a5.62683,5.62683,0,0,0-3.54008-1.39915l2.977,2.6005Z"/><path class="c" d="M160.0354,99.50546a5.59244,5.59244,0,0,0-3.52-1.16015l2.98825,2.36623Z"/><path class="c" d="M158.7364,100.94641a5.56406,5.56406,0,0,0-3.5-.92113l2.99953,2.132Z"/><path class="d" d="M146.92213,116.19705s21.87874-29.66333,30.11411-36.5395,10.88771-9.14178,13.14494-10.69282.517.75241-1.87683,3.39422c-1.18486,1.30759-8.57682,7.53835-16.60291,16.15771C163.51191,97.31154,154.622,108.55966,146.92213,116.19705Z"/><path class="e" d="M177.953,28.83982a2.17311,2.17311,0,0,0-3.64586-1.69071c-4.19011,3.83878-11.48572,11.6387-20.05667,25.59428C146.89061,64.72714,143.195,80.4777,141.35137,92.34581l5.27833,1.20177-5.84588,2.73888c-1.037,7.83138-1.22216,13.19361-1.22216,13.19361l7.0927,7.0524S163.60554,93.7684,170.69392,73.8041a98.99836,98.99836,0,0,0,3.47259-12.756l-4.83089-3.8201,5.58393-.05024q.11523-.63843.22408-1.27606l-5.36124-2.30255,5.91308-1.10582A232.427,232.427,0,0,0,177.953,28.83982Z"/><path class="f" d="M162.58676,59.37556s-.3209-3.335-5.60035-6.64l4.17051,8.31961Z"/><path class="f" d="M161.90082,61.08279s-.36758-3.18417-5.46908-6.28257l4.09733,7.93288Z"/><path class="f" d="M161.21488,62.79s-.41427-3.0333-5.33781-5.92515l4.02414,7.54616Z"/><path class="f" d="M160.52893,64.49726s-.46094-2.88243-5.20653-5.56771l3.951,7.15942Z"/><path class="f" d="M159.843,66.2045s-.50763-2.73157-5.07526-5.21029l3.87777,6.7727Z"/><path class="f" d="M159.10431,67.89421s-.55432-2.58069-4.944-4.85285l3.80459,6.386Z"/><path class="f" d="M158.40782,69.598s-.601-2.42983-4.81271-4.49543l3.73139,5.99924Z"/><path class="f" d="M157.71133,71.30168s-.64768-2.279-4.68144-4.138l3.65821,5.61251Z"/><path class="f" d="M157.03346,73.01159s-.69437-2.12809-4.55017-3.78057l3.585,5.22578Z"/><path class="f" d="M156.35574,74.72156s-.74106-1.97722-4.4189-3.42314l3.51184,4.83905Z"/><path class="f" d="M155.72734,76.44791s-.78773-1.82635-4.28762-3.06571l3.43865,4.45232Z"/><path class="f" d="M155.0414,78.15515s-.83442-1.67549-4.15635-2.70829l3.36547,4.0656Z"/><path class="f" d="M154.35546,79.86238s-.8811-1.52461-4.02507-2.35085l3.29227,3.67886Z"/><path class="f" d="M153.66952,81.56962s-.92779-1.37375-3.8938-1.99343l3.21909,3.29214Z"/><path class="f" d="M152.98357,83.27685s-.97447-1.22287-3.76252-1.636l3.1459,2.9054Z"/><path class="f" d="M152.29763,84.98409a5.76922,5.76922,0,0,0-3.63125-1.27857l3.07272,2.51868Z"/><path class="f" d="M151.61169,86.69132a5.56406,5.56406,0,0,0-3.5-.92113l2.99953,2.132Z"/><path class="g" d="M141.91408,115.31549s11.71925-42.9474,18.064-54.77136,8.17982-17.37865,10.07463-20.23234.95123.63161-.59276,4.81472c-.76422,2.07047-6.43171,12.75172-11.71962,26.50059C152.34472,85.65594,147.282,102.85835,141.91408,115.31549Z"/><path d="M8.18474,120.2563c2.57706-1.24384,3.92827-1.34378,6.81668-.52322,6.96986,1.98,13.29187,5.699,20.627,6.40792,13.87292,1.34065,23.3347-8.53653,30.17426-19.2565,4.24959-6.6606,7.1316-14.37749,12.03773-20.56631,14.02435-17.69108,39.425-10.18958,47.33207,9.24124,2.93736,7.21831,4.62554,14.91675,9.42032,21.35708,8.65049,11.61927,23.95069,9.9217,35.9673,5.68007,6.28661-2.219,15.381-7.40776,22.1985-4.701a9.59564,9.59564,0,0,1,5.92251,6.45108,8.3424,8.3424,0,0,1,.1206,2.7399c1.668-4.63773,1.91544-9.84771-1.35283-15.02418-2.75092-4.357-20.8866,4.39066-31.10629,5.82785s-21.751-1.6417-27.56063-10.17138c-3.40589-5.00053-4.4683-11.17142-6.68173-16.81185a35.87634,35.87634,0,0,1-4.73884.4137c-1.01339-.01369-2.13044-1.12363-1.681-2.20677a50.26192,50.26192,0,0,1,2.614-5.33463,36.16023,36.16023,0,0,0-8.86308-8.88993,44.0141,44.0141,0,0,1-3.08808,4.3185c-.5156.586-1.28191-.06128-1.18126-.68763a39.08973,39.08973,0,0,0,.41937-5.98862,34.40779,34.40779,0,0,0-9.94152-3.48321A35.78265,35.78265,0,0,0,74.08464,79.181c-5.83483,6.02864-9.298,13.88726-13.3188,21.25088s-9.06725,14.70221-16.63479,18.3246c-11.16078,5.34231-24.33042,1.22239-35.98034-2.947l-1.8887.01891c-3.52265.58991-5.97187,4.17755-6.23276,7.73977A13.65792,13.65792,0,0,0,.9854,129.3523,13.37821,13.37821,0,0,1,8.18474,120.2563ZM128.41024,96.852l.1459-.34571c-.04531.10489-.08136.19277-.11337.27706a2.22187,2.22187,0,0,1,.60993-.9261,1.55255,1.55255,0,0,1,1.1997-.61605,2.13514,2.13514,0,0,1,1.392,3.60427,1.95661,1.95661,0,0,1-2.41063.29225,1.93467,1.93467,0,0,1-.86234-1.17135,2.02162,2.02162,0,0,1-.05541-.58541,1.85927,1.85927,0,0,1,.12679-.59761C128.43365,96.80725,128.41885,96.82778,128.41024,96.852ZM95.38493,123.53656c.39884-1.41744.80778-2.80007,1.11548-4.2443a.72019.72019,0,0,1,1.30212-.17022c.46527.82695.95479,1.63688,1.40115,2.47536.30353.57029.84891,1.32142.69871,2.01035a1.13709,1.13709,0,0,1-1.17708.83914c-.51925.03051-1.0486.03787-1.57807.035q-.47632.05975-.95264.11949a.648.648,0,0,1-.50333-.15946.49586.49586,0,0,1-.38359-.73365C95.33748,123.65339,95.35651,123.5923,95.38493,123.53656Zm3.3334-10.2253a4.40607,4.40607,0,0,1,2.67641-3.58151,4.35,4.35,0,0,1,.71781-.21154,5.33007,5.33007,0,0,1,6.668,2.22528,4.98453,4.98453,0,0,1-3.835,7.30306C101.58894,119.50015,98.25437,116.8182,98.71833,113.31126Zm97.43892,13.71816c-.56436-7.437-7.12046-7.163-12.656-5.86912-9.86962,2.307-18.84821,7.72666-29.27306,7.80972-16.09573.12816-25.24068-12.42523-29.93259-26.32976-2.08995-6.19358-3.75336-11.53577-8.57278-16.30577A24.96823,24.96823,0,0,0,98.645,78.95685C85.54406,78.78768,79.01332,88.641,73.66585,99.05613c-6.98153,13.59769-17.47457,29.6382-34.48616,30.10027-5.62955.15287-11.10649-1.403-16.28172-3.47715-3.28366-1.316-8.53758-4.30324-12.2438-3.33939-5.27263,1.37115-6.99438,6.32735-7.55691,11.275l.01825.03129c7.36284,12.05514,20.23143,19.5509,33.78426,24.13218a28.29578,28.29578,0,0,0,5.23716-4.50344,2.23729,2.23729,0,0,1,3.12564,0,101.537,101.537,0,0,1,8.36423,8.30165c27.16812,3.158,79.03531.53887,79.03531.53887,11.47071-1.87007,27.92413-6.01835,38.57148-10.67766s16.37253-6.9258,23.185-16.34195c.52244-.72212,1.03993-1.48374,1.53824-2.27653C195.72,130.93369,196.30145,128.93,196.15725,127.02942ZM83.42106,106.34172c1.27846-4.87457,8.39761-9.16308,8.39761-9.16308,2.11746-.99827,7.03493-1.12213,9.30527-.55145,4.15486,1.04449,6.44788,2.95836,8.80538,6.39267a14.02914,14.02914,0,0,1,2.33122,6.48994q.46625,4.4478.93216,8.89554c.111,1.05934.14883,2.309-.67642,2.98247a3.23985,3.23985,0,0,1-1.17832.52081q-3.79879,1.10156-7.59759,2.20306c-.02927,2.40293.28638,7.43715.28625,10.06238a.38848.38848,0,0,1-.32967.384,7.04,7.04,0,0,1-2.52216.11846c-.07791-2.07424-.811-5.6731-.97982-7.64395-.04544-.53084-.84526-.54975-.84116,0,.01578,2.09093.31,2.58932.30047,4.75521a11.39218,11.39218,0,0,0,.25268,2.42262.39607.39607,0,0,1-.428.48717c-.6418-.07927-1.36613-.33012-1.98649-.354a.38376.38376,0,0,1-.35535-.38952c-.03847-2.30091-.58274-4.61948-.57538-6.93017a.53417.53417,0,0,0-1.06763,0c-.204,2.30873-.56331,4.82849-.05078,7.13806a.3959.3959,0,0,1-.32915.48385c-.8038.11311-1.59222.22289-2.34771.32537a.3947.3947,0,0,1-.45223-.35881c-.17654-2.51637.57537-6.65507.28651-8.97514a1.38733,1.38733,0,0,0-1.70089-1.47989q-1.95876-.05349-3.91738-.10692a3.37012,3.37012,0,0,1-1.68335-.34153,3.405,3.405,0,0,1-1.216-2.39974C83.11082,116.36447,82.14274,111.21623,83.42106,106.34172Zm35.30888,40.39545c1.70252-2.831,6.23575-1.87769,7.71193-.6862,2.23559,1.80422,1.00844,3.772-.8023,4.901a2.18941,2.18941,0,0,1,.55647,1.86016c-.2341,1.43778-1.74568,2.07436-2.98848,2.41349-1.6076.43873-3.68712.74017-5.06988-.43632a2.70939,2.70939,0,0,1-.933-2.885,16.91987,16.91987,0,0,0-2.22072-1.05217.332.332,0,0,1-.19694-.22081c-2.49817-.791-12.35886-4.69073-14.8352-5.52732a.39031.39031,0,0,1-.23058.31845c-5.37335,2.147-11.61751,2.89669-17.22039,4.43962.42784,2.33683-3.076,4.49152-5.18006,4.19138a3.93382,3.93382,0,0,1-3.34585-5.15085c-2.19569-.4993-3.92338-2.61846-2.96188-4.9927,1.10283-2.72322,3.559-2.33611,5.58059-1.208a.54448.54448,0,0,1,.36507.05228c1.02917.54252,1.43217,1.55382,2.28943,2.0994,1.04136.66286,2.35508.13221,3.5544-.10306,3.42714-.67225,6.84437-1.43629,10.286-2.03754q-7.98364-2.844-15.89579-5.98581c-1.87351,2.17554-5.46129,3.57682-7.48409.70132-1.94764-2.76878.44806-4.71825,2.9182-5.43111a3.22471,3.22471,0,0,1,2.09054-4.89478,3.93381,3.93381,0,0,1,3.8,1.25349c1.25492,1.41157,1.07519,3.05008,1.1132,4.78128a.3819.3819,0,0,1,.15293.02464c5.21494,2.10566,10.54031,3.85877,15.903,5.544.38873.12217,1.19168.42909,2.24112.82786a.54163.54163,0,0,1,.16572-.04844c.61136-.05313,1.2428-.16728,1.87619-.2693a.51058.51058,0,0,1,.123-.05333c3.84769-.81762,7.6785-1.7241,11.4977-2.66519,2.41264-.59454,7.9403-.75537,8.12635-3.76522a3.25867,3.25867,0,0,1,4.36713-3.27095c2.39387.8259,3.62565,3.94919,1.81993,5.558,1.90116,1.39052,2.593,4.20721.30131,5.81384-1.84034,1.29019-4.32984.25229-5.50738-1.52207-4.066,1.9228-8.89482,2.76526-13.40648,3.37453A112.87275,112.87275,0,0,1,118.72994,146.73717ZM87.65422,112.67683c1.76772-3.181,6.17859-3.03913,8.22421-.27a.53225.53225,0,0,1-.09231.723c1.20381,2.908-.82532,6.96042-4.27169,6.91446C87.81316,119.99508,85.98521,115.68017,87.65422,112.67683Z"/></svg>