<svg xmlns="http://www.w3.org/2000/svg" viewBox="0 0 200 200"><defs><style>.a{fill:#fff;opacity:0.1;}.b{fill:#ba9365;}</style></defs><path class="a" d="M2.60342,34.60454a24.1135,24.1135,0,0,1,18.57624-13.956c6.155-.93287,16.52435.50262,18.09619,7.89941a1.17748,1.17748,0,0,1-2.14185.903C29.03549,16.865,9.767,24.726,3.68277,35.2354,3.27231,35.94438,2.27121,35.32207,2.60342,34.60454Zm155.35779-6.01886c8.39484-10.24383,23.20905-11.60339,32.859-2.26562,1.77258,1.71527,4.50287-1.01581,2.70691-2.70691-11.18756-10.53382-28.35315-9.0246-36.977,3.88379C155.99118,28.33354,157.31033,29.37993,157.96121,28.58568Zm41.63416,135.89081c-4.83618,5.1026-13.46082,7.48376-21.5094,6.72619-34.93408,15.26191-113.94269,16.89155-148.55664.61414-4.43244.532-9.013-1.71472-12.42566-4.97156a10.82409,10.82409,0,0,1-4.64868-5.15258,9.77042,9.77042,0,0,1-.795-3.24256c-3.91027-9.85181-3.18426-21.8313-4.13946-32.03583C4.76877,97.01555,2.63541,67.61846.93369,38.13719c-.06446-1.11688,1.61773-1.0841,1.71875,0,2.2752,24.42151,4.74347,48.8996,5.9812,73.39893.61255,12.12512.9339,24.38812,2.479,36.43945a36.75413,36.75413,0,0,0,1.33185,6.14972,11.0692,11.0692,0,0,1,3.32367-4.19452c6.88849-5.4201,16.29645-4.4002,23.77185-.36926-1.22485-7.07928-2.517-14.14777-3.54834-21.23926a277.0542,277.0542,0,0,1-2.13739-28.199c-.70862-16.791-.46478-33.50665-.02551-50.27014-.03681-5.19574.15246-10.39154.52819-15.57788.16938-2.33826,3.79072-2.37293,3.67188,0a188.18907,188.18907,0,0,0,.174,22.66516c.52539,7.45178,2.22821,15.02337,1.8819,22.4967-.05011,1.08136-1.74854,1.79834-2.25659.61115-.24714-.57746-.454-1.16938-.66632-1.75928.41632,6.95563.88092,13.90668,1.34918,20.84759.6864,10.17365,1.81311,20.35364,1.973,30.55371.10986,7.00544.26849,13.87452.65668,20.79377a28.17684,28.17684,0,0,1,5.71978,4.65655,1.06173,1.06173,0,0,1,.165,1.279,19.33705,19.33705,0,0,1-13.36688,7.75171c-4.517.546-12.33966-1.49-13.30371-6.68261a2.26018,2.26018,0,0,1,2.73889-2.739c3.40442.66523,6.131,3.36432,9.72956,4.12171a13.79782,13.79782,0,0,0,8.15277-.63892q-.47-3.00174-.979-5.99853c-5.17859-3.24805-11.496-4.78992-17.48852-3.19226-4.63129,1.2348-9.423,5.03869-7.96857,10.18023a21.99373,21.99373,0,0,0,3.01514,4.44251.78532.78532,0,0,1,.40905.08673c3.46253,1.80682,7.02521,3.44714,10.65693,4.9458a18.42964,18.42964,0,0,0,4.76764-.72571,1.13825,1.13825,0,0,1,.87292,2.0705c-.28625.19329-.57648.36468-.86841.52588,31.1723,11.49823,106.04279,11.47137,136.63593-1.33326a21.07918,21.07918,0,0,1-2.541-1.31024c-.88373-.27386-1.75879-.59088-2.61889-.94427-.37354-.15345-.7569-.31232-1.14515-.47626a13.50071,13.50071,0,0,1-4.29254-2.085c-3.65948-2.14276-6.45422-5.17926-4.70886-10.03925a9.54468,9.54468,0,0,1,5.446-5.53882c-.00756-.66-.01965-1.31738-.04687-1.967-.2348-5.598-.9823-11.153-1.24457-16.75653-.52173-11.14727-.40424-22.35583-.37964-33.51306.04065-18.45263.15241-36.88714.69074-55.32367q-1.0644.56058-2.16492,1.06714c-.01422.02832-.0188.05628-.035.0846-2.69849,4.71667-10.30378,6.21759-15.241,7.34741a76.99127,76.99127,0,0,1-19.05567,1.72711c-14.73339-.36456-67.34191-4.121-81.42138-8.0318a1.29019,1.29019,0,0,1,.68536-2.486c4.17243.88989,8.399,1.74518,12.65125,2.51825a90.0933,90.0933,0,0,1-16.28327-7.8667c-.53125-.3241-.06653-1.03809.47315-.80951A123.12594,123.12594,0,0,0,81.6951,44.2614c7.34924.23254,53.36188-.8258,60.60583-2.00659,5.76764-.94019,11.32392-2.525,16.96979-3.79407q.15619-4.93406.35352-9.86847a.78173.78173,0,0,1,1.5625,0q.26229,4.67789.47906,9.356c.309-.06311.61627-.13171.926-.192a.66733.66733,0,0,1,.51166,1.21375c-.44092.29669-.90162.567-1.35511.84686.86029,18.9195,1.26,37.84314,1.58619,56.78711.19769,11.4809.51135,23.02179.07769,34.49872-.21161,5.59979-.82281,11.15839-.97357,16.75653-.00171.06256.00086.12708-.00061.18976a27.47694,27.47694,0,0,1,9.91266-.50855,28.05328,28.05328,0,0,1,11.88306,4.00031,1.37959,1.37959,0,0,1,1.61145-.88458,14.87987,14.87987,0,0,1,4.92852,2.59009c-.36444-6.25062-.14563-12.60926-.202-18.72q-.14118-15.321.01025-30.63818c.18042-20.76825.81452-41.50317,1.44586-62.26068a.97716.97716,0,0,1,1.95313,0c-.19013,20.74878-.01587,41.5108.1015,62.26068q.0867,15.31915.19708,30.63818c.04389,7.29175.53308,14.894-.00872,22.28949a17.63893,17.63893,0,0,1,1.20666,1.81934,3.09557,3.09557,0,0,1,.37378,1.864c.16016-.08734.31683-.16723.47778-.2558A2.70719,2.70719,0,0,1,199.59537,164.47649ZM41.29971,153.104q.15611,2.403.35639,4.821a12.19187,12.19187,0,0,0,2.968-2.03925A27.173,27.173,0,0,0,41.29971,153.104Zm147.2417,6.27063c-1.28112-.615-2.56219-1.26007-3.84863-1.90466.10132.09942.20764.1911.30719.29309.28406.29108-.14117.704-.442.44189a20.67282,20.67282,0,0,0-4.00787-2.73346c-1.20123-.54284-2.41485-1.03888-3.64252-1.47332a20.80239,20.80239,0,0,0-11.888.09253c-.4447.13342-.59509-.51392-.18695-.678a18.70834,18.70834,0,0,1,3.084-.93238,18.8668,18.8668,0,0,0-3.0069.366,9.19105,9.19105,0,0,0-2.4162.85889c.04291,1.86316.07172,3.731-.02752,5.56549a18.77891,18.77891,0,0,1,1.42218,1.54169c1.38366.65948,3.03143,1.25415,4.02826,1.6123,3.02941,1.08838,6.28106,1.65594,9.20526.86224-.66944-.208-1.34333-.40454-2.0257-.58178a1.65492,1.65492,0,0,1,0-3.16407,11.61042,11.61042,0,0,1,9.61481.83045,2.27178,2.27178,0,0,1,.93927.84863Q187.10833,160.32027,188.54141,159.37462ZM54.219,100.75139a9.62509,9.62509,0,0,0-5.24616,2.51068c-.8064.6839.359,1.83954,1.1601,1.16016a22.84285,22.84285,0,0,1,4.36212-2.65173C54.95554,101.53191,54.76444,100.68968,54.219,100.75139Zm10.396-2.73981c1.10425-.096,2.29205.195,3.3371-.21093a1.22837,1.22837,0,0,0,.28931-2.21332c-2.49122-1.33466-5.77668.64386-7.58619,2.33929a.39353.39353,0,0,0,.38007.6529A17.8871,17.8871,0,0,1,64.615,98.01158ZM74.11258,96.191a.90691.90691,0,0,0-.2146,1.64209c1.64813.83435,3.36719,1.56311,5.07178,2.27612,1.67688.70142,3.18292,1.49695,4.98681.77057a1.22733,1.22733,0,0,0,.84577-1.48957C83.30826,95.66,77.48727,95.64653,74.11258,96.191ZM95.16989,106.3958c-1.23706-.40161-2.48346-.49268-3.72711-.8476a.47258.47258,0,0,0-.45612.78345c.843.93482,1.43677,1.98017,2.3133,2.88562.93353.9643,2.33343,1.96051,3.73865,1.50513a1.49524,1.49524,0,0,0,1.00952-1.77789C97.84512,107.59539,96.34647,106.77782,95.16989,106.3958Zm18.02674,10.08453a2.41294,2.41294,0,0,0,1.76794-2.32214,2.49653,2.49653,0,0,0-1.76794-2.32208c-1.69257-.60755-3.175-.32965-4.91791-.12634a2.41587,2.41587,0,0,0-1.49268.70629,1.16955,1.16955,0,0,0-.24481,2.28339l.04169.01233a2.1048,2.1048,0,0,0,1.16229.93994c.81519.273,1.629.61249,2.4566.84149A7.07565,7.07565,0,0,0,113.19663,116.48033Zm11.14209-3.73077c1.96881-.6142,4.037-.933,5.84216-1.9494a2.62036,2.62036,0,0,0-2.64465-4.52448c-1.81342.87439-3.2428,2.43769-4.83179,3.66645C121.34586,110.99272,122.82724,113.22106,124.33872,112.74956Zm13.70715-9.69946q.571-.368,1.142-.73609a5.58811,5.58811,0,0,0,2.35571-1.4162,2.29715,2.29715,0,0,0-3.24866-3.24865,5.66838,5.66838,0,0,0-1.40948,2.397q-.35505.56672-.71009,1.1333A1.377,1.377,0,0,0,138.04587,103.0501Zm.93146-14.80957a2.13418,2.13418,0,0,0,.98449.54028l.00745.001c.01038.02154.02338.04175.03345.06347a.908.908,0,0,0,1.64215-.21466c.11883-.41522.61712-.74975.76788-1.29718a3.56681,3.56681,0,0,0-.30353-2.12939,4.92065,4.92065,0,0,0-3.06518-2.99555,2.04972,2.04972,0,0,0-2.28742,2.97553,18.3671,18.3671,0,0,0,1.617,2.19458A6.9537,6.9537,0,0,0,138.97733,88.24053Zm-9.80481-7.45368a1.79377,1.79377,0,0,0,.78564-2.97564,8.44523,8.44523,0,0,0-2.17718-1.54572,3.233,3.233,0,0,0-2.92316.0896l-.168.06146a1.92476,1.92476,0,0,0-.838,3.17407l.34906.36933C125.35782,81.42443,127.33109,81.27519,129.17252,80.78685ZM88.52023,87.88072a1.8829,1.8829,0,0,0,1.80805,2.37348c5.1477-.49439,9.67016-5.744,13.579-8.89685.23657-.19086.47925-.38239.72424-.57459a38.40652,38.40652,0,0,0,9.0918,5.057c1.8247.62842,3.47644-2.06744,1.93829-3.32971a44.70955,44.70955,0,0,0-6.71039-4.31067,18.38924,18.38924,0,0,0,3.62238-3.43244,45.67668,45.67668,0,0,0,3.3324-4.49707.85569.85569,0,0,0-.49646-1.34588.874.874,0,0,0-1.06763-.98877c-4.30292.61316-7.95789,3.8432-11.33478,6.77978a120.92445,120.92445,0,0,0-10.95337-6.327.78488.78488,0,0,0-.94671,1.227,50.30459,50.30459,0,0,0,8.67645,7.771C95.7897,80.38439,90.29123,83.28246,88.52023,87.88072ZM48.089,119.396a1.14409,1.14409,0,0,0,2.0705-.27057c.37494-1.58752.08172-3.17175.68878-4.7304.28381-.72864-.80713-1.32587-1.30579-.76014C48.15976,115.20378,47.10477,117.36821,48.089,119.396Zm3.92932,7.30085c-.51147-.55365-1.368.2973-.82867.82861q.68572.67557,1.37146,1.351a8.50786,8.50786,0,0,0,1.36383,1.2262.43289.43289,0,0,0,.58789-.58789,8.53376,8.53376,0,0,0-1.1872-1.4029Q52.67205,127.40434,52.01834,126.69683Zm7.72974,7.37188c1.07092.52375,2.14618,1.17011,3.264,1.58387a14.10605,14.10605,0,0,0,3.56115.67016c.39392.03687.52051-.549.19715-.7279a15.245,15.245,0,0,0-3.107-1.36219,27.72716,27.72716,0,0,0-3.73474-.59234C59.691,133.60594,59.4863,133.94066,59.74808,134.06871Zm18.66357,4.2724c-1.6488-.41388-2.86316,2.07471-1.204,2.8559,2.02411.95294,4.0174,2.1745,6.11572,2.93707,1.326.48187,4.13227,1.32147,4.85358-.58679C89.5737,139.85185,80.42471,138.84642,78.41165,138.34111ZM95.3439,151.84893a1.99681,1.99681,0,0,0,.74756.82818,1.83549,1.83549,0,0,0,1.83582,0c1.43023-.837,1.11633-2.87244.12622-3.88568a15.30837,15.30837,0,0,0-2.08533-1.871c-.73663-.51612-1.71039.498-1.22919,1.22925a2.3627,2.3627,0,0,1,.4917,1.1101c.02686.43561-.2135.89075-.16992,1.43268A2.751,2.751,0,0,0,95.3439,151.84893Zm.62983,13.124a2.4315,2.4315,0,0,0,1.77423-.66779,5.41742,5.41742,0,0,0,.7854-1.24621q.56277-1.01541,1.12548-2.03083a1.88127,1.88127,0,0,0-.48291-2.41876,1.85583,1.85583,0,0,0-2.46191.14661q-.74927.944-1.49847,1.88806a6.14721,6.14721,0,0,0-.94275,1.31927,2.5019,2.5019,0,0,0,.14941,2.11969A1.7922,1.7922,0,0,0,95.97373,164.97289Zm-8.23993,3.522q-.63492.3891-1.2699.77814a.78719.78719,0,0,0-.32123.98028.80348.80348,0,0,0,.92615.45459q.75393-.107,1.50775-.21392a1.09293,1.09293,0,1,0-.84277-1.99909Zm29.56457-41.59222c3.425-1.66626,6.9679-3.02265,10.43555-4.58777.94336-.42584,1.75647-.80853,2.53442-1.1286,3.87085-2.91968,7.8736-6.6142,13.04273-5.12946,4.76458,1.36859,7.07354,5.783,6.64276,10.50629a40.89881,40.89881,0,0,0-.64759,4.94012c.03351,1.46826.60175,3.06012.53486,4.56177a11.84784,11.84784,0,0,1-2.83741,7.10858c-2.756,3.4491-7.83892,8.03339-12.57183,7.72028-1.2602-.08331-2.42841-.57739-3.66242-.74652-2.48035-.34-4.56549.3363-6.97223.40356a17.511,17.511,0,0,1-7.04254-1.26361c-4.33673-1.70862-8.39886-4.90662-8.61963-9.90485C107.87253,133.43956,112.41483,129.27849,117.29837,126.9027Zm8.55567.47534c-4.7381,1.5086-9.89332,2.99835-12.84284,7.39532-3.87213,5.7724.77716,10.76331,6.42694,12.28357,3.642.98,6.90839-.38067,10.50757-.13159,3.45081.23883,6.12164,1.03186,9.40729-1.078a23.26786,23.26786,0,0,0,4.17059-3.533c3.77167-4.00073,2.37073-7.67389,2.34808-12.45947-.02465-5.22309-2.70709-10.243-8.593-7.23261-.83142.42523-1.57471.86847-2.29877,1.29028C132.41312,125.91948,129.1077,126.34209,125.854,127.378Z"/><path class="b" d="M189.63791,18.7766,186.031,22.75817l-3.10077-2.36261-2.31769,3.553-2.44427-5.71735c-7.68714.51428-15.01471,3.42017-15.01471,7.06506V35.64037s-5.8722,111.0036-6.2179,112.71728l-1.7713,1.36359s1.28992-82.5097,1.5805-111.07886C148.14133,41.996,130.41654,46.96,100.83414,46.96h-.19086a206.24122,206.24122,0,0,1-33.69873-2.53546L62.21,47.71532l-2.46563-4.66791a100.742,100.742,0,0,1-15.01185-4.405C45.0231,67.21154,46.313,149.72124,46.313,149.72124l-1.7713-1.36359c-.3457-1.71368-6.2179-112.71728-6.2179-112.71728V25.29631c0-4.02185-8.91992-7.15429-17.40216-7.15429S-.31351,17.50719,2.774,39.4381c0,0,7.90075,90.69537,11.33288,116.69336a.796.796,0,0,0,1.51892.20874c2.754-6.03144,7.64551-9.27991,13.35816-9.51331l2.5531-7.85321,2.82922,8.48761a24.5543,24.5543,0,0,1,6.77448,3.02277c14.235,9.01532-10.85834,13.26172-14.54474,6.30749a.40441.40441,0,0,1,.5039-.55517c2.02936.73614,7.27332,2.3529,10.39295.71606,3.92969-2.06183-.854-5.42566-6.3194-6.04333S18.65384,155.07146,19.73019,161.595c1.0752,6.517,3.70478,7.90625,8.1612,10.84747,2.8349,1.35993,12.64441,3.40131,24.06793,5.46149a269.72865,269.72865,0,0,0,74.61383,2.9599l4.8916-7.017,5.93421,2.84357,1.69732-5.96948s2.49091,4.7937,4.00422,7.9823c14.31164-2.31977,27.28369-4.72486,30.48553-6.26081,4.45642-2.94122,7.086-4.33044,8.16119-10.84747,1.07636-6.52356-5.97778-11.30359-11.44323-10.68591s-10.24909,3.9815-6.3194,6.04333c3.11963,1.63684,8.36359.02008,10.39294-.71606a.40442.40442,0,0,1,.50391.55517c-3.6864,6.95423-28.77972,2.70783-14.54474-6.30749,10.56738-6.69251,19.83258-3.57068,25.25549,7.53552a.79928.79928,0,0,0,1.50885-.24908c3.42609-25.672,11.60242-118.3324,11.60242-118.3324C200.77048,24.75554,195.73587,20.19237,189.63791,18.7766Zm-138.969,96.53607c-.84833-.36353-.56952-2.90222,0-6.3017a2.59938,2.59938,0,0,1,2.78094-1.97808c1.08435.08221-.7207,3.43225-1.066,5.129S51.51724,115.67626,50.66892,115.31267ZM58.7833,128.735a12.205,12.205,0,0,1-3.99884-2.37872c-1.75977-1.64972-1.09986-3.95935,0-4.17932s2.72564,2.26483,3.34667,2.919c.59864.63061,1.22577,1.23419,1.7901,1.75408A1.12409,1.12409,0,0,1,58.7833,128.735Zm.61126-31.37085c-1.45428.83588-4.484,3.28461-5.602,2.08307s.37763-2.207,3.20209-4.65551c.868-.75245,3.12707-1.7779,4.70257-1.05079S60.84885,96.52831,59.39456,97.36418Zm80.275-16.94482c1.37524-1.00421,3.3056,1.11188,4.0061,2.6969s.91522,5.07983-.43872,5.50311c0,0-.8537.7525-1.97113-.45831s-.25787-1.96454-1.19116-3.42078S138.2944,81.42351,139.66959,80.41936Zm-2.11487,15.77747c2.17474-2.13392,4.036-3.00171,5.31073-2.72455s-2.40393,3.95739-3.11273,5.413-3.38465,1.50861-4.37274.88764S135.82431,97.8947,137.55472,96.19683ZM127.5527,72.869c.783-1.9762,3.19147-.03479,6.13343,1.87262,1.53088.99249,2.54077,2.7854,1.37036,3.58624s-2.49957-.095-4.43707-1.00244S126.76962,74.84514,127.5527,72.869Zm-.07916,29.998c2.53888-1.62036,4.80109-.63812,5.36566,0s-3.5288,3.45532-4.5169,4.30225-3.67,1.12927-4.35822,0S125.13175,104.36156,127.47354,102.867ZM115.446,71.31591c2.81494.57568,5.27911-.54859,5.85681.94879s-1.96686,3.51739-3.47742,2.91455-4.54633.5841-4.96246-1.75257S114.78934,71.18163,115.446,71.31591ZM85.52683,93.4923a9.48859,9.48859,0,0,1,2.76886,1.98388c2.20806,1.29889,2.72766,3.13636,1.42877,3.97107s-3.485-1.81286-4.8598-2.50232S84.4465,93.19689,85.52683,93.4923ZM74.12351,133.72508c-1.0821,1.42981-5.81134-.75811-6.91114-1.20391s-.963-2.82685.39832-3.01105,4.8808,1.79816,5.98059,2.34668S74.12351,133.72508,74.12351,133.72508Zm.99707-39.62054c-1.5755-.12122-3.99927,1.0907-5.33234.6872s-.84833-1.89911-.55182-2.66089,2.612-1.2984,4.67224-1.2984c0,0,2.90857.60589,3.12,1.2984A1.679,1.679,0,0,1,75.12058,94.10454Zm4.52618,41.204c.66571-.72821,3.86768.30359,5.96747.91327.92792.26941,3.47809.91168,3.3595,1.85876s-1.53083,1.9939-3.45606,1.60071a30.842,30.842,0,0,1-5.2904-2.04846C78.586,136.97606,78.98105,136.03667,79.64676,135.30852Zm8.73041,34.18127c-1.34162.62726-3.80481-1.34521-3.28852-1.81286,2.1969-1.98987,3.99756-4.389,6.43018-3.13581C92.80319,165.20281,89.71878,168.86248,88.37717,169.48979Zm12.18182-11.698c-.97711,2.38519-7.68793,3.5946-5.292,0,1.89014-2.8357,2.38074-5.14258,4.28882-4.51526S101.536,155.4066,100.559,157.7918ZM97.6575,147.73009a14.91136,14.91136,0,0,1-3.596-4.1167c-.75274-1.16608.87812-2.10968,2.09516-1.98419s4.05255,3.74316,5.02087,5.47668S98.45273,148.1234,97.6575,147.73009Zm6.61438-41.34332c-.38971.90918-1.97052,1.64343-3.71289,1.2763s-4.59991-4.26373-4.47-4.78326,1.34857-1.30005,3.46686,0C101.64267,104.16051,104.66153,105.47753,104.27188,106.38677Zm2.84986-24.74854c-.59266-.40655-1.92621-1.45294-2.37073-1.74469a22.56939,22.56939,0,0,0-2.37073-1.83124c-.59271-.23858-1.99951-1.27575-4.03729-2.313-.18695-.09516-.35889-.18183-.5315-.26886-1.71722.96344-3.88916,3.81433-5.22308,5.47058-1.43207,1.778-5.23566,2.07434-6.98511.59265s1.1568-3.70429,4.32715-6.24616c.59589-.47772,1.385-1.15454,2.28693-1.9486a1.6251,1.6251,0,0,1-.29846-.34076c-.79963-1.25946-1.0763-1.40766-3.23462-3.63019s-3.44782-2.2226-2.43262-3.55609,1.59082-3.809,2.43262-3.11164c3.44232,2.85169,5.1701,4.88965,7.21045,5.48236.71283.207,1.175.31952,1.57537.42719,2.74128-2.49078,5.31928-4.83295,6.32788-5.59747,1.574-1.19312,4.595-1.48175,5.63227-.929a2.45609,2.45609,0,0,1,1.09826,3.44788c-.82794,1.62988-1.691,1.18542-3.76538,2.96344a22.62132,22.62132,0,0,0-3.60589,3.41723,4.1512,4.1512,0,0,0,1.59375,1.08631c.86047.09887.83148.34283,2.6383,1.46789s2.72583,1.75043,2.63678,3.58624-.82995,2.28034-1.27447,2.57666S107.71445,82.04485,107.12174,81.63823Zm1.65887,28.618c-.78436-2.24011,1.54254-2.52417,2.21228-2.49658,2.87079.1181,5.12347-1.38574,5.93317,0s-1.37909,3.78668-2.96656,3.43311S109.565,112.49639,108.78061,110.25627Zm18.738,64.2652c-.70331,1.9693-4.07929,3.23529-5.34919,2.954s-1.3421-4.89807,1.64942-5.908C127.15238,170.44219,128.222,172.55217,127.51865,174.52147Zm21.01428-39.46338c-1.67908,5.16181-9.11511,9.95014-11.35626,9.85883s-4.47528.811-13.35779,1.13116-11.98633-8.236-12.826-14.19732,10.43451-10.11011,14.03259-11.06958a34.65725,34.65725,0,0,0,12.15119-5.42163c2.60339-1.90357,6.0791-.815,9.62433,3.74255S150.212,129.89629,148.53293,135.05809Z"/></svg>