<svg xmlns="http://www.w3.org/2000/svg" viewBox="0 0 200 200"><path d="M8.18474,99.93077c2.57706-1.24384,3.92827-1.34377,6.81668-.52322,6.96986,1.98,13.29187,5.699,20.627,6.40793,13.87292,1.34064,23.3347-8.53654,30.17426-19.2565,4.24959-6.66061,7.1316-14.3775,12.03773-20.56632,14.02435-17.69107,39.425-10.18957,47.33207,9.24125,2.93736,7.21831,4.62554,14.91675,9.42032,21.35708,8.65049,11.61927,23.95069,9.9217,35.9673,5.68007,6.28661-2.219,15.381-7.40776,22.1985-4.701a9.59564,9.59564,0,0,1,5.92251,6.45108,8.34239,8.34239,0,0,1,.1206,2.7399c1.668-4.63774,1.91544-9.84772-1.35283-15.02419-2.75092-4.357-20.8866,4.39066-31.10629,5.82786s-21.751-1.6417-27.56063-10.17139c-3.40589-5.00052-4.4683-11.17141-6.68173-16.81184a35.87634,35.87634,0,0,1-4.73884.4137c-1.01339-.01369-2.13044-1.12363-1.681-2.20677a50.26192,50.26192,0,0,1,2.614-5.33463,36.16005,36.16005,0,0,0-8.86308-8.88993,44.01276,44.01276,0,0,1-3.08808,4.31849c-.5156.586-1.28191-.06127-1.18126-.68763a39.08955,39.08955,0,0,0,.41937-5.98862,34.40777,34.40777,0,0,0-9.94152-3.4832,35.78265,35.78265,0,0,0-31.55519,10.1326c-5.83483,6.02864-9.298,13.88726-13.3188,21.25088S51.69859,94.80861,44.13105,98.431c-11.16078,5.34232-24.33042,1.2224-35.98034-2.94694L6.262,95.503c-3.52265.58991-5.97187,4.17756-6.23276,7.73977a13.65787,13.65787,0,0,0,.95615,5.784A13.37825,13.37825,0,0,1,8.18474,99.93077Zm120.2255-23.40432.1459-.34571c-.04531.10489-.08136.19277-.11337.27706a2.22187,2.22187,0,0,1,.60993-.9261,1.55252,1.55252,0,0,1,1.1997-.61605,2.13514,2.13514,0,0,1,1.392,3.60426,1.9566,1.9566,0,0,1-2.41063.29225,1.93468,1.93468,0,0,1-.86234-1.17134,2.02172,2.02172,0,0,1-.05541-.58542,1.85926,1.85926,0,0,1,.12679-.5976C128.43365,76.48173,128.41885,76.50226,128.41024,76.52645ZM95.38493,103.211c.39884-1.41744.80778-2.80007,1.11548-4.24431a.72019.72019,0,0,1,1.30212-.17021c.46527.82694.95479,1.63687,1.40115,2.47536.30353.57029.84891,1.32141.69871,2.01035a1.1371,1.1371,0,0,1-1.17708.83914c-.51925.0305-1.0486.03787-1.57807.035q-.47632.05975-.95264.1195a.648.648,0,0,1-.50333-.15946.49587.49587,0,0,1-.38359-.73366C95.33748,103.32786,95.35651,103.26678,95.38493,103.211Zm3.3334-10.2253a4.406,4.406,0,0,1,2.67641-3.58151,4.35008,4.35008,0,0,1,.71781-.21155,5.33009,5.33009,0,0,1,6.668,2.22529,4.98453,4.98453,0,0,1-3.835,7.30306C101.58894,99.17463,98.25437,96.49268,98.71833,92.98574Zm97.43892,13.71816c-.56436-7.437-7.12046-7.163-12.656-5.86913-9.86962,2.307-18.84821,7.72667-29.27306,7.80972-16.09573.12817-25.24068-12.42522-29.93259-26.32976-2.08995-6.19357-3.75336-11.53576-8.57278-16.30577A24.96827,24.96827,0,0,0,98.645,58.63133c-13.10093-.16917-19.63167,9.68415-24.97914,20.09928-6.98153,13.59768-17.47457,29.63819-34.48616,30.10027-5.62955.15287-11.10649-1.403-16.28172-3.47715-3.28366-1.316-8.53758-4.30324-12.2438-3.3394-5.27263,1.37116-6.99438,6.32735-7.55691,11.275l.01825.03129c7.36284,12.05514,20.23143,19.5509,33.78426,24.13218a28.29578,28.29578,0,0,0,5.23716-4.50344,2.23729,2.23729,0,0,1,3.12564,0A101.537,101.537,0,0,1,53.6268,141.251c27.16812,3.158,79.03531.53886,79.03531.53886,11.47071-1.87006,27.92413-6.01834,38.57148-10.67765s16.37253-6.9258,23.185-16.342c.52244-.72211,1.03993-1.48374,1.53824-2.27652C195.72,110.60817,196.30145,108.60447,196.15725,106.7039ZM83.42106,86.0162c1.27846-4.87457,8.39761-9.16308,8.39761-9.16308,2.11746-.99827,7.03493-1.12213,9.30527-.55145,4.15486,1.04449,6.44788,2.95836,8.80538,6.39267a14.02914,14.02914,0,0,1,2.33122,6.48993q.46625,4.44781.93216,8.89554c.111,1.05935.14883,2.309-.67642,2.98248a3.23985,3.23985,0,0,1-1.17832.52081q-3.79879,1.10155-7.59759,2.20305c-.02927,2.40294.28638,7.43716.28625,10.06239a.38848.38848,0,0,1-.32967.384,7.03967,7.03967,0,0,1-2.52216.11845c-.07791-2.07424-.811-5.67309-.97982-7.64394-.04544-.53085-.84526-.54975-.84116,0,.01578,2.09093.31,2.58931.30047,4.75521a11.39225,11.39225,0,0,0,.25268,2.42262.39607.39607,0,0,1-.428.48717c-.6418-.07927-1.36613-.33013-1.98649-.354a.38375.38375,0,0,1-.35535-.38951c-.03847-2.30091-.58274-4.61948-.57538-6.93017a.53417.53417,0,0,0-1.06763,0c-.204,2.30873-.56331,4.82848-.05078,7.13806a.3959.3959,0,0,1-.32915.48385c-.8038.1131-1.59222.22288-2.34771.32536a.39469.39469,0,0,1-.45223-.35881c-.17654-2.51636.57537-6.65506.28651-8.97513a1.38734,1.38734,0,0,0-1.70089-1.4799q-1.95876-.05349-3.91738-.10691a3.37012,3.37012,0,0,1-1.68335-.34153,3.405,3.405,0,0,1-1.216-2.39974C83.11082,96.039,82.14274,90.89071,83.42106,86.0162Zm35.30888,40.39545c1.70252-2.831,6.23575-1.87769,7.71193-.6862,2.23559,1.80422,1.00844,3.772-.8023,4.901a2.18939,2.18939,0,0,1,.55647,1.86015c-.2341,1.43778-1.74568,2.07437-2.98848,2.41349-1.6076.43874-3.68712.74018-5.06988-.43632a2.70937,2.70937,0,0,1-.933-2.885,16.9212,16.9212,0,0,0-2.22072-1.05218.332.332,0,0,1-.19694-.2208c-2.49817-.791-12.35886-4.69073-14.8352-5.52733a.39031.39031,0,0,1-.23058.31846c-5.37335,2.147-11.61751,2.89669-17.22039,4.43962.42784,2.33683-3.076,4.49151-5.18006,4.19137a3.93382,3.93382,0,0,1-3.34585-5.15085c-2.19569-.49929-3.92338-2.61845-2.96188-4.9927,1.10283-2.72321,3.559-2.33611,5.58059-1.208a.54449.54449,0,0,1,.36507.05229c1.02917.54252,1.43217,1.55382,2.28943,2.0994,1.04136.66286,2.35508.13221,3.5544-.10307,3.42714-.67224,6.84437-1.43628,10.286-2.03753q-7.98364-2.844-15.89579-5.98582c-1.87351,2.17555-5.46129,3.57682-7.48409.70132-1.94764-2.76878.44806-4.71824,2.9182-5.4311a3.22471,3.22471,0,0,1,2.09054-4.89478,3.93383,3.93383,0,0,1,3.8,1.25348c1.25492,1.41158,1.07519,3.05008,1.1132,4.78129a.38172.38172,0,0,1,.15293.02464c5.21494,2.10566,10.54031,3.85877,15.903,5.544.38873.12217,1.19168.42908,2.24112.82786a.54107.54107,0,0,1,.16572-.04844c.61136-.05313,1.2428-.16728,1.87619-.2693a.51058.51058,0,0,1,.123-.05333c3.84769-.81762,7.6785-1.7241,11.4977-2.66519,2.41264-.59454,7.9403-.75537,8.12635-3.76523a3.25866,3.25866,0,0,1,4.36713-3.27094c2.39387.8259,3.62565,3.94919,1.81993,5.558,1.90116,1.39051,2.593,4.20721.30131,5.81384-1.84034,1.29019-4.32984.25229-5.50738-1.52208-4.066,1.9228-8.89482,2.76526-13.40648,3.37454A112.87275,112.87275,0,0,1,118.72994,126.41165ZM87.65422,92.35131c1.76772-3.181,6.17859-3.03913,8.22421-.27a.53225.53225,0,0,1-.09231.723c1.20381,2.908-.82532,6.96042-4.27169,6.91446C87.81316,99.66955,85.98521,95.35464,87.65422,92.35131Z"/></svg>