<svg xmlns="http://www.w3.org/2000/svg" viewBox="0 0 200 200"><defs><style>.a{fill:#bf912c;}.b{fill:#d1a821;}.c{fill:#935f3b;}.d{fill:#af7620;}</style></defs><path class="a" d="M199.59047,92.48912l-2.31789-1.27245,2.01365-1.94281q-.22708-2.086-.52448-4.12074l-4.38333-2.68981,3.35221-3.276a75.51942,75.51942,0,0,0-5.81872-18.4005l-3.84081-3.43724,1.1451-3.187c-16.351-32.60336-49.077-49.86654-82.78107-51.81779C54.72389,6.26206,14.8166,44.98594,14.8166,98.73035a104.429,104.429,0,0,0,1.80875,19.326H27.90177l-3.7791,2.47331-6.57323,1.91683a102.65676,102.65676,0,0,0,3.25788,11.07845l4.71457-1.11143-3.542,4.2275C34.728,169.07692,63.322,193.29052,98.01136,199.27805,148.10426,200.171,198.86254,167.32252,200,100.71944,199.95252,97.91454,199.8103,95.17428,199.59047,92.48912Z"/><path class="b" d="M143.31069,24.03744l.71509-12.62767a103.5865,103.5865,0,0,0-14.04424-5.09863l-11.96286,9.34859L107.4083,20.79959,55.08574,163.7568l3.66887,2.0873-6.10553,12.742a99.57726,99.57726,0,0,0,21.3193,13.2435l4.58192-14.02342-8.36358-6.17779,64.88269-146.068Z"/><path class="c" d="M186.288,90.96936C192.43288,156.53657,130.338,228.8856,55.08574,163.7568c92.50337,54.12216,135.14518-25.647,121.00689-86.086-10.422-44.55242-53.48116-78.85117-121.00689-39.98869,13.9252-14.35181,32.59787-23.14693,53.13788-23.14693C158.09064,17.77707,182.96592,55.52246,186.288,90.96936ZM21.9799,136.641l3.542-4.2275-4.71457,1.11143a102.65676,102.65676,0,0,1-3.25788-11.07845l6.57323-1.91683,3.7791-2.47331H16.62535a104.429,104.429,0,0,1-1.80875-19.326c0-53.78106,39.961-92.52333,91.72369-96.39572C74.38784.44524,41.33443,12.50841,20.73871,38.51993c-.4913.62049-1.45246,1.88529-1.45246,1.88529l3.29067,6.842-9.24069,2.17428q-.448.77631-.88313,1.56533L15.78969,53.404l-5.67746,2.1252Q9.15475,57.519,8.28154,59.58555l2.07835,1.84353L6.72566,63.46731A111.23428,111.23428,0,0,0,0,100.71527c1.098,64.8389,49.23939,97.69353,98.0115,98.56278C63.32209,193.29066,34.728,169.077,21.9799,136.641Zm73.562-78.98591c-.24561-1.67691.123-2.57232,2.97831-3.55763s5.68651-.9579,6.90389.32323-.75716,1.69885-1.82915,1.74862-1.74983.41041-1.67812,1.06687.523.7337,1.624.6767,2.20135.17075,2.24232.54587.05753.81618-1.30032.838-2.47927-.10875-2.68207.641.30419.7576.80777.73422,1.82675-.073,2.07631.18441a.7629.7629,0,0,1,.14106.71216c-.01418.15971-.11873.36093-1.0287.42871s-1.88244.14237-1.8517.42371-.0641.8611,1.06127.73817,1.14585.06462,1.19366.50226.08794.81286-.80255.91014-1.46965.31872-1.41728.78749.23257.67053.98282.58857,1.22256-.10192,1.32947.29763.02627.8196-.76548.81119-1.34307.17835-1.28387.70965.73274.61589,1.20165.56466.62073.47.6583.81382a.76773.76773,0,0,1-.65463.95725.82118.82118,0,0,0-.71715.96407c.03757.34386.12741.58711.81513.512s.53379.54272.50778,1.46292.12057,4.289-.09878,4.59762-.7507.27181-.99609-.334S98.77764,68.461,97.67908,65.35436,96.16766,61.92768,95.54189,57.65508Zm-18.825,59.9393c.29131-.2602,4.77435-3.1251,4.72011-3.62161s-1.34957-2.31909-1.57715-3.98425,1.40192-4.30968,5.97524-7.18444a42.43447,42.43447,0,0,1,13.13124-4.81452c1.26878-.09293,1.44781.70968.87012,1.27523s-4.61579,4.15833-5.03265,4.52361-.608.70589-.36755.81664a2.89312,2.89312,0,0,0,1.13427-.02105c.36868-.04028,6.202-5.83843,10.12628-9.18957s7.32917-6.33464,6.93364-6.54015a14.82651,14.82651,0,0,0-8.76463.02477c-2.21982.73993-14.45067,7.46048-16.24414,8.25s-2.25873.71678-2.10992,1.34339-.38238,1.64893-.9903,1.23319-1.711-.21488-1.61557.65864-.674,1.92186-1.27324,1.58553-1.79907-.28561-1.73969.99363-1.15779,1.17114-2.066.94892-.68133,1.11908-.64931,2.88346-.7881,1.6129-1.52014,1.53215-1.10774-2.04865-1.34463-2.746-1.11909-.68133-1.13043.686,2.40831,9.54059,2.97886,11.08543C76.1613,117.33337,76.42559,117.85458,76.71689,117.59438Zm65.93742-21.39271c-.41875.0076-.9319,1.24611-1.30187,2.04939s-1.189.817-1.90119.63884c-.88718-.22188-1.20906-1.73234-.90337-3.07533a.60385.60385,0,1,0-1.18115-.1796c-.15268,1.04657-.79568,1.78389-1.49384,1.68894-.642-.08731-1.02618-.54207-.95892-1.37356.06244-.77211.09936-1.66845-.31219-1.88237-.16822-.08742-1.007-.32311-1.27842.28589-.32452.72813-.7079.85868-1.21333.75212-.41482-.08744-.73694-.91415-.82817-1.40006s-.37819-.71882-.899-.88531-11.13167-2.76855-12.191-3.07094a1.99729,1.99729,0,0,0-2.10009.60952c-.52242.43718-11.87606,11.33244-12.00989,11.49911s.50851,2.56726.82985,4.81286.64172,11.78954-6.40633,14.08-12.34793-2.03414-12.81384-2.81951.815-2.97791,1.01168-3.26549.03064-.76357-.22-.62216-2.09787,1.67363-3.22193,2.51864-4.86832,3.61558-4.70586,3.89711a3.62826,3.62826,0,0,0,1.88529,1.79787,50.20565,50.20565,0,0,0,5.30028,1.72934c1.97909.60822,3.69282,1.806,5.47255,4.51356s1.52476,5.5054,2.41858,7.65016a8.75237,8.75237,0,0,0,3.2689,3.96284,1.78383,1.78383,0,0,0,2.5862-.77716,2.5267,2.5267,0,0,1,1.46564-1.677c.60493-.198,1.18027-.063,1.6261,1.6031s.78894,2.09027,1.46863,2.57663,2.19706.18867,2.62071.14239,1.06115-.24782,1.19725-1.41687.64437-1.95005,1.39389-2.03193,1.10578,1.06635,1.56693,2.26908,1.54313,1.44728,3.531,1.23013,2.518-1.09949,2.63879-1.80518.0868-1.92213,1.06089-2.06153,1.143.50169,1.59761,1.3424,1.41387.86782,3.23933.37162,1.31446-2.15516,1.23258-2.90468.39325-1.23011.795-1.17507a8.18963,8.18963,0,0,1,1.96375,1.07156,3.80515,3.80515,0,0,0,3.14924.15063c1.20629-.42858,1.65389-2.54495,2.20975-5.05084a54.19484,54.19484,0,0,0,.59032-8.186c.0649-1.40434-.00434-2.8377,3.746-6.47852s5.77726-5.8708,6.65946-8.587.93952-7.78749.74554-10.10737C143.77392,96.0799,143.07305,96.19406,142.65431,96.20167Zm-26.87272,30.14921c-.45077.6449-1.67753,1.0023-2.10973.45384s-1.42291-2.674-1.8804-3.51752-.41041-2.4401-.85811-2.11668-.39268,1.50873-.27211,2.61244a5.16984,5.16984,0,0,1-.48022,2.8819,1.66083,1.66083,0,0,1-1.38913,1.04525,2.76127,2.76127,0,0,1-2.20542-1.695c-.32524-.93242.28195-2.1901,1.08022-5.10675s1.422-6.06721,2.62507-5.96044,3.47481,3.18146,4.87342,5.76031S116.23234,125.706,115.78159,126.35088Zm15.86366-16.28437c-1.11627,3.58437-4.80685,3.54077-5.65876,3.41045s-1.11672.51292.08146,1.25687,3.33549.8829,2.15151,1.29149a10.73107,10.73107,0,0,1-7.17353-.74288c-2.887-1.37868-5.35762-2.52339-6.2436-6.78255s-.60172-6.80329,3.14961-9.782,7.10055-2.5841,10.38629-.52031C132.65532,100.90919,132.76151,106.48215,131.64525,110.06651Zm-7.27031,2.97221c.35469.97456.02827,1.28135-.5477,1.12088a.98965.98965,0,0,1-.77679-.97619C123.00222,112.74191,124.16663,112.46639,124.37494,113.03872Zm47.83761-36.27653c.08822,1.34805.27205,3.57111-1.47356,4.88336s-3.12746,2.17157-3.06374,2.75491.5348,1.27558,1.81738,1.78958,1.07483,1.23167.77165,2.573a4.15107,4.15107,0,0,1-.97365,2.314c-.44507.41655-.77337.77947-.62195,1.417a5.93722,5.93722,0,0,1-.14531,3.47659c-.556,1.10685-1.70859,1.54045-3.20051,2.81109s-9.11779,4.41132-14.15281,5.63825-4.58791.532-4.976.359-.006-1.23986.18628-1.229a4.93168,4.93168,0,0,0,2.04791.66819,4.453,4.453,0,0,0,1.30659-.20516c.14465-.0158-.077-.70508-.0948-.86779s-2.55067-1.07519-2.9399-1.28879-.18323-.83985-.06229-1.0726a1.43994,1.43994,0,0,1,1.39832-.26252,11.81951,11.81951,0,0,0,2.407.59692c.454-.0313.58081-.20981.541-.4067a18.50334,18.50334,0,0,0-2.9709-1.90743,3.04058,3.04058,0,0,1-1.30154-1.02871c-.3186-.40427.034-1.02822.72892-1.03095a11.13785,11.13785,0,0,1,3.20944,1.0764,29.67354,29.67354,0,0,0,3.84752,1.39089c.84319.1823.98249-.21711,1.03506-.40579s.08736-.5401-.92583-1.10633a69.11258,69.11258,0,0,0-16.70143-6.79042c-9.536-2.55068-16.32147-3.009-21.0226-3.82082s-6.72667-1.54489-11.08313-1.069-8.01505,2.41307-14.09113,5.51559-20.87246,10.33866-25.331,13.68862a48.2487,48.2487,0,0,0-8.53011,8.30114c-.54857.80216.26229.77478.51045.61486s3.09569-2.46331,4.61927-3.71445a43.18026,43.18026,0,0,1,4.62332-3.27215c.3818-.1524.70958.011.71876.2978s.07446.47887-.91583,1.14047a32.17771,32.17771,0,0,0-4.14959,3.35323c-.2.39817.22243.61766,1.117.4978s4.413-2.56293,4.86321-2.8999a.502.502,0,0,1,.84763.2616c.07482.27961.46987.85629-.52483,1.27486a15.97777,15.97777,0,0,0-3.3069,2.35356c-.33606.36876-.08145.673.53585.64984a7.44377,7.44377,0,0,0,2.73354-1.11768,11.439,11.439,0,0,0,1.26034-.82393c.26766-.18419.727-.23437,1.05132.505a2.83582,2.83582,0,0,1,.27628,1.71861c-.09061.38623-.32482.87669-1.93883,1.09728s-10.69937.64839-13.5996,1.024-3.98932.29573-4.71388-.11913-3.036-2.35448-3.48439-3.63311a6.04156,6.04156,0,0,0-1.90655-2.75573,5.38364,5.38364,0,0,1-2.00091-3.05419c-.20435-1.30531-.17792-2.75932-1.18273-3.76105s-2.86848-.8599-3.29656-2.35688a9.7636,9.7636,0,0,1-.32534-2.97818c.10311-1.82834,6.2403-7.46506,9.16136-10.63236s6.59757-7.08729,7.20558-7.65634,1.13591-.38475,1.76379-.19268,2.67743.62064,3.56676-.68274a5.65869,5.65869,0,0,0,.59654-5.09481c-.33816-.87339-.18492-.99394.74935-1.84966s1.52939-1.36611,2.29211-.96982,4.32023,2.54276,5.44423,2.79681,1.963.09388,1.959-1.82413-.6145-8.68113-.68647-9.68195.06617-.97666,1.50192-3.12167a86.67143,86.67143,0,0,0,5.40285-8.78149c1.02562-2.25927,2.69218-4.11138,3.31858-5.29319a27.27882,27.27882,0,0,1,2.64067-4.58292c1.02364-1.18545,1.42648-1.86567,1.93732-1.92147s.89881.21993,1.13689,1.30728,1.23629,1.85313,1.721,4.10645,2.43,10.2321,4.2484,15.95821A135.98813,135.98813,0,0,0,100.571,76.76523c1.44,2.62612,2.49768,4.29995,3.82511,4.0754s1.89836-4.46207,2.2464-8.556,2.01824-10.28061,2.63575-18.45982,1.28783-16.60275,1.46913-17.85523.90277-1.92773,1.53577-1.95712,1.74416,1.04214,3.4206,3.28457,9.71594,10.98892,16.23313,15.53062,13.57111,9.6741,17.079,12.06529,15.253,7.7785,19.05449,9.07509S172.12431,75.41416,172.21255,76.76219Zm-108.165-1.32976s.65178,1.4603,1.17368,1.73147,1.10465.09811,1.95857-.59684.27979-1.94492-.27457-2.51339-1.778-1.25521-2.43934-.8001S63.8214,74.36322,64.04759,75.43243ZM47.96237,98.70285c1.39655-.95543,2.21854-2.5025,3.97952-3.40593s6.83227-6.05191,8.33072-7.85649,1.463-2.12888,1.37354-2.44729-.91887.10038-1.88089.80713-4.82874,3.864-7.11342,5.481a51.42916,51.42916,0,0,0-6.7622,6.19269c-1.21717,1.37533-1.30414,1.83289-1.023,2.15118C45.61561,100.47311,46.56583,99.65825,47.96237,98.70285Zm3.28069,4.05442c-.36449-.67124-1.13211-1.18905-2.23358.244-.633.82361-.54915,1.48209-.0813,1.75916a1.35635,1.35635,0,0,0,1.652-.39925C51.12157,103.80976,51.60755,103.4285,51.24306,102.75727Zm14.42836-5.07065c.00108-.58554-1.07273-.94424-1.90619-.182-1.42352,1.30179-7.12246,5.65645-9.41866,7.85864s-2.6608,2.43718-2.462,3.06591.78323,1.21534,1.79169.32464,8.381-6.63955,9.86157-7.9721S65.67033,98.27213,65.67142,97.68662Zm6.28235-5.60631a7.421,7.421,0,0,0-3.8414,2.34757c-.83675.89978-.162,2.68455,1.1678,1.75873a13.07658,13.07658,0,0,0,2.85364-2.45823C72.58485,93.09371,73.051,92.00205,71.95377,92.08031ZM71.511,82.2746c-.46756-.16771-2.25953.73911-3.65578,2.47783a99.93276,99.93276,0,0,1-7.11116,7.50448c-2.23154,2.10344-5.95972,5.02674-7.21661,6.03842s-1.69187,2.53752-1.14636,3.0249.69586.36156,1.56749-.17124A150.39188,150.39188,0,0,0,65.3893,90.218c3.82039-4.082,4.08065-5.20437,5.01906-6.12733S71.97857,82.4423,71.511,82.2746Zm71.75587-6.54111c.168-.45347-.14791-1.01844-.933-1.76913-.957-.91507-3.04719-2.8-3.84938-2.97348s-1.44246-.06-1.32431.62331.323.9655,1.78756,2.02389,2.112,2.206,2.92832,2.50844S143.09886,76.187,143.26688,75.73349Zm7.37859,13.77078c-.54353-.5789-1.16351-1.09125-1.64194-.69089a.89128.89128,0,0,0,.155,1.419c.477.383.63814,1.06162,1.41214.97707S151.15381,90.04569,150.64547,89.50427Zm8.59416,2.19408A15.737,15.737,0,0,1,156.819,91.049c-1.45006-.52218-2.90822-1.26015-3.37928-1.45838-.821-.34543-1.28863-.07679-1.02571.85177s1.55262,1.745,2.96488,2.24338,2.77743,1.0455,3.51854.65993S160.12324,91.89709,159.23963,91.69835Zm.25728-4.81452c-1.35574-.46108-6.68879-1.88007-9.0892-3.14081s-3.85342-1.75773-5.06477-2.32007-1.93839-.04781-1.92032.51587.4271,1.51982,3.21919,2.78127,7.91338,3.53033,9.59434,3.78182,3.74425.41772,4.59557-.15391C161.29993,88.0336,160.85268,87.34491,159.49691,86.88383Zm3.08371-4.03546c-.12755-.7693-2.29632-.70643-3.66148-1.2535a42.81515,42.81515,0,0,1-8.21837-3.93214c-2.68584-1.88225-4.42245-3.04143-5.12454-3.09528a.82446.82446,0,0,0-.838,1.09235,9.02986,9.02986,0,0,0,2.937,2.98612,23.95668,23.95668,0,0,0,7.33091,3.37641c2.04375.38592,4.63168.97347,4.63168.97347C161.29461,83.424,162.70817,83.61767,162.58062,82.84837Zm.18892-4.92241c-.74643-.29269-2.97271-.11753-12.35132-5.9313s-10.77992-7.42979-12.692-7.49309c-1.07952.08391-1.01708.65545-.86847,1.08149a3.53993,3.53993,0,0,0,2.22655,1.696c1.3773.46192,5.06915,3.42531,7.959,4.96449s5.1684,3.39961,9.13586,4.83738,5.90471,2.04265,6.60284,2.20453.88091.278,1.1767-.12854C164.28983,78.70177,163.516,78.21865,162.76954,77.926ZM107.0051,152.982a2.28314,2.28314,0,0,0,2.47637-1.95585,5.89033,5.89033,0,0,0-.33588-3.07468c-.4718-.75871-1.89449-1.02462-3.53383-1.49374s-1.97412,1.1612-1.67676,2.45188C104.73623,152.38715,105.85613,152.84819,107.0051,152.982ZM131.971,139.12664c-.16007-.76578-.87738-.83428-1.65142-.74972s-1.66638.20651-1.68915.89436.48784.65654.82647.61954.66367.02542.69009.2673.05549.508-.45246.56345-1.42186.2043-1.38222.56712.25429.5352.71387.485.946-.07887.99092.33234-1.194.49759-1.41167.52137-.28539.30043-.25368.59069.16322.37381.42929.34474,1.08848-.1189,1.12812.24392.001.90554-.82668.947a1.31875,1.31875,0,0,0-1.1261,1.56717c.07663.70146-.02093,1.15271-.3112,1.18442a.75866.75866,0,0,1-.91488-.75674,7.03929,7.03929,0,0,0-1.39725-2.93151c-.61407-.69171-2.6085-.35145-3.74477.89863s-.65756,2.49508-.58662,3.36851.336,2.85162-1.50235,3.05244-1.71088-3.33783-2.77355-4.10292-2.36622-.59821-3.72117-.22989-1.85924,1.30458-1.80581,2.93871.235,3.74385-1.11026,4.64958-3.66814,1.6001-5.0603.28355a16.85265,16.85265,0,0,1-3.2435-5.716c-.62829-1.7182-1.35091-1.83508-2.8132-1.55295s-1.26205-.12561-1.28615-.34616-.021-.4167.9654-.57341,1.33912-.51346,1.23525-1.01612-.41039-.39576-.67383-.34251-1.57226.17176-1.60925-.16688.14635-.67687,1.1139-.78257.90108-.26589.87181-.53389-.19819-.46985-.87547-.39586-.91523-.01954-.9254-.33663.79356-.19366.72924-.78242c-.04091-.37448-.68329-.4755-1.84875-.12527s-1.26353.4724-1.09305,2.237a28.96435,28.96435,0,0,0,2.30883,9.91233c1.94232,4.31285,6.47144,8.11129,11.85878,8.01693s11.93634-1.03787,15.59892-2.65435a12.18279,12.18279,0,0,0,6.41768-6.66891,24.92883,24.92883,0,0,0,.79989-8.33592A47.52351,47.52351,0,0,0,131.971,139.12664Zm-6.10848,18.09753c-.40423.68257-1.12214.44179-1.65849-.08481s-.67592-.83058-.16655-1.52463.99728-.45266,1.62977-.178C126.16716,155.65374,126.26676,156.54162,125.8625,157.22417Zm1.06656-1.97194c-.4493-.21693-.48741-.4453-.11487-1.05148.27763-.45172.70733-.34326.975.15949S127.37837,155.46913,126.92906,155.25223Z"/><path class="d" d="M101.91684,57.23615c.07172.65649.523.7337,1.624.67669s2.2013.17078,2.24231.5459.0575.81616-1.30035.838-2.47925-.10876-2.68207.64093.3042.75763.8078.73426,1.82672-.07306,2.07629.18438a.76273.76273,0,0,1,.14106.71216c-.01416.15973-.11872.361-1.02869.42871s-1.88245.1424-1.85168.42371-.06415.86108,1.06128.73816,1.14581.06463,1.19366.50226.08789.81286-.80255.91015-1.46967.31873-1.4173.78748.23255.67053.98279.58856,1.22259-.10193,1.32947.29767.0263.81958-.76544.81116-1.34308.17834-1.28388.70965.73273.61591,1.20166.5647.62073.46991.65826.81378a.76771.76771,0,0,1-.6546.95728.82116.82116,0,0,0-.71716.96405c.03754.34387.12738.58709.81512.512s.53382.54272.50782,1.463.12054,4.28894-.09882,4.5976-.75067.27185-.99609-.33405-4.18207-8.84332-5.28064-11.94989-1.51142-3.4267-2.13715-7.69928c-.2456-1.67694.123-2.57233,2.97827-3.55762s5.68653-.95794,6.90393.32318-.7572,1.69886-1.82916,1.74866S101.84512,56.57971,101.91684,57.23615ZM91.70847,91.53491c6.07611-3.10254,9.73468-5.03967,14.09118-5.51556a23.72689,23.72689,0,0,1,2.47986-.14777l17.07965-38.45086a99.66372,99.66372,0,0,1-9.65539-10.12366c-1.67646-2.24243-2.7876-3.314-3.4206-3.28455s-1.35449.70465-1.53576,1.95709-.85163,9.676-1.46912,17.85523-2.28772,14.366-2.63574,18.45984-.919,8.33142-2.2464,8.556S102.011,79.39136,100.571,76.7652a135.98692,135.98692,0,0,1-6.95276-17.05445c-.069-.21722-.13831-.44317-.20758-.66644l-14.219,38.84955C83.96988,95.41461,88.8226,93.00848,91.70847,91.53491ZM103.86582,88.879c-2.21985.73993-14.45069,7.46051-16.24415,8.25s-2.25872.7168-2.10992,1.34338-.38239,1.64893-.9903,1.23322-1.711-.21491-1.6156.65863-.674,1.92187-1.27319,1.58551-1.79907-.28559-1.73968.99365-1.15784,1.17114-2.066.94891-.68134,1.11908-.6493,2.88349-.78808,1.61285-1.52014,1.5321a.50615.50615,0,0,1-.23926-.10425l-1.10406,3.01648c.70837,2.564,1.54181,5.28662,1.84711,6.11322,0,0,.26428.52124.5556.261s4.77435-3.12506,4.72009-3.62158-1.34955-2.31909-1.57715-3.98425,1.40192-4.3097,5.97528-7.18445a42.43354,42.43354,0,0,1,13.13123-4.81452c1.2688-.093,1.44781.70966.87012,1.27521s-4.61579,4.15833-5.03266,4.52362-.608.70587-.36755.81665a2.89243,2.89243,0,0,0,1.13428-.02106c.28943-.03161,3.94622-3.61035,7.404-6.76953l4.24847-9.56439A13.73582,13.73582,0,0,0,103.86582,88.879ZM85.69156,117.93164c-.46594-.7854.81506-2.9779,1.01166-3.2655s.03064-.76355-.22-.62219-2.0979,1.67364-3.22193,2.51867-4.86834,3.61554-4.70587,3.8971a3.62839,3.62839,0,0,0,1.88532,1.79785,50.19492,50.19492,0,0,0,5.30023,1.72937,8.82139,8.82139,0,0,1,4.30054,2.943l2.51171-5.65448A11.65349,11.65349,0,0,1,85.69156,117.93164Z"/></svg>