<?xml version="1.0" encoding="utf-8"?>
<!-- Generator: Adobe Illustrator 24.2.1, SVG Export Plug-In . SVG Version: 6.00 Build 0)  -->
<svg version="1.1" xmlns="http://www.w3.org/2000/svg" xmlns:xlink="http://www.w3.org/1999/xlink" x="0px" y="0px"
	 viewBox="0 0 1000 1000" style="enable-background:new 0 0 1000 1000;" xml:space="preserve">
<style type="text/css">
	.st0{fill:#6e4435;}
</style>
<g id="BG">
</g>
<g id="Object">
	<path class="st0" d="M210.3,582.5c0.1,0.7,0.2,1.4,0.4,2.1C210.2,584,210,583.3,210.3,582.5z M210.6,581.7
		c-0.1,0.3-0.2,0.5-0.3,0.8c-2.9-17.9,2-32.9,11.9-51.5c14.1-19.4,28.2-45.8,19.8-70.6c3.6-18.9-29-54.1-40-69.4
		c-16.7-23.1-33.2-46.6-52-68c1.9,1.1,3.9,1.7,5.9,1.9c-2.1-0.1-4-0.8-5.9-1.9c-7.8-8.9-15.8-17.6-23.5-26.6
		c1.3-2.6,2.8-5.1,4.4-7.5c10,15.1,36.6,50.8,53.4,55.5c21.4,6,33.2-4.6,36.7-19.4c-0.5,1.6-1.7,2.2-3.8,1.2c-0.9-0.4-0.6-8-0.4-9.4
		c-0.4,0.7-0.6,1.5-1,2.2c0.1,0.1,0.2,0.4,0.4,0.4c1.1,0.2-1.2,1.4-1.7,1.5c-0.9,2-2.1,3.6-3.2,5.6c0.4-0.1,5.3-2.4,4.3-0.2
		c-0.9,2-4.1,2-5.8,2.7c-0.5,0.7-1.1,1.4-1.6,2.2c1.1-0.3-10.4,11.4-19.1,10.8c-12.6-0.8-14.7-7.6-22.5-17.2
		c-5.6-6.7-28.7-37.5-30.2-38.6c0.5-2.9,2.1-5.2,2.9-7.8c-2.7,3.6-7.1,8.3-11.6,9.5c1.2-0.3,24.8-27.3,32.7-31.7
		c5.8-3.2,14.2-7.7,20.5-9c2.3-0.4,19.3-3,9.4,1.2c3.4,8,8.6,15.9,11.4,23.8c-0.5,0.4,9.6,16,10.8,17.8c-0.2,0.5-0.2,1.2-0.1,1.8
		c0.4-0.1,0.7-0.2,1-0.3c0.1,0.5,8.9,23.8,7.8,32.1c2.2-10.9,0-23.8-6.2-33.8c0.1-0.4,0.1-0.8,0.1-1.2c-0.3,0-0.5,0.1-0.7,0.2
		c-7.9-12.7-16.7-25.4-21.2-39.8c1.5-0.2,3-0.3,4.5-0.3c9.1,16.3,21.1,31.1,29.4,47.6c-3.2-0.6-4.6,1.5-5.3,4.3
		c2.9,3.1,5.3,4.1,7.1-0.6c18.9,37.2,37.2,78.9,64.1,111.1c28.5,34.1,49.9,28.7,88.9,23c41.5-6.1,68.1,32.9,89.9,63
		c25.2,34.7,49.8,69.7,75.7,103.9c-0.7,0.5-1.4,1-2.1,1.5c2,0.2,2.9,0.3,3.2,0c16.4,21.7,32,43.9,47.2,66.4
		c-23.8,0.6-48.2,1.9-71.6,6c-1.3-2.1-2.6-4.2-3.9-6.4c2.7,0.2,4.4-0.8,5.2-3.2c0-0.6,0-1.3,0-1.9c-2.6-0.6-5.2-1.1-7.8-1.7
		c-0.4,0.3-0.8,0.5-1.2,0.6c-16.5-26.7-31.2-54.1-47.8-80.8c1.1,0,8.8,3.2,10.9,1.4c2-1.7-6.5-5.8-8-5.4c-1.6,0.4-3.3,0.7-5,0.7
		c-0.4-0.7-0.9-1.4-1.3-2.1c1.4,0.7,2.8,1.1,4.3,1.1c-1.5-0.5-2.9-0.8-4.3-1.1c-8.1-13-17-25.4-25.3-38.2c3.1-0.1,6.1-0.2,9.2-0.3
		c-4.4-3.3-4.4-3.3-9.2,0.2c-14.1-21.6-25.5-48.7-55.6-45.2c-26.2,3-65.1,34.3-59.7,64.1c-19.1,26,24.4,83.5,38,106.5
		c-1,0.2-1.9,0.5-2.9,0.9c0,0.2,0,0.5,0,0.7c1.3,0,2.6,0.1,3.9,0.1c7.7,12.8,16.2,24.9,22.4,38.5c-24.3,7.8-63.6,17.9-76.7,42.3
		c-24.2-29.3-47.6-60.8-67.6-93.1c3.9-0.5,11.8,1.2,13.5-3.6c0.9-0.5,1.7-1,2.6-1.5c0.1-0.9,0.3-1.9,0.4-2.8
		c-0.5-0.2-1.1-0.5-1.6-0.7c-6.1,0.2-10.5,2.9-17.4,2.7c0,0.6,0,1.2,0,1.8c-8.4-14-16-28.4-22.3-43.3c1.8-1.4,2.4-3.2,2.6-5.1
		c1.3-0.1,5.7-0.3,5.3-2.7c-0.3-1.8-5.5,1.5-5.9,2.3c-1.4,0.3-2.6,0.6-3.9,1c-2.4-5.8-4-11.2-5-16.3c3.3,4.3,21.5,4.1,23.5,3.9
		C241.7,587.7,214.5,574.5,210.6,581.7z M332.5,675.1c0.8,0.8,1.5,1.5,2.3,2.3c2-1.6,3.7-3.4,0.1-3.7
		C333.6,673.5,332.8,674,332.5,675.1z M323.2,707.2c2,0.4,1.8,0.9,2.8-0.9c-0.7-0.1-1.6-0.5-2.1-0.3
		C323.4,706.1,323.4,706.8,323.2,707.2L323.2,707.2z M558,668.5c1.2,2.1,2.7,2.2,4.4,0.3C561.2,666.7,559.7,666.6,558,668.5z
		 M544.7,670.6c1.1,1.3,6.1-2.1,2.7-3.8C545.1,667.3,544.2,668.6,544.7,670.6z M530.4,584.7c0.8,1.1,1.8,1.2,3.1,0.4
		c-0.7-0.5-1.8-1.5-2.7-0.8C530.6,584.4,530.5,584.5,530.4,584.7z M474.2,575.2c-0.1,0-0.3,0-0.4,0v0c0,0,0,0,0,0.1
		C474,575.3,474.1,575.2,474.2,575.2z M490.3,571.1c-4.6-0.4-8.2,0.5-10.5,3.2c0.6-0.1-2.7,0.7-4.9,0.9c4.8,0,14.6,3.2,15.3-2.5
		C490.3,572.2,490.3,571.7,490.3,571.1z M493,567.3c-0.9,0.8-1.8,1.6-2.7,2.5C491.2,569,492.1,568.2,493,567.3L493,567.3z
		 M484.9,554.5c-1.5,3.3-1.3,3.4,5.3,3.4C489.3,556.3,487.6,555.2,484.9,554.5z M481.3,530.1c-0.5,1.6-1,3.2-1.5,4.7
		c6.4-1.1,6.4-1.1,5.1-5c1.1-2.7,4.2-5.4,0-8.1c-4.4,0.7-8.7-0.3-13.1-0.4c-2.1-2.9-5.8-8.3-7.9-1.6
		C462.4,524.6,478.3,526.2,481.3,530.1z M469.1,537.8c5.8,1.4,5.8,1.4,8.2-2.5C471.9,534.8,471.8,534.9,469.1,537.8z M454,547.1
		c10.4-2.2,14.8,7.8,23.3,3.6c-3.1-3.4-7.2-6-13.5-7C459.4,542.9,457.6,543.6,454,547.1z M204.7,285.4c0.4,0.4,0.7,1.1,1.3,1.4
		c1.4,4.5,1.9,9.7,4.2,13.9c1.5-2,2.8,0.7,0.9,1.8c0.9,1.5,2.1,5.2,2,7.1c1.1,0.3,2.2,1,2.8,2.1c0.2,0,0.3-0.1,0.5-0.1
		c-1.5-8.8-6.7-16.2-9.5-24.5c0.4-0.8,0.2-1.2-0.5-1.2c0-0.1,0-0.1-0.1-0.2c-0.4-0.8-0.8-1.7-1.2-2.5c0.2,0.8,0.4,1.6,0.6,2.4
		c-0.3-0.1-0.5-0.1-0.8-0.2L204.7,285.4z M211.1,309.1L211.1,309.1c-0.7-1.4-1.3-2.8-1.4-4.4c-0.7,0.5-1.4,3.1-1.8,3.9
		C209,308.8,210,308.8,211.1,309.1z M211.1,313.2L211.1,313.2L211.1,313.2L211.1,313.2z M189.1,311.1c-1-3.2-1.7-6.4-3-9.6
		c-1.7,3.1-2.9,6.4-3.6,9.9c-0.1,0.3-0.1,0.6-0.2,0.9c1.4,3.1,2.4,6.2,3.5,9.4C186.3,318.2,187.9,314.3,189.1,311.1z M186.3,328.4
		c0,0.1,0.1,0.1,0.1,0.2h0C186.4,328.6,186.3,328.5,186.3,328.4z M179.5,299.3c-0.3,0.7-0.6,1.4-0.8,2.1c0.6,2.2,1.2,4.5,2,6.7
		c0.1,0.3,0.2,0.5,0.3,0.8c1.1-3.4,3.2-6.3,4.4-9.7c-0.8-2.4-1.5-4.8-2.1-7.3c-1,1.8-1.7,3.8-2.7,5.6c-0.1-0.5-0.2-1.1-0.3-1.9
		c-0.3,0-0.5,0-0.7,0c1-1.9,2-3.7,3.1-5.5c-1.2-2.5-1.7-5-2.4-7.6c-2.1,2.4-3.2,5.3-4.6,8c0.4,1.7,0.7,3.4,1.2,5.1
		c-0.8,0.1-1.3,0.2-1.7,0.5c-0.3-1-0.6-2-0.9-3.1c-1.9,4-3.3,8.3-4.6,12.6c0.8,3,1.6,6.2,2.8,9.1c0.8-4.8,2.6-9.6,4.5-14.1
		c-0.2-0.5-0.4-1-0.7-1.5C177.1,299.2,178.5,299.5,179.5,299.3z M170.3,281.1c-2.1,2.9-3.6,5.8-5,9.1c1,3.9,1.8,7.8,2.8,11.6
		c1.5-3.9,2.9-8,5.3-11.4C172.3,287.4,171.3,284.3,170.3,281.1z M174.8,288.2c1.2-2.8,3.3-4.8,4.8-7.3c-0.9-2.8-1.9-5.7-2.7-8.6
		c-1.7,1.9-3.7,3.6-4.9,5.9C172.8,281.6,173.8,284.9,174.8,288.2z M201.5,301.1c-1.7,1.4-2.8,5.1-3.6,7.2c0.5,1.4,1,2.8,1.3,4.3
		c1.8-0.4,3.1-2.1,4.8-2.8c0.1,0,0.2-0.1,0.3-0.1C202.7,306.9,202.1,304,201.5,301.1z M205.5,308c1.1-1.5,3-3.5,3.6-5.2c0,0,0,0,0,0
		c-1.1-2.4-1.2-5.8-2.7-8c-0.9,1.8-2.7,2.7-3.7,4.4C204,301.9,204.8,305.2,205.5,308z M200.9,299.3c-0.5-1.2-0.9-2.4-1.3-3.7
		c-0.1-0.3-0.2-0.6-0.3-0.9c-1.2,2-2.8,3.8-3.7,6c0.6,1.4,0.9,2.9,1.3,4.4C198.1,303.2,199.9,301.3,200.9,299.3z M193.8,301.1
		c-1.1-2.8-2.2-5.8-2.7-8.8c-1.5,2.3-3.3,4.3-4.1,7c1.2,2.9,2.3,5.8,3.3,8.8C191.2,305.6,192.4,303.3,193.8,301.1z M191.5,311.6
		c0.3,0.9,0.6,1.7,0.9,2.7c0.6-2.1,2.2-4.5,3.2-6.4c-0.4-1.3-0.7-2.5-0.9-3.8c0-0.2-0.1-0.3-0.1-0.5
		C193.1,306.1,192.3,308.7,191.5,311.6z M189.7,318.2c0.7-0.6,1.5-1.1,2.3-1.6c-0.6-0.5-1.4-2-1.5-2.1c-0.4,1.1-0.6,2.3-0.8,3.5
		C189.7,318.1,189.7,318.1,189.7,318.2z M195,314.8c0.9-0.5,1.9-1.1,2.8-1.7c-0.4-0.7-0.8-1.4-1.1-2.1
		C196.2,312.1,195.8,313.7,195,314.8z M198.6,292.7c-0.9-2.6-1.2-5.1-2.4-7.6c-1.7,1.5-2.9,3.7-4.1,5.5c0.6,2.9,1.5,5.6,2.6,8.3
		c1.4-1.9,2.3-4,3.6-5.9C198.5,292.9,198.5,292.8,198.6,292.7z M195.6,283.1c-0.4-1.4-0.6-2.9-1.1-4.4c-1.6,1.3-3.2,2.6-4.6,4.3
		c0.4,1.9,1,3.7,1.7,5.5C192.7,286.5,193.9,284.6,195.6,283.1z M188.7,285.3l-0.2-0.6c-1.4,1.9-3,3.6-4.3,5.5
		c0.6,2.3,1.1,4.7,1.9,6.9c1.4-2.3,3-4.5,4.4-6.9C190.1,288.5,189.1,287,188.7,285.3z M188,282.7c-0.7-2.6-1.3-5.2-2.1-7.8
		c-1.6,1.6-2.9,3.8-4.3,5.6c0.5,2.7,1.2,5.4,2,8.1c1.1-1.5,2.3-3,3.4-4.5C187.3,283.7,187.6,283.2,188,282.7z M187.8,327.3
		c0.2,0.6,0.4,1.2,0.5,1.8c0.5,0,1,0,1.5,0.1c1-1.4,2-2.7,3.2-4c-2.6-1.1-0.4-2.9,1.4-2.1c0.3-0.6,0.8-1.2,1.2-1.7
		c1.1-1.6,2.2-2.9,2.9-4.8c-0.1-0.1-0.2-0.2-0.2-0.3C194.3,319.2,190.5,322.9,187.8,327.3z M192.1,329.7c1.6,0.2,3.5,0.2,5.1,0.1
		c0.6-0.7,1.2-1.4,1.8-2.2c0.7-0.9,1.5-2.4,2.4-3.2c-1.3,0.5-5.2,2-6.8,1.4C193.8,327.2,192.9,328.2,192.1,329.7z M203.5,321.8
		c0.3-0.7,0.8-1.4,1.3-1.9c0.8-1.3,1.7-2.3,2.3-3.8c-2.5,1-4.6,1.9-7.1,1.4c-1.2,2.1-2.6,3.8-3.9,5.7
		C198.5,323,201.2,321.5,203.5,321.8z M208,313.9c0.3-0.5,0.7-0.8,1-1.3l0,0c-2.5-0.5-3.8,0-6.1,1.3c-0.1,0.3-0.3,0.6-0.5,0.9
		C204,314.3,206.4,313.7,208,313.9z M204.3,288.6c-1.1,1.6-3,2.7-4,4.5c0.5,1.4,1.1,2.7,1.6,4.1c0.5-1.1,2.5-3.6,3.7-4
		c-0.4-1.3-0.7-2.6-1.1-3.9C204.5,289.1,204.4,288.8,204.3,288.6z M201.5,280c-1.3,1.3-2.6,2.6-3.9,3.9c0.7,2.3,1.7,4.5,2.1,6.9
		c1.2-1.4,2.4-3.1,3.8-4.3C202.8,284.3,202.1,282.1,201.5,280z M192.7,263.6c1.1,3.8,1.7,7.7,2.8,11.5c3.6-3.2,3.9-1,0.6,2.2
		c0.4,1.4,0.5,2.9,0.9,4.3c1.2-1.3,2.5-2.7,3.9-3.8c0-0.3,0-0.6,0-0.9c-1.9-4.2-4.4-7.7-6.9-11.5
		C193.7,264.8,193.2,264.2,192.7,263.6z M191.6,269.6c-1.3,1.3-2.5,2.5-3.9,3.8c0.5,2.4,1.5,4.8,1.8,7.3c1.1-1.5,2.9-2.8,4.2-4
		c0,0,0,0,0.1-0.1C193,274.3,192.2,272,191.6,269.6z M189.3,261.2c-1.2,1-2.3,2-3.6,2.9c0.6,2.3,0.9,4.7,1.5,7.1
		c1.3-1.2,2.5-2.5,3.9-3.5C190.5,265.4,189.9,263.3,189.3,261.2z M183.7,253.1c0.7,2.9,1,5.9,1.5,8.8c1.2-0.9,2.4-1.8,3.7-2.6
		c-0.4-3.4-1.1-6-1.8-9.4C186.5,251.1,184.6,252.2,183.7,253.1C183.7,253,183.7,253.1,183.7,253.1z M183.4,265.7
		c-1.8,1.2-3.2,2.7-4.6,4.4c0.7,2.9,1.4,5.7,2.2,8.6c1.3-1.9,2.5-4.2,4.2-5.7C184.6,270.6,184,268.1,183.4,265.7z M183.1,250.8
		C183.1,250.8,183.1,250.9,183.1,250.8c0.1,0,0.2,0,0.2-0.1C183.3,250.8,183.2,250.8,183.1,250.8z M182.9,263.7
		c-0.9-3.1-1.1-6-1.3-9.2c-1.8,1.2-3.6,2.4-5.2,4c0.5,3.3,1.3,6.3,1.9,9.6C179.8,266.4,181.2,265.1,182.9,263.7z M175.2,253.2
		c0.3,1,0.6,2.2,0.8,3.2c1.5-1.7,3.8-3.2,5.7-4.5c0.1-0.4,0.2-0.7,0.2-1c-2.1,0.2-3.6,1.1-5.6,1.8C176,252.8,175.6,253,175.2,253.2z
		 M174,261c-1.6,1.7-3.3,3.4-4.9,5.1c0.9,3.3,1.7,6.6,2.4,9.9c1.6-1.9,3.3-3.7,4.9-5.6C175.6,267.4,174.4,264.2,174,261z
		 M170.5,252.5L170.5,252.5C170.6,252.5,170.6,252.5,170.5,252.5C172.4,254.9,173.9,253.5,170.5,252.5
		C170.6,252.5,170.6,252.5,170.5,252.5C170.6,252.5,170.5,252.5,170.5,252.5z M166.9,256.4c1,2.1,1.7,5.4,1.9,7.7
		c1.7-1.8,3.5-3.5,5.1-5.5c-0.1-1.7-0.4-3.3,0-4.9c-1.9,0.9-3.9,1.9-5.9,2.4C167.6,256.2,167.2,256.3,166.9,256.4z M166.6,269.9
		c-1.6,2-3.1,4.1-4.3,6.3c0.7,3.5,1.3,7.1,2.1,10.7c1.5-2.8,3.3-5.2,5.2-7.8c-0.9-3.2-1.8-6.5-2.7-9.7
		C166.9,269.5,166.8,269.7,166.6,269.9z M160.5,279.9c-1.2,2.4-2.3,4.9-3.4,7.4c0.9,3.5,1.6,7,2.4,10.5c0.8-2.7,2.2-5.3,3.4-7.8
		C161.9,286.7,161.2,283.3,160.5,279.9z M153.1,266.4c1.3,5.5,2,11.2,3.1,16.8c1.1-2.2,2.3-4.5,3.5-6.7c-0.4-1.9-2.4-14.3,0.1-14.6
		c1.3-0.1,1.7,9.6,2,11.2c1.5-2.1,3.3-3.9,4.6-6.1c-0.7-3.1-1.1-7.2-0.4-10.3c-2.4,1-3.8,2.9-6,4c-1.1,0.7-2.2,1.4-3.4,2
		C155.6,264.1,153.9,265.1,153.1,266.4z M145.2,272.3L145.2,272.3c0.9,1.2,0.2,3.9,0.5,5.4c1.1-3.7,3.4-7.5,5.2-10.9
		C149,268.6,147.1,270.4,145.2,272.3z M140.4,277c0.1-0.1,0.2-0.2,0.2-0.3C140.6,276.8,140.5,276.9,140.4,277z M142.6,291.2
		c0.2-2.5,1.1-5.5,1.7-8c-0.6-2.2-1.4-4.8-1.6-7.1c-1.8,3-2,9.9-4,11.8c1.1,0.8,2.3,1.7,3.3,2.7C142.2,290.8,142.4,291,142.6,291.2z
		 M148.4,297.6c-1.1-2.7-1.4-5.4-2.5-8.1c-0.3,1-1,2.9-1.7,3.7c1,1.4,2.1,2.4,3.4,3.6C147.9,297.1,148.1,297.4,148.4,297.6z
		 M150.5,298.7c0.8-4.2,2.5-8.2,4.1-12.2c-1.6-5.7-3-11.2-3.2-17.1c-2.5,4.6-3.9,9-4.7,14.2C147.7,288.1,150.1,294.3,150.5,298.7z
		 M156.7,306.5c0.4-2.2,1.4-4.2,2.1-6.4c-0.9-3.1-1.9-6.3-2.9-9.3c-0.7,2.4-2.8,8.2-5,9.3c1,0.9,1.9,1.9,2.7,2.9
		C154.7,304.1,155.7,305.3,156.7,306.5z M162.8,313.5c-0.5-2.9-2.1-5.7-2.8-8.6c-0.6,1.2-1,2.4-1.5,3.6c1.1,1.2,2.2,2.5,3.3,3.8
		C162.1,312.7,162.4,313.1,162.8,313.5z M165.6,310.1c0.5-1.9,0.9-3.9,1.6-5.8c-1.6-3.3-2.1-7.3-3.2-10.9c-1.2,3-2.1,5.9-3,9
		c0.8,3.7,2.8,6.9,3.6,10.5C164.8,311.9,165.3,311,165.6,310.1z M176.7,332.3c0-0.4,0-0.8,0-1.1c-1.5-3.2-2.1-6.7-3.5-9.9
		c-1.8,7-2.6-0.7-1.6-3.9c-1.2-2.9-2.1-5.9-2.9-8.9c-0.6,2.7-1.6,6-3.1,8.3c3.9,4.8,7,10.2,10.9,15.1L176.7,332.3z M177,326.7
		c0.8-3.3,0.8-6.7,1.7-10c0.4-1.8,0.9-3.5,1.4-5.2c-0.9-2.5-1.7-5-2.4-7.5c-1.5,4.8-2,10.2-3.9,14.9C175,321.4,176,324,177,326.7z
		 M191.8,337.7c-0.3,0-1.1,0.1-1.2-0.3c-0.8,0.3-4.5,1.9-5.6,1.1c-1.1,0.5-2.7,0.4-1.6-1c-0.8-1.1-0.2-2.1,1.2-1.8
		c1.4-1.4,2.4-3,3.7-4.5c-0.1-0.1-0.2-0.1-0.3-0.2c-0.4,0.5-1.1,0.8-1.8,0.6c-1.5,1.2-1.7,4.1-3.9,4.6c-4.2,1.1,1.5-11.8,2.2-12.6
		c-0.9-2.8-1.6-5.8-2.7-8.5c-1.2,5.2-1.9,10.6-2.8,15.9c0.6,1.7,1.4,6.3-0.9,2.5c0,0.1-0.1,0.2-0.2,0.3c2.2,5.3,5.6,5.7,10.9,4.8
		C189.8,338.5,190.8,338.1,191.8,337.7z M195,332.3c-1.2,0.1-3.4,0.4-4.5,0c-0.6,1-1.2,2-1.9,2.9c-0.1,0.1-0.2,0.3-0.3,0.4
		c1.3-0.1,2.3-0.5,3.6-0.3C192.8,334.2,194.1,333.5,195,332.3z M198.7,335.7c-1.4,0.1-2.8,0.3-4.1,0.7c-0.5,0.2-1,0.6-1.5,0.9
		c1.6-0.5,3.2-0.7,4.7-1.3C198.1,335.9,198.4,335.8,198.7,335.7z M205.7,330.2c-2.3,0.9-4.5,1.1-6.9,1.6c-0.5,0.6-1.1,1.2-1.5,1.9
		c0.6,0,5-0.6,2.7,1.4c0.9-0.4,1.8-0.8,2.7-1.3c0.1-0.1,0.3-0.2,0.4-0.2C202.1,332.8,205.2,330.8,205.7,330.2z M212.7,321
		c-2.7,0-5.7,1.9-8.2,2.6c-1.1,2-2.8,4-4.1,5.9c1.7,0.1,5-0.3,6.6-1C209.2,326.3,211.1,323.6,212.7,321L212.7,321z M216.8,313.6
		c0,0,0-0.1,0-0.1c-0.6,0.1-1.1,0.1-1.7,0.1c-0.1,0-0.2,0-0.3,0.1c0.7-0.4,0-0.6-0.7-1.4h0c-0.5,0.3-0.9,0.5-1.4,0.8
		c0.5,0.3,1,0.6,1.5,0.9c-1.7,0.7-3.3,0.9-5,1.7c-1,2.2-2.3,4.2-3.8,6c3-0.8,5.9-1.9,8.9-2.7C215.1,317.1,215.6,315.4,216.8,313.6
		C216.8,313.7,216.8,313.6,216.8,313.6z M261.2,582.5c-2.6,1.2-2.1,2.1,1.7,2.9C266,583.7,265.4,582.7,261.2,582.5z M276.2,581.1
		c-1.4,0.9-2.2,2.1-2.4,3.7C278.4,583.7,278.5,583.6,276.2,581.1z M278.1,571.9c0.2-0.3-9.4-3.4-9.8,0.2
		C268,575.8,277.9,572.3,278.1,571.9z M286.7,657.6c0,0.9,0.9,1.4,2.3,1.5C297,659.4,288.9,652.8,286.7,657.6z M299.7,677.4
		c-1.4,0.9-2.2,2.1-2.4,3.7C301.9,680,302,679.9,299.7,677.4z M301.6,668.2c0.2-0.3-9.4-3.4-9.8,0.2
		C291.5,672.1,301.4,668.6,301.6,668.2z M429.8,518.2c0,0.1-0.1,0.1-0.1,0.2c2.7,0,5.3-0.1,8-0.2
		C438.4,513.5,431.7,513.3,429.8,518.2z M430.1,460.4L430.1,460.4c1,1.5,7.4,7,9.6,2.2C441,459.5,427.3,460.3,430.1,460.4z
		 M416.5,455.2l0.4,0.6l0.6-0.5L416.5,455.2z M410.7,466.3c0.6-0.3,13,6.9,16.5,3.5C429.2,467.7,413.2,465.2,410.7,466.3z
		 M344.4,456.9c0.8,0.8,1.5,1.5,2.3,2.3c2-1.6,3.7-3.4,0.1-3.7C345.6,455.3,344.8,455.8,344.4,456.9z M335.1,489
		c2,0.4,1.8,0.9,2.8-0.9c-0.7-0.1-1.6-0.5-2.1-0.3C335.4,487.9,335.3,488.6,335.1,489L335.1,489z M325.6,497.3
		c2.1,0.7,4.4-0.5,1.7-0.8C326.8,496.8,326.2,497,325.6,497.3z M303.8,450.2c-0.4,3.7,12.5,0.9,9.5-1
		C309.6,447.4,306.4,447.7,303.8,450.2z M311.6,459.2c-1.4,0.9-2.2,2.1-2.4,3.7C313.9,461.8,313.9,461.7,311.6,459.2z M298.7,439.4
		c0,4.2,10.2-1.5,3.7-1.6C300.6,437.8,299.2,438.3,298.7,439.4z M285.9,461.7c0.3,1.6,0.6,3.3,0.9,4.9c3.2-0.7,6.5-0.6,9.8-0.1
		c0.3-4.3,1.7-8.2,4.3-11.7c3.7-2.7,3.7-2.7,1.2-5.8c-1.7,0.3-3.5,0.6-5.2,0.9c-2.2-0.8-4.1-0.5-5.8,0.6c-4.3-0.4-7.9,0.9-10.9,4
		C271.9,458.4,282.4,459.1,285.9,461.7z M273.6,532.1c-1.8,0.5-3.5,1.1-5.3,1.6C266.6,542.4,273.1,537.4,273.6,532.1z M242.4,345.9
		L242.4,345.9c0.3,2.5,4.1,1.9,3.8,0C245.9,343.8,242.8,344.4,242.4,345.9L242.4,345.9z M252.7,395.1c-0.4,1.3,3.3-15.6,3.1-16.2
		c-10.6,4.9-16.9,8.1-13.1,20.6c0.9,2.8,1.8,5.7,1.8,9.4C262.5,403.6,251.1,399.9,252.7,395.1z M219.3,566c2.6,7.3,8.9,5.5,11.2-1.2
		c24.3-2.3,50-20.2,71.1-31.7c30.8-16.9,60.4-35.3,86.3-59.2c4,2.2,9.6,19.6,13.4,6.1c-1-3.3-2.4-11.4-7.5-12
		c5.3-6,17.1-26.5,0.8-18.4c-7.8,3.9-19.5,25.7-27.9,32.7c-31.5,26.2-72,46.9-109.5,63.2c-8.8,3.8-17.6,6.9-26.8,9.5
		C225.8,547,214.5,560.6,219.3,566z M389.4,517.9c0.1-0.1,0.1-0.1,0.2-0.2C389.5,517.7,389.4,517.7,389.4,517.9z M636,729.6
		c-0.2,6.1,6.2,13.3,11.2,5.6c2.1,0.2,4.3,0.4,6.4,0.6c2.7,2.6,5.2,3.1,8.6,0.9c3.2,0.4,6.5,0.8,9.7,1.2c0.1,2.4,1.1,4.5,3.1,6.2
		c-73.9-9.3-149.9-4.9-223.2,6.7c-32.8,5.2-63.5,13.6-94.8,24.1c-13.1,4.4-28,11.6-42.1,8c2.4,0.6-27.4-11.6-22.4-16.9
		c0.8-0.8,23.1,9.3,24.9,9.4c-8.4-4.4-15.8-17.1-21.8-24.3c3.2-0.3,5.1-2.1,5.6-5.4c6.6,8.3,13.3,16.7,19.3,25.4
		c-0.4,1.1-0.9,1.9-0.7,3l0,0l0,0c0.2,0.6,0.3,0.9,0.6,1.4c3.9-0.2,7.7-0.9,11.4-2.2c-5-7.5-11.1-14.5-17.1-21.5
		c3.5-10.9,16.6-19.2,29.4-25.3c1.1,1.1,2.4,2.1,4,3.1c3.3-2.1,6.9-3.9,7.9-7c-1.2-0.1-2.3,0-3.4,0.1c12.3-5.2,24.9-9.8,37.5-14
		c5.9,13.7,14.1,26,20.6,39.3c1.6-0.4,3.3-0.7,5-1.1c-10.4-5-16.7-27.9-21.7-37.5c-7.8-14.8-15.6-29.7-24.2-44
		c1.5-0.2,3.1-0.1,4.6,0c-1.2-2.9-3.2-2.5-5.9-2.4c-11.3-21.9-24-43.6-33.8-66.2c-3.3-7.6-8.2-37.6-7.3-36.4
		c2.8-1.6,7.2-3.5,10.5-3.9c0-0.5-0.5-4-0.5-4.1c0.2-0.7-0.1-1.2-0.8-1.5c0-0.2,0.1-0.5,0.1-0.7c-17.3-16.9,60.6-69.7,69.4-50.1
		c5.8,4,11.6,12.6,15.5,18.3c-1.4-0.3-6.8-1.9-7.3,0.4c-1.1,4.6,7.2,4.1,8.7,1.7c3.5,6,7.1,11.6,10.8,17.4c-2.9,0.1-5.7,0.8-8.4,2.1
		c-6.8-9.3-13.2-20.4-18.1-30.7c-0.4,22.2-56.2,62.5-77.7,55.1c15.5,33.8,30.6,68.1,46.6,101.7c6.2,12.9,48.4,68.3,41.4,80.4
		c6.1-1.3,12.4-2.1,18.6-3.1c1.4,0.3,3.4,0.1,6.9-0.3c0.1-0.3,0.2-0.5,0.3-0.8c32.4-4.5,64.8-8.2,97.5-9.8c-2.8-2.5-5.1-6.3-7.1-9.4
		c0.9-0.1,1.8-0.1,2.6-0.2l0,0l0,0h0c-0.9-2.5-2.5-4.3-4.7-5.4c0,0,0.1-0.1,0.1-0.1c-0.1,0-0.1,0-0.2,0c0,0,0.1,0,0.1,0.1
		c-0.3,0.3-0.6,0.7-0.9,1c-8.3-13-14.1-27.3-22.2-40.5c2.3,0.6,4.6,1.2,7,1.7c7.4,11.4,13.1,23.7,20.2,35.3
		c-1.4,0.8-2.8,1.6-4.3,2.4h0c1.4-0.8,2.8-1.6,4.3-2.4c2.6,4.2,8.2,12.6,8,17.3c6.7-0.3,13.5-0.5,20.2-0.5
		c-10.4-19.2-25.8-35.3-37.5-53.6c24.8-0.3,49.6-2.1,74.5-2.1c12.4,18.3,25.1,36.3,38.3,53.9C638.1,729.8,637,729.7,636,729.6z
		 M546.9,694.4L546.9,694.4c-0.1-0.1-0.2,0-0.3,0c0.1,0.1,0.1,0.1,0.2,0.2C546.9,694.6,546.9,694.5,546.9,694.4
		c0.2,0.6,0.7,0.9,1.5,0.7C549.4,693.7,548.9,693.5,546.9,694.4z M555.3,714.7c-0.2-0.6-0.6-0.7-1.2-0.3c0.1,0.2,0.3,0.4,0.4,0.5
		C554.8,714.9,555.3,714.8,555.3,714.7z M341.2,545.7c0-0.1-0.1-0.1-0.2-0.2c0,0,0,0.1,0,0.1C341.1,545.6,341.1,545.6,341.2,545.7z
		 M392.2,527c-2.3-1.1-3.6-1.5-6.2-2c-9.6,13.5-28.2,22.5-43.8,26.3c0.8,0.2,1.2,1.9,2.7,2.5l0,0c15.2-6.2,33-14.4,45.2-25.5
		C390.7,528,391.5,527.4,392.2,527z M340.9,545c13.5-4.6,37.7-17,48.5-27.1c0.1,0.6,1.2,2.2,1.2,2.2c0.2,0.3,0.4,0.6,0.7,0.8
		c2,0.8-0.1,0.9,0.8,1.5c0.2,0.6,0.7,0.6,1.3,0.3c0.1,0.2,0.2,0.3,0.3,0.4c0.5,0.3,0.2,0.5,1.7,0.7h0c8.7-12,2.9-12.3,1.6-21.4
		c-17.6,7.4-55.2,17.1-56.2,41.8C340.9,544.4,340.9,544.7,340.9,545z M360.3,767.6c-0.5,0.2-0.9,0.5-1.4,0.7
		c0.2,0.2,0.4,0.4,0.6,0.5C361.1,768.6,361.4,768.2,360.3,767.6z M369.3,751.5c-0.5,1.1-0.1,1.5,0.9,1.3
		C370.4,751.2,370.5,751.6,369.3,751.5z M382.7,736.5c-4.1-0.1-7.5,1.4-10.2,4.2C372.3,745.9,389.8,743.6,382.7,736.5z M470.8,744.2
		c-3.7,1.2-3.7,1.2-1.7,3.4C470.7,746.6,470.4,745.3,470.8,744.2z M626.3,729.5c-6-5.8-13-0.4-15.2,4.8c2.3,1.4,4.8,2.3,7.4,2.6
		C623.8,737.7,625,733.5,626.3,729.5z M320.2,773.6C320.2,773.6,320.2,773.6,320.2,773.6C320.2,773.6,320.2,773.5,320.2,773.6
		C320.2,773.6,320.2,773.6,320.2,773.6z M320.1,773.5C320.1,773.5,320.1,773.5,320.1,773.5c0,0,0,0-0.1-0.1
		C320.1,773.4,320.1,773.5,320.1,773.5z M319.8,773.8c0,0-0.1,0.1-0.1,0.1C319.7,773.9,319.8,773.9,319.8,773.8
		C319.8,773.8,319.8,773.8,319.8,773.8z M320.3,773.7C320.3,773.7,320.3,773.7,320.3,773.7C320.3,773.7,320.3,773.7,320.3,773.7
		C320.3,773.7,320.3,773.7,320.3,773.7z M319.9,773.5c0,0,0-0.1,0-0.1c0,0.1-0.1,0.3-0.2,0.4C319.9,773.7,319.9,773.6,319.9,773.5z
		 M218.8,632.1c16.2,27.5,31.4,56.3,49.4,82.7c-0.7,0.1-1.4,0.2-2.1,0.3c-1.1,0.9-2.4,1-3.6,0.2c-8.3,1.1-26.9,14.5-31.9,20.9
		c4.1-0.2,8.2-0.5,12.3-0.7c10.5-7.6,18.3-9,30.1-13.8c6.3,8.9,12.8,17.6,19.8,25.9c0.3-2.8,1.3-5.6,3.6-8.1
		c-21.7-27.1-39.4-56.8-57.3-86.4c-1.5,0-2.9,0.1-4.4,0.1c0.7-0.9,1.8-1.6,3.2-2.1c-8.3-14-17.4-27.5-24.7-42
		c-1,1.3-2.6,2.2-5.5,2.2C211.1,618.6,214.9,625.5,218.8,632.1z M320,773.3L320,773.3C320,773.3,320,773.3,320,773.3
		C320,773.3,320,773.3,320,773.3z M320,773.4C320,773.4,320,773.3,320,773.4C320,773.3,320,773.4,320,773.4L320,773.4z M320,773.3
		C320,773.3,320,773.3,320,773.3C320,773.3,320,773.3,320,773.3z M320,773.3C320,773.3,320,773.3,320,773.3L320,773.3
		C320,773.3,320,773.3,320,773.3z M660.1,730.8c-1.7-4.2-3.8-8.2-6.5-12c-0.2,0.1-3.3,1-4.7,1.2c0,0.7-0.2,1.4-0.5,2.1
		c2.4,3.1,5.1,6,7.8,8.8C657.6,730.8,658.8,730.8,660.1,730.8z M717.8,745.1c-0.5-0.1-1-0.2-1.5-0.2
		C716.8,744.9,717.3,745,717.8,745.1z M717.8,745.1c0.8,0.2,1.6,0.5,2.3,0.9c0,1.8,0,3.7,0,5.5c10.5,1.7,174.4,37.3,171.6,15.3
		c0.7,5.8-131.8-14.5-137.4-15.7C742.3,748.7,730,746.8,717.8,745.1z M708.8,743.7c-4-0.4-7.9-1-11.9-1.7c-0.1,0.2-0.3,0.5-0.5,0.7
		c-0.3-0.3-0.5-0.6-0.7-0.9c-5.7-1.1-11.5-2.1-17.3-3.1c0.3,0.7,0.6,1.4,0.9,2.1c4.3,0.2,6.2,1.2,6.6,5.1c8.2,1.6,16.4,2.8,24.6,4.1
		c2-1.4,3.6-2.6,4.2-5.4c-0.6-0.1-1.1-0.2-1.7-0.2c0,0,0.1,0,0.1,0C711.8,744.2,710.3,744,708.8,743.7z M681.2,745
		c0.2-0.3,0.2-0.5-0.1-0.7c-1,0-2.1,0-3.1,0.2C679.1,744.6,680.1,744.8,681.2,745z M283.7,805.1c40.6,33.1,112.9,14.8,160.2,11.3
		c13.8-1,147.3,12.6,148.5,8.2c2.6-10.2-135.3-15.4-147.1-14.5c-0.5,3.7-7.6,2.2-9.5,1.2c-38.2,4.9-86.7,7.7-123.8-4.6
		c-10.3-3.4-19.4-7.4-27.3-14.8c-7.5-7.1-8-24.1-11.9-27.5c-1.9-1.6-6.2,3.9-6.5,5.5c-2.3,12.2,3.9,22.6,12.6,30.9
		c0.3-0.1,0.5-0.1,0.9-0.2c-0.1,0.2-0.2,0.5-0.3,0.7C280.7,802.5,282.1,803.8,283.7,805.1z M300.1,848.3
		c-16.2-6.4-34.8-6.3-49.5-16.4c-21.6-14.7-18-32-26.1-50.1c-4.5-10.2-8.7-9.5-11.5,5.6c-1.7,9.5,5.1,22,10.6,29.3
		c16,21.7,37.1,21.3,58,33.5c4-4.1,19.6-2.2,16.8,4.8C304.2,855.5,305.7,850.3,300.1,848.3z M224.2,743.8
		c-3.8,4.9-14.1,22.9-0.4,17.5c6.7-2.6,9.9-13.5,13-19.1c-4,0.7-8.3,0.8-12.4,1.3C224.4,743.6,224.3,743.7,224.2,743.8z
		 M503.4,660.6c-2.9-4.8-5.2-10-7.9-14.9c-1.4,0.9-2.9,1.3-4.4,1.2c4.5,7.8,8.3,15.8,12.9,23.6c0.2-0.1,0.5-0.3,0.8-0.4
		c1.7-2,0.7-4-0.2-5.9c0.3,0,0.6-0.1,1-0.1C504.9,662.8,504.2,661.7,503.4,660.6z M459.6,581.8c-7.6-13.4-14.8-27.3-23.3-40.1
		c-3.2-0.1-6.5-0.1-9.7-0.2c22.1,33.1,43,67.7,62.8,102.2c1.3-0.6,2.7-1.1,4.4-1.3c-10.6-19.1-21.1-38.4-32.2-57.3
		c-1.5,0.8-2.8,0.4-3.9-1.2c0.7-0.6,1.5-1.2,2.1-1.9C459.6,582,459.6,581.9,459.6,581.8z M175,236.2c-21.2,6.5-40.8,19.5-50.8,39.8
		c5.6-11.4,40.7-27.2,53.7-30.5C204,238.8,200.9,228.2,175,236.2z M900.8,790C763.6,789.6,626,745.8,489,766.6
		c0.1,2.4-1.1,5.5,1.8,7.3c119.6-19.5,239.9,10.4,359,20.9c1.6-0.7,3-0.6,4.3,0.3c17.4,1.2,34.8,1.4,52.2,0.2l-0.3-5.4
		C904.3,790,902.6,790,900.8,790z M467.5,770.6c-35.9,7.6-69.2,18.6-106,22.1c1.7,4.5-9.8,8.3-10,2.3c0.1-0.1,0.2-0.2,0.3-0.2
		c0.8-0.6,1.5-1.1,2.2-1.7c-0.9,0-21.8-1.1-22.1,0.3c-0.9,4,29.7,5.6,33,5.6c0.1-0.1,15.7-16.7,14.4-0.9c16.6-1.9,32.7-4.3,48.8-8.8
		c-1.9-5.3-0.3-8.4,4.8-9.1c3.3,4.7,3.3,4.7,10.9,4.5c0.1,0.1,0.2,0.1,0.3,0.2c12.3-3.4,24.4-6.8,36.9-9.2c1.2-1.4,1.3-3.2,0.1-5.3
		C474.7,769.6,472.9,769.4,467.5,770.6z M619.9,847.7c-52.1-7-108.4,6.8-161.2,5.9c-39.8-0.6-81-4.7-119.7-14.1
		c-7.5-1.8-66.5-24.1-66.2-24.6c-9.1,14,81.4,35.8,85.9,36.6c43.3,7.3,87,6.5,130.7,6.1c4.3-2.1,4.5-2.1,7.5,0
		c5.5,0.1,21.9-2.8,26.3-0.2c21.3-0.9,42.6-1.4,63.9-2.4C595.2,854.5,626.5,848.5,619.9,847.7z M654.7,652.8
		c1.6-4.6,16.2-7.6,18.8-5.2c4,3.9-10.4,4.9-12.1,5c13-0.4,161.9,1.6,161.7,2.4c1.8-9.5-176-9.7-184.9-8.9c4.9,1.9,9.7,4.2,14.3,6.8
		C653.2,652.9,653.9,652.9,654.7,652.8z M661.3,652.6c0,0-0.1,0-0.2,0C661.2,652.6,661.2,652.6,661.3,652.6z M872,720.2
		c-19.8,0-39.4-1.7-59-3.4c-35.9-3.2-70.6-11.3-106.2-16.9c24.7,12.1,52.3,23.2,78.3,32c-2.8,0.8-5.1,3.5-1,5.4
		c-31-9-72.4-21-100.3-39.3c-9.1-0.2-17.8-1.6-26.9-1.4c0,0,0,0,0,0c0,0,0,0-0.1,0.1c-1.8,0-15.7,0.9-16.3-1.7
		c-3.5-14.8,136.7,12.7,141.2,13.5c42,7.7,86.1-2.1,127.1,5.3C914.3,714.7,879.6,720.2,872,720.2z M662.7,693.8
		c0,1.7,1.7,2.9,2.7,2.3C668.7,694.3,665.7,690.6,662.7,693.8z M788.4,738.2c10.6,2.2,103.7,14.7,103.2,2.5c0-0.8-87.2-2.7-99.3-6.4
		c-0.8,1-2,1.8-3.8,2.4C788.5,737.1,788.4,737.6,788.4,738.2C788.4,738.1,788.5,738.1,788.4,738.2
		C788.5,738.1,788.5,738.2,788.4,738.2z M788.4,738.2C788.4,738.2,788.4,738.1,788.4,738.2c-0.6-0.1-1.3-0.2-1.9-0.3
		c0.6,0.2,1.1,0.3,1.7,0.5C788.3,738.3,788.3,738.2,788.4,738.2L788.4,738.2z M110.4,263.1c0,0.2,0,0.3-0.1,0.5
		C110.5,263.5,110.5,263.3,110.4,263.1z M926.2,692.6c-15.6,1.7-32.2,0.1-47.8-0.5c-32.5-1.2-65.2-6.1-97.4-10
		c-33.2-4.1-66.4-8.5-100-8.4c-19.7,0-41.2,2.2-60.5-1.2c10.7,14.6,21.7,28.8,31.7,43.9c-1.2,0-2.4-0.1-3.6-0.1
		c-2,1.3-1.2,4.9,0.5,3.6c0,0.7-0.2,1.4-0.5,2.1C583,643.3,527.6,556.1,463,476.5c-17.5-21.5-35.5-42.8-64.5-46.9
		c-25.1-3.5-48.8,13.3-73,2.8c-34.9-15.2-62.6-78-80.8-109.2c2.8,2.1,5,4.7,7.7,1.7c-0.5-1.9-7.2-5.8-9.3-4.5c-2-3.5-4-7.1-5.8-10.8
		c2-0.4,3.6-1.1,4.6-2.4c-2.6-0.4-4.1,0.3-5.1,1.4c-12.5-25.5-29.3-51.6-37.6-78.9c-22.5,2.3-81.9,18.2-83.1,49.8
		c-0.8,20.5,30.5,47.3,42.2,63.7c25.8,36.2,74.5,87.8,79.5,133.5c2.8,26.1-17.4,37.8-27.4,59.4c-10,21.7-10,45.3-0.1,67.1
		c-1.5,1-2.7,2.1-3.6,3.5c-0.3,0.1-0.7,0.2-1.1,0.3c-14.3-31.6-8.9-62,9-90.6c19.3-30.8,18.6-44.2-0.2-75.6
		c-23.9-40-52.1-79.7-82-115.5c0.8-0.3,1.5-0.8,2-1.5c-1.7-0.5-3.4-1.1-4.9-1.9c-17.6-21.1-34.9-41.9-12.3-65.1
		c0.2-3.7,1.7-8,3-11.5c-2.9-4.9-3.6-10.9-5.2-16.3c-1.6,5.4-3,10.9-4.5,16.3c0.2,0.9,4.7,12.6,3.6,13c-1.6,0.5-4.1-7.8-4.6-9.4
		c-0.4,1.2-1,2.6-1.7,3.7c2.1,3.3,3,6.8,2.5,10.5c-2-5.4-59.9-47.2-64.2-49.5c5.7-7.6,11.7-15.2,18.2-22.1c4.5,7.3,11.5,0,13.3-4.4
		c-2.4-4.5-4.8-1-8.6-0.4c8.7-9,17.8-16.8,28.8-22.7c1.5,3,6.2,3.8,9.2,2.9c0.4,3.4-0.1,7,0.4,10.3c2.8-3.7,5.7-7.3,8.5-11
		c0.1-1.9,0.4-3.9,1.3-5.7c-2.7,1.6-5.4,3.3-8.1,4.9c3.8-4.2-2.3-5-4.5-5.5c15.6-9,30.2-18.8,49.2-16.7c1.3-0.7,4.8-2,2.2,0.3
		c8.8,1.8,9.7,9.9,11.2,17.6c-2.2-1.6-4.4-2.2-6.7-1.8c-1.1-7.6-2.7-10.1-11-10.6c1.1,4.1,0.4,8.7,0.7,12.9c0.7-0.9,5.3-5.8,6-5
		c1,1.1-5.2,7.2-5.7,7.8c0.5,4.1,0.6,8.3,1.1,12.5c2.1-2.9,4-6.1,6.2-8.9c-0.4-1.8-1.6-14.5,0.9-14.6c0.7,0,1.1,5.7,1.2,6.2
		c-0.1,0.1-0.2,0.1-0.3,0.2c-0.3,0.5-0.1,0.8,0.3,1c0,1.6,0,3,0.2,4.6c1.7-1.4,0.3,1.7,0.2,1.9c0.4,2.8,0.6,5.7,1,8.5
		c2.3-2.7,1.2,1.3,0.4,2.6c0.7,5.2,1.6,10.4,2.5,15.5c0.2-0.9,0.7-1.8,1.5-2.2c-1.5-10.2-3.3-20.2-4.9-30.4c2.3,2,4.6,2.4,6.7,1.4
		c4.2,21.4,10.6,41,16.5,61.8c5,0,9.9,0.9,14.6,2.6c0,0.4,13.9,17.5,15.8,20.6c-1.1,0.1-2.8,0.1-1.8,1.4c1,0.4,2.1,0.7,3.2,0.8
		c2.4,3.9,4.8,7.7,7.2,11.6c-3.4,0.2-0.4,2.1,1.4,2.3c20,32.7,36.6,67.2,57,99.8c9.8,15.7,19.1,33.2,31.7,46.9
		c19.2,20.7,33.5,14.9,58.5,11.7c80-10.2,127.8,95.2,169.7,148.1c-0.4,0.5-0.8,0.9-1.2,1.3c0.9,0.9,1.8,1.7,2.6,2.6
		c0.5-0.2,0.9-0.4,1.2-0.7c19.8,25,39.8,49.6,58.9,75.2c9.4-4.7,22.1-1.6,32.2-2.4c-0.4,3.8,1.6,6.4,6.2,7.7
		c-11.3,0.9-25.5,1.5-36.2-2.2c4.2,5.6,8.3,11.2,12.4,16.8c0.2-0.1,0.5-0.2,0.7-0.3c-0.6,0.3-1.1,0.7-0.9,1.5
		c0.4,2.8,5.3-0.6,5.3-0.6c0.4-0.8-2.4-1.5-4.1-1c6.8-2.6,15.6-3.5,22.9-4.4c-0.2,1.1-0.2,2.2-0.2,3.3c3.8,0.9,18.3,6,16.7-3.6
		c52.7,2.9,103.6,8.6,156,15.9c21.6,3,42.3,6.1,64.2,6.2c23.8,0.1,50.5-5.7,74-3.5C961,682.6,931.2,692.1,926.2,692.6z M200,586.4
		c1.3,1.5,2.6,1.3,3.9-0.4C202.6,584.5,201.3,584.6,200,586.4z M124.3,304.6c-0.3-0.1-0.7-0.3-1.1-0.2
		C121.7,304.6,124.3,306.3,124.3,304.6z M168.2,209.9c1.1,3.1,1.4,6.6,2.4,9.9c0.1-0.8,1.1-4.5,2.5-3.6c-1.2-2.6-2.3-5.3-3.2-8
		C169.4,208.7,168.5,209.3,168.2,209.9z M165.1,196.8c0.5,3.8,1.4,7.4,2.5,11c0.6-0.6,1.2-1.3,1.6-2c-1-3.6-1.9-7.2-2.7-10.9
		c-0.1,0-0.2-0.1-0.3-0.2C166,195.5,165.5,196.2,165.1,196.8C165.1,196.8,165.1,196.8,165.1,196.8z M163.9,198.5
		c-2.4,3.3-4.5,6.9-6.7,10.4c1.1,3.7,1.5,7.5,2.5,11.2c0.2-0.3,0.3-0.6,0.5-0.9c2.3-3,4.3-6.1,6.2-9.4
		C165.2,206.1,164.4,202.3,163.9,198.5z M152.2,179.6c0.4,3.2,0.6,6.4,1,9.5c1.9-3.7,4.2-7.1,6.4-10.7c-0.5-2.6-0.9-5.1-1.2-7.7
		c-1.9,2.9-3.9,5.8-6,8.5C152.4,179.3,152.3,179.5,152.2,179.6z M148.3,167c-2.8,3-5.3,6.1-7.8,9.4c0.8,5.2,2.2,10.4,2.6,15.7
		c2.2-4.2,4.2-8.8,6.8-12.7C149.2,175.3,148.7,171.1,148.3,167z M132,189c1,6.2,1.8,12.4,3.1,18.6c2.2-4.4,3.9-8.9,6.6-13.1
		c-1.1-5-2.2-10.2-3.1-15.3C136.5,182.6,134.1,185.7,132,189z M138.1,176.9c-1-5.5-1.7-10.8-1.9-16.4c-2.4,2.7-4.5,5.6-6.8,8.4
		c0.6,6,1.3,12,2.3,18C133.9,183.6,136,180.3,138.1,176.9z M148.4,149.6c-3.4,2.7-7,5.3-10,8.5c0.8,5.2,1.2,10.5,1.8,15.8
		c2.3-3.4,5-6.5,7.8-9.6C147.2,159.8,147,154,148.4,149.6z M128.4,156.6c0.2,1.3,0.3,2.7,0.5,4c-0.9,0.1-1.8,0.3-2.6,0.8
		c0-1,0-2.1,0-3.1c-2.8,2.4-5.4,4.8-7.9,7.6c0.2,5.4,0.2,10.8,0.5,16.2c2.6-4.2,4.7-8.4,7.9-12.3c-0.3-2.3-0.7-4.6-0.6-6.9
		c0.7,0.6,1.6,0.7,2.7,0.6c0,1.1,0.1,2.2,0.2,3.4c2.3-3,4.6-6,7.1-8.8c0-2.3,1.4-6.8,1.9-2.2c2.3-2.7,5.5-5,8.3-7.2
		c-2.3-0.1-4.6,0.2-6.8,0.8c-1.7,0.5-3.3,1-4.9,1.6C132.8,153.1,130.6,154.8,128.4,156.6z M128.1,153.7c0,0.1,0,0.3,0.1,0.4
		c0.4-0.3,0.7-0.6,1.1-1c-0.2,0.1-0.4,0.2-0.5,0.2C128.5,153.5,128.3,153.6,128.1,153.7z M118,160.1c0.5,1,0.6,2.1,0.4,3.3
		c2.5-2.9,5.3-5.5,8.2-8c0.1-0.4,0.2-0.8,0.3-1.2c-2.7,1.4-5.2,3.1-7.6,5C118.8,159.6,118.4,159.8,118,160.1z M107.8,179.7
		c0.5,6.5,1.3,13,2.4,19.4c2-4.9,4.1-9,6.6-13.5c-0.6-5.2-1.9-11.2-1-16.5c-2.4,3-4.8,5.9-7,9C108.4,178.7,108.1,179.2,107.8,179.7z
		 M97.2,172.9c1.3,6,0.9,13.2,1.5,19.4c1.8-3.9,4.5-7.3,6.5-11.2c-0.5-4.3-0.8-9.1,0.3-13.4C102.8,169.6,100,171.3,97.2,172.9z
		 M95.6,174.8c-3.3,5-6.3,9.5-8.5,15c0,0.1-0.1,0.2-0.1,0.3c1,7.6,2.2,15.2,4,22.7c1.4-5.5,3.5-10.7,5.6-16
		C95.5,189.8,94.1,182,95.6,174.8z M86.3,181.5c0.2,1.6,0.4,3.2,0.6,4.8c1.9-3.9,4.1-7.4,6.5-11c-1.7,1.4-3.3,2.8-4.9,4.2
		C87.7,180.2,87,180.9,86.3,181.5z M78.2,189.5c1.5,2.5,1.1,9.7,1.4,12.7c1.4-3.6,2.6-7.8,4.7-11.2c-0.3-2.4-0.1-5.4,0.2-7.9
		C82.3,185.3,80.2,187.4,78.2,189.5z M70.5,198.1c0,0.1,0,0.1,0,0.2c0.1-0.1,0.1-0.3,0.2-0.4C70.6,198,70.6,198.1,70.5,198.1z
		 M64.9,198.3c-0.3-0.1-0.7-0.3-1.1-0.2C62.3,198.3,64.9,200,64.9,198.3z M67.4,201.8c-2.3,2.8-4.5,5.6-6.7,8.5
		c1.6,0.9,3.2,1.8,4.6,2.6C65.9,209,67.8,205.7,67.4,201.8z M70,215.4c-0.8-1.4-0.9-3.9-1.4-5.6c-0.4,1.4-0.2,3-0.7,4.5
		C68.6,214.7,69.3,215,70,215.4z M74.5,217.9c0.4-3.5,1.9-7.8,3.2-11.1c-1-4.9-2.6-10.7-1-15.7c-3,3.3-5.4,7.8-6.5,12.1
		c0.6,4.6,0.7,9,2,13.4C73,217.1,73.8,217.5,74.5,217.9z M81.9,222.8c-1.3-3.6-1.9-7.2-2.9-10.8c-0.6,2.5-1.7,4.8-2.5,7.2
		c1.6,1,3.2,2.1,4.8,3.2C81.5,222.6,81.7,222.7,81.9,222.8z M85.9,229.6c-0.2-0.6-0.5-1.2-0.7-1.8c-0.2,0.1-0.3,0.2-0.4,0.2
		C84.7,229,85.1,229.5,85.9,229.6z M89.1,220.6c0.3-1,0.6-2.1,0.8-3.1c-2-7.6-3.5-15.3-5-22.9c-1.6,4.3-3.1,8.6-4.6,13
		c0.9,5.6,2.5,11,3.4,16.5c1.5,1,2.9,2.1,4.3,3.2C88.2,225,88.5,222.8,89.1,220.6z M96.2,236.6c-1.7-4.7-2.6-10-4.7-14.5
		c-0.7,2.2-1,4.5-1.8,6.7c1.5,1.5,2.9,3.1,4.2,4.8C94.7,234.6,95.4,235.6,96.2,236.6z M98.2,236.8c0.9-4.9,2.5-9.5,3.8-14.3
		c-2.5-6.4-3.5-14.6-4.7-21.2c-2.2,5.9-3.9,12-5.1,18.2c1.3,5.8,3.4,12.1,5.9,17.4C98.2,236.9,98.2,236.8,98.2,236.8z M108.3,244.3
		c-1.4-5.6-3.6-11-4.9-16.7c-1.5,3.9-2.4,8-4.2,11.7c0.2,0.5,0.3,1,0.4,1.4c2.6,3.1,5.7,6.8,7.6,10.5c0.3-1.7,0.5-3.4,0.7-5
		C108.1,245.6,108.2,244.9,108.3,244.3z M113.8,224.8c-1.6-5.7-3.1-11.6-4.3-17.4c-2,5.7-3.7,11.4-5.2,17.3c1,5.6,2.7,11,4.8,16.3
		c1.5-4.8,2.5-9.7,4-14.5C113.4,225.9,113.6,225.4,113.8,224.8z M120.6,207.2c-0.3-0.8-0.5-1.6-0.7-2.4c0.6,0,1.2,0,1.7,0
		c0,0,0,0,0,0.1c0,0,0,0,0-0.1c0.7,0,1.5,0,2.2,0c-0.5,1-1,2.1-1.4,3.1c1.7,5.9,2.4,11.8,4.7,17.6c1-2.7,2.1-5.4,3.2-8.1
		c0.8-0.3,1.7-0.5,2.6-0.8c-1.6,4.2-3.2,8.4-4.6,12.6c0.8,3.7,2.5,7.1,3.3,10.8c1.4-5.3,3.5-10.7,5.5-15.8
		c-0.8-3.7-1.9-7.4-2.7-11.1c-0.4,0.9-0.8,1.8-1.2,2.8c-0.1-0.9-0.3-1.8-0.4-2.7c0.9-0.2,2-0.6,2.9-1c0.7,3.1,1.5,6.2,2.4,9.2
		c2-5.1,4-9.9,6.5-14.8c-0.1-0.7-0.2-1.4-0.4-2.1c1.1-0.1,2.2-0.4,3.3-0.7c-0.3,1.2-0.8,2.4-1.3,3.5c0.7,3.9,2.6,7.6,3.6,11.4
		c1.7-3.4,3.8-6.5,5.6-9.8c-0.5-2-0.9-4.1-1.4-6.1c0.5-0.1,1-0.2,1.4-0.5c0.4,1.6,0.7,3.1,1.2,4.7c2.7-3.3,4.2-7.7,6.6-11.2
		c-0.3-1.2-0.6-2.3-1.1-3.5c-0.7-3.7-1.2-7.3-2-10.9c-2.3,3.5-4.7,6.7-6.5,10.5c0.7,2.5,1.1,5.1,1.4,7.7c-0.5-0.2-1-0.3-1.5-0.4
		c-0.2-1.7-0.5-3.5-0.9-5.1c-0.8,1.5-1.5,3-2.5,4.5c-0.5-0.2-1.1-0.2-1.6-0.2c1.2-2.2,2.4-4.3,3.4-6.5c-0.9-3.1-0.9-6.5-1.5-9.7
		c-2.3,4.1-4.5,8.4-7,12.3c0.2,1.3,0.4,2.6,0.8,3.8c-0.6,0-1.1,0-1.7,0c-0.2-0.5-0.3-1.1-0.4-1.6c-0.3,0.5-0.7,1.1-0.9,1.7
		c-1.8,0.4-2.6,1.5-2.5,3.1c0.1,0.4,0.2,0.9,0.4,1.3c-1,2.8-2.2,5.5-3.6,8.1c0,0.5,0.1,0.9,0.2,1.3c-0.9,0.4-2,0.8-2.9,1
		c-0.2-0.1-0.3-0.3-0.5-0.4c0.5-1,1-2,1.6-2.9c-0.7-6.1-2.5-12-3.5-18.1c-1.2,2.4-2.3,4.9-3.5,7.4c-0.4-0.3-1-0.6-1.5-0.9
		c1.6-2.9,2.9-5.9,4.6-8.7c-1.2-5.9-1.8-11.9-2.8-17.8c-3.2,4.2-5.4,8.9-8,13.5c0.3,3.8,0.9,7.7,1.5,11.5c0,0-0.1,0-0.1,0
		c-0.2-1.4-1-2.4-2.5-3c-0.3-1.6-0.6-3.3-0.8-4.9c-2.2,5.2-5.6,9-8.4,13.9c-1.5-6.2-2.2-12.5-3.1-18.7c-2.5,4.2-4.7,8.2-6.5,12.8
		c0.9,7.6,2.2,15.4,3.7,23c1.3-4.5,2.8-8.9,4.5-13.3c1.3,0,2.6,0,3.9,0c0.9,5.2,2,10.9,3.5,15.9
		C116.5,217.2,118.5,212.2,120.6,207.2z M145.3,209.5c-2.3,5.2-4.2,10.6-6,16c0.5,3,1.3,6,2.4,8.8c0.2-0.5,0.5-0.9,0.8-1.3
		c2.4-3.4,4-7.8,6-11.5C147.8,217.4,146.3,213.5,145.3,209.5z M121.1,242.9c1.5-5,3.2-9.9,5-14.7c-1.4-6-3.5-11.7-4.6-17.7
		c-2,5.2-3.8,10.6-5.6,15.9c1.6,4.6,3,9.1,4.3,13.8C120.5,241,120.9,241.9,121.1,242.9z M141,238.7c-1.6,1-0.5-1.6-0.4-1.9
		c-1.3-2.4-2.1-5-2.7-7.6c-1,3.2-8.5,20.3-6.7,12.4c-2.2-0.7-3.5-6.9-4.1-9.1c-2.6,7.3-4.2,15.1-7.7,22.1c4.9-4.4,10.1-8.4,15.7-12
		C137.2,241.3,139,240,141,238.7z M142.9,240.2c-0.9-0.3-1.5-0.8-1.7-1.6c-0.2-0.8,0.3-1.5,0.9-2c-0.6,0.5-1.1,1.2-0.9,2
		C141.4,239.3,141.9,239.9,142.9,240.2z M141.6,238.3c-0.1,0.1-0.3,0.2-0.4,0.3C141.4,238.5,141.5,238.4,141.6,238.3L141.6,238.3z
		 M152.9,231.9c-2.2-1.1-3.1-4.6-3.6-6.8c-2,4.3-3.7,8.3-6.5,12.1c0,0.1,0.1,0.2,0.1,0.3l0.1,0C146.2,235.4,149.5,233.5,152.9,231.9
		z M155.4,227.3c0.9-1.7,1.9-3.3,2.9-4.9c-1.1-3.7-1.4-7.5-2.3-11.3c-1.7,3.8-3.6,7.4-5.4,11.1c0.8,2.9,1.4,5.7,2.8,8.4
		C154,229.4,154.5,228.3,155.4,227.3z M177.3,224.7c-1.4-2.3-2.6-4.8-3.6-7.3c-0.5,4.7-7.8,11.8-4.3,4.8c-1.4-3.3-1.8-6.7-2.4-10.2
		c-2.3,3.8-4.5,7.3-6.5,11.4c0,0,0.3,3.7-0.9,1.8c-1.2,2.1-1.9,3.6-3.5,5.3c5.6-2.4,11.7-4.4,17.8-5.4
		C175,225,176.2,224.8,177.3,224.7z M228.6,286.7c-0.9,0-1,0.3-0.5,0.8C229,287.5,229.2,287.2,228.6,286.7z"/>
</g>
</svg>
