<svg xmlns="http://www.w3.org/2000/svg" viewBox="0 0 200 200"><defs><style>.a{fill:#a59f93;}.b{fill:#777062;}.c{fill:#63362f;}.d{fill:#897974;}</style></defs><path class="a" d="M92.19707,19.22563c11.988,6.00206,17.25251,25.37189,4.39654,42.80064-9.791,13.27365-17.9483,14.27345-15.87144,22.19652s11.4749,33.49869,11.4749,33.49869l.09314-.03694a139.6729,139.6729,0,0,1,14.56326-5.77364l.07374-.02919s-6.03592-16.40346-8.55427-22.84489,21.66248-21.742,23.423-47.56474S111.97521,2.84773,89.53933.5393,40.9862,2.95512,31.55223,22.091c-8.16479,16.56136-3.61866,31.52567,1.90764,37.75678a1.44357,1.44357,0,0,0,2.538-.87648c.30689-8.04157,2.35489-29.81014,16.1322-37.04992C68.35543,13.39524,79.65235,12.94483,92.19707,19.22563Z"/><path class="b" d="M157.59372,119.18112c-16.46253-23.74947-58.83247-6.666-80.90382,6.77739S71.974,175.012,71.974,175.012l96.90751-28.91837S163.19527,127.26216,157.59372,119.18112ZM75.547,169.48413c-2.33412-.84818-2.19294-4.55977,0-5.81a3.86691,3.86691,0,0,1,5.59662,2.19466C81.88306,168.53925,77.88109,170.3323,75.547,169.48413Zm2.04876-23.74426c-1.30324,9.3008-.13214,15.04333-2.06308,15.24955s-5.97218-4.1631-5.33735-13.38783S73.66351,133.446,79.68,128.50214c0,0,7.85412-6.79719,9.67541-2.54363S78.899,136.43913,77.59572,145.73987Z"/><path class="c" d="M176.31383,146.56131c-1.71157-1.51754-7.4323-.46767-7.4323-.46767L71.974,175.012l-4.9624,1.53978a3.0295,3.0295,0,0,0-1.95447,3.92727c2.14655,5.918,6.95778,18.614,8.96288,19.29679.81521.27763,6.80716-2.08277,21.13644-6.218L98.484,185.6438a.21283.21283,0,0,1,.40057-.13136l3.34959,6.8331c.91678-.266,1.85021-.53765,2.79139-.81213l1.45986-3.23823a1.26015,1.26015,0,0,1,1.47923-.69815l5.43856,1.47773c2.16568-.63792,2.207-.65313,4.437-1.31579l.37286-2.99513a.52524.52524,0,0,1,.67347-.4378l5.19163,1.57237c27.98829-8.37834,57.43691-17.59121,58.25712-18.412C183.88786,165.93277,178.0254,148.07886,176.31383,146.56131Z"/><path class="d" d="M97.66272,1.96316c8.31831,4.89716,18.14237,11.7006,20.29338,26.63462C120.55573,46.6466,96.72367,78.70642,94.454,84.94815s6.49591,29.07648,6.49591,29.07648h.033c1.93684-.74483,3.89245-1.46121,5.87062-2.11373l.07374-.02919s-6.03592-16.40346-8.55427-22.84489,21.66248-21.742,23.423-47.56474C123.32957,18.97671,114.73473,6.36647,97.66272,1.96316Z"/></svg>