<svg xmlns="http://www.w3.org/2000/svg" viewBox="0 0 200 200"><defs><style>.a{fill:#c9c5b3;}.b{fill:#a59f93;}.c{fill:#cec3b3;}.d{fill:#847e40;}.e{fill:#694037;}.f{fill:#755a4b;}.g{fill:#704d41;}.h{fill:#d6cdb8;}.i{fill:#bfb7b0;}.j{fill:#ab9a8c;}.k{fill:#b5ac93;}.l{fill:#e3d7c8;}</style></defs><path class="a" d="M116.73617,153.44612l-.0285.00012a4.86464,4.86464,0,0,0,.58508-2.1969c0-8.34973-25.75085-13.34827-58.01031-13.34827S.87149,144.66987.87149,153.01948c0,5.93408,12.97259,11.98608,32.0545,14.99329-2.28534,1.75769-3.56024,3.66638-3.56024,5.7218,0,9.12158,42.01611,14.73388,77.25824,14.73388s73.486-11.31823,73.486-20.43994S151.97836,153.44612,116.73617,153.44612Z"/><path class="b" d="M90.98147,60.90543s22.94556-4.79743,27.55478,1.1404,5.34473,34.61968.13257,42.19441-17.08348,11.06938-17.08348,11.06938l-2.00957-10.3704s11.39012,2.21727,14.18352-7.87939.9716-22.84335-1.94954-27.8861-18.69026.78427-18.69026.78427Z"/><path class="c" d="M120.29265,65.95679a12.31,12.31,0,0,0-1.75639-3.91094c-4.6092-5.93786-27.5548-1.14043-27.5548-1.14043l.31057,1.315,1.67163,2.58583C102.52642,63.35771,116.13059,59.43963,120.29265,65.95679Z"/><path class="d" d="M119.37269,75.59041c0-8.09076-6.53282-9.62047-14.27543-8.41967,3.00423-.20614,5.67288.20835,6.71247,2.003,2.92115,5.04275,4.74295,17.78944,1.94954,27.88612a10.13815,10.13815,0,0,1-6.39671,7.20957l.00011.00185C119.5968,104.27127,119.37269,83.68123,119.37269,75.59041Z"/><path class="d" d="M101.83,115.2338c1.7-.53905,12.06229-4.05193,16.83882-10.99354.09827-.14284.19028-.30744.28434-.465-5.40553,4.253-17.12316,7.90126-17.12316,7.90126Z"/><polygon class="e" points="107.363 143.45 9.604 144.603 26.519 48.518 90.276 49.924 107.363 143.45"/><path class="f" d="M76.83662,52.00236c-.18039.0082-.36444.02142-.53842.02142a10.207,10.207,0,0,1-3.146-.47637c-1.41933,2.61235-4.59979,4.34972-9.07011,4.90991a6.24335,6.24335,0,0,1-1.21863,2.16857,6.43086,6.43086,0,0,1-2.74838,1.84425c-.01555,1.15058-.03109.41449-.04663.0156l-.02532.00849c-.00524.21-.01042.59192-.01566,1.23709-.10419,12.84538-.12473,25.38349-.14,37.9021A198.51238,198.51238,0,0,0,81.0034,97.89209Q78.92,74.94725,76.83662,52.00236Zm12.005-1.97254a15.02014,15.02014,0,0,1-4.06474-.63376,12.44554,12.44554,0,0,1-4.58569,2.10973,1.9206,1.9206,0,0,1,.06379.3337l1.05158,11.581c1.09162,12.02245,2.13586,23.05473,3.17492,33.97886,5.7715-.86123,10.54183-1.79057,13.65115-2.44977a.24585.24585,0,0,0,.189-.28877c-3.12806-17.52084-6.33832-35.30087-8.04554-44.737A9.68867,9.68867,0,0,1,88.84166,50.02982Zm-.58341,87.59907c7.901-1.53435,14.05686-2.99116,16.17014-3.50444a.86963.86963,0,0,0,.65611-.996c-1.16584-6.86085-2.87905-19.98476-4.7577-30.57013a.24736.24736,0,0,0-.29261-.20588c-3.33237.69209-8.4906,1.70228-14.5072,2.67382C86.42169,114.44383,87.32344,127.37455,88.25825,137.62889Zm-28.50964,4.12556a252.91354,252.91354,0,0,0,25.12674-3.48481c-.264-2.46835-.38737-2.00059-.69575-5.39752-.72439-7.97756-1.44872-19.32-2.17306-27.29753-3.09488.46287-3.41555.54983-6.72406.919l-5.37312,2.27934-3.91544-1.3209c-2.05763.16438-4.10758.296-6.12185.37806C59.8567,117.92184,59.82807,131.4273,59.74861,141.75445Zm-47.39352-5.12376c1.94314.54226,7.488,2.01735,14.63119,3.30985,1.55321-10.85015,2.9464-24.68862,4.31457-35.10338a117.58251,117.58251,0,0,1-13.93812-4.36771.24766.24766,0,0,0-.33271.1964c-2.098,12.36709-4.045,27.30387-5.30124,34.98311A.86668.86668,0,0,0,12.35509,136.63069Zm44.324-75.60735c-.22817.00419-.43824.00442-.62311.00442-.32829,0-.66077-.00465-.99371-.01024-.29337-.00419-.58627-.00931-.87638-.00931-.42375,0-.73341.01257-.95925.0298a10.15872,10.15872,0,0,1-9.79841,7.88827,9.04513,9.04513,0,0,1-3.34419-.63755c-1.4674,10.31255-2.76083,20.04972-4.02224,29.68072a116.94569,116.94569,0,0,0,19.954,1.71525c.10145,0,.20262-.00145.304-.00169C56.43958,87.50515,56.55937,75.61332,56.6791,61.02334ZM19.01385,93.542c.68387.25111,1.52439.54483,2.49517.86281l3.01631.929c.75536.21851,1.57847.4418,2.43167.66572l3.38814.64587a23.36573,23.36573,0,0,0,2.381.70105c1.34279-10.23152,2.7102-20.521,4.21847-31.14207a11.05455,11.05455,0,0,1-2.58272-4.24483,22.46234,22.46234,0,0,1-1.0007-8.8289,5.7052,5.7052,0,0,1-1.695-.44657,6.73,6.73,0,0,1-3.6978-4.2538c-.46863.04983-.95594.07759-1.4489.08761-1.42288,8.276-4.53529,26.40171-7.65952,44.74793A.244.244,0,0,0,19.01385,93.542Zm36.00809,14.39225A97.28633,97.28633,0,0,1,34.6228,105.6094c-1.33795,10.2218-2.70583,23.90817-4.27766,34.90378a122.729,122.729,0,0,0,18.98394,1.6613c1.69127,0,3.404-.03353,5.09105-.09919q.933-.03631,1.88348-.08835c-.02951-3.3719-.31316-5.81015-.28406-9.39747.06264-7.723.12533-18.04407.188-24.66371C55.81076,107.93013,55.4142,107.93426,55.02194,107.93426Zm50.93788,35.77556a.60339.60339,0,0,0-.74854-.487c-7.94555,2.11415-28.884,7.15852-50.64272,8.00573a127.70959,127.70959,0,0,1-42.91423-5.4407.60012.60012,0,0,0-.77648.4791c-.3351,2.12405-.53994,3.51154-.57963,3.96253-.39436,4.48168,11.38088,10.66086,47.18112,10.66086s48.87979-10.97064,49.15464-12.4732C106.66821,148.23015,106.419,146.52845,105.95982,143.70982Z"/><path class="g" d="M30.34515,140.51319c1.57181-10.9956,2.93969-24.682,4.27763-34.90377,1.55554.33712,3.17438.65282,4.84205.93752a122.572,122.572,0,0,0,16.58211,22.52074c-.00914,1.21462-.01823,2.39786-.02737,3.52181-.02911,3.58728.25451,6.02555.284,9.39744q-.94974.05167-1.88346.08836c-1.68708.06567-3.39977.0992-5.09106.0992A122.73331,122.73331,0,0,1,30.34515,140.51319ZM19.01382,93.542c.68389.25112,1.52443.54485,2.49522.86282l3.01629.929c.75536.21851,1.57849.4418,2.43165.66571l3.38817.64589a23.3733,23.3733,0,0,0,2.381.701c.13642-1.03928.27479-2.08329.41183-3.12406a131.57794,131.57794,0,0,1-9.37717-28.20255l-.23648-.05139C22.13409,74.08109,20.49887,83.6418,18.86,93.26582A.24391.24391,0,0,0,19.01382,93.542Zm-2.661,11.23608q-.273,1.69871-.541,3.42355c-.02075.13364-.04118.26785-.06187.4016q-.27325,1.76687-.53992,3.53917l-.01895.12543c-.19351,1.28722-.384,2.571-.571,3.84142-1.13437,7.7094-2.13772,14.93262-2.89138,19.53972a.86666.86666,0,0,0,.62633.98173c1.94313.54228,7.488,2.01736,14.63119,3.30987,1.55317-10.85019,2.94636-24.68864,4.31455-35.10339a117.57787,117.57787,0,0,1-13.93811-4.36774.24765.24765,0,0,0-.3327.19644c-.18935,1.11609-.37691,2.258-.56334,3.40845C16.42871,104.30875,16.39066,104.54256,16.35283,104.77807Zm45.21763,56.0574c.79078-.01925,1.58172-.03845,2.34852-.06844.4739-.01853.92746-.04574,1.39222-.06823.5448-.02629,1.09909-.04857,1.63152-.08015.54038-.032,1.0591-.0729,1.58675-.11013.43554-.03075.88212-.05694,1.30909-.09108.56431-.04508,1.10654-.09868,1.656-.14946.37019-.03425.75151-.06418,1.115-.10089.53134-.0537,1.04108-.11511,1.5582-.1739.36248-.04123.736-.07855,1.0915-.12214.52678-.06464,1.0322-.13642,1.54393-.20614.325-.04426.66089-.085.97988-.13118.54064-.0783,1.05977-.16317,1.58316-.24681.27176-.04338.554-.08369.82118-.12841.5488-.092,1.07635-.19,1.6059-.28736.22437-.04123.45859-.07979.67952-.12194.56565-.108,1.11029-.22139,1.65365-.335.16913-.03537.34708-.06859.5141-.10443.57869-.12435,1.13683-.25337,1.68995-.38343.11917-.028.24542-.05447.36336-.08271.57257-.13714,1.12507-.27828,1.67013-.4207.08882-.02321.18355-.04529.27165-.06865.57587-.15254,1.13242-.30847,1.67758-.46594.04939-.01427.10253-.028.15167-.04225.56143-.16348,1.10428-.32952,1.63337-.4971.02875-.00914.06-.018.08862-.02706q.81642-.25977,1.5809-.52472l.03378-.01125q.78015-.27009,1.50809-.54372l.0018-.00067a99.74413,99.74413,0,0,1-14.68494-6.76987c-.07794.01284-.15942.02485-.23756.03764q-1.29553.21194-2.62491.41567c-.14976.02285-.301.04508-.4514.06777q-1.315.19846-2.65869.387c-.07245.01012-.14356.0207-.21616.03076-.92735.12861-1.867.25158-2.81307.37111-.18812.02377-.37552.04764-.56431.071q-1.39782.17306-2.81826.331c-.17247.01915-.34575.03727-.51872.056q-1.43532.15565-2.88855.29461c-.0437.00411-.08672.00878-.13041.01284q-1.48392.13916-2.98575.25527c-.19176.0151-.38286.0305-.575.045q-1.46388.11074-2.93886.19936c-.1815.01089-.3631.02049-.54485.03081-1.02809.05838-2.05834.1109-3.09141.1511a127.71024,127.71024,0,0,1-42.91424-5.4407.60012.60012,0,0,0-.77651.47908c-.33506,2.12405-.53992,3.51155-.57961,3.96254-.39436,4.48167,11.38088,10.66084,47.18114,10.66084q1.67669,0,3.28713-.03147C61.04,160.8536,61.29983,160.842,61.57046,160.83547Zm-1.82185-19.081c3.02419-.23864,6.12695-.57473,9.22215-.971a104.26482,104.26482,0,0,1-9.16855-7.89983C59.78747,135.98331,59.76991,138.98481,59.74861,141.75445Z"/><path class="h" d="M43.42814,70.159c-4.66728,0-8.58823-2.989-10.23243-7.80083a23.1621,23.1621,0,0,1-1.13817-8.2276,7.0075,7.0075,0,0,1-.88433-.31709,7.71331,7.71331,0,0,1-4.02364-4.08073c-.30765.01725-.6194.02629-.93321.02629h-.00123c-5.21644,0-9.0154-2.669-10.16179-7.13913a8.75767,8.75767,0,0,1,1.32629-7.88791A8.14846,8.14846,0,0,1,19.177,33.03363a10.41783,10.41783,0,0,1,.16348-4.35593c.6346-2.45871,2.52319-5.83338,7.91625-7.94829a21.26205,21.26205,0,0,1,7.78112-1.514,20.20138,20.20138,0,0,1,9.88987,2.60123,17.47187,17.47187,0,0,1,5.9414-.99646A19.58122,19.58122,0,0,1,59.16823,22.65a14.43845,14.43845,0,0,1,6.43963-1.40433c.51753,0,1.04986.02341,1.58259.06983A13.0883,13.0883,0,0,1,75.84563,26.097a15.72729,15.72729,0,0,1,3.36193-1.29056,9.03865,9.03865,0,0,1,2.28455-.29984c4.5342,0,7.47676,3.2921,9.05278,7.057a10.52735,10.52735,0,0,1,4.94987,3.21653,11.01115,11.01115,0,0,1,2.28907,9.047c-.72907,4.58636-4.15549,7.43528-8.94229,7.43528a15.67644,15.67644,0,0,1-3.83347-.52247,15.55872,15.55872,0,0,1-7.68746,2.47555q-.5274.04128-1.02275.04066a11.83726,11.83726,0,0,1-2.56838-.27314c-1.67255,2.354-4.69685,3.95628-8.7554,4.59416a7.41734,7.41734,0,0,1-1.17883,1.85533c-2.44762,2.828-6.15581,2.828-7.73923,2.828-.33475,0-.67361-.00493-1.01289-.01027-.2867-.00451-.5734-.009-.85681-.009h-.01191A11.39611,11.39611,0,0,1,43.42814,70.159Z"/><path class="g" d="M80.19124,51.5058a1.91958,1.91958,0,0,1,.06378.33368Q80.78081,57.63,81.3066,63.42042c1.09161,12.02246,2.13586,23.05474,3.17492,33.97888.95691-.14276,1.87476-.28748,2.77362-.4325l7.98346-19.518c-2.00952-11.18665-3.822-21.22119-4.96246-27.52509a9.68989,9.68989,0,0,1-1.43445.10614,15.02021,15.02021,0,0,1-4.06476-.63379A12.44585,12.44585,0,0,1,80.19124,51.5058Z"/><path class="g" d="M82.307,109.064c-.10015-1.21405-.20031-2.38623-.30047-3.48938-3.09491.46289-3.41553.54981-6.72406.919l-5.37311,2.27929L66.40291,107.59l1.51245,33.32251c.479-.059.9577-.11383,1.43652-.176Z"/><path class="g" d="M81.00337,97.8921Q78.92,74.94724,76.83663,52.00239c-.18042.00818-.36445.02136-.53846.02136a10.21074,10.21074,0,0,1-3.13079-.47205c-.021.02289-.04175.0459-.06293.06861-1.43933,2.57013-4.59546,4.28222-9.02234,4.837L66.02956,99.364C71.32857,99.04206,76.413,98.5066,81.00337,97.8921Z"/><path class="i" d="M17.53481,91.819,15.504,100.534a1.0456,1.0456,0,0,0,.5396,1.16862c3.34512,1.71112,18.11363,8.55784,40.26,8.55784a160.35211,160.35211,0,0,0,44.78989-6.62457,1.04649,1.04649,0,0,0,.7008-1.27023L99.40273,93.395a1.04192,1.04192,0,0,0-1.272-.74486C94.13237,93.69788,78.441,97.3993,56.30361,97.3993c-21.32374,0-33.68933-4.68215-37.33116-6.303A1.04255,1.04255,0,0,0,17.53481,91.819Z"/><path class="i" d="M11.18942,130.57694,9.2927,145.40453a.70074.70074,0,0,0,.24173.63134c1.98167,1.66706,14.45185,10.91232,47.28594,10.91232,31.10823,0,48.52717-9.35039,51.39209-11.02162a.70737.70737,0,0,0,.34034-.73412l-2.30141-13.50706a.70915.70915,0,0,0-.96788-.54215c-4.05268,1.65851-22.87311,8.72419-49.37111,8.72419-25.639,0-39.99983-7.59289-43.64621-9.80968A.71138.71138,0,0,0,11.18942,130.57694Z"/><path class="j" d="M101.79431,102.36563l-.415-1.55667c-2.92054,1.10911-19.90559,7.11679-45.17183,7.11679-3.21567,0-6.2221-.12642-9.02907-.34809a8.17347,8.17347,0,0,1-4.49823-1.805l-10.563-8.55113a4.04178,4.04178,0,0,0-1.85444-.83265c-9.81224-1.70437-12.728-4.56982-12.728-4.56982L15.96252,98.5663h0L15.504,100.534a1.01711,1.01711,0,0,0-.01242.19972h0a1.0334,1.0334,0,0,0,.552.96889c3.34514,1.71111,18.11361,8.55784,40.26,8.55784a160.35077,160.35077,0,0,0,44.78991-6.62458A1.04646,1.04646,0,0,0,101.79431,102.36563Z"/><path class="k" d="M56.29323,54.18109s-2.57731,4.95654-7.57082,4.814c-4.34859-.1242-6.44225-3.77016-6.61527-8.18268.11706.05956.22724.12.35057.17873,4.20873,2.0033,12.22068-3.63051,12.22068-3.63051s-7.32083,3.26325-12.26083.85183c-2.24615-1.09643-4.00382-3.16416-2.42062-6.94967,0,0-4.36938,4.48511.02809,8.20737a4.96416,4.96416,0,0,1-5.47777-2.75244c-1.76594-3.25463-.45059-5.48389.49181-6.52461a.25362.25362,0,0,0-.22945-.42476c-1.5733.28152-4.62.29369-5.63571-3.46723a18.41183,18.41183,0,0,1,0-9.50378c-6.2245,5.15457-6.68361,17.05816.9557,18.27448,0,0,.71279,8.14283,8.92791,8.62607,0,0,.16107,10.3843,9.02054,8.3332S56.29323,54.18109,56.29323,54.18109Z"/><path class="j" d="M108.55279,145.19243l-.40715-2.38971a134.45739,134.45739,0,0,1-21.795,8.04707,8.93307,8.93307,0,0,1-7.16974-1.14485c-2.56849-1.65979-5.49829-3.61768-7.72814-5.121a12.41195,12.41195,0,0,0-7.41313-2.12171c-5.90382.22391-18.80512-.00435-40.25909-3.86A70.73128,70.73128,0,0,1,10.857,133.17547L9.29272,145.40452a.70082.70082,0,0,0,.24172.63137c1.67942,1.4128,10.89773,8.26625,33.65408,10.32469.04431.00375.09247.01063.13585.01361.0267.00185.05848.00313.08647.00482,4.038.35843,8.49067.56919,13.40953.56919,31.10812,0,48.52705-9.35034,51.392-11.0216A.70742.70742,0,0,0,108.55279,145.19243Z"/><path class="k" d="M68.97078,38.02418s7.956,6.26471,5.66223,11.37188-10.5509,7.06128-10.5509,7.06128l.11078,2.44135a7.39244,7.39244,0,0,0,.78119-1.32154c4.05853-.63787,7.08288-2.24017,8.75543-4.59411a11.83771,11.83771,0,0,0,2.56836.27313q.49594,0,1.02276-.04071a15.55863,15.55863,0,0,0,7.68744-2.47552,15.6756,15.6756,0,0,0,3.8335.52246,11.15916,11.15916,0,0,0,1.65686-.123,9.78774,9.78774,0,0,0,1.32874-.29883c.04333-.01282.08746-.02429.13043-.03766a8.82494,8.82494,0,0,0,1.16961-.45862c.04755-.0227.0943-.04638.14124-.06988a8.21051,8.21051,0,0,0,1.05536-.62463c.02783-.0196.05371-.04145.0813-.06141a7.92384,7.92384,0,0,0,.96045-.80993L95.367,48.777a7.98784,7.98784,0,0,0,.7945-.93853c.03247-.04438.06665-.087.09832-.13214a8.38175,8.38175,0,0,0,.61188-1.02716c.03211-.06342.06329-.12763.094-.19214a9.14908,9.14908,0,0,0,.45758-1.15113c.01855-.05816.03357-.11889.05114-.17773a10.268,10.268,0,0,0,.30939-1.33106,11.01132,11.01132,0,0,0-2.28906-9.04705,10.5277,10.5277,0,0,0-4.94989-3.2165c-1.576-3.76489-4.51856-7.057-9.05274-7.057a9.0394,9.0394,0,0,0-2.2846.29986A15.72873,15.72873,0,0,0,75.8456,26.097a13.08821,13.08821,0,0,0-8.65515-4.78143c-.53272-.04645-1.06507-.06983-1.58258-.06983C71.938,24.84852,74.08858,32.9336,68.97078,38.02418Z"/><path class="j" d="M101.09352,103.63581a1.0465,1.0465,0,0,0,.70081-1.2702L99.40273,93.395a1.042,1.042,0,0,0-1.272-.74487c-3.71838.97443-17.55334,4.24219-37.27728,4.69525l-.00195.0011c3.303,1.45862,3.50824,2.33826,3.50824,2.33826l-.27753,10.36151A160.64992,160.64992,0,0,0,101.09352,103.63581Z"/><path class="i" d="M161.90646,61.09163s27.27712-5.70306,32.75645,1.35568,6.35367,41.155.15759,50.15967-20.30842,13.159-20.30842,13.159l-2.38893-12.32807s13.54029,2.63584,16.861-9.36682,1.155-27.15561-2.31756-33.15031-22.21852.93232-22.21852.93232Z"/><path class="l" d="M196.75087,67.09656a14.63386,14.63386,0,0,0-2.08795-4.64923c-5.47931-7.05877-32.75647-1.35571-32.75647-1.35571l.3692,1.56323,1.98718,3.074C175.63082,64.00684,191.80312,59.34913,196.75087,67.09656Z"/><path class="j" d="M195.65724,78.54877c0-9.6181-7.76605-11.43658-16.97027-10.00909,3.57135-.24506,6.74377.24768,7.97961,2.3811,3.4726,5.99469,5.63831,21.14765,2.31757,33.15033a12.052,12.052,0,0,1-7.60425,8.57056l.00012.0022C195.92366,112.64387,195.65724,88.16694,195.65724,78.54877Z"/><path class="j" d="M174.80293,125.67585c2.02088-.64081,14.33936-4.81684,20.01758-13.06885.11682-.1698.2262-.36548.338-.55273-6.426,5.05584-20.3556,9.39282-20.3556,9.39282Z"/><polygon class="e" points="181.38 159.219 65.167 160.59 85.276 46.366 161.068 48.037 181.38 159.219"/><path class="f" d="M145.09141,50.50788c-.21443.00975-.43323.02546-.64006.02546a12.13366,12.13366,0,0,1-3.73988-.5663c-1.68726,3.1055-5.4681,5.17085-10.78232,5.83678a7.42158,7.42158,0,0,1-1.44868,2.578,7.64477,7.64477,0,0,1-3.2672,2.19239c-.01848,1.36779-.03695.49275-.05543.01855l-.0301.0101c-.00623.24966-.01238.70365-.01861,1.47061-.12386,15.27028-.14829,30.17527-.16642,45.05709a235.98422,235.98422,0,0,0,25.10206-2.07006Q147.56806,77.78419,145.09141,50.50788Zm14.2713-2.3449a17.85572,17.85572,0,0,1-4.83206-.7534,14.795,14.795,0,0,1-5.45136,2.508,2.28391,2.28391,0,0,1,.07584.3967l1.25008,13.76714c1.2977,14.292,2.53906,27.40689,3.77427,40.39323,6.861-1.02381,12.53187-2.12859,16.22815-2.91223a.29227.29227,0,0,0,.22468-.34328c-3.71857-20.82834-7.53484-41.9648-9.56434-53.1823A11.51718,11.51718,0,0,1,159.36271,48.163Zm-.69354,104.1356c9.39253-1.824,16.71044-3.55582,19.22265-4.166a1.0338,1.0338,0,0,0,.78-1.18407c-1.38591-8.156-3.42254-23.75739-5.65583-36.341a.294.294,0,0,0-.34785-.24474c-3.96144.82273-10.09341,2.02362-17.2458,3.17856C156.48591,124.73675,157.55789,140.10847,158.66917,152.29858Zm-33.89156,4.90437a300.65841,300.65841,0,0,0,29.87005-4.14267c-.3138-2.9343-.46049-2.37825-.82709-6.41643-.86114-9.48352-1.72221-22.9671-2.58328-32.45063-3.67913.55025-4.06032.65363-7.9934,1.09246l-6.38744,2.70963-4.65457-1.57025c-2.44606.19541-4.883.35186-7.2775.44942C124.90611,128.87133,124.87206,144.92628,124.77761,157.20295Zm-56.34024-6.091c2.31.64463,8.90152,2.39818,17.39319,3.93467,1.84642-12.89839,3.50261-29.34921,5.129-41.73a139.78341,139.78341,0,0,1-16.56928-5.19223.29441.29441,0,0,0-.39552.23347c-2.49409,14.70169-4.80861,32.45817-6.302,41.58706A1.03029,1.03029,0,0,0,68.43737,151.11194ZM121.12866,61.2318c-.27125.005-.521.00526-.74074.00526-.39026,0-.78551-.00554-1.18131-.01218-.34874-.005-.69694-.01107-1.04181-.01107-.50374,0-.87186.01494-1.14034.03543a12.07641,12.07641,0,0,1-11.6481,9.37737,10.75258,10.75258,0,0,1-3.97549-.75789c-1.74442,12.2593-3.282,23.8346-4.78155,35.28369a139.02082,139.02082,0,0,0,23.72085,2.03906c.12061,0,.24087-.00173.36141-.002C120.84392,92.71272,120.98632,78.576,121.12866,61.2318ZM76.35313,99.88919c.813.29851,1.81216.64767,2.9662,1.02569l3.58572,1.10436c.89795.25976,1.87644.52519,2.89071.79139l4.02773.76779a27.7759,27.7759,0,0,0,2.83045.83339c1.59627-12.163,3.22181-24.39481,5.0148-37.02092a13.14142,13.14142,0,0,1-3.07027-5.04615,26.70252,26.70252,0,0,1-1.18961-10.49558,6.782,6.782,0,0,1-2.015-.53087A8.00049,8.00049,0,0,1,86.998,46.26148c-.55709.05924-1.1364.09224-1.72241.10414-1.69149,9.83836-5.39144,31.38571-9.10544,53.19524A.29.29,0,0,0,76.35313,99.88919Zm42.80553,17.10915a115.65092,115.65092,0,0,1-24.25-2.76374c-1.59053,12.15143-3.21662,28.42144-5.08518,41.49276a145.8969,145.8969,0,0,0,22.56764,1.9749c2.01054,0,4.04655-.03985,6.05212-.1179q1.10913-.04319,2.239-.105c-.03509-4.00843-.37228-6.907-.33768-11.17148.07446-9.18087.149-21.45034.22343-29.3196C120.0964,116.99343,119.625,116.99834,119.15866,116.99834Zm60.5537,42.5291a.71729.71729,0,0,0-.88986-.57889c-9.44546,2.51325-34.33662,8.50987-60.2028,9.517a151.81786,151.81786,0,0,1-51.01538-6.46778.71341.71341,0,0,0-.92306.56955c-.39836,2.525-.64186,4.17443-.689,4.71056-.4688,5.32771,13.52931,12.67337,56.08775,12.67337s58.10708-13.04163,58.43382-14.82784C180.55447,164.90109,180.25824,162.87816,179.71236,159.52744Z"/><path class="g" d="M89.8235,155.72736c1.86853-13.07129,3.49463-29.34131,5.08515-41.49273,1.84918.40075,3.77362.77606,5.7561,1.1145a145.71107,145.71107,0,0,0,19.7124,26.77209c-.01086,1.44391-.02166,2.85053-.03253,4.18665-.03461,4.26446.30255,7.163.33765,11.17145q-1.129.06143-2.239.105c-2.00555.07806-4.04156.11792-6.05212.11792A145.90111,145.90111,0,0,1,89.8235,155.72736ZM76.35311,99.88917c.813.29852,1.81219.6477,2.96624,1.02569l3.5857,1.10437c.89795.25977,1.87646.52521,2.89068.79138l4.02777.76783a27.78446,27.78446,0,0,0,2.83045.83337c.16217-1.23547.32666-2.47656.48956-3.71381C84.60323,81.86262,81.99617,67.17151,81.99617,67.17151l-.28113-.06109c-1.65265,9.6441-3.59655,21.00964-5.54486,32.45044A.29.29,0,0,0,76.35311,99.88917Zm-3.16333,13.35717q-.32455,2.01939-.64307,4.06983c-.02466.15887-.049.31842-.07355.47742q-.32482,2.10039-.64184,4.20727l-.02253.14911c-.23,1.53021-.45654,3.05633-.67877,4.56659-1.34851,9.16473-2.54126,17.75152-3.43719,23.22833a1.03023,1.03023,0,0,0,.74456,1.16705c2.30994.64466,8.90149,2.3982,17.39319,3.9347,1.84638-12.89844,3.50257-29.34925,5.129-41.73a139.772,139.772,0,0,1-16.56927-5.19227.29441.29441,0,0,0-.39551.23353c-.2251,1.32678-.44806,2.68426-.66968,4.05187C73.28,112.68842,73.23476,112.96638,73.18978,113.24634Zm53.7536,66.63965c.94006-.02289,1.88031-.04571,2.79187-.08136.56335-.022,1.10254-.05438,1.655-.08111.64764-.03125,1.30658-.05774,1.93951-.09528.64239-.03809,1.259-.08667,1.88629-.13092.51776-.03656,1.04865-.06769,1.55621-.10828.67084-.05358,1.31543-.11731,1.96857-.17767.44007-.04071.89337-.07629,1.32544-.11993.63165-.06385,1.23761-.13684,1.85236-.20673.43091-.049.87487-.09338,1.29754-.1452.62622-.07685,1.22705-.16217,1.83539-.24506.38642-.05261.78565-.101,1.16486-.15594.6427-.09308,1.25982-.194,1.882-.2934.32306-.05157.65863-.09949.97619-.15265.65241-.10937,1.27954-.22583,1.90906-.34161.26672-.049.54517-.09485.8078-.145.67243-.12842,1.31989-.26318,1.96582-.39825.20105-.04206.4126-.08155.61115-.12415.68792-.14783,1.35144-.30121,2.009-.45581.14166-.03326.29175-.06476.43194-.09833.68067-.163,1.33747-.33081,1.98542-.50012.10559-.02759.2182-.05383.32293-.0816.68457-.18134,1.3462-.3667,1.99427-.5539.05871-.017.12188-.03326.18029-.05023.66742-.19434,1.31275-.39172,1.94172-.59094.03418-.01087.07128-.02137.10534-.03217q.97056-.30881,1.87934-.62378l.04016-.01336q.92742-.32108,1.79278-.64637l.00214-.00079a118.57365,118.57365,0,0,1-17.45709-8.04785c-.09265.01526-.18952.02954-.28241.04474q-1.54011.252-3.12043.49414c-.178.02716-.35778.05359-.53662.08056q-1.56325.23593-3.16058.46c-.08612.012-.17065.02459-.257.03656-1.10242.15289-2.21948.29907-3.34411.44116-.22364.02826-.44642.05664-.67084.08441q-1.66169.20573-3.35028.39343c-.205.02277-.411.04431-.61664.06659q-1.70627.185-3.43384.35022c-.05194.00488-.10309.01044-.155.01526q-1.764.16543-3.54938.30347c-.228.01794-.45513.03625-.68353.05353q-1.74023.13164-3.49365.237c-.21576.01294-.43164.02436-.64771.03663-1.22216.06939-2.44689.13183-3.675.17962a151.81873,151.81873,0,0,1-51.01538-6.46777.7134.7134,0,0,0-.9231.56952c-.39832,2.525-.64185,4.17444-.689,4.71057-.46881,5.3277,13.5293,12.67334,56.08777,12.67334q1.9932,0,3.90766-.03742C126.31276,179.90754,126.62166,179.8938,126.94338,179.886Zm-2.16578-22.683c3.5951-.28369,7.28357-.68323,10.96308-1.15436a123.94561,123.94561,0,0,1-10.89935-9.39111C124.82381,150.34235,124.80293,153.91047,124.7776,157.20295Z"/><path class="h" d="M105.37624,72.09211c-5.54834,0-10.20948-3.55322-12.16406-9.27344a27.53468,27.53468,0,0,1-1.353-9.78076,8.33183,8.33183,0,0,1-1.05127-.37695,9.16945,9.16945,0,0,1-4.7832-4.85108c-.36573.02051-.73633.03125-1.10938.03125h-.00146c-6.20118,0-10.71729-3.17285-12.08008-8.48681-1.16992-4.5625.21142-7.61719,1.57666-9.377a9.68637,9.68637,0,0,1,2.13672-2.019,12.38435,12.38435,0,0,1,.19433-5.17822c.7544-2.92286,2.99951-6.93457,9.41065-9.44873a25.27571,25.27571,0,0,1,9.25-1.79981A24.01479,24.01479,0,0,1,107.159,14.62385a20.77,20.77,0,0,1,7.063-1.18457,23.27757,23.27757,0,0,1,9.86572,2.17529,17.16422,17.16422,0,0,1,7.65528-1.66943c.61523,0,1.248.02783,1.88134.083a15.55906,15.55906,0,0,1,10.28907,5.68409,18.696,18.696,0,0,1,3.99658-1.53418,10.74486,10.74486,0,0,1,2.71582-.35645c5.39014,0,8.88818,3.91357,10.76172,8.38916a12.51477,12.51477,0,0,1,5.88428,3.82373,13.08977,13.08977,0,0,1,2.72119,10.75488c-.8667,5.45215-4.93994,8.83887-10.63037,8.83887a18.63556,18.63556,0,0,1-4.55713-.62109A18.49585,18.49585,0,0,1,145.66676,51.95q-.62694.04906-1.21582.04834a14.07163,14.07163,0,0,1-3.05322-.32471c-1.98828,2.79834-5.58349,4.70313-10.4082,5.46143a8.81748,8.81748,0,0,1-1.40137,2.20556c-2.90967,3.36182-7.31787,3.36182-9.20019,3.36182-.398,0-.80078-.00586-1.20411-.01221-.34082-.00537-.68164-.01074-1.01855-.01074h-.01416A13.54742,13.54742,0,0,1,105.37624,72.09211Z"/><path class="i" d="M74.59488,97.84094,72.18072,108.201a1.243,1.243,0,0,0,.64146,1.38922c3.97659,2.03415,21.533,10.17336,47.8601,10.17336a190.62219,190.62219,0,0,0,53.24511-7.87513,1.244,1.244,0,0,0,.8331-1.51l-2.843-10.66405a1.23862,1.23862,0,0,0-1.51216-.88548c-4.75312,1.24556-23.40666,5.64571-49.723,5.64571-25.34914,0-40.04905-5.566-44.37836-7.49284A1.23936,1.23936,0,0,0,74.59488,97.84094Z"/><path class="i" d="M67.05165,143.9154l-2.25478,17.62667a.833.833,0,0,0,.28737.75052c2.35576,1.98176,17.18,12.9723,56.21235,12.9723,36.98069,0,57.68791-11.11551,61.09364-13.10223a.84089.84089,0,0,0,.40459-.87271L180.059,145.2331a.843.843,0,0,0-1.1506-.64449c-4.81772,1.97158-27.191,10.37109-58.69115,10.37109-30.479,0-47.55081-9.02624-51.88554-11.6615A.84566.84566,0,0,0,67.05165,143.9154Z"/><path class="j" d="M174.7605,110.37849l-.49333-1.85053c-3.47187,1.31848-23.66327,8.46027-53.69916,8.46027-3.82271,0-7.39667-.15029-10.73353-.41381a9.71649,9.71649,0,0,1-5.34739-2.14577l-12.557-10.16538a4.80485,4.80485,0,0,0-2.20452-.98983C78.061,101.24733,74.59487,97.841,74.59487,97.841l-1.86908,8.021h0l-.54505,2.33912a1.209,1.209,0,0,0-.01477.23742h0a1.2285,1.2285,0,0,0,.65619,1.1518c3.97662,2.03412,21.533,10.17334,47.86011,10.17334a190.62156,190.62156,0,0,0,53.24514-7.87513A1.244,1.244,0,0,0,174.7605,110.37849Z"/><path class="k" d="M120.66994,53.09791s-3.06384,5.89221-9,5.72271c-5.1695-.14764-7.65839-4.48187-7.86408-9.72735.13916.0708.27015.1427.41675.21246,5.00324,2.38147,14.52765-4.31586,14.52765-4.31586s-8.70282,3.87928-14.57538,1.01264c-2.67016-1.30341-4.75964-3.76148-2.87756-8.2616,0,0-5.19421,5.33179.03339,9.75672a5.90127,5.90127,0,0,1-6.51185-3.272c-2.0993-3.869-.53564-6.5191.58466-7.75628a.3015.3015,0,0,0-.27277-.505c-1.8703.33466-5.49218.34912-6.69958-4.12176a21.88748,21.88748,0,0,1,0-11.29786c-7.39954,6.12763-7.94531,20.27833,1.13611,21.72425,0,0,.84735,9.68,10.61328,10.25445,0,0,.19147,12.34461,10.72339,9.90631S120.66994,53.09791,120.66994,53.09791Z"/><path class="j" d="M182.79481,161.28992l-.484-2.84082a159.84043,159.84043,0,0,1-25.90935,9.56616,10.61945,10.61945,0,0,1-8.52321-1.361c-3.05336-1.97312-6.53624-4.30061-9.187-6.08772a14.755,14.755,0,0,0-8.81255-2.52223c-7.01832.26618-22.35506-.00518-47.859-4.58865a84.08172,84.08172,0,0,1-15.36316-6.45123l-1.85962,14.5376a.83313.83313,0,0,0,.28736.75055c1.99646,1.6795,12.95495,9.82672,40.00714,12.27374.05267.00446.10992.01264.1615.01618.03173.00219.06951.00372.10278.00573,4.80029.42609,10.0935.67664,15.94092.67664,36.98056,0,57.68776-11.11545,61.09359-13.10221A.841.841,0,0,0,182.79481,161.28992Z"/><path class="l" d="M171.91744,99.71442a1.2386,1.2386,0,0,0-1.51215-.8855c-4.48389,1.175-21.34167,5.15558-45.32977,5.60291.92273.9779,4.18872,2.30536,7.94708,2.21368,5.66406-.13812,27.06787-2.88086,38.96484-6.66864Z"/></svg>