<svg xmlns="http://www.w3.org/2000/svg" viewBox="0 0 200 200"><defs><style>.a{fill:#fff;}</style></defs><path class="a" d="M200,72.713a26.07943,26.07943,0,0,1-8.51877,4.417c-5.43823,1.73963-27.65114,2.71973-27.65114,2.71973L156.73,64.3162a1.571,1.571,0,0,0-2.93093.193l-4.98629,16.28117-41.31421-.92048a.85376.85376,0,0,1-.83167-.92582l3.234-38.05928c.36475-4.16877,80.12989-7.94715,85.82764-6.72089S200,72.713,200,72.713Zm-14.02,91.70874s.38391-29.56909.38391-40.12756c0-6.15471,1.06441-23.51409,1.95243-36.92557a2.676,2.676,0,0,0-2.92438-2.844c-8.38921.811-18.53406,1.24668-21.324,1.35682l-2.39551.09424-4.52279-11.0326a1.108,1.108,0,0,0-2.10007.15106l-2.95758,11.80707-24.439-.5446a2.68216,2.68216,0,0,0-2.68922,3.21054l6.64236,33.01339,2.709,5.28588s-6.519,5.01654-6.9917,5.72028-2.19836,5.99567-.56531,7.33948c.8895.73186,4.13866,1.58671,9.539,3.54891a.87579.87579,0,0,1-.39571,1.69489c-6.13221-.75033-13.69737-1.29562-16.73505.04215-5.474,2.4107-23.10132,20.44513-28.19739,22.49237-3.97546,1.597-10.80676,1.24908-14.94092.8302,2.32764,4.09228,4.38263,7.57538,5.39282,8.97558,1.15039,1.22071,6.84375,2.91065,9.58008,3.72266a45.70408,45.70408,0,0,1,6.51233,2.2547h31.67493c6.05,0,32.60327-6.17914,32.60327-6.17914v5.29242a.88672.88672,0,0,0,.88672.88672H186.437a.88672.88672,0,0,0,.88672-.88672v-8.242s3.65307-2.72138,4.13024-4.81617S185.98,164.42175,185.98,164.42175ZM95.40419,194.44158l1.23133-.94758a12.21873,12.21873,0,0,0-.46311-2.66834c-1.26-2.29034-16.17889-4.03921-19.61746-8.80534s-16.43-28.84786-16.96635-29.90638,1.06455-5.33007.46426-6.02316c-.3846-.444-3.65222-.83876-6.097-.93878a1.81763,1.81763,0,0,1-1.57071-2.58429c1.00043-2.18535,2.63337-3.77386,2.78355-4.34408.18461-.70116-3.15875-6.22081-2.8885-9.35923.17794-2.06664,5.34649-52.6851,9.57712-87.08543,2.19411-17.84065,5.57449-31.3192,4.82959-31.40062C64.50558,10.13983.40063,0,.40063,0c.474,8.40988-1.10344,18.88962,0,32.89883S6.16648,124.57022,6.91135,132.019c.745,7.45012,1.885,16.76169,1.885,21.94822s12.94532,42.35965,12.94532,42.35965h6.70368v-27.7322s3.46-2.11665,18.09215,11.81517c11.63109,11.07439,11.93111,16.12477,20.15715,16.12477H96.07226a7.81758,7.81758,0,0,0,.1512-1.54454Z"/></svg>