<svg xmlns="http://www.w3.org/2000/svg" viewBox="0 0 200 200"><defs><style>.a{fill:#fff;}</style></defs><path class="a" d="M45.00482,28.59689s-.90642,6.31869,2.69327,7.88894S56.029,31.2035,56.029,31.2035s-4.85187,11.87811-1.33389,22.1731,15.70828,7.00758,17.009-1.425,17.79,1.89183,16.04715-10.12355c0,0,14.0564.3605,14.07216-6.81127l.01585-7.17168s1.83882,7.80706,9.87339,7.17168,9.97121-4.714,9.97121-4.714,11.928,5.619,13.26909-2.8227-6.12706-10.7827-8.90911-9.84825c0,0-2.09726-11.52468-9.11719-9.68815s-8.127,6.42724-8.127,6.42724-4.2481-10.65-11.97524-11.32419S86.03984,6.49033,86.03984,6.49033C80.36147,1.83324,70.32577.8071,64.28485,4.94223A22.22439,22.22439,0,0,0,41.70753,1.70637C28.36541,6.938,37.22724,17.63184,37.22724,17.63184s-9.58276-.87046-7.46011,7.40489S45.00482,28.59689,45.00482,28.59689Z"/><path class="a" d="M111.58684,40.60639c-.264.012-.53347.03135-.78815.03135a14.94133,14.94133,0,0,1-4.60521-.69732c-2.07765,3.824-6.7333,6.36726-13.2771,7.18728a9.139,9.139,0,0,1-1.78387,3.17442,9.41366,9.41366,0,0,1-4.02316,2.69966c-.02275,1.68427-.0455.60675-.06825.02284l-.03707.01244c-.00767.30742-.01525.86646-.02292,1.81088-.15252,18.80347-.18259,37.15713-.20492,55.48226a290.58637,290.58637,0,0,0,30.91011-2.549Q114.63653,74.19383,111.58684,40.60639Zm17.57335-2.88746a21.98679,21.98679,0,0,1-5.95009-.92772,18.21815,18.21815,0,0,1-6.71268,3.08829,2.81283,2.81283,0,0,1,.09339.48848l1.53932,16.95254c1.598,17.59883,3.12654,33.74823,4.64755,49.73931,8.4485-1.26071,15.43145-2.6211,19.983-3.58606a.35989.35989,0,0,0,.27667-.4227c-4.579-25.64754-9.27823-51.6745-11.77732-65.48747A14.18113,14.18113,0,0,1,129.16019,37.71893Zm-.854,128.2302c11.56575-2.246,20.57686-4.37856,23.67034-5.1299a1.273,1.273,0,0,0,.96044-1.458c-1.70658-10.04313-4.21445-29.2543-6.96446-44.74949a.36208.36208,0,0,0-.42833-.30137c-4.878,1.0131-12.4288,2.49184-21.2361,3.914C125.61776,132.01013,126.93777,150.93851,128.30617,165.94913Zm-41.73328,6.03913a370.22442,370.22442,0,0,0,36.78129-5.10119c-.3864-3.61324-.567-2.92852-1.01846-7.901-1.06039-11.67779-2.12069-28.28116-3.181-39.95895-4.53039.67755-4.99979.80485-9.84288,1.34523l-3.13012,9.16141-4.73523-5.82484-3.13574,7.96256-2.5958-9.89614c-3.012.24062-6.0128.43328-8.96135.55342C86.73112,137.10134,86.6892,156.87105,86.57289,171.98826Zm-69.37608-7.50033c2.84442.79378,10.96112,2.95306,21.41758,4.84506,2.27363-15.88279,4.313-36.13995,6.31579-51.3854a172.1248,172.1248,0,0,1-20.403-6.39358.36253.36253,0,0,0-.487.28748C20.969,129.94482,18.1189,151.80974,16.28,163.05085A1.26868,1.26868,0,0,0,17.19681,164.48793ZM82.07965,53.81158c-.334.00613-.64151.00647-.91213.00647-.48056,0-.96725-.00681-1.45463-.015-.42944-.00614-.85819-.01363-1.28286-.01363-.6203,0-1.07359.0184-1.40419.04362a14.87062,14.87062,0,0,1-14.3432,11.54709,13.24042,13.24042,0,0,1-4.89533-.93326c-2.148,15.09582-4.0414,29.34939-5.88789,43.44754a171.1884,171.1884,0,0,0,29.20931,2.51084c.14851,0,.2966-.00213.445-.00247C81.729,92.57646,81.90438,75.16884,82.07965,53.81158ZM26.94409,101.41341c1.00109.36758,2.23146.79753,3.65252,1.263l2.56333-6.99293,1.852,8.35281c1.10572.31986,2.31061.64671,3.55956.9745l3.28136-3.61784,1.6783,4.56328a34.20462,34.20462,0,0,0,3.48534,1.02622c1.96561-14.97722,3.96727-30.03921,6.17512-45.58671A16.182,16.182,0,0,1,49.411,55.182a32.88094,32.88094,0,0,1-1.46485-12.924,8.35193,8.35193,0,0,1-2.4812-.6537,9.85164,9.85164,0,0,1-5.413-6.22684c-.686.07293-1.39933.11358-2.12094.12823-2.08286,12.11473-6.6389,38.64764-11.21223,65.5034A.35714.35714,0,0,0,26.94409,101.41341Zm52.70975,21.06781A142.41027,142.41027,0,0,1,49.793,119.078c-1.95854,14.963-3.96087,34.99751-6.26177,51.09322a179.65227,179.65227,0,0,0,27.78927,2.43186c2.47574,0,4.98283-.04908,7.45244-.14519q1.36576-.05316,2.75709-.12934c-.0432-4.93589-.45841-8.50507-.41581-13.75631.09168-11.3051.18345-26.41345.27513-36.10348C80.80855,122.47517,80.228,122.48122,79.65384,122.48122Zm74.56444,52.36935a.88327.88327,0,0,0-1.09575-.71283c-11.63093,3.09476-42.28133,10.47887-74.13236,11.719A186.9453,186.9453,0,0,1,16.171,177.89251a.87847.87847,0,0,0-1.13664.70133c-.49053,3.10924-.79037,5.14029-.84848,5.80046C13.60862,190.95472,30.84558,200,83.25106,200s71.55173-16.05916,71.95407-18.25866C155.25523,181.46757,154.89047,178.97658,154.21828,174.85057Z"/><path class="a" d="M139.9937,53.639s33.58842-7.02262,40.33553,1.66935,7.82377,50.67735.19405,61.76548S155.516,133.2775,155.516,133.2775L152.57429,118.097s16.6732,3.24571,20.76227-11.53409,1.42227-33.4388-2.85379-40.82053-27.35938,1.148-27.35938,1.148Z"/></svg>