<svg xmlns="http://www.w3.org/2000/svg" viewBox="0 0 200 200"><defs><style>.a{fill:#fff;}</style></defs><path class="a" d="M198.30376,133.51372l-7.54431-3.51208a12.51188,12.51188,0,0,0-2.82825-.92627l-6.11755-1.22382.05176-.14215a1.13757,1.13757,0,0,0-.679-1.45856l-.759-.27691a1.13746,1.13746,0,0,0-1.45862.679l-.10181.27869a12.50851,12.50851,0,0,1-3.11889-1.99921l-3.68579-3.23395.70044-1.92028L163.66,116.45836a65.44855,65.44855,0,0,0-1.65234-38.32l8.78833-4.09118-.84656-1.81836,3.71875-3.62366a12.5176,12.5176,0,0,1,2.69592-1.99249l.05689.12225a1.1377,1.1377,0,0,0,1.5116.55121l.73254-.341a1.13658,1.13658,0,0,0,.55884-1.49018l5.95727-1.79211a12.51388,12.51388,0,0,0,2.91724-1.30328L195.09,58.09123a2.17774,2.17774,0,0,0-1.88086-3.90466l-7.81824,2.8512a12.51542,12.51542,0,0,0-2.65479,1.34479L177.54485,61.843l-.06372-.13714a1.13758,1.13758,0,0,0-1.51135-.55127l-.73279.341a1.13791,1.13791,0,0,0-.55139,1.5116l.12524.26886a12.50818,12.50818,0,0,1-3.61914.79193l-4.8927.31928-.86267-1.853L156.648,66.62535a65.44731,65.44731,0,0,0-28.259-25.93408l3.31982-9.10284-1.88428-.68732.06739-5.192a12.5041,12.5041,0,0,1,.49743-3.31512l.12659.0462a1.13782,1.13782,0,0,0,1.45874-.67907l.27686-.75916a1.1366,1.1366,0,0,0-.6587-1.44873l2.94507-5.4798a12.51586,12.51586,0,0,0,1.14136-2.98425l1.92554-7.962a2.17775,2.17775,0,0,0-4.09107-1.4309l-3.51208,7.54437a12.52085,12.52085,0,0,0-.92639,2.82812l-1.22376,6.11756-.142-.05182a1.13786,1.13786,0,0,0-1.45874.679l-.27685.75922a1.13752,1.13752,0,0,0,.67907,1.45862l.27845.10168a12.50348,12.50348,0,0,1-1.999,3.119l-3.23388,3.68555-1.92017-.70032-3.31995,9.10291a65.44834,65.44834,0,0,0-38.32006,1.65228l-4.09107-8.78833-1.81842.8465-3.62372-3.71875a12.5156,12.5156,0,0,1-1.99237-2.696l.12213-.05682a1.13775,1.13775,0,0,0,.55133-1.5116l-.34106-.73267a1.13644,1.13644,0,0,0-1.49011-.55865L63.663,14.81871a12.52308,12.52308,0,0,0-1.30328-2.91717L58.09118,4.9099a2.17778,2.17778,0,0,0-3.90467,1.881l2.85132,7.81818a12.51094,12.51094,0,0,0,1.34479,2.65472L61.843,22.455l-.13709.06385a1.13772,1.13772,0,0,0-.55133,1.51153l.34107.73255a1.13771,1.13771,0,0,0,1.51159.55133l.26886-.12512a12.51076,12.51076,0,0,1,.79193,3.619l.31922,4.89289-1.853.86255,4.09113,8.78833A65.44906,65.44906,0,0,0,40.69127,71.611l-9.1029-3.31989-.6872,1.88434-5.192-.06726a12.51433,12.51433,0,0,1-3.31513-.4975l.04621-.12658a1.13772,1.13772,0,0,0-.67908-1.45868l-.75916-.27686a1.13653,1.13653,0,0,0-1.44879.65857L14.07354,65.462a12.51883,12.51883,0,0,0-2.98426-1.14123L3.12719,62.39519a2.17775,2.17775,0,0,0-1.431,4.09106L9.24065,69.9984a12.518,12.518,0,0,0,2.82813.92627l6.11755,1.22382-.05182.14209a1.1377,1.1377,0,0,0,.679,1.45861l.75915.27686a1.13767,1.13767,0,0,0,1.45868-.679l.10162-.27862a12.50989,12.50989,0,0,1,3.119,1.99914l3.68549,3.234-.70032,1.92029,9.10291,3.31988a65.448,65.448,0,0,0,1.65234,38.32l-8.78827,4.09113.8465,1.81836-3.71887,3.62371a12.51574,12.51574,0,0,1-2.696,1.99244l-.05688-.1222a1.13764,1.13764,0,0,0-1.5116-.55127l-.73254.341a1.13647,1.13647,0,0,0-.55872,1.49017l-5.95734,1.79211a12.51992,12.51992,0,0,0-2.91717,1.30323L4.91,141.9088a2.17772,2.17772,0,0,0,1.881,3.9046l7.81818-2.85119a12.51778,12.51778,0,0,0,2.65479-1.34479L22.455,138.157l.06384.13709a1.13776,1.13776,0,0,0,1.51153.55127l.73261-.34107a1.13775,1.13775,0,0,0,.55127-1.5116l-.12518-.26879a12.50855,12.50855,0,0,1,3.61914-.79194l4.89282-.31927.86261,1.853,8.78827-4.09113A65.44853,65.44853,0,0,0,71.611,159.3087l-3.31988,9.10285,1.88446.68731-.06726,5.192a12.51675,12.51675,0,0,1-.49756,3.31512l-.12659-.04614a1.13749,1.13749,0,0,0-1.45862.67908l-.27691.75915a1.13625,1.13625,0,0,0,.65863,1.44867l-2.94532,5.47974a12.51787,12.51787,0,0,0-1.14111,2.98431l-1.92566,7.962a2.17775,2.17775,0,0,0,4.09107,1.43091l3.5122-7.54431a12.52093,12.52093,0,0,0,.92627-2.82819l1.22376-6.11761.14215.05188a1.13788,1.13788,0,0,0,1.45868-.679l.27679-.75922a1.13758,1.13758,0,0,0-.679-1.45855l-.27875-.10163a12.50725,12.50725,0,0,1,1.99921-3.119l3.23394-3.6856,1.92023.70031,3.31982-9.10284a65.44847,65.44847,0,0,0,38.32007-1.65234l4.09107,8.78833,1.81848-.8465,3.62366,3.71875a12.51224,12.51224,0,0,1,1.99243,2.69611l-.12207.05682a1.13775,1.13775,0,0,0-.55152,1.51153l.34107.73261a1.13658,1.13658,0,0,0,1.49023.55865l1.79212,5.9574a12.5166,12.5166,0,0,0,1.30322,2.91718l4.26855,6.99164a2.17776,2.17776,0,0,0,3.90467-1.881l-2.85132-7.81823a12.52109,12.52109,0,0,0-1.34473-2.65479l-3.46045-5.191.13709-.06384a1.13786,1.13786,0,0,0,.55139-1.5116l-.34107-.7326a1.13779,1.13779,0,0,0-1.51159-.55121l-.26892.12512a12.50994,12.50994,0,0,1-.792-3.61908l-.3191-4.89288,1.85279-.86255-4.09095-8.78833a65.44971,65.44971,0,0,0,25.93421-28.2591l9.10278,3.31989.68726-1.88428,5.19177.06726a12.51221,12.51221,0,0,1,3.31506.49738l-.0459.12665a1.13758,1.13758,0,0,0,.679,1.45868l.75928.27679a1.13636,1.13636,0,0,0,1.44873-.65857l5.47973,2.94531a12.51909,12.51909,0,0,0,2.98413,1.14124l7.96216,1.92554a2.17778,2.17778,0,0,0,1.43091-4.09113Zm-54.73682-22.72858-.8872-.32348a1.95685,1.95685,0,0,0-1.37354.0274l.13709-.376V110.113a86.173,86.173,0,0,0-9.67542-4.37646,32.12,32.12,0,0,0-.597-14.18585,86.17691,86.17691,0,0,0,9.2511-5.18488l-.16883-.36285a1.9575,1.9575,0,0,0,1.371-.0907l.856-.39844a2.21862,2.21862,0,0,0,1.03076-2.74334l3.59314-1.75342a50.57953,50.57953,0,0,1,1.43714,33.90063l-3.72852-1.42419A2.22708,2.22708,0,0,0,143.56694,110.78514Zm1.30958-34.56244-3.64783,1.63135a2.22708,2.22708,0,0,0-2.796-1.03424l-.856.39844a1.95825,1.95825,0,0,0-.9519.99066l-.16895-.36273a86.15882,86.15882,0,0,0-9.92346,3.74115,32.12643,32.12643,0,0,0-10.47058-9.58948,86.13064,86.13064,0,0,0,2.88-10.22125l.00012-.00006-.37622-.13715a1.9569,1.9569,0,0,0,.90528-1.03351l.32373-.887a2.21869,2.21869,0,0,0-1.21106-2.6687l1.29931-3.77643A50.57907,50.57907,0,0,1,144.87652,76.2227ZM97.886,119.08733a1.91013,1.91013,0,0,0,.5393-.77484l.32343-.887a2.157,2.157,0,0,0-.84851-2.44207l2.37445-6.21637,2.9729,6.0921a2.13715,2.13715,0,0,0-.5047,2.39453l.39844.8559a1.91045,1.91045,0,0,0,.60369.72589l-.13128.06109c.69562,2.2688,1.499,4.50806,2.38263,6.71686a25.98357,25.98357,0,0,1-9.77137.42053c.69074-2.27655,1.29889-4.5766,1.79719-6.89685Zm4.81359-12.76862a6.86776,6.86776,0,1,1,3.32782-9.12457A6.86794,6.86794,0,0,1,102.69957,106.31871Zm-13.37,9.64807-.13617-.04962c-1.11243,2.09619-2.12775,4.24768-3.06476,6.43439a25.98564,25.98564,0,0,1-7.2063-6.61237c2.09809-1.12127,4.15436-2.31756,6.14722-3.60583l-.06116-.13129a1.90927,1.90927,0,0,0,.92926-.16675l.8559-.39837a2.157,2.157,0,0,0,1.12683-2.32685l6.07471-2.71673-2.20569,6.41a2.137,2.137,0,0,0-2.05011,1.33631l-.32337.8869A1.90866,1.90866,0,0,0,89.32952,115.96678ZM77.64867,86.12865a25.9866,25.9866,0,0,1,6.61206-7.20654c1.12134,2.09814,2.31763,4.15448,3.6059,6.1474l.13128-.06116a1.91058,1.91058,0,0,0,.16675.92932l.39838.8559a2.15688,2.15688,0,0,0,2.32684,1.12677L93.60656,93.995l-6.41-2.20556a2.13706,2.13706,0,0,0-1.3363-2.05011l-.8869-.32349a1.911,1.911,0,0,0-.94019-.08637l.04962-.1361C81.98668,88.081,79.83532,87.06566,77.64867,86.12865ZM80.8629,98.0222l.04969-.13617a1.90938,1.90938,0,0,0,.7749.53925l.887.32343a2.1568,2.1568,0,0,0,2.442-.84852l6.21643,2.37439-6.092,2.973a2.1372,2.1372,0,0,0-2.39459-.50476l-.8559.39849a1.91023,1.91023,0,0,0-.72589.6037l-.0611-.13134c-2.26873.69561-4.50793,1.4989-6.71667,2.3825A25.98379,25.98379,0,0,1,73.9663,96.225C76.24279,96.91576,78.54271,97.52391,80.8629,98.0222Zm21.251-17.10955a1.909,1.909,0,0,0-.53912.7749l-.32349.887a2.15692,2.15692,0,0,0,.84857,2.44208L99.72539,91.233l-2.973-6.09216a2.13715,2.13715,0,0,0,.5047-2.39453l-.39844-.8559a1.90875,1.90875,0,0,0-.60376-.72583l.13141-.06116c-.69476-2.26587-1.49689-4.50232-2.37915-6.70831a25.85736,25.85736,0,0,1,9.763-.41333c-.68872,2.27142-1.29523,4.56622-1.79236,6.88116Zm8.55664,3.12054.13611.04968c1.11-2.09167,2.12335-4.23834,3.05865-6.4201a26.15161,26.15161,0,0,1,7.20118,6.60394c-2.09412,1.11963-4.14661,2.314-6.136,3.59992l.06128.13128a1.91,1.91,0,0,0-.92944.16675l-.8559.39838a2.157,2.157,0,0,0-1.12677,2.3269L106.005,93.60668l2.20557-6.4101a2.137,2.137,0,0,0,2.05011-1.3363l.32349-.8869A1.91022,1.91022,0,0,0,110.67052,84.03319Zm2.13288,24.17743a2.13689,2.13689,0,0,0,1.3363,2.05l.88684.32348a1.90962,1.90962,0,0,0,.94019.08631l-.04957.13611c2.091,1.10962,4.2367,2.12268,6.41773,3.0578a26.14818,26.14818,0,0,1-6.597,7.21081c-1.12085-2.09723-2.31665-4.15265-3.60443-6.14471l-.13135.06116a1.91125,1.91125,0,0,0-.16668-.92933l-.3985-.85583a2.15683,2.15683,0,0,0-2.32684-1.12683l-2.71662-6.07459Zm6.33361-6.23279-.04956.13611a1.90882,1.90882,0,0,0-.77514-.53918l-.887-.32355a2.15672,2.15672,0,0,0-2.44189.84857L108.767,99.72539l6.09216-2.973a2.13682,2.13682,0,0,0,2.39441.50476l.856-.3985a1.91057,1.91057,0,0,0,.72583-.6037l.06115.13135c2.26783-.69531,4.50611-1.49823,6.71412-2.38141a26.15132,26.15132,0,0,1,.40576,9.76483C123.74553,103.08123,121.45134,102.47484,119.137,101.97783Zm-4.21923-50.519-1.42426,3.72864a2.22692,2.22692,0,0,0-2.70837,1.2456l-.32349.887a1.95769,1.95769,0,0,0,.0274,1.37371l-.376-.13714H110.113a86.16882,86.16882,0,0,0-4.37635,9.675,32.11235,32.11235,0,0,0-14.18591.59759,86.178,86.178,0,0,0-5.18487-9.25122l-.36292.16889a1.95778,1.95778,0,0,0-.09064-1.371l-.3985-.85589a2.21857,2.21857,0,0,0-2.74328-1.03089l-1.75348-3.59307A50.58009,50.58009,0,0,1,114.91778,51.45885ZM76.22271,55.12352l1.63141,3.64783a2.22691,2.22691,0,0,0-1.03425,2.796l.39838.85589a1.95751,1.95751,0,0,0,.99072.952l-.36279.16888v.00007a86.17526,86.17526,0,0,0,3.73938,9.91943,31.92847,31.92847,0,0,0-9.60547,10.46838A86.17279,86.17279,0,0,0,61.7766,81.05815h-.00006l-.13715.376a1.95757,1.95757,0,0,0-1.03357-.90527l-.8869-.32349a2.2186,2.2186,0,0,0-2.6687,1.21094l-3.77637-1.29938A50.57885,50.57885,0,0,1,76.22271,55.12352ZM59.74694,113.99706a1.95736,1.95736,0,0,0-1.371.09063l-.8559.39844a2.21866,2.21866,0,0,0-1.03088,2.74335l-3.59308,1.75342a50.57994,50.57994,0,0,1-1.4372-33.90064l3.72852,1.4242a2.227,2.227,0,0,0,1.24566,2.70837l.887.32349a1.95714,1.95714,0,0,0,1.37365-.02741l-.137.376V89.887a86.1752,86.1752,0,0,0,9.658,4.36981,31.92833,31.92833,0,0,0,.61047,14.1944,86.16379,86.16379,0,0,0-9.24713,5.183H59.578Zm-4.62335,9.78015,3.64782-1.63129a2.22689,2.22689,0,0,0,2.79584,1.03424l.8559-.39843a1.95754,1.95754,0,0,0,.95208-.99073l.16883.3628h.00012a86.17894,86.17894,0,0,0,9.919-3.7392,31.9239,31.9239,0,0,0,10.46868,9.60553,86.18313,86.18313,0,0,0-2.87378,10.20318l.00007.00013.37609.1372a1.9563,1.9563,0,0,0-.90539,1.03351l-.32343.887a2.21858,2.21858,0,0,0,1.21082,2.6687l-1.29932,3.7763A50.57837,50.57837,0,0,1,55.12359,123.77721Zm29.95867,24.76391,1.4242-3.72857a2.227,2.227,0,0,0,2.70837-1.24561l.32343-.88708a1.95706,1.95706,0,0,0-.02728-1.3736l.37591.13709H89.887a86.18291,86.18291,0,0,0,4.36756-9.6521,31.78131,31.78131,0,0,0,14.19885-.612,86.17825,86.17825,0,0,0,5.18072,9.24267v.00006l.363-.16888a1.95722,1.95722,0,0,0,.09058,1.37091l.39843.856a2.21884,2.21884,0,0,0,2.74341,1.03088l1.75342,3.593A50.58014,50.58014,0,0,1,85.08226,148.54112Zm38.69513-3.66479-1.63134-3.64777a2.22685,2.22685,0,0,0,1.034-2.79583l-.39831-.8559a1.95749,1.95749,0,0,0-.99072-.952l.36279-.16889v-.00012a86.1879,86.1879,0,0,0-3.74121-9.92359,32.11672,32.11672,0,0,0,9.58935-10.47033,86.18173,86.18173,0,0,0,10.22144,2.87988l.13708-.376a1.95836,1.95836,0,0,0,1.03357.90534l.887.32348a2.21839,2.21839,0,0,0,2.6687-1.211l3.77636,1.29943A50.57719,50.57719,0,0,1,123.77739,144.87633Z"/></svg>