<svg xmlns="http://www.w3.org/2000/svg" viewBox="0 0 200 200"><defs><style>.a{fill:#ba9365;}</style></defs><path class="a" d="M53.52749,98.29535c-1.2569,1.01166-1.6919,2.53747-1.14637,3.0249s.69586.36151,1.56745-.17126A150.39131,150.39131,0,0,0,65.3893,90.218c3.82038-4.082,4.08063-5.20435,5.019-6.12732s1.57026-1.64832,1.10267-1.816-2.25953.73913-3.65577,2.47784A99.94026,99.94026,0,0,1,60.7441,92.2569C58.51253,94.36035,54.78438,97.28363,53.52749,98.29535Z"/><path class="a" d="M65.22127,77.16388c.52191.27118,1.10468.09814,1.95856-.5968s.27978-1.945-.27454-2.51343-1.778-1.25519-2.43939-.8-.64447,1.10962-.41833,2.17883C64.04757,75.43243,64.69936,76.8927,65.22127,77.16388Z"/><path class="a" d="M68.11239,94.42786c-.8368.89978-.16205,2.68457,1.16778,1.75872a13.07625,13.07625,0,0,0,2.85364-2.45819c.45105-.6347.91717-1.72631-.18006-1.64807A7.42129,7.42129,0,0,0,68.11239,94.42786Z"/><path class="a" d="M65.67141,97.68665c.00109-.58558-1.0727-.94428-1.90619-.18207-1.42353,1.30182-7.12244,5.65643-9.41864,7.85864s-2.66083,2.4372-2.462,3.06592.78327,1.21533,1.79169.32464,8.381-6.63958,9.86157-7.9721S65.67031,98.27216,65.67141,97.68665Z"/><path class="a" d="M49.00948,103.00128c-.63306.82361-.54913,1.48206-.0813,1.75916a1.35646,1.35646,0,0,0,1.652-.39923c.54138-.55146,1.0274-.93268.6629-1.60395S50.11092,101.56824,49.00948,103.00128Z"/><path class="a" d="M51.94191,95.29694c1.761-.90345,6.83228-6.05194,8.33069-7.85651s1.463-2.12891,1.37354-2.44727-.91889.10035-1.88086.80713-4.82874,3.864-7.11347,5.481a51.43429,51.43429,0,0,0-6.7622,6.19269c-1.21717,1.3753-1.30408,1.83288-1.023,2.15118.749.848,1.69922.03314,3.09576-.9223S50.18093,96.20032,51.94191,95.29694Z"/><path class="a" d="M139.08425,67.27905c1.37732.46192,5.06915,3.4253,7.959,4.96448s5.1684,3.3996,9.13587,4.8374,5.90466,2.04267,6.60278,2.20453.88092.278,1.1767-.12854c.33117-.45514-.44269-.93829-1.18909-1.231s-2.97272-.11755-12.35132-5.93133-10.7799-7.42975-12.692-7.493c-1.07953.08392-1.01709.65545-.86847,1.08148A3.53972,3.53972,0,0,0,139.08425,67.27905Z"/><path class="a" d="M149.00356,88.81335a.89128.89128,0,0,0,.155,1.419c.477.38306.63812,1.06165,1.41217.97711s.58313-1.16375.07477-1.7052C150.10195,88.92535,149.482,88.413,149.00356,88.81335Z"/><path class="a" d="M138.48452,70.99091c-.80219-.17347-1.44245-.06-1.32428.62329s.323.96551,1.78753,2.02386,2.11206,2.206,2.92829,2.50849,1.22278.04046,1.39081-.413-.14789-1.01849-.933-1.76916C141.37691,73.04932,139.2867,71.16431,138.48452,70.99091Z"/><path class="a" d="M159.23964,91.69836A15.74115,15.74115,0,0,1,156.819,91.049c-1.45-.52215-2.9082-1.26013-3.37927-1.45837-.821-.34546-1.28864-.07679-1.0257.85174s1.55261,1.745,2.96491,2.24341,2.7774,1.04547,3.51849.65991S160.12325,91.89709,159.23964,91.69836Z"/><path class="a" d="M158.91915,81.59485a42.81088,42.81088,0,0,1-8.21839-3.93213c-2.68585-1.88226-4.42242-3.04144-5.12451-3.09528a.82446.82446,0,0,0-.83795,1.09235,9.02959,9.02959,0,0,0,2.93695,2.98615,23.95756,23.95756,0,0,0,7.33093,3.3764c2.04377.38592,4.63166.97345,4.63166.97345,1.6568.42816,3.07031.62189,2.94281-.1474S160.28432,82.142,158.91915,81.59485Z"/><path class="a" d="M159.49691,86.88385c-1.35572-.46112-6.68878-1.88007-9.08918-3.14081s-3.85345-1.75775-5.06481-2.32007-1.93836-.04785-1.92029.51587.42706,1.51978,3.21917,2.78125,7.9134,3.53034,9.59436,3.7818,3.74427.41773,4.59559-.15387C161.3,88.03357,160.85268,87.34491,159.49691,86.88385Z"/><path class="a" d="M21.97988,136.641l6.07044-4.75195-8.5257-1.96747c-1.28272-3.60333-.21179-.70109-1.0946-4.48075l14.39439-7.77366L15.865,113.45761c-1.17755-6.25916-1.04835-8.11764-1.04835-14.72726,0-52.31989,37.81909-90.407,87.53135-96.00325a.28088.28088,0,0,0-.02176-.5601c-30.8-.64214-61.89071,11.47674-81.58747,36.3529-.49133.62054-1.45246,1.88531-1.45246,1.88531l3.29065,6.842-9.24066,2.17426q-.44805.77637-.88318,1.56537L15.78969,53.404,10.1122,55.52924q-.95745,1.9898-1.83069,4.05633l2.07837,1.84351L6.72567,63.46729A111.23461,111.23461,0,0,0,0,100.71527C1.051,162.781,45.2075,195.54,91.76073,198.991a.491.491,0,0,0,.15113-.967C59.98943,190.39255,33.97268,167.15519,21.97988,136.641Z"/><path class="a" d="M110.29177,114.94794c-1.203-.10681-1.82685,3.04376-2.62506,5.96039s-1.40546,4.17437-1.08026,5.10675a2.76132,2.76132,0,0,0,2.20544,1.695,1.66064,1.66064,0,0,0,1.3891-1.04522,5.169,5.169,0,0,0,.48022-2.8819c-.12054-1.1037-.17559-2.28906.27216-2.61243s.40057,1.27313.85809,2.11664,1.44818,2.96912,1.88037,3.51758,1.659.191,2.10974-.45386.78223-3.06378-.61639-5.64264S111.49477,115.05469,110.29177,114.94794Z"/><path class="a" d="M125.86251,157.22418c.40423-.68255.30462-1.57043-.19525-1.78747-.63251-.27466-1.12043-.51606-1.62983.178s-.36975.998.16657,1.52459S125.45827,157.90674,125.86251,157.22418Z"/><path class="a" d="M128.33822,98.19763c-3.28571-2.06384-6.635-2.45843-10.3863.52027s-4.03558,5.52282-3.14959,9.782,3.35656,5.40387,6.24359,6.78259a10.73093,10.73093,0,0,0,7.17352.74286c1.184-.40857-.95331-.54755-2.15149-1.2915s-.93341-1.38721-.08148-1.2569,4.54248.174,5.65881-3.4104S132.65529,100.90918,128.33822,98.19763Zm-4.511,15.962a.98969.98969,0,0,1-.7768-.9762c-.04821-.44153,1.11622-.717,1.32453-.14471C124.72963,114.01331,124.40322,114.32007,123.82723,114.15961Z"/><path class="a" d="M126.929,155.2522c.44934.21692,1.12793-.38922.86016-.892s-.69738-.61121-.975-.15949C126.44167,154.807,126.47976,155.03528,126.929,155.2522Z"/><path class="a" d="M199.59047,92.48914l-2.31787-1.27247,2.01361-1.94281q-.227-2.086-.52447-4.12072l-4.3833-2.68982,3.35217-3.276a75.51944,75.51944,0,0,0-5.81873-18.40052l-3.84075-3.43725,1.14508-3.187C178.38178,32.55913,163.62147,18.06836,142.02042,9.8294a73.57868,73.57868,0,0,0-43.06568-2.86c-.91277.21527-1.75944.436-2.511.6603-41.17605,12.29037-75.627,49.52946-75.627,91.10079a60.77529,60.77529,0,0,0,.56584,10.478l16.56956,7.47425-11.151,9.26505,7.79148,5.234-5.67723,6.52428c11.36613,26.05072,30.36164,48.76466,77.0082,57.793a58.65726,58.65726,0,0,0,26.32141-1.01719h0C168.92463,183.173,199.12553,151.92206,200,100.71942,199.95253,97.91455,199.81032,95.17426,199.59047,92.48914ZM51.85482,116.36633c-.72455-.41479-3.03595-2.35443-3.48438-3.63305-.53721-1.53188-1.1396-2.03736-2.538-3.34782a4.61253,4.61253,0,0,1-1.4119-2.757c-.16369-1.22523-.21054-2.53933-1.14028-3.46619-1.00482-1.00177-2.86847-.85992-3.29657-2.35687a9.76488,9.76488,0,0,1-.32532-2.97821c.10309-1.82831,6.2403-7.465,9.16138-10.63232s6.59754-7.08735,7.20557-7.65638,1.13592-.38476,1.76379-.19268,2.67743.62066,3.56677-.68274a5.65846,5.65846,0,0,0,.5965-5.09479c-.33813-.87341-.18487-.994.74939-1.84967s1.52936-1.36609,2.29212-.96985,4.32019,2.54278,5.44421,2.79681,1.963.09394,1.959-1.82409-.6145-8.68116-.68646-9.682.06616-.97668,1.50189-3.1217a86.6667,86.6667,0,0,0,5.4029-8.7815c1.02557-2.25921,2.69213-4.11133,3.31854-5.29315a27.2801,27.2801,0,0,1,2.64068-4.583c1.02363-1.18542,1.42652-1.86566,1.93732-1.92144s.89881.21991,1.1369,1.30725,1.23627,1.85315,1.721,4.10644,2.43,10.23212,4.24841,15.95825A135.99,135.99,0,0,0,100.571,76.7652c1.44007,2.62616,2.49768,4.3,3.82514,4.07544s1.89837-4.4621,2.2464-8.556,2.01825-10.28064,2.63574-18.45984,1.28784-16.60272,1.46912-17.85523.90277-1.92773,1.53576-1.95709,1.7442,1.04212,3.42059,3.28455,9.716,10.98889,16.23316,15.53064,13.57111,9.67407,17.079,12.06524,15.253,7.77851,19.0545,9.07514,4.0539,1.4461,4.14215,2.79413.272,3.5711-1.47357,4.88336-3.12744,2.17157-3.06372,2.75488a2.1202,2.1202,0,0,0,1.2839,1.542,2.50159,2.50159,0,0,1,1.32571,2.72889,4.30229,4.30229,0,0,1-.99425,2.40561c-.44507.41656-.77338.77948-.62195,1.41705a5.937,5.937,0,0,1-.14526,3.47656c-.556,1.10687-1.70862,1.54047-3.20057,2.8111s-9.11773,4.41137-14.15277,5.6383-4.588.53192-4.976.359-.006-1.23987.18628-1.229a4.93131,4.93131,0,0,0,2.04791.66815,4.45239,4.45239,0,0,0,1.30658-.20514c.14466-.01581-.077-.70508-.09479-.8678s-2.55072-1.07519-2.93994-1.28876-.18322-.83984-.06225-1.07263a1.44,1.44,0,0,1,1.39831-.26251,11.8168,11.8168,0,0,0,2.407.59692c.45392-.03131.58082-.20977.541-.40667A18.5069,18.5069,0,0,0,148.0132,98.804a3.03993,3.03993,0,0,1-1.30151-1.02869c-.3186-.40424.034-1.0282.72888-1.03095A11.13642,11.13642,0,0,1,150.65,97.8208a29.67093,29.67093,0,0,0,3.84754,1.39087c.84314.18231.98248-.2171,1.035-.40582s.08734-.54-.92584-1.10633a69.11459,69.11459,0,0,0-16.70142-6.7904c-9.536-2.55066-16.32147-3.009-21.02258-3.8208s-6.72668-1.54492-11.08313-1.069-8.01507,2.413-14.09112,5.51556S70.836,101.8736,66.37746,105.22351a48.25006,48.25006,0,0,0-8.53009,8.30115c-.54858.80218.26227.77478.51044.61487s3.0957-2.46332,4.61926-3.71442a43.17589,43.17589,0,0,1,4.62335-3.27216c.38178-.1524.7096.011.71875.29779s.07447.47889-.91583,1.14045a32.17617,32.17617,0,0,0-4.1496,3.35327c-.2.39813.22241.61761,1.11695.4978s4.413-2.563,4.86322-2.8999a.50205.50205,0,0,1,.84765.2616c.07477.2796.46985.85626-.52484,1.27484a15.977,15.977,0,0,0-3.30688,2.35357c-.33606.36872-.08149.673.53582.64984a7.44416,7.44416,0,0,0,2.73352-1.11767,11.4429,11.4429,0,0,0,1.26038-.824c.26764-.18414.727-.23437,1.05127.505a2.83587,2.83587,0,0,1,.27631,1.71863c-.09064.38623-.32483.87664-1.93885,1.09729s-10.69934.64837-13.59961,1.024S52.57937,116.78125,51.85482,116.36633Zm51.686-58.45349c1.10095-.05694,2.20136.17078,2.24231.5459s.05756.81616-1.30029.838-2.47931-.10876-2.68213.64093.3042.75763.8078.73426,1.82678-.07306,2.07629.18438a.76273.76273,0,0,1,.14106.71216c-.01416.15973-.11872.361-1.02869.42871s-1.88245.1424-1.85169.42371-.06408.86108,1.06128.73816,1.14582.06463,1.19367.50226.08795.81286-.80255.91015-1.46967.31873-1.4173.78748.23254.67053.98279.58856,1.22259-.10193,1.32953.29767.02624.81958-.76551.81116-1.34308.17834-1.28387.70965.73273.61591,1.20166.5647.62073.46991.65826.81378a.76771.76771,0,0,1-.6546.95728.82116.82116,0,0,0-.71716.96405c.0376.34387.12744.58709.81512.512s.53382.54272.50782,1.463.12054,4.28894-.09882,4.5976-.75067.27185-.99609-.33405-4.182-8.84332-5.28058-11.94989-1.51142-3.4267-2.13721-7.69928c-.24561-1.67694.12305-2.57233,2.97833-3.55762s5.68646-.95794,6.90387.32318-.75714,1.69886-1.82916,1.74866-1.74982.4104-1.6781,1.06684S102.43984,57.96985,103.54079,57.91284Zm-4.82764,85.33649c.67731-.074.8462.12787.87549.39587s.09571.42816-.87182.53388-1.15088.44391-1.1139.78259,1.34583.22009,1.60926.16687.56994-.16022.67383.34247-.24878.85943-1.23523,1.01617-.98951.35285-.9654.57337-.17621.62829,1.28614.34619,2.18487-.16528,2.81317,1.55292a16.85215,16.85215,0,0,0,3.24353,5.71606c1.39215,1.31653,3.71509.62219,5.0603-.28357s1.1637-3.01544,1.11023-4.6496.45087-2.57037,1.80579-2.93866,2.6585-.53521,3.72119.22986.93524,4.30377,2.77356,4.10291,1.5733-2.179,1.50238-3.05243-.54969-2.11841.58661-3.36853,3.13067-1.59033,3.74475-.89862a7.04048,7.04048,0,0,1,1.39728,2.93152.75867.75867,0,0,0,.91485.75677c.29028-.03174.38782-.483.31122-1.18445a1.31868,1.31868,0,0,1,1.1261-1.56714c.8277-.0415.86627-.58422.82666-.947s-.86206-.273-1.12811-.24395-.39759-.05445-.42933-.34473.036-.5669.25373-.5907,1.4566-.11017,1.41168-.52136-.53137-.38257-.991-.33234-.67419-.12219-.71386-.485.87426-.51166,1.38226-.56714.47888-.32154.45245-.56342-.35144-.30432-.69012-.26733-.84925.0683-.82648-.61951.9151-.80981,1.68915-.89441,1.49139-.01605,1.65143.74976a47.5242,47.5242,0,0,1,.58831,5.38543,24.9289,24.9289,0,0,1-.79986,8.33594,12.18289,12.18289,0,0,1-6.41766,6.66895c-3.6626,1.61645-10.21161,2.55993-15.59894,2.65429s-9.91645-3.704-11.85877-8.0169a28.96461,28.96461,0,0,1-2.30884-9.91236c-.17047-1.76458-.07238-1.88678,1.093-2.237s1.80786-.2492,1.84876.12525c.06433.58881-.73938.46533-.72925.78241S98.03591,143.3233,98.71315,143.24933Zm6.89862,3.20837c1.63935.46912,3.062.73505,3.53382,1.49372a5.89019,5.89019,0,0,1,.33587,3.0747,2.28308,2.28308,0,0,1-2.47637,1.95581c-1.14893-.13372-2.26886-.59478-3.07007-4.07238C103.63765,147.6189,103.97243,145.98859,105.61177,146.4577Zm26.63251-14.487c-.55584,2.50592-1.00342,4.62226-2.20971,5.05085a3.80486,3.80486,0,0,1-3.14924-.15064,8.18959,8.18959,0,0,0-1.9638-1.07153c-.40167-.05506-.87683.42553-.79492,1.175s.59283,2.4085-1.23261,2.90472-2.78473.46906-3.23932-.37164-.62353-1.48181-1.59759-1.34241-.94019,1.35584-1.06092,2.06152-.65094,1.588-2.63879,1.80518-3.06982-.02734-3.531-1.2301-.81738-2.351-1.56689-2.26911-1.25781.86292-1.39392,2.03192-.77362,1.37061-1.19721,1.41687-1.941.344-2.62072-.14239-1.02283-.91052-1.46863-2.5766-1.02118-1.80109-1.6261-1.60309a2.52674,2.52674,0,0,0-1.46564,1.677,1.7838,1.7838,0,0,1-2.58624.77716,8.75206,8.75206,0,0,1-3.26886-3.96283c-.8938-2.14471-.63885-4.94262-2.41858-7.65014s-3.49347-3.90534-5.47253-4.51355a50.19222,50.19222,0,0,1-5.3003-1.72937,3.62841,3.62841,0,0,1-1.88531-1.79785c-.16248-.28156,3.58179-3.05207,4.70587-3.8971s2.97131-2.37726,3.22192-2.51867.41669.33459.22.62219-1.4776,2.4801-1.01172,3.2655,5.76581,5.10986,12.81384,2.81946,6.72766-11.83435,6.40637-14.08-.96374-4.64618-.82989-4.8128,11.48749-11.06195,12.00989-11.49915a1.99727,1.99727,0,0,1,2.10009-.6095c1.05933.30237,11.67023,2.90442,12.191,3.07093s.80774.39941.899.88531.41333,1.31262.82812,1.40009c.50544.1065.88886-.024,1.21338-.75214.27143-.609,1.11017-.37335,1.27839-.28589.41156.21393.37463,1.11023.31219,1.88239-.06726.83148.31689,1.28619.95892,1.37353.69818.095,1.34119-.64239,1.49384-1.689a.60386.60386,0,1,1,1.18115.17963c-.30566,1.34295.01618,2.85345.90338,3.07531.71216.17816,1.53119.16449,1.90119-.63885s.88311-2.04175,1.30188-2.04938,1.11963-.12176,1.3313,2.41022c.194,2.31988.13665,7.39117-.74555,10.10736s-2.90912,4.94617-6.65942,8.587-3.68116,5.07422-3.746,6.47852A54.18381,54.18381,0,0,1,132.24428,131.9707ZM77.82692,103.89233c.90827.22223,2.12543.33033,2.066-.94891s1.14045-1.33,1.73969-.99365,1.36865-.712,1.27325-1.58551,1.00763-1.0744,1.61554-.65863,1.1391-.60663.9903-1.23322.31647-.55383,2.10992-1.34338S101.646,89.619,103.8658,88.879a14.82682,14.82682,0,0,1,8.76465-.02478c.39551.2055-3.00934,3.189-6.93365,6.54016s-9.75763,9.14929-10.12628,9.18957a2.89243,2.89243,0,0,1-1.13428.02106c-.24048-.11078-.04932-.45135.36755-.81665s4.455-3.95807,5.03266-4.52362.39868-1.36816-.87012-1.27521a42.43354,42.43354,0,0,0-13.13123,4.81452c-4.5733,2.87475-6.20282,5.51928-5.97528,7.18445s1.52295,3.48773,1.57715,3.98425-4.42877,3.36139-4.72009,3.62158-.55561-.261-.55561-.261c-.57049-1.54486-2.99017-9.71807-2.97882-11.08545s.8935-1.3833,1.13044-.686.61254,2.66522,1.3446,2.746,1.55219.23224,1.52014-1.5321S76.91872,103.6701,77.82692,103.89233ZM61.50635,169.009a.74172.74172,0,0,1,.7971-1.245c87.49633,45.91913,127.55443-31.2488,113.78916-90.0931C165.83428,33.81805,123.95581-.10059,58.24882,35.90514a.48694.48694,0,0,1-.57276-.7769c13.611-12.83428,31.25562-20.593,50.54753-20.593C158.09066,17.7771,182.9659,55.52246,186.288,90.96936,192.2572,154.66205,133.83273,224.75437,61.50635,169.009Z"/></svg>