<svg xmlns="http://www.w3.org/2000/svg" viewBox="0 0 200 200"><defs><style>.a{fill:#fff;}</style></defs><path class="a" d="M7.08131,93.65673C4.95707,95.518-.374,97.9108.0208,101.41288c-.36619,3.42077,4.29429,5.38665,6.42575,7.09209a61.82486,61.82486,0,0,0,15.233,7.65675A38.88779,38.88779,0,0,0,25.81533,99.4888a33.30217,33.30217,0,0,0-3.06546-14.05014A61.84229,61.84229,0,0,0,7.08131,93.65673Zm8.90506,5.90073a3.07869,3.07869,0,1,1,3.07868-3.07869A3.07867,3.07867,0,0,1,15.98637,99.55746ZM155.60414,113.6758a1.25278,1.25278,0,0,1-1.65689,1.68991l-20.87542-9.85386c-31.358,9.16812-67.10239,19.24606-99.86236,13.40358a61.8046,61.8046,0,0,1-6.69773-1.31238A39.71625,39.71625,0,0,0,31.37718,99.4888,33.15217,33.15217,0,0,0,27.55542,83.912a94.50442,94.50442,0,0,1,24.249-3.2229l-.46828-.02726c7.93876-3.87758,19.20072-5.35455,19.20072-5.35455l1.85424,6.58044-.14769-.00858c21.49486,2.59357,43.127,8.84183,60.82839,13.53711l20.9338-9.47686a1.25273,1.25273,0,0,1,1.63874,1.69824l-6.48262,13.05959ZM51.3015,41.70321c-2.12425,1.86125-7.45535,4.25406-7.06052,7.75615-.36619,3.42077,4.2943,5.38665,6.42575,7.09209a61.825,61.825,0,0,0,15.233,7.65675,38.88783,38.88783,0,0,0,4.13574-16.67292,33.302,33.302,0,0,0-3.06546-14.05014A61.84175,61.84175,0,0,0,51.3015,41.70321Zm8.90505,5.90073a3.07869,3.07869,0,1,1,3.07868-3.07869A3.07867,3.07867,0,0,1,60.20655,47.60394ZM199.82432,61.72228a1.25278,1.25278,0,0,1-1.65689,1.68991L177.292,53.55833c-31.358,9.16812-67.10239,19.24606-99.86236,13.40358a61.80442,61.80442,0,0,1-6.69772-1.31238,39.71638,39.71638,0,0,0,4.86543-18.11425,33.15239,33.15239,0,0,0-3.82175-15.57684,94.50472,94.50472,0,0,1,24.24895-3.22289l-.46827-.02726c7.93875-3.87758,19.20071-5.35455,19.20071-5.35455l1.85424,6.58044-.14769-.00858c21.49486,2.59357,43.127,8.84182,60.82839,13.5371l20.93381-9.47685a1.25273,1.25273,0,0,1,1.63874,1.69823l-6.48262,13.05959ZM51.3015,143.633c-2.12425,1.86125-7.45535,4.25407-7.06052,7.75615-.36619,3.42077,4.2943,5.38665,6.42575,7.09209a61.82469,61.82469,0,0,0,15.233,7.65675,38.88779,38.88779,0,0,0,4.13574-16.67292A33.302,33.302,0,0,0,66.97005,135.415,61.842,61.842,0,0,0,51.3015,143.633Zm8.90505,5.90073a3.07869,3.07869,0,1,1,3.07868-3.07868A3.07867,3.07867,0,0,1,60.20655,149.53374Zm139.61777,14.11834a1.25278,1.25278,0,0,1-1.65689,1.68991L177.292,155.48814c-31.358,9.16811-67.10239,19.24605-99.86236,13.40357a61.802,61.802,0,0,1-6.69772-1.31238,39.71638,39.71638,0,0,0,4.86543-18.11425,33.15234,33.15234,0,0,0-3.82175-15.57683,94.50428,94.50428,0,0,1,24.24895-3.2229l-.46827-.02726c7.93875-3.87758,19.20071-5.35455,19.20071-5.35455l1.85424,6.58045-.14769-.00859c21.49486,2.59357,43.127,8.84183,60.82839,13.53711l20.93381-9.47685a1.25273,1.25273,0,0,1,1.63874,1.69823l-6.48262,13.05959Z"/></svg>