<svg height="512" viewBox="0 0 60 60" width="512" xmlns="http://www.w3.org/2000/svg"><g id="Page-1" fill="none" fill-rule="evenodd"><g id="021---Treasure-Map" fill-rule="nonzero" transform="translate(-1 -1)"><path id="Shape" d="m14 8v19.46c-.0007135.3374777-.1694426.6524387-.45.84l-1.3.87c-.2809025.1826305-.4503705.4949476-.4503705.83s.169468.6473695.4503705.83l1.3.87c.2805574.1875613.4492865.5025223.45.84v17.46c0-3.3137085-2.6862915-6-6-6-.33538758-.0007205-.67013069.0294064-1 .09-2.88677893.4837665-5.00116188 2.9829672-5 5.91v-34.46c.00071348-.3374777.16944259-.6524387.45-.84l1.3-.87c.28090255-.1826305.4503705-.4949476.4503705-.83s-.16946795-.6473695-.4503705-.83l-1.3-.87c-.28055741-.1875613-.44928652-.5025223-.45-.84v-2.25c-.04226149-3.06518982 2.1802973-5.69301366 5.21-6.16 1.71397674-.22566732 3.4420757.29816909 4.7422762 1.43752006 1.3002006 1.13935097 2.0463969 2.78371152 2.0477238 4.51247994z" fill="#ffea3a"/><path id="Shape" d="m58.25 29.17c-.2809025.1826305-.4503705.4949476-.4503705.83s.169468.6473695.4503705.83l1.3.87c.2805574.1875613.4492865.5025223.45.84l.0000005 17.46c.0011614-2.9270328-2.1132216-5.4262335-5.0000005-5.91-.3298693-.0605936-.6646124-.0907205-1-.09-3.3137085 0-6 2.6862915-6 6v-42c0-3.3137085 2.6862915-6 6-6s6 2.6862915 6 6v19.46c-.0007135.3374777-.1694426.6524387-.45.84z" fill="#ffea3a"/><path id="Shape" d="m59.55 28.3c.2805574-.1875613.4492865-.5025223.45-.84v-19.46c.0059044-1.85724902-.8517526-3.61174587-2.3209424-4.74791932-1.4691898-1.13617344-3.383005-1.52494843-5.1790576-1.05208068 2.6456983.68311274 4.4956841 3.06753882 4.5 5.8v19.46c-.0007135.3374777-.1694426.6524387-.45.84l-1.3.87c-.2809025.1826305-.4503705.4949476-.4503705.83s.169468.6473695.4503705.83l1.3.87c.2805574.1875613.4492865.5025223.45.84v12.268c1.8569353 1.06924 3.0009948 3.0492256 3.0000303 5.192l-.0000303-17.46c-.0007135-.3374777-.1694426-.6524387-.45-.84l-1.3-.87c-.2809025-.1826305-.4503705-.4949476-.4503705-.83s.169468-.6473695.4503705-.83z" fill="#fcd734"/><path id="Shape" d="m55 44.09v9.91c0 .5522847-.4477153 1-1 1h-1c-2.7614237 0-5-2.2385763-5-5 0-3.3137085 2.6862915-6 6-6 .3353876-.0007205.6701307.0294064 1 .09z" fill="#ff9701"/><path id="Shape" d="m54 44c-.6817939.0012371-1.358305.1196266-2 .35v9.65c-.0045437.3072875-.1525382.5947669-.4.777.4534928.1413645.9250294.2164736 1.4.223h1c.5522847 0 1-.4477153 1-1v-9.91c-.3298693-.0605936-.6646124-.0907205-1-.09z" fill="#f47c00"/><path id="Shape" d="m14 50c0 2.7614237-2.2385763 5-5 5h-1c-.55228475 0-1-.4477153-1-1v-9.91c.32986931-.0605936.66461242-.0907205 1-.09 3.3137085 0 6 2.6862915 6 6z" fill="#ff9701"/><path id="Shape" d="m60 50c0 2 .0000005 10-10 10h-38c-10.00000048 0-10-8-10-10-.00116188-2.9270328 2.11322107-5.4262335 5-5.91v9.91c0 .5522847.44771525 1 1 1h1c2.7614237 0 5-2.2385763 5-5v-17.46c-.0007135-.3374777-.1694426-.6524387-.45-.84l-1.3-.87c-.2809025-.1826305-.4503705-.4949476-.4503705-.83s.169468-.6473695.4503705-.83l1.3-.87c.2805574-.1875613.4492865-.5025223.45-.84v-9.46h4.46c.3374777.0007135.6524387.1694426.84.45l.87 1.3c.1826305.2809025.4949476.4503705.83.4503705s.6473695-.169468.83-.4503705l.87-1.3c.1875613-.2805574.5025223-.4492865.84-.45h24.46v32c0 2.7614237 2.2385763 5 5 5h1c.5522847 0 1-.4477153 1-1v-9.91c2.8867789.4837665 5.0011619 2.9829672 5 5.91z" fill="#ffdb00"/><path id="Shape" d="m50 55h1c.2192783-.0053107.430481-.0838077.6-.223-2.12776-.6160782-3.5941167-2.5618521-3.6-4.777v-32h-3v32c0 2.7614237 2.2385763 5 5 5z" fill="#fdc008"/><path id="Shape" d="m55 44.09v1.461c1.2704815 1.130029 1.998129 2.7486808 2 4.449 0 2 0 10-10 10h3c10.0000005 0 10-8 10-10 .0011619-2.9270328-2.1132211-5.4262335-5-5.91z" fill="#fdc008"/><path id="Shape" d="m25 18v2.394c0 .6911542.2745599 1.3540005.7632797 1.8427203s1.1515661.7632797 1.8427203.7632797c.8711244.0000074 1.6846363.4352813 2.168 1.16l.1.148c.7042531 1.0562796 1.8894733 1.6910983 3.159 1.692 1.743389-.0002066 3.2629988-1.186706 3.686-2.878l1.281-5.122z" fill="#ff9701"/><path id="Shape" d="m43.914 24.5.793-.793c.3789722-.3923789.3735524-1.0160848-.0121814-1.4018186s-1.0094397-.3911536-1.4018186-.0121814l-.793.793-.793-.793c-.3923789-.3789722-1.0160848-.3735524-1.4018186.0121814s-.3911536 1.0094397-.0121814 1.4018186l.793.793-.793.793c-.2599566.2510745-.3642126.6228779-.2726972.9725073.0915155.3496295.3645604.6226744.7141899.7141899.3496294.0915154.7214328-.0127406.9725073-.2726972l.793-.793.793.793c.3923789.3789722 1.0160848.3735524 1.4018186-.0121814s.3911536-1.0094397.0121814-1.4018186z" fill="#f34335"/><g fill="#9f522d"><path id="Shape" d="m19 33h-1c-.5522847 0-1-.4477153-1-1s.4477153-1 1-1h1c.5522847 0 1 .4477153 1 1s-.4477153 1-1 1z"/><path id="Shape" d="m24 39c-.5522847 0-1-.4477153-1-1v-1c0-.5522847.4477153-1 1-1s1 .4477153 1 1v1c0 .5522847-.4477153 1-1 1z"/><path id="Shape" d="m24 44c-.5522847 0-1-.4477153-1-1v-1c0-.5522847.4477153-1 1-1s1 .4477153 1 1v1c0 .5522847-.4477153 1-1 1z"/><path id="Shape" d="m24 49c-.5522847 0-1-.4477153-1-1v-1c0-.5522847.4477153-1 1-1s1 .4477153 1 1v1c0 .5522847-.4477153 1-1 1z"/><path id="Shape" d="m44 32c-.5522847 0-1-.4477153-1-1v-1c0-.5522847.4477153-1 1-1s1 .4477153 1 1v1c0 .5522847-.4477153 1-1 1z"/><path id="Shape" d="m38 43c-.5522847 0-1-.4477153-1-1v-1c0-.5522847.4477153-1 1-1s1 .4477153 1 1v1c0 .5522847-.4477153 1-1 1z"/><path id="Shape" d="m38 48c-.5522847 0-1-.4477153-1-1v-1c0-.5522847.4477153-1 1-1s1 .4477153 1 1v1c0 .5522847-.4477153 1-1 1z"/><path id="Shape" d="m25.256 54c-.3272078.0002442-.6338372-.1596064-.821-.428-.2531154-.3616283-.4752381-.743987-.664-1.143-.2215047-.4959282-.0066513-1.077991.4839457-1.3110654.490597-.2330743 1.0775385-.0319306 1.3220543.4530654.1429295.2988703.310158.5854999.5.857.3157855.4529002.2047688 1.0760262-.248 1.392-.1677525.1178876-.3679689.1807828-.573.18z"/><path id="Shape" d="m30 56.929c-.0478445.0000918-.0956339-.0032501-.143-.01-.3869957-.0553715-.7693704-.1392666-1.144-.251-.5179926-.1665519-.807761-.7166902-.6521112-1.2380624.1556497-.5213722.6995888-.8226167 1.2241112-.6779376.2802837.0835424.5664118.1460493.856.187.5195844.0740368.8935255.5371568.8564319 1.0606771-.0370936.5235202-.4725992.9292876-.9974319.9293229z"/><path id="Shape" d="m34 56.326c-.4648567-.0031804-.8662182-.3262789-.968603-.7797315-.1023848-.4534525.1212113-.9176599.539603-1.1202685.2988703-.1429295.5854999-.310158.857-.5.2927195-.2131951.6778266-.2514795 1.0067906-.1000873.3289639.1513921.5503771.4688026.5788433.8298103s-.1404631.7091974-.4416339.910277c-.3616283.2531154-.743987.4752381-1.143.664-.1339983.0637465-.2806125.0965552-.429.096z"/><path id="Shape" d="m37.326 53c-.3423873-.0011305-.6603946-.1773541-.8428617-.4670713-.1824671-.2897173-.2040251-.6526479-.0571383-.9619287.131559-.2763131.241229-.5625252.328-.856.1604185-.525511.7147753-.8231611 1.2414375-.6665636s.8283308.7087779.6755625 1.2365636c-.1163487.3921735-.2631277.7746682-.439 1.144-.1660459.3496306-.5189448.5720426-.906.571z"/><path id="Shape" d="m38 38c-.5522847 0-1-.4477153-1-1 0-1.1045695.8954305-2 2-2 .5522847 0 1 .4477153 1 1s-.4477153 1-1 1c0 .5522847-.4477153 1-1 1z"/><path id="Shape" d="m24 34c-.5522847 0-1-.4477153-1-1-.5522847 0-1-.4477153-1-1s.4477153-1 1-1c1.1045695 0 2 .8954305 2 2 0 .5522847-.4477153 1-1 1z"/><path id="Shape" d="m43 37c-.5522847 0-1-.4477153-1-1s.4477153-1 1-1c0-.5522847.4477153-1 1-1s1 .4477153 1 1c0 1.1045695-.8954305 2-2 2z"/></g><path id="Shape" d="m54 1c-3.8641657.00440864-6.9955914 3.13583434-7 7v9h-23.465c-.6687467.0001229-1.29318.3344799-1.664.891l-.871 1.309-.871-1.306c-.3701316-.5576623-.9946839-.8932091-1.664-.894h-3.465v-9c-.0014502-2.0153415-.870708-3.93245202-2.3856865-5.26152828-1.5149784-1.32907626-3.52893149-1.94137935-5.5273135-1.68047172-3.53480829.51839043-6.1383555 3.57575128-6.087 7.148v2.259c.00012287.6687467.33447989 1.29318.891 1.664l1.309.871-1.306.871c-.55766234.3701316-.89320906.9946839-.894 1.664v34.465c0 9.571 6.892 11 11 11h38c4.108 0 11-1.429 11-11v-17.465c-.0001229-.6687467-.3344799-1.29318-.891-1.664l-1.309-.871 1.306-.871c.5591388-.3711114.8948846-.997912.894-1.669v-19.46c-.0044086-3.86416566-3.1358343-6.99559136-7-7zm-28 18h10.719l-.969 3.879c-.2688613 1.0751143-1.1465229 1.8904896-2.2384867 2.0796248-1.0919638.1891353-2.1927283-.2835638-2.8075133-1.2056248l-.1-.148c-.6681431-1.0036093-1.7943278-1.606118-3-1.605-.8836244-.0016412-1.6001525-.7163825-1.604-1.6zm-23-3.465 1.307-.871c.55631025-.3709464.89044874-.9953579.89044874-1.664s-.33413849-1.2930536-.89044874-1.664l-1.307-.871v-2.259c-.05281226-2.56605222 1.80314836-4.77438878 4.34-5.164 1.43264153-.19600851 2.8793616.24421817 3.96 1.205 1.0797064.9485404 1.6990431 2.31581742 1.7 3.753v19.465l-1.307.871c-.5563103.3709464-.8904487.9953579-.8904487 1.664s.3341384 1.2930536.8904487 1.664l1.307.871v12.575c-1.3136228-1.3492728-3.11687977-2.1102472-5-2.11-.39357196-.0027404-.78656146.030734-1.174.1-1.45445996.2422943-2.79428049.9405698-3.826 1.994zm10 34.465c0 2.209139-1.790861 4-4 4h-1v-9c2.7600532.0033061 4.9966939 2.2399468 5 5zm37 9h-6v-2c0-.5522847-.4477153-1-1-1s-1 .4477153-1 1v2h-20.961c.0800372-1.2542067.3179137-2.4933147.708-3.688.1166703-.3408261.0410059-.7180629-.1980751-.987534-.2390811-.2694711-.6046222-.3895225-.9569172-.3142717-.3522949.0752508-.6368869.3341717-.7450077.6778057-.4548573 1.3962962-.7264618 2.8457498-.808 4.312h-7.039c-5.972 0-9-3.028-9-9-.00778131-1.9905266 1.17260667-3.793766 3-4.583v8.583c0 1.1045695.8954305 2 2 2h1c3.3123376-.0033074 5.9966926-2.6876624 6-6v-17.465c-.0001229-.6687467-.3344799-1.29318-.891-1.664l-1.309-.871 1.306-.871c.5576623-.3701316.8932091-.9946839.894-1.664v-8.465h3.465l.871 1.307c.3709464.5563103.9953579.8904487 1.664.8904487s1.2930536-.3341384 1.664-.8904487l.871-1.307h.465v1.4c.0049567 1.9881198 1.6168752 3.5978027 3.605 3.6.5371157-.0010208 1.0389083.2675284 1.336.715l.1.148c1.0542283 1.5804745 2.941418 2.3904474 4.8132967 2.0658442 1.8718787-.3246033 3.3761672-1.7226938 3.8367033-3.5658442l1.09-4.363h8.219v24h-6c-.5522847 0-1 .4477153-1 1s.4477153 1 1 1h6v5c.0033074 3.3123376 2.6876624 5.9966926 6 6h1c1.1045695 0 2-.8954305 2-2v-8.583c1.8273933.789234 3.0077813 2.5924734 3 4.583 0 5.972-3.028 9-9 9zm-1-9c.0033061-2.7600532 2.2399468-4.9966939 5-5v9h-1c-2.209139 0-4-1.790861-4-4zm10-22.535-1.307.871c-.5563103.3709464-.8904487.9953579-.8904487 1.664s.3341384 1.2930536.8904487 1.664l1.307.876v12.554c-1.0324045-1.0515963-2.3721524-1.7480831-3.826-1.989-.3872834-.0709424-.7802741-.1060906-1.174-.105-1.8831202-.0002472-3.6863772.7607272-5 2.11v-37.11c0-2.76142375 2.2385763-5 5-5s5 2.23857625 5 5z" fill="#000"/><path id="Shape" d="m34.938 43.033c-2.5183415.1501265-4.9706031.8651274-7.175 2.092-.4832491.2678581-.6578581.8767508-.39 1.36.2678581.4832491.8767508.6578581 1.36.39 1.9442517-1.0828533 4.1074666-1.7138052 6.329-1.846.3572656-.0221505.6755755-.2332173.8350254-.5536936.15945-.3204763.1358157-.7016741-.062-1-.1978156-.2983258-.5397598-.4684569-.8970254-.4463064z" fill="#000"/></g></g></svg>