<svg height="512" viewBox="0 0 44 58" width="512" xmlns="http://www.w3.org/2000/svg"><g id="Page-1" fill="none" fill-rule="evenodd"><g id="001---Pirate-Costume" fill-rule="nonzero"><path id="Shape" d="m26.976 2.984c-1.3640222-1.24154803-3.1319319-1.94643809-4.976-1.984-1.8546128.03552113-3.6325072.7466789-5 2v7h10z" fill="#285680"/><path id="Shape" d="m38 18h1c1.6568542 0 2.9999999 1.3431458 2.9999999 3s-1.3431457 3-2.9999999 3h-34c-1.65685425 0-3-1.3431458-3-3s1.34314575-3 3-3z" fill="#f9c795"/><path id="Shape" d="m22 32c-7.38 0-13.59-1.3-15.44-8.79-.16366931-.6759536-.29052262-1.3602938-.38-2.05-.30524757-3.0768393-.20100508-6.1805754.31-9.23l17.23-.08 2.32-.01 11.45-.06c2.63 17.74-5.32 20.22-15.49 20.22z" fill="#fdd7ad"/><path id="Shape" d="m38.633 41.558-2.292-4.584c-1.524854-3.0486876-4.6412354-4.9742629-8.05-4.974h-12.582c-3.4084043.0001158-6.52430713 1.9256346-8.049 4.974l-2.292 4.584c-.67665692 1.2945746-.34847411 2.8865748.785 3.808.70939607.5542167 1.63017531.7605749 2.50825211.5621307.87807681-.1984442 1.62062749-.7807127 2.02274789-1.5861307l3.316-5.342v5.313c.0012182.4134687-.085357.8224852-.254 1.2-1.1523783 2.6226907-1.746957 5.4563043-1.746 8.321-.0569677 1.9419333 1.2691116 3.652341 3.164 4.081 1.1814932.252509 2.4138155-.0425293 3.3528498-.8027277.9390343-.7601983 1.4841583-1.9040977 1.4831502-3.1122723-.0927158-1.9317283.378792-3.8486836 1.357-5.517.415-.64.857-.645 1.282-.007.9693248 1.6380632 1.4421344 3.5223536 1.361 5.424-.0066974 2.0503758 1.502313 3.7904575 3.533 4.074 1.1346297.1333802 2.2721453-.2247625 3.1257011-.9841156.8535558-.7593532 1.3416858-1.847442 1.3412989-2.9898844.0226398-2.9198937-.5727295-5.8115415-1.747-8.485-.1685908-.3774955-.2548379-.7865724-.253-1.2v-5.315l3.316 5.341c.4020722.8057437 1.1448178 1.3882622 2.0231673 1.5867243.8783495.198462 1.7993927-.0081255 2.5088327-.5627243 1.1322603-.9217269 1.4602883-2.5125582.785-3.807z" fill="#fdd7ad"/><circle id="Oval" cx="29" cy="21" fill="#ecf0f1" r="3"/><path id="Shape" d="m10.95 19.756 5.3-2.813 1.406 2.65c.7764465 1.4635609.2195036 3.2794455-1.244 4.056-1.4632965.7765993-3.2790905.2201319-4.056-1.243z" fill="#35495e"/><path id="Shape" d="m26.47 12.65-19.91 10.56c-.16366931-.6759536-.29052262-1.3602938-.38-2.05l17.54-9.31 1.82-.97.5.96z" fill="#2c3e50"/><path id="Shape" d="m22 28c-1.35546.0583036-2.6818413-.4043376-3.707-1.293-.3573625-.3924894-.3458038-.9958028.02633-1.374316.3721338-.3785133.9751636-.4003241 1.37367-.049684.658334.5075391 1.4769529.7619604 2.307.717.8279181.0438735 1.6440783-.2109104 2.3-.718.3989756-.3752273 1.0248131-.3623371 1.408.029.3840919.3884413.3818567 1.0143121-.005 1.4-1.0247414.8862508-2.3494387 1.3473728-3.703 1.289z" fill="#802d40"/><path id="Shape" d="m35.78 36h-27.56c1.67311198-2.4992685 4.4824019-3.9995568 7.49-4h12.58c3.0075981.0004432 5.816888 1.5007315 7.49 4z" fill="#ecf0f1"/><path id="Shape" d="m37.85 40h-7.23l-.62-1v1h-16v-1l-.62 1h-7.23l1.51-3.03c.16877951-.3333353.35572734-.6571556.56-.97h27.56c.2042727.3128444.3912205.6366647.56.97z" fill="#e64c3c"/><path id="Rectangle-path" d="m14 40h16v4h-16z" fill="#ecf0f1"/><path id="Shape" d="m32 54h-8v-.1c.083497-1.9004907-.389136-3.7840722-1.36-5.42-.43-.64-.87-.64-1.28 0-.9809072 1.6684227-1.4535638 3.5868526-1.36 5.52h-8.0000035l.0000035-.17c-.001681-2.8616379.5943803-5.6920777 1.75-8.31.1678686-.381146.253073-.7935355.25-1.21v-.31h16v.31c-.004118.4133422.0811629.8226901.25 1.2 1.1756741 2.6748752 1.7720685 5.5682403 1.75 8.49z" fill="#4482c3"/><path id="Shape" d="m20 54c-.0013242 1.2084751-.5474417 2.3519401-1.4865425 3.1125342-.9391009.7605941-2.171075 1.0572363-3.3534575.8074658-1.8305503-.4227613-3.1353931-2.0414272-3.16-3.92z" fill="#fdd7ad"/><path id="Shape" d="m32 54c-.0006544 1.1423333-.4896832 2.2298838-1.3437901 2.988453s-1.9917895 1.1157714-3.1262099.981547c-1.9923475-.2731974-3.4873076-1.9592746-3.52-3.97z" fill="#fdd7ad"/><path id="Shape" d="m18 32s0 4 4 4 4-4 4-4z" fill="#f9c795"/><path id="Shape" d="m38 18c2.878-2.159 4.72-6.387 5.528-8.589.1096887-.3102634.0597078-.6546326-.1336589-.92091126-.1933666-.26627866-.5053634-.42037675-.8343411-.41208874-8.57.036-8.76-8.078-12.56-8.078-3 0-4 3-4 5 .1058737 1.08989352-.2814076 2.16999484-1.0557064 2.9442936-.7742988.77429875-1.8544001 1.16158006-2.9442936 1.0557064-1.0898935.10587366-2.1699948-.28140765-2.9442936-1.0557064-.7742988-.77429876-1.1615801-1.85440008-1.0557064-2.9442936 0-2-1-5-4-5-3.8 0-3.99 8.114-12.56 8.077-.32897765-.00828801-.64097447.14581008-.83434112.41208874s-.24334758.61064786-.13365888.92091126c.808 2.202 2.65 6.43 5.528 8.59 0 0 5-5 16-5s16 5 16 5z" fill="#4482c3"/><circle id="Oval" cx="28.5" cy="21" fill="#35495e" r="1.5"/></g></g></svg>