<svg id="ship" enable-background="new 0 0 300 300" height="512" viewBox="0 0 300 300" width="512" xmlns="http://www.w3.org/2000/svg"><g><circle cx="57.946" cy="66" fill="#4c241d" r="4"/><circle cx="127.946" cy="136" fill="#e7d1c4" r="74"/><g fill="#4c241d"><circle cx="81.946" cy="106" r="4"/><circle cx="37.946" cy="134" r="4"/><circle cx="249.946" cy="58" r="4"/><circle cx="85.946" cy="70" r="4"/><path d="m186.307 186c-2.209 0-4-1.791-4-4v-140c0-2.209 1.791-4 4-4s4 1.791 4 4v140c0 2.209-1.791 4-4 4z"/></g><g><path d="m194.104 54h-16.734c24.679 0 44.685 22.458 44.685 50.162 0 27.703-20.006 50.162-44.685 50.162h16.734c24.213 0 43.842-22.459 43.842-50.162s-19.629-50.162-43.842-50.162z" fill="#6b4f5b"/><path d="m194.104 158.324h-16.734c-2.209 0-4-1.791-4-4s1.791-4 4-4c22.434 0 40.686-20.709 40.686-46.162s-18.252-46.162-40.686-46.162c-2.209 0-4-1.791-4-4s1.791-4 4-4h16.734c26.381 0 47.842 24.297 47.842 54.162s-21.461 54.162-47.842 54.162zm11.272-98.443c12.502 9.812 20.68 26.004 20.68 44.281s-8.178 34.469-20.68 44.281c16.498-5.646 28.57-23.361 28.57-44.281s-12.072-38.635-28.57-44.281z" fill="#4c241d"/></g><g><path d="m222.055 104.162c0-27.704-20.006-50.162-44.685-50.162h-17.874c24.679 0 44.685 22.458 44.685 50.162 0 27.703-20.006 50.162-44.685 50.162h17.874c24.679 0 44.685-22.458 44.685-50.162z" fill="#e66353"/><path d="m177.37 158.324h-17.875c-2.209 0-4-1.791-4-4s1.791-4 4-4c22.434 0 40.686-20.709 40.686-46.162s-18.252-46.162-40.686-46.162c-2.209 0-4-1.791-4-4s1.791-4 4-4h17.875c26.846 0 48.686 24.297 48.686 54.162s-21.84 54.162-48.686 54.162zm9.246-99.121c12.998 9.734 21.564 26.256 21.564 44.959s-8.566 35.225-21.564 44.959c17.994-4.762 31.439-23.113 31.439-44.959s-13.445-40.197-31.439-44.959z" fill="#4c241d"/></g><g><path d="m37.946 185.869v36.417c0 19.724 15.936 35.714 35.595 35.714h139.198c21.119 0 37.621-18.296 35.519-39.38l-4.378-67.925c-.365-3.66 1.846-7.086 5.324-8.25 4.11-1.375 8.552.854 9.922 4.978l1.983 5.968s8.724-47.321-26.78-40.305l-1.286 3.87c-1.341 4.036-4.394 7.144-8.187 8.62-2.723 1.06-4.413 3.779-3.781 6.64 0 0 5.599 25.612 4.476 31.205-1.854 9.232-6.752 13.582-16.129 14.03l-35.476 4.549-20 36h-84c-14.323.684-25.858-10.562-29.797-24.396z" fill="#bf7e68"/><path d="m212.739 262h-139.199c-21.832 0-39.594-17.816-39.594-39.715v-36.416c0-1.996 1.471-3.686 3.447-3.961 1.969-.285 3.852.947 4.4 2.865l2.203 7.734c3.074 10.801 12.469 22.109 25.758 21.496l81.839-.003 18.857-33.943c.617-1.111 1.727-1.863 2.988-2.023l35.477-4.549c7.844-.389 11.203-3.322 12.715-10.85.592-2.945-1.855-17.639-4.463-29.564-1.033-4.688 1.59-9.41 6.238-11.221 2.771-1.08 4.9-3.322 5.844-6.154l1.283-3.869c.455-1.367 1.607-2.385 3.021-2.664 10.154-2.018 18.184-.184 23.865 5.426 12.471 12.312 7.826 38.422 7.623 39.527-.33 1.797-1.836 3.139-3.656 3.266-1.834.104-3.5-.998-4.074-2.729l-1.982-5.969c-.326-.982-1.012-1.777-1.934-2.238-.914-.459-1.953-.533-2.922-.207-1.721.574-2.795 2.244-2.613 4.061l4.389 68.062c1.104 11.059-2.582 22.258-10.123 30.59-7.508 8.292-18.219 13.048-29.387 13.048zm-170.793-55.139v15.424c0 17.488 14.174 31.715 31.594 31.715h139.199c8.912 0 17.461-3.797 23.455-10.418 6.029-6.66 8.975-15.613 8.082-24.566l-4.389-68.062c-.543-5.42 2.762-10.535 8.049-12.301 2.994-1.004 6.205-.775 9.035.637.363.182.715.381 1.053.594-.219-7.172-1.701-15.143-6.234-19.611-3.346-3.297-8.084-4.494-14.424-3.639l-.525 1.584c-1.697 5.102-5.535 9.141-10.533 11.086-.789.309-1.541 1.082-1.326 2.053 1.357 6.207 5.688 26.9 4.492 32.854-2.223 11.066-8.719 16.703-19.859 17.238l-33.152 4.262-19.02 34.234c-.705 1.27-2.043 2.057-3.496 2.057h-84c-10.972.512-21.345-5.359-28.001-15.141z" fill="#4c241d"/></g><g><circle cx="219.946" cy="204" fill="#ffce56" r="10"/><path d="m219.946 218c-7.719 0-14-6.281-14-14s6.281-14 14-14 14 6.281 14 14-6.281 14-14 14zm0-20c-3.309 0-6 2.691-6 6s2.691 6 6 6 6-2.691 6-6-2.691-6-6-6z" fill="#4c241d"/></g><g><circle cx="187.946" cy="204" fill="#ffce56" r="10"/><path d="m187.946 218c-7.719 0-14-6.281-14-14s6.281-14 14-14 14 6.281 14 14-6.281 14-14 14zm0-20c-3.309 0-6 2.691-6 6s2.691 6 6 6 6-2.691 6-6-2.691-6-6-6z" fill="#4c241d"/></g><g><path d="m97.946 218h-32l8-48h16z" fill="#6b4f5b"/><path d="m97.946 222h-32c-1.176 0-2.293-.518-3.053-1.414-.76-.898-1.086-2.084-.893-3.244l8-48c.32-1.928 1.99-3.342 3.945-3.342h16c1.955 0 3.625 1.414 3.945 3.342l8 48c.193 1.16-.133 2.346-.893 3.244-.758.896-1.875 1.414-3.051 1.414zm-27.277-8h22.555l-6.666-40h-9.223z" fill="#4c241d"/></g><path d="m129.946 222c-2.209 0-4-1.791-4-4v-80c0-2.209 1.791-4 4-4s4 1.791 4 4v80c0 2.209-1.791 4-4 4z" fill="#4c241d"/><g><path d="m141.946 138h-24l-4-32h32z" fill="#bf7e68"/><path d="m141.946 142h-24c-2.018 0-3.719-1.502-3.969-3.504l-4-32c-.143-1.139.211-2.283.971-3.143.758-.861 1.852-1.354 2.998-1.354h32c1.146 0 2.24.492 2.998 1.354.76.859 1.113 2.004.971 3.143l-4 32c-.25 2.002-1.951 3.504-3.969 3.504zm-20.469-8h16.938l3-24h-22.938z" fill="#4c241d"/></g><path d="m129.946 110c-2.209 0-4-1.791-4-4v-52c0-2.209 1.791-4 4-4s4 1.791 4 4v52c0 2.209-1.791 4-4 4z" fill="#4c241d"/><g><path d="m142.101 76.162c0-10.031-7.244-18.162-16.179-18.162h-6.472c8.935 0 8.935 36.324 0 36.324h6.472c8.935 0 16.179-8.131 16.179-18.162z" fill="#e66353"/><path d="m125.921 98.324h-6.471c-2.209 0-4-1.791-4-4s1.791-4 4-4c.68-.58 2.701-5.592 2.701-14.162 0-8.295-1.895-13.258-2.951-14.17-.297-.018-.586-.068-.863-.148-1.809-.352-3.062-1.939-3.062-3.887 0-2.209 1.967-3.957 4.176-3.957h6.471c11.127 0 20.18 9.941 20.18 22.162s-9.054 22.162-20.181 22.162zm2.277-36.076c1.373 4.029 1.953 9.047 1.953 13.914s-.58 9.885-1.953 13.914c5.631-1.244 9.902-7.01 9.902-13.914s-4.271-12.67-9.902-13.914z" fill="#4c241d"/></g><g><path d="m91.946 170h-20c-3.314 0-6-2.686-6-6 0-3.314 2.686-6 6-6h20c3.314 0 6 2.686 6 6 0 3.314-2.686 6-6 6z" fill="#6b4f5b"/><path d="m91.946 174h-20c-5.514 0-10-4.486-10-10s4.486-10 10-10h20c5.514 0 10 4.486 10 10s-4.486 10-10 10zm-20-12c-1.104 0-2 .896-2 2s.896 2 2 2h20c1.104 0 2-.896 2-2s-.896-2-2-2z" fill="#4c241d"/></g><path d="m97.946 194h68v8h-68z" fill="#4c241d"/><path d="m109.946 198h8v20h-8z" fill="#4c241d"/><path d="m141.946 198h8v20h-8z" fill="#4c241d"/></g></svg>