<svg id="hook" enable-background="new 0 0 300 300" height="512" viewBox="0 0 300 300" width="512" xmlns="http://www.w3.org/2000/svg"><g><circle cx="171.367" cy="174.633" fill="#e7d1c4" r="74"/><g fill="#4c241d"><path d="m203.367 188.633c-7.719 0-14-6.281-14-14s6.281-14 14-14 14 6.281 14 14-6.281 14-14 14zm0-20c-3.309 0-6 2.691-6 6s2.691 6 6 6 6-2.691 6-6-2.691-6-6-6z"/><path d="m251.024 210.29c-1.023 0-2.047-.391-2.828-1.172l-11.312-11.312c-1.562-1.562-1.562-4.094 0-5.656s4.094-1.562 5.656 0l11.312 11.312c1.562 1.562 1.562 4.094 0 5.656-.781.781-1.805 1.172-2.828 1.172z"/><path d="m239.711 210.29c-1.023 0-2.047-.391-2.828-1.172-1.562-1.562-1.562-4.094 0-5.656l11.312-11.312c1.562-1.562 4.094-1.562 5.656 0s1.562 4.094 0 5.656l-11.312 11.312c-.781.781-1.804 1.172-2.828 1.172z"/><path d="m131.024 78.29c-1.023 0-2.047-.391-2.828-1.172l-11.312-11.312c-1.562-1.562-1.562-4.094 0-5.656s4.094-1.562 5.656 0l11.312 11.312c1.562 1.562 1.562 4.094 0 5.656-.781.781-1.805 1.172-2.828 1.172z"/><path d="m119.711 78.29c-1.023 0-2.047-.391-2.828-1.172-1.562-1.562-1.562-4.094 0-5.656l11.312-11.312c1.562-1.562 4.094-1.562 5.656 0s1.562 4.094 0 5.656l-11.312 11.312c-.781.781-1.804 1.172-2.828 1.172z"/><circle cx="237.367" cy="160.633" r="4"/><circle cx="101.367" cy="108.633" r="4"/><circle cx="57.367" cy="84.633" r="4"/></g><g><path d="m123.184 250.356-73.539-73.539 14.175-14.175c15.603-15.603 43.2-13.303 61.64 5.137l6.762 6.762c18.44 18.44 20.74 46.037 5.137 61.64z" fill="#6b4f5b"/><path d="m123.184 254.356c-1.023 0-2.047-.391-2.828-1.172l-73.539-73.539c-1.562-1.562-1.562-4.094 0-5.656l14.174-14.174c8.391-8.391 20.051-12.41 32.918-11.357 12.584 1.049 24.793 6.906 34.379 16.494l6.762 6.762c9.588 9.586 15.445 21.795 16.494 34.379 1.068 12.836-2.965 24.525-11.357 32.918l-14.174 14.174c-.782.78-1.806 1.171-2.829 1.171zm-67.883-77.539 67.883 67.883 11.346-11.346c6.701-6.701 9.912-16.146 9.041-26.596-.893-10.701-5.928-21.139-14.178-29.389l-6.762-6.762c-8.25-8.25-18.688-13.285-29.389-14.178-10.445-.867-19.895 2.342-26.596 9.041z" fill="#4c241d"/></g><path d="m110.336 181.602c-1.023 0-2.047-.391-2.828-1.172-9.494-9.496-23.559-10.875-31.363-3.084-1.562 1.562-4.094 1.562-5.656 0s-1.562-4.094 0-5.656c10.914-10.916 30.061-9.535 42.676 3.084 1.562 1.562 1.562 4.094 0 5.656-.782.781-1.805 1.172-2.829 1.172z" fill="#fff"/><g><path d="m28.757 211.243h104v16h-104z" fill="#ffce56" transform="matrix(.707 .707 -.707 .707 178.682 7.111)"/><path d="m111.869 265.67c-1.023 0-2.047-.391-2.828-1.172l-73.539-73.539c-1.562-1.562-1.562-4.094 0-5.656l11.314-11.314c1.562-1.562 4.094-1.562 5.656 0l73.539 73.539c1.562 1.562 1.562 4.094 0 5.656l-11.314 11.314c-.781.782-1.804 1.172-2.828 1.172zm-67.882-77.539 67.883 67.883 5.658-5.658-67.883-67.883z" fill="#4c241d"/></g><g><path d="m114.497 157.503h40v16h-40z" fill="#ffce56" transform="matrix(.707 .707 -.707 .707 156.422 -46.629)"/><path d="m142.983 189.303c-1.023 0-2.047-.391-2.828-1.172l-28.285-28.285c-1.562-1.562-1.562-4.094 0-5.656l11.314-11.314c1.562-1.562 4.094-1.562 5.656 0l28.285 28.285c1.562 1.562 1.562 4.094 0 5.656l-11.314 11.314c-.781.782-1.805 1.172-2.828 1.172zm-22.629-32.285 22.629 22.629 5.658-5.658-22.629-22.629z" fill="#4c241d"/></g><g><path d="m125.811 146.19h40v16h-40z" fill="#ffce56" transform="matrix(.707 .707 -.707 .707 151.736 -57.943)"/><path d="m154.297 177.989c-1.061 0-2.078-.422-2.828-1.172l-28.285-28.285c-.75-.75-1.172-1.768-1.172-2.828s.422-2.078 1.172-2.828l11.314-11.312c1.562-1.562 4.094-1.562 5.656 0l28.283 28.283c1.562 1.562 1.562 4.094 0 5.656l-11.312 11.314c-.75.75-1.767 1.172-2.828 1.172zm-22.629-32.285 22.629 22.629 5.656-5.658-22.627-22.627z" fill="#4c241d"/></g><g><path d="m157.125 154.19-11.314-11.314 28.755-28.755c-13.33-18.733-11.602-44.966 5.186-61.754 18.715-18.715 49.167-18.715 67.882 0s18.715 49.167 0 67.882l-11.314-11.314c12.477-12.477 12.477-32.778 0-45.255s-32.778-12.477-45.255 0-12.477 32.778 0 45.255c3.124 3.124 3.124 8.19 0 11.314z" fill="#fff"/><path d="m157.125 158.19c-1.023 0-2.047-.391-2.828-1.172l-11.314-11.314c-.75-.75-1.172-1.768-1.172-2.828s.422-2.078 1.172-2.828l26.441-26.441c-12.635-20.416-9.709-46.859 7.5-64.068 20.273-20.277 53.266-20.277 73.539 0 20.275 20.275 20.275 53.264 0 73.539-1.562 1.562-4.094 1.562-5.656 0l-11.314-11.314c-1.562-1.562-1.562-4.094 0-5.656 10.916-10.918 10.916-28.68 0-39.598-10.918-10.918-28.68-10.918-39.598 0-5.279 5.279-8.186 12.311-8.186 19.799s2.906 14.52 8.186 19.799c4.678 4.68 4.678 12.293 0 16.971l-33.941 33.941c-.782.779-1.805 1.17-2.829 1.17zm-5.658-15.315 5.658 5.658 31.113-31.113c1.559-1.561 1.559-4.098-.002-5.658-14.035-14.035-14.035-36.875.002-50.91 14.035-14.035 36.875-14.035 50.91 0 13.08 13.08 13.971 33.805 2.672 47.926l5.688 5.686c14.402-17.268 13.502-43.066-2.701-59.27-17.156-17.156-45.07-17.156-62.227 0-15.246 15.246-17.246 39.053-4.754 56.609 1.131 1.59.949 3.766-.432 5.146z" fill="#4c241d"/></g></g></svg>