<svg height="512" viewBox="0 0 128 128" width="512" xmlns="http://www.w3.org/2000/svg"><g><g><g fill="#663325"><path d="m115.5 70a6 6 0 1 0 -2.027-11.646 26.162 26.162 0 0 1 -8.429 1.338l-33.086.62v7.375l33.746.633a30.926 30.926 0 0 1 8.115 1.439 5.94 5.94 0 0 0 1.681.241z"/><path d="m12.5 58a6 6 0 1 0 2.027 11.646 26.162 26.162 0 0 1 8.429-1.338l33.086-.62v-7.375l-33.742-.633a30.926 30.926 0 0 1 -8.115-1.439 5.94 5.94 0 0 0 -1.685-.241z"/><path d="m96.173 104.659a6 6 0 1 0 6.8-9.668 26.175 26.175 0 0 1 -6.906-5.015l-23.832-22.956-5.215 5.215 23.414 24.309a30.935 30.935 0 0 1 4.721 6.756 5.961 5.961 0 0 0 1.018 1.359z"/><path d="m31.827 23.341a6 6 0 1 0 -6.8 9.668 26.175 26.175 0 0 1 6.906 5.015l23.832 22.956 5.215-5.215-23.414-24.309a30.935 30.935 0 0 1 -4.721-6.756 5.961 5.961 0 0 0 -1.018-1.359z"/><path d="m58 115.5a6 6 0 1 0 11.646-2.027 26.162 26.162 0 0 1 -1.338-8.429l-.62-33.086h-7.375l-.633 33.742a30.926 30.926 0 0 1 -1.439 8.115 5.94 5.94 0 0 0 -.241 1.685z"/><path d="m70 12.5a6 6 0 1 0 -11.646 2.027 26.162 26.162 0 0 1 1.338 8.429l.621 33.086h7.375l.632-33.742a30.926 30.926 0 0 1 1.439-8.115 5.94 5.94 0 0 0 .241-1.685z"/><path d="m23.341 96.173a6 6 0 1 0 9.668 6.8 26.175 26.175 0 0 1 5.015-6.906l22.956-23.832-5.215-5.215-24.309 23.414a30.935 30.935 0 0 1 -6.756 4.721 5.961 5.961 0 0 0 -1.359 1.018z"/><path d="m104.659 31.827a6 6 0 1 0 -9.668-6.8 26.175 26.175 0 0 1 -5.015 6.906l-22.956 23.832 5.215 5.215 24.309-23.414a30.935 30.935 0 0 1 6.756-4.721 5.961 5.961 0 0 0 1.359-1.018z"/></g><path d="m64 24.19a39.81 39.81 0 1 0 39.81 39.81 39.805 39.805 0 0 0 -39.81-39.81zm0 70.62a30.81 30.81 0 1 1 30.81-30.81 30.843 30.843 0 0 1 -30.81 30.81z" fill="#f4a86c"/><circle cx="64" cy="64" fill="#f4a86c" r="12"/><circle cx="64" cy="64" fill="#d78759" r="6"/></g><g fill="#100619"><path d="m123.2 63.1a7.744 7.744 0 0 0 -10.33-6.4 23.691 23.691 0 0 1 -7.763 1.23 41.254 41.254 0 0 0 -7.739-18.73l.388-.373a28.615 28.615 0 0 1 6.371-4.441 7.527 7.527 0 0 0 1.769-1.323 7.753 7.753 0 1 0 -12.5-8.777 23.673 23.673 0 0 1 -4.617 6.357c-.847-.629-1.713-1.238-2.616-1.808a1.75 1.75 0 1 0 -1.863 2.965 38.07 38.07 0 1 1 -20.3-5.86 38.49 38.49 0 0 1 6.559.562 1.75 1.75 0 1 0 .6-3.448c-.364-.063-.732-.113-1.1-.166l.01-.556a28.663 28.663 0 0 1 1.366-7.646 7.552 7.552 0 0 0 .315-2.186 7.753 7.753 0 1 0 -15.043 2.631 23.686 23.686 0 0 1 1.23 7.756 41.353 41.353 0 0 0 -18.714 7.768l-.395-.411a28.615 28.615 0 0 1 -4.441-6.371 7.527 7.527 0 0 0 -1.323-1.773 7.753 7.753 0 1 0 -8.777 12.5 23.673 23.673 0 0 1 6.365 4.625 41.356 41.356 0 0 0 -7.766 18.714l-.554-.01a28.663 28.663 0 0 1 -7.646-1.366 7.552 7.552 0 0 0 -2.186-.313 7.753 7.753 0 0 0 -1.142 15.422 7.953 7.953 0 0 0 1.138.083 7.806 7.806 0 0 0 2.635-.462 23.686 23.686 0 0 1 7.756-1.23 41.353 41.353 0 0 0 7.768 18.714l-.411.395a28.615 28.615 0 0 1 -6.371 4.441 7.527 7.527 0 0 0 -1.773 1.323 7.753 7.753 0 1 0 12.5 8.777 23.673 23.673 0 0 1 4.625-6.365 41.356 41.356 0 0 0 18.714 7.766l-.01.554a28.663 28.663 0 0 1 -1.366 7.646 7.552 7.552 0 0 0 -.315 2.186 7.749 7.749 0 0 0 7.767 7.749 7.736 7.736 0 0 0 7.655-6.607 7.781 7.781 0 0 0 -.379-3.773 23.686 23.686 0 0 1 -1.23-7.756 41.353 41.353 0 0 0 18.714-7.768l.395.411a28.615 28.615 0 0 1 4.441 6.371 7.527 7.527 0 0 0 1.323 1.769 7.76 7.76 0 0 0 5.482 2.269c.145 0 .291 0 .436-.012a7.746 7.746 0 0 0 7.031-9.8 1.75 1.75 0 0 0 -3.378.918 4.249 4.249 0 0 1 -7.1 4.152 4.061 4.061 0 0 1 -.719-.958 32.715 32.715 0 0 0 -5-7.136l-.194-.2a41.972 41.972 0 0 0 3.634-3.635 30.589 30.589 0 0 0 5.008 3.952 1.75 1.75 0 0 0 1.83-2.984 27.455 27.455 0 0 1 -4.622-3.685 41.35 41.35 0 0 0 7.766-18.714l.554.01a28.663 28.663 0 0 1 7.646 1.366 7.552 7.552 0 0 0 2.186.315 7.753 7.753 0 0 0 7.7-8.647zm-31.695-30.244a26.685 26.685 0 0 0 5.061-7.08 4.245 4.245 0 0 1 6.478-1.533 4.251 4.251 0 0 1 .377 6.346 4.061 4.061 0 0 1 -.958.719 32.715 32.715 0 0 0 -7.136 5l-.182.175a41.537 41.537 0 0 0 -3.64-3.627zm-31.505-18.913a4.246 4.246 0 0 1 3.5-5.664 4.253 4.253 0 0 1 4.75 4.221 4.087 4.087 0 0 1 -.169 1.186 32.746 32.746 0 0 0 -1.511 8.581v.261c-.854-.052-1.709-.088-2.565-.088s-1.721.035-2.573.088a26.651 26.651 0 0 0 -1.432-8.585zm-34.224 17.491a4.245 4.245 0 0 1 -1.533-6.478 4.251 4.251 0 0 1 6.346-.377 4.061 4.061 0 0 1 .719.958 32.715 32.715 0 0 0 5 7.136l.194.2a42.068 42.068 0 0 0 -3.632 3.633 26.71 26.71 0 0 0 -7.094-5.072zm-11.833 36.566a4.246 4.246 0 0 1 -5.664-3.5 4.253 4.253 0 0 1 4.221-4.75 4.087 4.087 0 0 1 1.186.169 32.746 32.746 0 0 0 8.581 1.511l.26.005c-.052.849-.087 1.7-.087 2.565s.035 1.721.088 2.573a26.651 26.651 0 0 0 -8.585 1.427zm17.491 34.223a4.245 4.245 0 0 1 -6.478 1.533 4.251 4.251 0 0 1 -.377-6.346 4.061 4.061 0 0 1 .958-.719 32.715 32.715 0 0 0 7.136-5l.2-.194a42.068 42.068 0 0 0 3.633 3.632 26.71 26.71 0 0 0 -5.072 7.095zm36.566 11.834a4.246 4.246 0 0 1 -3.5 5.664 4.253 4.253 0 0 1 -4.75-4.221 4.087 4.087 0 0 1 .169-1.186 32.746 32.746 0 0 0 1.511-8.581l.005-.26c.849.052 1.7.087 2.565.087s1.721-.035 2.573-.088a26.651 26.651 0 0 0 1.427 8.585zm50.67-47.227a4.258 4.258 0 0 1 -3.17 1.42 4.087 4.087 0 0 1 -1.186-.169 32.746 32.746 0 0 0 -8.581-1.511h-.26c.052-.849.087-1.7.087-2.565s-.029-1.721-.081-2.574a26.617 26.617 0 0 0 8.578-1.431 4.251 4.251 0 0 1 4.613 6.831z"/><path d="m76.4 28c.926.319 1.851.679 2.749 1.069a1.75 1.75 0 1 0 1.394-3.211c-.981-.426-1.992-.819-3-1.167a1.75 1.75 0 0 0 -1.143 3.309z"/><path d="m31.44 64a32.56 32.56 0 1 0 32.56-32.56 32.6 32.6 0 0 0 -32.56 32.56zm34.89-28.958-.289 15.377a12.409 12.409 0 0 0 -4.082 0l-.289-15.377c.769-.062 1.545-.1 2.33-.1s1.561.038 2.33.1zm26.144 23.137-15.106.284 10.87-10.469a28.889 28.889 0 0 1 4.236 10.185zm.484 3.491c.062.769.1 1.545.1 2.33s-.04 1.561-.1 2.33l-15.377-.289a12.409 12.409 0 0 0 0-4.082zm-4.72 18.336-10.87-10.469 15.106.284a28.889 28.889 0 0 1 -4.236 10.185zm-13.988-16.006a10.25 10.25 0 1 1 -10.25-10.25 10.261 10.261 0 0 1 10.25 10.25zm-4.713 13.368 10.469 10.87a28.889 28.889 0 0 1 -10.185 4.236zm-34.011-7.547 15.106-.284-10.87 10.469a28.889 28.889 0 0 1 -4.236-10.185zm-.484-3.491c-.062-.769-.1-1.545-.1-2.33s.04-1.561.1-2.33l15.377.289a12.409 12.409 0 0 0 0 4.082zm4.72-18.336 10.87 10.469-15.106-.284a28.889 28.889 0 0 1 4.236-10.185zm18.7 2.638-10.468-10.87a28.889 28.889 0 0 1 10.185-4.236zm11.359-15.106a28.889 28.889 0 0 1 10.185 4.236l-10.469 10.87zm-24.641 6.358 10.663 11.073a13.8 13.8 0 0 0 -2.886 2.886l-11.073-10.663a29.144 29.144 0 0 1 3.296-3.296zm-3.3 40.936 11.077-10.663a13.8 13.8 0 0 0 2.886 2.886l-2.07 2.15a1.75 1.75 0 1 0 2.52 2.428l2.17-2.253-.284 15.106a28.889 28.889 0 0 1 -10.185-4.236l2.845-2.953a1.75 1.75 0 1 0 -2.522-2.428l-3.138 3.259a29.3 29.3 0 0 1 -3.295-3.296zm19.79 10.138.289-15.377a12.409 12.409 0 0 0 4.082 0l.289 15.377c-.769.062-1.545.1-2.33.1s-1.561-.038-2.33-.1zm21.15-6.842-10.663-11.073a13.8 13.8 0 0 0 2.886-2.886l11.073 10.663a29.144 29.144 0 0 1 -3.296 3.296zm3.3-40.936-11.077 10.663a13.8 13.8 0 0 0 -2.886-2.886l10.663-11.073a29.144 29.144 0 0 1 3.296 3.296z"/><path d="m64 56.25a7.75 7.75 0 1 0 7.75 7.75 7.759 7.759 0 0 0 -7.75-7.75zm0 12a4.25 4.25 0 1 1 4.25-4.25 4.255 4.255 0 0 1 -4.25 4.25z"/></g></g></svg>