<?xml version="1.0" encoding="utf-8"?>
<!-- Generator: Adobe Illustrator 24.2.0, SVG Export Plug-In . SVG Version: 6.00 Build 0)  -->
<svg version="1.1" xmlns="http://www.w3.org/2000/svg" xmlns:xlink="http://www.w3.org/1999/xlink" x="0px" y="0px"
	 viewBox="0 0 300 300" style="enable-background:new 0 0 300 300;" xml:space="preserve">
<style type="text/css">
</style>
<g id="arrows">
	<path id="close" fill="#fff" d="M296.8,258c-1.4-5.5-1.2-11.9-5.5-16.1c-6.8-6.8-5.8-7.8-12.6-14.6c-6.8-6.8-7.9-5.7-14.7-12.5
		c-6.8-6.8-7.2-6.4-14-13.2c-6.8-6.8-8.3-5.3-15.1-12.1c-6.8-6.8-6.8-6.8-13.6-13.6c-6.8-6.8-5.1-8.5-11.9-15.3
		c-5.6-5.6-6.8-6.4-10.9-10.3c2.9-2.4,4.8-3.4,9.5-8.1c6.8-6.8,4.8-8.8,11.6-15.6c6.8-6.8,9-4.6,15.8-11.4
		c6.8-6.8,3.5-10.1,10.3-16.9c6.8-6.8,9.5-4.1,16.3-10.9c6.8-6.8,6.5-7.1,13.3-13.9c6.8-6.8,5.4-8.2,12.2-15
		c4.4-4.4,8.1-8.7,9.6-14.2c1.5-5.7,1.1-11.6-0.4-17.3c-1.5-5.5-3.9-10.9-8.2-15.3c-4.4-4.4-9.8-6.7-15.3-8.2
		c-5.7-1.5-12.2-4.5-18-2.9c-5.5,1.5-9.5,7.4-13.9,11.8c-6.8,6.8-7.6,6-14.4,12.8c-6.8,6.8-8.7,4.9-15.5,11.7
		c-6.8,6.8-6.5,7.1-13.3,13.8c-6.8,6.8-5,8.6-11.8,15.4c-6.8,6.8-6.7,6.9-13.5,13.7c-6.8,6.8-7.7,5.9-14.5,12.7
		c-4.1,4.1-6,5.6-8.3,7.6c-2.3-2-4.2-3.4-8.3-7.6c-6.8-6.8-7.7-5.9-14.5-12.7c-6.8-6.8-6.7-6.9-13.5-13.7c-6.8-6.8-5-8.6-11.8-15.4
		c-6.8-6.8-6.5-7.1-13.3-13.8c-6.8-6.8-8.7-4.9-15.5-11.7c-6.8-6.8-7.6-6-14.4-12.8C54.4,7.8,50.4,1.9,44.8,0.4
		c-5.7-1.5-12.2,1.4-18,2.9c-5.5,1.5-10.9,3.8-15.3,8.2c-4.4,4.4-6.7,9.7-8.2,15.3c-1.5,5.7-2,11.6-0.4,17.3
		c1.5,5.5,5.3,9.9,9.6,14.2c6.8,6.8,5.4,8.2,12.2,15c6.8,6.8,6.5,7.1,13.3,13.9c6.8,6.8,9.5,4.1,16.3,10.9
		c6.8,6.8,3.5,10.1,10.3,16.9c6.8,6.8,9,4.6,15.8,11.4c6.8,6.8,4.8,8.8,11.6,15.6c4.7,4.7,6.6,5.7,9.5,8.1c-4.1,4-5.3,4.7-10.9,10.3
		c-6.8,6.8-5.1,8.5-11.9,15.3c-1,1-1.8,1.8-2.5,2.5c-0.3,0.3-0.4,0.7-0.2,1.1c0.7,1.6,1.4,3.5,1.5,3.7c0.1,0.2-2.5-0.3-4.6-0.8
		c-0.3-0.1-0.7,0-0.9,0.3c-1.5,1.5-3,3-5.7,5.7c-0.3,0.3-0.4,0.7-0.2,1.1l2.6,7.1H56.4c-0.2,0-0.4,0.1-0.6,0.2
		c-1.6,1.1-3.4,2.5-5.9,5c-6.8,6.8-7.2,6.4-14,13.2c-6.8,6.8-7.9,5.7-14.7,12.5c-6.8,6.8-5.8,7.8-12.6,14.6
		c-4.2,4.2-4.1,10.7-5.5,16.1c-1.3,5.2-1.5,10.6-0.2,15.8c1.5,6,3.7,10.3,8.3,14.9c6.6,6.6,13.4,11.5,22.1,11.5s18.6-1.8,25.2-8.4
		c6.8-6.8,6.8-6.8,13.6-13.6c6.8-6.8,3.8-9.8,10.6-16.6c6.8-6.8,7.6-6,14.4-12.8c6.8-6.8,7-6.6,13.8-13.4c6.8-6.8,5.7-7.9,12.4-14.7
		c6.8-6.8,10.5-3.1,17.3-9.9c6.6-6.6,3.3-10.3,9.4-16.7c6.1,6.5,2.8,10.1,9.4,16.7c6.8,6.8,10.5,3.1,17.3,9.9
		c6.8,6.8,5.7,7.9,12.4,14.7c6.8,6.8,7,6.6,13.8,13.4c6.8,6.8,7.6,6,14.4,12.8c6.8,6.8,3.8,9.8,10.6,16.6c6.8,6.8,6.8,6.8,13.5,13.6
		c6.6,6.6,16.5,8.4,25.2,8.4c8.6,0,15.5-4.9,22.1-11.5c4.6-4.6,6.9-8.9,8.3-14.9C298.3,268.6,298.1,263.2,296.8,258z"/>
</g>
</svg>
