<?xml version="1.0" encoding="utf-8"?>
<!-- Generator: Adobe Illustrator 24.2.0, SVG Export Plug-In . SVG Version: 6.00 Build 0)  -->
<svg version="1.1" xmlns="http://www.w3.org/2000/svg" xmlns:xlink="http://www.w3.org/1999/xlink" x="0px" y="0px"
	 viewBox="0 0 300 300" style="enable-background:new 0 0 300 300;" xml:space="preserve">
<style type="text/css">
	.st0{fill:#DDCDBA;}
	.st1{fill:#C6B1A3;}
</style>
<g id="schedule-mountiains">
</g>
<g id="arrows">
	<path id="open" fill="#6e4435" d="M262.6,41.7c-13.3,0.6-24.1,18.6-31.5,26.4c-17.7,15.1-35.8,45.5-49.8,63.9c-6.4,10.1-25,30.4-26.4,39.5
		c-12.8-16.1-17.4-14.2-28.1-26.5c-9.8-16.2-9.8-16.1-23.3-30.2c-1-1.5-1.9-3.1-2.9-4.7c-0.8-1.3-2.2-2.2-3.7-2.4l-13.1-1.4
		c-1.2-0.1-2-1.5-1.4-2.6l4.9-10.3c0.8-1.6,0.7-3.5-0.3-4.9c-8.3-12.7-17.1-25.4-26.8-36.7C32.8,20.2-18.6,58.5,6.9,93.2
		c23.8,24.2,39.3,46.5,55.3,76.4c10.9,13.6,28.5,31.7,40.3,42.5c9.6,17.6,18.6,48.8,46.6,47.8c12.5,1,26.9-8.4,34-17.3
		c1.2-1.4,1.7-3.3,1.4-5.2l0.5-7.3l-0.4-6.3l1.6-4.2l9.8,5.6c0.4,0.2,0.9,0.2,1.2-0.2c1.3-1.4,2.6-3,3.9-4.5l-1.7-4.5l2-0.9l4.2-0.4
		c11.4-15.5,20.8-34.5,28.7-46.3c3.4-6.9,18.2-23.5,23.5-27.8c8.2-17.7,23.2-26.9,35.7-44.4C310.9,73.5,290.5,38,262.6,41.7z"/>
</g>
</svg>
