<svg id="Réteg_1" data-name="Réteg 1" xmlns="http://www.w3.org/2000/svg" viewBox="0 0 168.71 58"><defs><style>.cls-1{fill:#e63457;}.cls-2{fill:#fff;}.cls-3{fill:none;stroke:#fff;stroke-miterlimit:10;stroke-width:0.54px;}</style></defs><title>ISF-logo-small-160x58</title><path class="cls-1" d="M148.5,58H0V0H164c3.35,0,5.34,2.72,4.45,6.07L156.2,51.93A8.5,8.5,0,0,1,148.5,58Z"/><path class="cls-2" d="M84.07,41.13V15.41a.84.84,0,0,1,.84-.84h3.65a.84.84,0,0,1,.84.84V41.13a.84.84,0,0,1-.84.84H84.91A.84.84,0,0,1,84.07,41.13Z"/><path class="cls-2" d="M110.7,21.19l-.26-.17a12.25,12.25,0,0,0-1.74-.91,14.9,14.9,0,0,0-2.22-.75,9.72,9.72,0,0,0-2.43-.31,5.46,5.46,0,0,0-3.28.81,2.69,2.69,0,0,0-1.08,2.28,2.34,2.34,0,0,0,.41,1.41,3.5,3.5,0,0,0,1.18,1,9.86,9.86,0,0,0,1.95.77q1.18.35,2.72.73,2,.54,3.65,1.16a9.83,9.83,0,0,1,2.78,1.54A6.37,6.37,0,0,1,114.13,31a7.37,7.37,0,0,1,.62,3.18,7.92,7.92,0,0,1-.83,3.76,7,7,0,0,1-2.24,2.53,9.73,9.73,0,0,1-3.24,1.41,16.19,16.19,0,0,1-3.84.44,20.61,20.61,0,0,1-6.1-.93,19.06,19.06,0,0,1-4.78-2.2.85.85,0,0,1-.28-1.1s1.13-2.28,1.54-3a.81.81,0,0,1,1.3-.27l.42.27a18.55,18.55,0,0,0,2.14,1.12,16.46,16.46,0,0,0,2.56.9,12.36,12.36,0,0,0,2.75.42q4.92.17,4.92-2.81a2.31,2.31,0,0,0-.5-1.5,4.27,4.27,0,0,0-1.43-1.08,13.85,13.85,0,0,0-2.24-.85L102,30.39a24.74,24.74,0,0,1-3.41-1.18,9,9,0,0,1-2.41-1.51,5.61,5.61,0,0,1-1.45-2A7,7,0,0,1,94.22,23a8.51,8.51,0,0,1,.77-3.7,7.45,7.45,0,0,1,2.14-2.7,9.74,9.74,0,0,1,3.18-1.64,13.17,13.17,0,0,1,3.9-.56,15.17,15.17,0,0,1,5.33.91A20.77,20.77,0,0,1,113.12,17a.84.84,0,0,1,.28,1.12s-1.12,2.19-1.57,2.88A.72.72,0,0,1,110.7,21.19Z"/><path class="cls-2" d="M118.76,41.13V15.41a.84.84,0,0,1,.84-.84h16.73a.84.84,0,0,1,.84.84v3a.84.84,0,0,1-.84.84H124.08V26.3h10a.84.84,0,0,1,.84.84v2.65a.84.84,0,0,1-.84.84h-10V41.13a.84.84,0,0,1-.84.84h-3.65A.84.84,0,0,1,118.76,41.13Z"/><circle class="cls-3" cx="146.69" cy="16.47" r="4.1"/><path class="cls-2" d="M148,17l.4.13c.16,0,.22.21.14.41a1.79,1.79,0,0,1-.6.82,2.23,2.23,0,0,1-2.8-.27,2.46,2.46,0,0,1-.61-1.76,2.58,2.58,0,0,1,.61-1.83,2.09,2.09,0,0,1,1.6-.65,2,2,0,0,1,1.41.51,1.51,1.51,0,0,1,.38.57c.06.17,0,.31-.17.36l-.42.1a.33.33,0,0,1-.34-.19,1,1,0,0,0-.26-.33,1,1,0,0,0-.65-.21,1.07,1.07,0,0,0-.85.38,1.85,1.85,0,0,0-.33,1.22,2,2,0,0,0,.32,1.28,1,1,0,0,0,.84.38,1,1,0,0,0,.65-.24,1.25,1.25,0,0,0,.3-.45C147.73,17,147.85,16.93,148,17Z"/></svg>