<svg xmlns="http://www.w3.org/2000/svg" viewBox="0 0 2241.15757 355.68087">
<style></style>
<path fill="red" d="M64.66923,59.68085c-66.5524,0-91.43721,90.74592-27.7784,129.51992S137.858,249.86456,139.90237,288.74c2.00925,38.20683-32.97279,48.03347-58.007,48.03347-24.31185,0-48.96716-23.9783-57.62085-40.80492-9.35191-18.18427,6.2346-27.53619-1.27287-33.84951-4.37866-4.22616-6.12747-6.64758-7.33818-4.36069s-11.569,29.59514-12.91424,33.3618c-.94166,2.42142-.67262,3.49761.94166,5.7845a55.31688,55.31688,0,0,0,5.24642,5.919c.67261.67262,4.0357-.40357,4.0357-.40357s30.74112,53.26073,75.5308,53.26073c57.8361,0,79.61147-30.63973,80.9587-64.94269,0-12.86361-3.16123-31.18629-42.35774-61.0503-40.36734-30.75607-72.98551-38.143-89.73161-53.97154S17.76027,150.35273,18.44847,139.1122c0,0,1.37639,19.95768,30.73941,35.78618s29.6335,14.46905,53.491,24.10379,46.52685,28.4285,58.22618,43.56881c1.83519,1.147-14.19737-32.08726-48.17416-46.315-39.88728-16.7028-82.81246-39.48006-89.00622-69.99008S33.13,75.56878,65.934,75.56878s42.89755,8.02895,55.05567,22.48106c2.98219,6.19377,2.294,9.63474,2.06459,13.53452s5.19951,6.7707,6.8053,7.6883,4.17324-1.6446,6.36391-4.00378,13.144-14.66059,14.99762-16.68275-2.91166-6.5051-4.25976-8.19023c-1.54513-1.304-7.2683,3.0423-14.09212,1.35937a5.577,5.577,0,0,1-2.46211-1.3436C123.8292,84.27361,104.99924,59.68085,64.66923,59.68085Z" transform="translate(0 0.00002)"/><path d="M470.55328,162.89362V340.661c0,7.95957,17.909,6.83329,17.909,6.83329v8.18656h-52.59v-8.18656c12.79217,0,14.4978-6.83329,14.4978-6.83329V75.57447c0-4.08511-14.4978-8.17021-14.4978-8.17021V59.68085h43.13763L596.96736,319.14894V74.52665c0-3.32948-12.46389-6.61176-12.46389-6.61176v-8.234h45.3994v8.234s-15.06411,1.06262-15.06411,7.72159V355.68085h-12.948L475.55112,80.066a.4615.4615,0,0,0-.4142-.26915l-7.17959-.08263a.46147.46147,0,0,0-.42544.65237L592.6422,355.68085H558.23754Z" transform="translate(0 0.00002)"/><path d="M789.79715,70.40426V355.68085H750.73332v-8.18656c17.617,0,18.766-9.96238,18.766-9.96238V70.40426h-71.617L679.26587,89.02064a3.61516,3.61516,0,0,1-5.3589-.27271l-4.26389-5.233a3.61515,3.61515,0,0,1-.26427-4.19768l14.723-23.59026a2.58508,2.58508,0,0,1,2.193-1.2164H698.361a2.5851,2.5851,0,0,1,2.5851,2.5851h0a2.5851,2.5851,0,0,0,2.58511,2.5851H882.28306a2.5851,2.5851,0,0,0,2.58511-2.5851h0a2.5851,2.5851,0,0,1,2.5851-2.5851h12.06614a2.58511,2.58511,0,0,1,2.193,1.2164l14.723,23.59026a3.61517,3.61517,0,0,1-.26428,4.19768l-4.26389,5.233a3.61516,3.61516,0,0,1-5.3589.27271L887.932,70.40426H808.56311l.03,267.12765s1.14893,9.96238,18.76595,9.96238v8.18656H801.86065V70.34043Z" transform="translate(0 0.00002)"/><path d="M329.67656,82.70345c2.29466-4.67469,17.93062-42.38066,24.23965-50.79225,1.84373-2.21118,8.47385-1.74026,14.62454-.30032A8.19178,8.19178,0,0,1,373.34837,44.309c-8.93,12.64612-28.58082,36.89358-34.88432,44.62638a7.95658,7.95658,0,0,1-7.18969,2.97578C328.51834,91.52511,326.32772,89.52569,329.67656,82.70345Z" transform="translate(0 0.00002)"/><path d="M1126.565,348.88227v.118c-17.74014-1.12328-26.41435-.6961-31.83693-2.42584a5.75434,5.75434,0,0,1-3.63206-3.45593L997.37914,95.48936l6.57474-.06322s88.947,232.3643,93.04442,241.67674c1.47772,3.35837,8.76644,5.56817,13.87429,6.46173a1.5668,1.5668,0,0,0,1.72783-2.09652L1007.296,59.68085H993.31623s-92.48266,277.67651-93.41015,280.32172-4.0943,9.00848-15.057,9.00848v6.6698h48.44806v-7.83911s-14.81769-.21777-12.14282-8.75116l29.53741-95.8078h67.09345l33.52807,99.03693s-.25537,7.39862-6.97442,7.39862v5.96252H1129.565v-6.68054S1128.34687,349.023,1126.565,348.88227Zm-172.88263-115.3L982.67,139.5578l31.83112,94.02442Z" transform="translate(0 0.00002)"/><path d="M418.5629,348.88227v.118c-17.74015-1.12328-26.41435-.6961-31.83693-2.42584a5.75434,5.75434,0,0,1-3.63206-3.45593L289.377,95.48936l6.57474-.06322s88.947,232.3643,93.04442,241.67674c1.47772,3.35837,8.76644,5.56817,13.87429,6.46173a1.5668,1.5668,0,0,0,1.72783-2.09652L299.29386,59.68085H285.31412S192.83146,337.35736,191.904,340.00257s-4.0943,9.00848-15.057,9.00848v6.6698H225.295v-7.83911s-14.81769-.21777-12.14282-8.75116l29.53741-95.8078h67.09344l33.52808,99.03693s-.25537,7.39862-6.97443,7.39862v5.96252h85.2262v-6.68054S420.34476,349.023,418.5629,348.88227Zm-172.88263-115.3,28.98761-94.02442L306.499,233.58222Z" transform="translate(0 0.00002)"/><path d="M1434.15879,240.63831c0-28.40448-19.14893-45.75311-28.41626-45.75311-34.80884,0-30.15149-7.2591-26.02564-7.2591,46.09766,0,55.01978-40.16791,55.01978-67.43s-14.37451-64.39862-86.74292-64.39862H1260.032v7.49707s14.07287,3.96539,14.07287,7.93079V340.0785s-1.65551,6.633-14.07287,6.633v7.94666h69.72387v-7.94666a46.53811,46.53811,0,0,1-5.96179-.09826h0c-30.8822,0-33.11572-3.66547-33.11572-3.66547V67.38916h11.17862s1.06787,265.36786,1.06787,269.44422c0,1.22127,4.30713,1.076,7.46829,1.67489a1.66857,1.66857,0,0,0,1.97858-1.64271V67.0954h29.81018c43.52539,0,56.03992,20.207,56.03992,59.4657s-6.38355,54.89832-20.74634,54.89832h-10.907c-5.55188,0-11.95,1.6538-11.95,8.34906,0,4.59576,3.71448,9.06384,9.9574,9.06384,27.19995,0,34.73181,70.39239,34.73181,120.53137,0,35.25452,65.57813,35.25452,65.57813,35.25452C1431.478,338.68085,1434.15879,273.51343,1434.15879,240.63831Z" transform="translate(0 0.00002)"/><path d="M1490.18723,343.10309c-19.827,0-49.5177-59.9765-49.5177-59.9765s.75574,41.32678,18.13184,58.14014c9.17016,8.87329,17.94043,14.41412,29.83691,14.41412,16.543,0,30.7937-13.56909,30.7937-42.31818C1519.432,313.36267,1510.01413,343.10309,1490.18723,343.10309Z" transform="translate(0 0.00002)"/><path d="M1600.99631,57.60273c9.85-1.81379,60.27942-13.76453,80.68909-19.10425,20.40942-5.33972,26.22388-24.08808,22.42664-32.39423-3.797-8.30621-11.03541-6.40771-15.9004-4.27185s-51.26123,24.20673-74.87463,35.24213-28.35986,16.73108-29.07178,19.10431C1584.38389,59.38269,1591.14634,59.41657,1600.99631,57.60273Z" transform="translate(0 0.00002)"/><path d="M1624.8729,59.41657c-60.51318,0-109.5686,66.321-109.5686,148.13214s49.05542,148.13214,109.5686,148.13214c60.51294,0,109.56848-66.321,109.56848-148.13214S1685.38584,59.41657,1624.8729,59.41657Zm2.75268,283.79755c59.86475,0,83.18628-74.75965,87.22632-100.8357s.8396-42.5108,2.00489-42.52911c5.81274,0,5.21435,7.704,4.78955,27.83832-1.22412,58.0285-43.70508,119.1322-94.75537,119.1322-29.4563,0-59.02881-37.56439-61.90186-41.93964-16.97351-25.84845-26.321-60.41479-26.321-97.33179s9.34753-71.48333,26.321-97.33081c16.23242-24.72,37.49963-38.33392,59.88355-38.33392,22.38427,0,43.65112,13.614,59.88391,38.33392,16.97314,25.84748,26.32068,60.41382,26.32068,97.33081s-9.34754,71.48426-26.32068,97.33179c-15.92029,24.24426-36.68384,37.79639-58.59388,38.30939C1626.64829,343.20185,1627.13376,343.21412,1627.62558,343.21412Z" transform="translate(0 0.00002)"/><path d="M2238.15757,348.88227v.118c-17.74024-1.12329-26.41431-.69611-31.83692-2.42584a5.75439,5.75439,0,0,1-3.63208-3.45594L2108.97178,95.48932l6.5747-.06317s88.94678,232.36426,93.04444,241.6767c1.47754,3.3584,8.76635,5.56817,13.874,6.46173a1.56682,1.56682,0,0,0,1.728-2.0965L2118.88852,59.68085h-13.97973s-92.48267,277.67651-93.41016,280.32172-4.09424,9.00848-15.05713,9.00848v6.6698h48.44825v-7.83911s-14.81788-.21777-12.14307-8.75116l29.5376-95.8078h67.09326l33.52832,99.03693s-.25537,7.39862-6.97461,7.39862v5.96252h85.22632v-6.68054S2239.93931,349.023,2238.15757,348.88227Zm-172.88257-115.3,28.98755-94.02442,31.83105,94.02442Z" transform="translate(0 0.00002)"/><path d="M1794.447,332.84992h6.094a1.593,1.593,0,0,0,1.30017-.67249L1991.401,64.49353H1785.6644V64.489s-6.3739.00457-8.73559-3.274c-3.113-4.32135-4.82471-6.03088-6.20337-6.03088h-4.82471c-2.28638,0-2.757.47473-2.757,6.72015V94.12659c0,3.9632,1.89551,8.6156,6.37561,8.6156s5.55054-1.15814,5.55054-3.22583,2.96069-22.148,10.59448-22.148h158.354L1746.93223,355.68085h220.05s2.35132-25.45367,2.62281-29.25214c.27124-3.79846.20678-4.54754-2.252-4.54754-4.37158,0-7.10351.81958-8.19653,5.73749-2.45874,12.29449-10.10864,15.18731-10.10864,15.18731H1800.87534l-27.85767.34076a1.97425,1.97425,0,0,1-1.615-3.14313L1964.16855,77.69031h9.647L1793.151,330.33A1.59328,1.59328,0,0,0,1794.447,332.84992Z" transform="translate(0 0.00002)"/></svg>