<svg xmlns="http://www.w3.org/2000/svg" viewBox="0 0 1017.98782 1200"><defs><style>.a{fill:#ede9df;}</style></defs><path class="a" d="M475.362,268.28051c-.23057-6.29406,1.4926-9.45315,12.43835-11.94082s21.394-1.24383,25.37424,3.98027-3.48274,5.97041-7.463,5.72165-6.62994.81-6.62994,3.26406,1.63606,2.92153,5.7262,3.15525,8.06342,1.51919,8.06342,2.92153-.11686,3.03839-5.14189,2.57094-9.11517-1.40233-10.16692,1.28547.818,2.92153,2.6878,3.03839,6.77795.46745,7.596,1.5192a2.83506,2.83506,0,0,1,.23372,2.68781c-.11686.5843-.58431,1.28547-3.97328,1.16861s-7.01167-.23373-7.01167.818-.5843,3.15526,3.6227,3.15526,4.207.70116,4.207,2.33722-.00318,3.03839-3.33213,3.03839-5.55789.5843-5.5536,2.33722.58859,2.57095,3.39326,2.57095,4.55758.11686,4.7913,1.63605-.23372,3.03839-3.15525,2.68781-5.0336.11686-5.02931,2.1035,2.45837,2.57094,4.21128,2.57094,2.1035,1.98664,2.1035,3.27212a2.853,2.853,0,0,1-2.80466,3.27211c-2.57095.35058-3.03839,1.98664-3.03839,3.27211s.23372,2.22036,2.80466,2.22036,1.75292,2.22036,1.28548,5.60934-1.28548,15.89311-2.22037,16.94486-2.883.70117-3.545-1.636-11.88069-34.35718-14.68535-46.277S475.94952,284.31708,475.362,268.28051ZM381.62839,482.114c1.18118-.8437,18.8988-9.61814,18.8988-11.47427s-4.04974-9.11192-4.21848-15.35527,6.9183-15.35527,24.9734-24.12971,45.72833-12.65544,50.453-12.4867,5.06218,3.206,2.69983,5.06217-18.73006,13.49914-20.41745,14.68032-2.53109,2.36235-1.68739,2.86856,2.82053.38,4.19877.38,25.26778-19.06569,41.11757-29.86193,29.63221-20.44393,28.254-21.36275a55.0987,55.0987,0,0,0-32.3887-3.44561c-8.49916,1.83766-56.39516,21.72907-63.33929,23.92195s-8.63358,1.7364-8.33672,4.1113-2.078,5.93725-4.15607,4.15607-6.23412-1.48431-6.23412,1.78118-3.26549,6.82784-5.34352,5.34353-6.531-1.78118-6.82784,2.96862-4.74981,3.85922-8.01529,2.67177-2.96863,3.85921-3.56236,10.39019-3.56235,5.64039-6.23411,5.04666-3.26549-8.01529-3.85921-10.687-3.85922-2.96863-4.45294,2.078,5.04666,36.21723,6.531,42.15448C379.68124,480.92552,380.44722,482.95768,381.62839,482.114Zm252.22248-52.41985c-1.55-.141-3.94553,4.22734-5.63649,7.04556s-4.72214,2.53824-7.28128,1.59275c-3.18791-1.17772-3.76745-6.88761-2.09616-11.72557.95791-2.77294-3.30461-4.94476-4.291-1.14016s-3.65935,6.269-6.20019,5.63649c-2.33652-.58166-3.57222-2.4167-2.98817-5.46127.54226-2.82716,1.0404-6.12357-.39367-7.07991-.58616-.39087-3.58963-1.60007-4.83816.54021-1.49272,2.55893-2.96168,2.88649-4.78586,2.28886-1.49716-.49043-2.35352-3.67451-2.49446-5.50641s-1.10705-2.8081-2.9638-3.63333-40.00587-14.7201-43.79729-16.26472-5.89788,0-8.00422,1.40422-48.44651,37.07206-49.00815,37.63378.8425,9.6893,1.12336,18.11477-2.38719,43.81245-29.34876,49.42948-44.79542-12.49782-46.19964-15.58719,4.21273-10.6722,5.05524-11.65524.42132-2.80845-.56165-2.38719-8.42547,5.33617-12.91907,8.00422-19.44388,11.39213-18.95735,12.49774a13.48355,13.48355,0,0,0,6.23918,7.40263c4.142,2.55832,11.81687,5.482,18.88265,8.52763s12.91333,8.16223,18.39542,18.88271,3.41107,20.95368,5.8475,29.23766a32.52589,32.52589,0,0,0,10.47683,15.95894c3.28925,2.802,8.5277,1.21821,9.86774-1.82732s3.77652-5.11663,6.0912-5.60392,4.38563.24364,5.36027,6.57849,2.071,8.04034,4.38564,10.11137,8.04034,1.58368,9.62409,1.58368,4.02017-.48729,4.99474-4.7511,3.16742-6.944,5.96938-6.944,3.65471,4.38563,4.87292,9.01491,5.11663,5.96938,12.54787,5.96938,9.74591-3.0456,10.47684-5.60385,1.09639-7.06577,4.75116-7.18766,4.02018,2.31467,5.36021,5.60392,4.873,3.77653,11.81694,2.68014,5.72567-7.43124,5.72567-10.2332,1.94921-4.38563,3.41107-4.02017,4.38563,2.802,6.82213,4.7511,6.94395,2.92378,11.57329,1.82739,7.13693-8.7342,10.20172-17.76727,4.67783-24.841,5.48435-30.0028,1.12917-10.4849,16.45318-22.42148,23.71187-19.35668,28.06712-29.035,6.61358-28.38976,6.83319-37.03825C638.03616,429.69612,635.40088,429.835,633.85087,429.69414ZM522.40923,530.22786c-1.92552,2.2005-6.60171,3.02573-7.977.82516s-4.17743-10.4526-5.52709-13.75345-.5314-9.18-2.31584-8.16585-2.05956,5.41517-2.05956,9.54119a19.212,19.212,0,0,1-2.93709,10.45266,6.172,6.172,0,0,1-5.55359,3.30079,10.26152,10.26152,0,0,1-7.46333-7.15182c-.82523-3.57583,1.92544-7.977,6.05153-18.42963s7.70192-21.83989,12.103-20.96,11.55288,13.1554,15.679,23.24677S524.33467,528.02729,522.40923,530.22786Zm65.17611-53.75646c-5.57032,12.791-19.18666,11.14058-22.28122,10.31535s-4.33244,1.44417-.20629,4.67605,11.9658,4.60777,7.427,5.63936-16.09195.61887-26.201-5.63936-18.774-11.48419-20.32818-27.57614.52265-25.37584,15.58309-34.866,27.274-6.68078,38.57952,2.2694C595.01234,443.04962,593.15559,463.68037,587.58534,476.4714Zm-28.05783,8.046c.917,3.74341-.41265,4.745-2.47569,3.9198a3.67781,3.67781,0,0,1-2.47569-3.9198C554.57613,482.867,558.98894,482.319,559.52751,484.51741ZM750.89145,369.80858c-.2181,5.01564-.43614,13.30235-7.41444,17.44565s-12.43,6.76019-12.43,8.94089,1.4609,4.92816,5.99165,7.34458,3.47361,4.98388,1.81229,9.81665-2.71844,6.79619-4.53074,8.15541-3.17159,2.56746-2.86949,4.98388.56076,8.92014-1.93986,12.78475-6.93364,5.0013-12.95792,9.09324-35.46366,12.61691-54.55942,15.11752-17.16356.1137-18.52749-.682.47813-4.58277,1.18413-4.46512,3.64788,3.05953,7.29583,3.29492a16.54753,16.54753,0,0,0,4.90966-.23061c.54075,0,0-2.63582,0-3.2441s-8.9889-5.00137-10.34061-5.94753-.33794-3.17657.20274-3.9876,3.24411-1.28411,5.27171-.40548,6.96136,3.1089,8.651,3.1765,2.23034-.54068,2.16274-1.2841-7.0965-6.08274-10.20547-8.24548-3.37932-2.70349-4.39308-4.32554.54068-3.78479,3.1089-3.51445,6.21794,2.43308,11.422,5.27171,10.611,5.67718,13.65239,6.691,3.71719-.40555,3.98753-1.08137.54069-1.96-2.97376-4.46068-24.75984-18.55433-58.95886-31.82562-59.08122-17.70267-76.1207-22.59908-24.22653-8.42185-40.51242-8.42185-30.58343,5.67985-54.282,14.68923-81.28036,29.77015-99.10328,40.34641-32.51216,24.48206-34.86241,27.224.65629,2.96809,1.63763,2.47746,12.43034-7.85078,18.56375-11.85791,16.92818-9.81345,18.40021-10.22234,2.6169.32709,2.53509,1.39023.08181,1.79911-3.84358,3.84358-15.78324,9.32281-16.68283,10.713.57244,2.37155,3.92539,2.28975,17.33707-7.68717,19.13619-8.75031a1.86573,1.86573,0,0,1,3.0258,1.30849c.16354,1.06313,1.39022,3.353-2.45336,4.49783s-11.77611,6.1334-13.16633,7.36008-.57251,2.45336,1.71731,2.6169,6.6241-1.22668,10.54943-3.0258a42.511,42.511,0,0,0,4.98852-2.53516c1.06314-.57244,2.78045-.57244,3.68,2.28982a10.53867,10.53867,0,0,1,.32708,6.46049c-.49063,1.39022-1.55376,3.1076-7.60536,3.27114s-39.78777-1.92257-50.65356-1.70529-14.85688-.51747-17.36616-2.34247-10.26543-9.92324-11.406-14.82778-2.7375-7.18582-5.93114-10.94978-5.93115-7.18582-6.15929-12.09043.45629-10.26542-2.85146-14.37157-10.24986-4.33428-11.22716-10.03728a36.28362,36.28362,0,0,1,0-11.1334c1.11879-6.71274,26.06587-25.05941,38.13519-35.58139s27.23328-23.51964,29.709-25.37646,4.35163-.963,6.59364,0,9.64062,3.37331,13.452-1.0828,6.27769-12.30306,4.25986-18.58075c-.8968-3.363-.282-3.74649,3.51472-6.53069s6.20128-4.42954,8.859-2.65774,14.93383,11.13709,18.98363,12.52923,7.21382,1.139,7.97316-5.94822,1.2333-32.31822,1.3713-36.04456.63861-3.5813,6.80827-10.92609,18.80269-22.32819,23.50339-30.26058,11.60478-14.102,14.39581-18.21508,7.34479-11.89861,11.60478-15.86477,6.02271-6.31655,7.93238-6.31655,3.23168,1.1752,3.6724,5.28824,3.81927,7.34485,4.70063,15.86477,4.84759,38.78055,9.25446,60.6681S481.96871,330.625,486.2287,340.9077s7.49174,16.89308,12.48621,16.59925,8.81375-15.71789,11.75166-30.70129,11.60478-37.16466,17.18684-67.13147,11.4579-60.81492,12.63309-65.36874,4.113-6.75719,6.46336-6.61031,6.02278,4.55382,11.311,13.51445,31.45831,44.51681,53.70156,63.92512,46.23091,41.21534,58.22485,51.46466,53.20921,34.89129,66.72961,41.21534S751.10949,364.793,750.89145,369.80858ZM351.84,321.24442s1.81851,5.65772,3.63709,6.87013,4.04127.80823,7.47631-1.41446,1.81851-7.07213,0-9.39588-6.06184-5.35461-8.68865-3.94021S351.43588,317.20321,351.84,321.24442ZM283.026,400.71965c5.54478-2.966,9.20577-8.34954,16.07584-10.97635s27.68246-19.6,33.94636-25.66182,6.26389-7.27418,6.06183-8.48659-3.435,0-7.27418,2.22269-19.39792,12.32574-28.49068,17.37729-22.42885,15.55878-27.4804,20.14832-5.55749,6.24484-4.64745,7.53414C273.64211,406.31236,277.48133,403.68556,283.026,400.71965Zm10.48346,16.302c-1.07563-2.62681-3.70244-4.8495-8.34988,0-2.671,2.78714-2.62681,5.25361-1.01028,6.46595s4.0412,1.01035,6.26389-.80823S294.58514,419.64845,293.5095,417.02165Zm55.34826-12.90944c.2403-2.16267-3.58185-3.92116-6.96847-1.44178-5.78419,4.23465-28.59489,18.022-37.96632,25.23073s-10.81321,7.92972-10.33262,10.33262,2.403,4.80587,6.48794,1.92237,33.64106-21.14583,39.64833-25.4711S348.61746,406.27481,348.85776,404.11221Zm25.4711-18.17576c-4.085-.15371-10.76063,3.33745-15.13848,7.12225-3.45429,2.98633-1.682,9.852,3.60438,6.96846s9.61173-5.767,11.5341-7.92965S378.41384,386.09016,374.32886,385.93645Zm2.32157-36.4034c-1.65961-.80823-8.64555,1.81858-14.50534,7.67836s-20.20615,17.98346-29.29891,24.8536-24.0453,16.16488-29.09686,19.39506-7.27425,8.69144-5.45567,10.71208,2.42475,1.61652,5.85979,0,30.91543-22.22679,46.6762-35.76487,17.17524-17.57942,21.01445-20.61034S378.31,350.34127,376.65043,349.53305Zm267.72371,4.79378c.80379-1.60745-.13541-3.82208-2.73271-6.91214-3.166-3.76669-10.12708-11.57377-13.02054-12.53824s-5.30463-.80378-5.14388,1.76819.80372,3.69718,5.78692,8.19815,6.91213,9.0018,9.80559,10.44857S643.57042,355.93433,644.37414,354.32683Zm21.70093,53.85041c-1.77433-2.358-3.85793-4.5009-5.78692-3.21495s-1.60744,3.69718,0,5.30469,1.929,4.17941,4.82245,4.17941S667.73447,410.38252,666.07507,408.17724ZM696.93854,419.751a58.48554,58.48554,0,0,1-8.68032-3.3757c-5.14613-2.51427-10.2351-5.829-11.89533-6.75138-2.89346-1.60744-4.72952-.80372-4.133,2.73271s5.03155,7.07288,10.04767,9.48411,9.83857,4.9832,12.732,3.85792S700.12262,420.84181,696.93854,419.751Zm2.89346-17.68219c-4.82239-2.25048-23.95134-9.64485-32.31024-15.271s-13.52612-8.0486-17.77423-10.61491-7.14157-.95886-7.30231,1.13081.96446,5.78692,10.77005,11.57385S681.02454,405.123,687.133,406.73048s13.66358,3.0542,17.03928,1.286C706.02877,407.044,704.65446,404.31932,699.832,402.06883Zm13.02054-13.66352c-.16074-2.89346-8.19808-3.53643-13.02054-6.10841s-19.61118-9.80559-28.7738-17.84293S655.948,351.43343,653.376,350.95113a3.0639,3.0639,0,0,0-3.53644,3.69725c.48223,1.60744,3.215,6.59064,9.64485,12.21675s18.32516,13.18129,25.71959,15.43177,16.71772,5.46544,16.71772,5.46544C707.86941,390.01275,713.01328,391.29877,712.85254,388.40531ZM715.537,370.297c-2.63937-1.38251-10.93449-1.63387-43.23516-26.89629s-36.82528-31.79789-43.86353-32.80339c-4.02188-.12565-4.02188,2.01093-3.64481,3.6448s2.63938,4.90167,7.541,7.164,17.34437,14.69968,27.399,21.55206,17.72138,14.64478,31.798,21.55739,20.98912,9.929,23.50284,10.80877,3.14209,1.38251,4.39888,0C720.84024,373.77651,718.17635,371.67947,715.537,370.297ZM479.23928,625.06774c4.19059.95784,9.339-2.03543,9.93767-6.226s1.43677-8.50089,0-11.49416-6.5852-4.54978-12.452-6.9444-7.76154,3.49309-7.18386,8.38117C471.09758,621.95473,475.0487,624.10989,479.23928,625.06774ZM577.061,583.95816c-.28229-2.8936-2.90459-3.43613-5.79819-3.43613s-6.23938.09041-6.60109,2.6223,1.53724,2.6223,2.80319,2.6223,2.44148.36171,2.44148,1.266,0,1.89895-1.89888,1.89895-5.33515.18089-5.33515,1.53724.72342,2.07977,2.44148,2.07977,3.5266.09041,3.5266,1.62765-4.61166,1.35636-5.42548,1.35636-1.17554.99471-1.17554,2.07977.45212,1.44683,1.44677,1.44683,4.06913,0,4.06913,1.35636-.36164,3.34571-3.43613,3.16489-4.79255,2.71278-4.79255,5.33508-.54252,4.25-1.62765,4.25a2.8194,2.8194,0,0,1-3.07442-3.16482c0-2.80319-1.98936-8.59039-3.97872-11.39357s-9.49462-2.35107-14.19676,1.80847-3.43612,8.95209-3.52653,12.2074.09041,10.67015-6.78191,10.67015-4.97337-13.02122-8.59039-16.27653-8.5-3.16483-13.65416-2.351-7.395,4.06913-7.85706,10.12756-.64291,13.92552-5.978,16.72864-14.19676,4.43084-18.80842-.99464-8.04785-15.82441-9.6755-22.42544-4.25-7.32443-9.76592-6.87232-4.61166-.97334-4.61166-1.79782.09041-1.54789,3.79783-1.72871,5.15426-1.35642,4.97337-3.25531-1.35635-1.62765-2.35107-1.53724-5.8776,0-5.8776-1.26594.81382-2.44148,4.43084-2.44148,3.43612-.6186,3.43612-1.62049-.54253-1.81571-3.07441-1.81571-3.37324-.44153-3.28283-1.61707,3.00975-.39517,3.00975-2.59614c0-1.39992-2.33236-2.03238-6.77918-1.20886s-4.85844,1.23522-4.94079,7.823-.90581,20.8339,4.5291,37.5504,20.63369,32.57675,40.57394,34.40229,44.51463.983,58.69746-3.51062,23.17008-15.16587,26.39985-22.04666,5.89782-19.94031,6.31907-30.47212A176.61165,176.61165,0,0,0,577.061,583.95816Zm-29.86978,64.39158c-1.7688,2.35844-4.32377,1.17922-6.09264-.98263s-2.16185-3.34114,0-5.69959,3.86688-1.26976,6.09264,0C548.95043,642.67112,548.96006,645.99136,547.19119,648.34974Zm4.73594-6.85443c-1.57227-.9827-1.62089-1.84173,0-3.93079,1.2079-1.5567,2.75156-.98263,3.53767.9827S553.49947,642.47794,551.92713,641.49531Zm180.58143-27.14c3.04681,1.10793,6.64759,6.64758,9.97138,16.61895s2.49284,11.63327-3.87776,16.065S603.15769,738.16649,591.52442,745.922s-55.95049,33.23791-58.16635,32.13c-1.9859-.99295-38.67826-29.57308-46.27245-35.49425a.95532.95532,0,0,1,.26173-1.65659c78.50689-28.61905,223.6688-116.868,236.57475-124.607C727.22194,614.3154,729.46175,613.24734,732.50856,614.35527Zm16.77366,39.96341S627.17636,732.659,625.42574,734.40962s.37289,2.32191,3.60686,2.69506,7.71178,2.98521,6.71671,5.34849-13.931,2.23891-21.394,1.24384-6.96548,1.11945-5.59726,2.11452,8.73841,1.74137,6.29715,4.72657-15.62592.49754-18.98427,2.23891-2.11452,3.35835,0,4.35342.99507,3.98027-4.10466,3.48274-10.697-1.38162-12.314.05549,5.09973,2.059,4.229,4.29793-7.83616,1.74137-13.68218,2.98521-24.87671,11.692-26.61808,12.8115-2.86082,2.2389,0,3.98027,54.61979,37.88431,57.19966,38.11885,24.86057-15.01016,50.65928-36.8218,97.097-87.44484,99.20777-90.04283-1.82092-15.73191-1.33868-18.62537,6.26915-6.42989,5.14392-9.64484-3.3757-3.215-4.34018-1.286-3.85794,2.73271-3.85794-.48224,3.85794-7.07289,4.66167-9.80559S749.28222,654.31868,749.28222,654.31868Zm-44.80853-47.59259c-.67119-2.55053,1.00678-3.08748,2.34917-2.61764s2.34916,5.3024,3.02035,7.58445,1.27527,2.34917,1.94646,2.21567.73831-.135,1.27526-.9404-.537-3.4902-1.20814-6.10784.13424-2.88612,1.34238-3.1546,1.7451.53695,2.21493,3.49019,1.20814,4.02715,2.95324,3.4902,1.4095-1.87934.80543-3.4902.73831-2.28205,2.28205-2.21493,1.20814,3.22172,2.01357,3.75867a1.72775,1.72775,0,0,0,2.55053-1.61085,2.61851,2.61851,0,0,1,2.34917-2.88613c1.27526-.06712.0537,2.7,1.175,3.34075s4.96593-1.76211,7.36879-.96115,6.08727,9.29109,11.0532,20.34429,17.78123,50.46024,18.58219,59.11057-9.45129,13.77645-11.94944,16.33951-2.46778,4.96592,9.22618,16.01912,26.59175,12.33473,50.13987,4.64555,44.21278-29.315,41.9701-29.315-14.89778,1.92229-29.1548,1.12134-27.71309-12.49492-30.91692-22.26659-12.97549-46.61565-18.90256-64.55707-8.49014-24.50926-16.65989-33.48-40.68858-19.86372-52.38254-20.1841-16.4997,1.28153-17.46085,11.85415,5.92708,33.64017,8.65033,40.3682,3.80911,10.62522,5.60669,10.092C708.37635,615.62791,705.14488,609.27662,704.47369,606.72609Zm85.46607,16.64327c2.19571,3.24192,9.51206,13.31688,10.78033,14.74369s3.17069,0,6.02431-2.06094,9.82913-6.65845,12.04861-9.51206,3.01215-5.70724-1.10974-10.78034-22.67041-24.25575-27.74351-27.585-8.87793-4.28043-10.93887-1.90242-2.061,6.34138,0,8.40232,6.34137,2.378,8.08525,5.54871-3.17069,4.439-2.378,7.134,2.85362,3.32922,6.49991,2.69508,6.18284,3.17069,3.17069,5.39017S787.56174,619.85828,789.93976,623.36936Zm34.00984-9.46079c1.67916,1.8164,6.21791,4.98511,15.00408-.96246a179.28014,179.28014,0,0,0,15.54477-11.48961c1.35172-1.21655,0-4.3255-2.70344-7.16411s-17.03166-16.22063-23.92543-21.89785-12.84133-8.651-16.76131-6.75859-11.48961,7.56962-14.05788,10.67858-2.16275,4.46067-1.08138,5.13653,2.29793.13517,4.86619-1.35172,3.78482-1.35172,5.40688.13517,3.24413,2.94544.67586,4.71684-2.4331,3.52865-1.08138,4.7452,3.24413.54068,5.13654-.40552,5.00136,2.70344,3.24412,4.3255-2.97378,2.83861-1.35172,4.3255,3.109-.5355,3.92,1.48948-2.4331,1.34913-.811,4.32291S820.84065,610.54552,823.9496,613.90857Zm3.55317-56.97825c-2.19289,2.7135-1.97277,3.241-.98639,4.791s4.22737-1.26821,6.341,0,4.50918,2.11368,3.94554,6.20013,3.10006,3.10007,5.21374,3.10007,2.39551,2.81824,2.39551,5.63648,10.56841,12.64492,12.96391,14.07262,3.66371.44133,7.60925-2.65874a81.04646,81.04646,0,0,1,11.83662-7.75016c1.97277-.84548,3.10006-3.80463,1.40912-6.76378s-4.93192-7.46835-16.20489-16.62763-15.50033-11.55479-17.05036-11.55479-3.241,1.26821-6.341,3.10006S829.115,554.93537,827.50277,556.93032Zm49.0374-26.20965c-4.04233-.59886-7.46834.56365-10.99114,3.38189s-6.62287,4.791-5.77739,7.46834,3.5228,3.241,5.77739,2.39551,3.66372-.28183,4.791,1.40912-.56329,3.5228-2.25441,5.63648-.282,2.616.56347,3.35123a3.53593,3.53593,0,0,0,4.50918,0c1.83186-1.37846,2.67733-.25116,4.08645,1.86252s-2.53641,4.7185,0,8.8412,6.76378,6.09548,9.582,5.95457,3.241-5.21375,4.08645-7.89108,3.5228-2.25459,3.66371-5.63648a23.91556,23.91556,0,0,0-4.50919-14.65486C886.1222,537.34354,884.14943,531.848,876.54017,530.72067Zm23.98019,60.01c-3.84074,7.56745-12.355,26.5796-44.41924,47.9585s-40.37775,26.45368-42.6353,27.95872-2.40805,2.70906-1.204,3.46157,3.16057-1.204,4.06359-1.806,2.87861-1.23617,3.63768-.61511.276,1.51813-1.0351,2.2772-2.48421,1.86316-1.2421,3.17428,3.79533-.69006,5.7275-2.48422,4.4854-.483,5.79651.55205,2.2082,3.31229-.75907,5.31347-5.17545,4.20937-3.72632,5.10645,2.69123.96608,7.31464-1.72516c3.17654-1.849,9.17723-5.92967,12.76612-6.48657,4.00236-.621,5.72751.138,6.55558,2.00118s-3.10527,4.63529-6.76259,6.76853-4.14037,3.44437-3.58832,4.27244,1.51813.69006,3.79533-.552a116.30705,116.30705,0,0,0,14.42227-9.17781c6.55558-4.89943,12.55911-10.00588,15.73339-12.62811s4.4854-2.48422,6.34856-2.2772,2.48422,2.96726-.138,5.31347-17.94158,15.8714-20.08077,17.38953-.65534,2.46052.13621,2.45411,1.673-.04656,9.03646-4.53647,26.514-20.06085,40.15286-35.29389,25.10311-33.65723,26.19575-52.9607-10.904-40.22029-18.58725-48.81327-8.60528-13.04929-9.68094-17.81293-5.83929-8.60528-9.06627-10.14193-6.3003-.15367-10.91027,1.22932-6.915,3.84164-5.532,7.837,4.61,6.60763,8.91261,10.29561,9.52727,12.13959,14.44457,20.43754,14.44458,25.9695,11.37127,45.79238-8.14429,30.63189-11.98593,35.67666c0,0,2.305-35.60063,1.383-47.31724S903.9998,583.875,900.52036,590.73063ZM422.86577,766.56719c-42.5303,17.11585-117.21766,39.937-176.34516,46.16093s-102.69512-10.37324-109.95639-11.92923-4.31263,6.67195,5.23527,21.67581,30.51742,49.08857,89.2191,77.57615,71.11341,33.52544,147.332,35.52244c13.64613,0,12.66147-.7843,14.44887-5.02939s4.91537-8.49017,7.373-7.59647,4.02166,7.373,5.13879,9.16045,3.35139-.67027,5.58565-3.128,4.02166-6.92619,5.58564-13.85239,2.93564-10.94786,6.38318-12.28842,9.48005-1.7874,15.736,5.58565,7.8199,10.501,9.6073,10.501S495.35187,899.2643,520.599,883.6245s35.52469-24.57683,38.87608-29.26877-1.60923-10.18709-8.63337-7.14963-9.68191,1.70858-10.821.18985-1.32889-5.31557,3.41715-8.54287,2.65778-6.64445.37968-7.7835-5.69525-1.32889-10.821,2.65778-9.11239,1.89841-10.821,0-.56952-5.5054,4.36635-8.73271,2.84763-7.214.94921-8.16318-5.88508.56952-11.20065,2.84762-9.30223-6.45461-5.5054-8.92255,1.70857-5.12572-.18984-6.07493-5.5054-.56952-10.63113,3.22731-66.25468,29.04574-101.18551,33.98162-37.39877,2.2781-38.15814.56953,14.61779-3.41715,44.80259-11.96,77.07565-26.76765,84.09978-29.42543,7.214-2.65778,9.30224-4.55619-7.214-7.59366-9.30224-8.73271-6.05-.49422-16.042-3.72584c-18.46761-5.97286-14.16285-13.54348-12.81394-15.36072,2.296-3.09322,5.88508-2.93506,4.746-4.45379-.94678-1.26237-9.50088-4.62331-13.23391-6.70318a4.45836,4.45836,0,0,0-3.70229-.3049Zm21.49933-45.2378c8.04037,6.82213,38.009,28.50675,51.67391,39.22724s73.0736,50.435,84.525,59.69364,69.92683,39.22724,82.1092,46.293,57.50081,16.32438,63.34835,16.32438,6.82213,2.43648,7.79672,5.36025,6.09118,2.92377,4.873,1.46188-4.38566-12.91332-5.6039-15.83709-.73094-5.36024,0-3.89836,7.55308,4.873,18.02992,10.96414,22.65922,6.57848,45.07478,7.06578,37.27807-3.41107,39.22725-5.36025,4.38565-2.92377,6.82213.731,3.16742,5.36024,0,7.55307-25.33934,5.84754-28.7504,6.09119-7.06578,4.38565-1.46189,5.84754,12.91332,4.142,12.426,7.30942-8.52766,1.94918-27.28852,1.21824-27.77581-9.015-47.7549-9.98955-35.81618-6.82213-62.37376-11.69508-42.63831-17.54262-51.166-17.299-25.09569-1.70553-28.50676-3.41107-8.77131-5.36024-4.6293-5.36024,12.91332-2.68012,15.34979-4.142-.24365-3.89836-3.89836-5.60389-25.82663-13.40061-48.97314-27.04487-48.7295-34.11065-57.74446-40.44548-16.08073-6.82213-24.36475-8.29625-14.13155-5.10437-13.88791-6.8099,17.49586-4.87295,17.49586-4.87295-13.35385-3.65471-20.176-7.30942-35.32888-28.75041-42.882-34.11065-14.3752-1.94918-16.08073-2.92377-3.16742-2.19283-.97459-3.89836-1.21824-6.82213-7.55307-10.72049-18.76086-6.57848-28.26311-10.23319-29.1254-17.27659-32.74338-17.96573-5.51312-4.4794-4.65169-6.89139.17228-6.71911-1.206-4.4794-4.30712,3.79026-5.51311,1.89513,4.30712-8.95881,2.412-10.68166-5.34083,2.2397-6.20226,5.51311-3.618,2.92885-4.30712.86143,2.92885-8.78653,3.27342-10.50937-2.58428-2.412-4.99626-1.37828-3.27341,6.03-4.30712,8.442-3.03127,1.92771-3.46742-.90721,2.83492-12.86616,6.106-15.483,4.57948,1.09035,9.59511,5.23369,28.13111,17.44565,30.31181,18.536,4.79756,8.94089,5.88791,8.94089-1.74457-15.26494-1.74457-16.35529.43615-2.39878,1.5265-.9582,7.63247,10.77137,13.08424,17.09542,21.35273,13.77428,47.10325,26.82269C426.82615,707.91927,436.32473,714.50726,444.3651,721.32939Zm-46.12972-6.97015c-3.27911-3.27912-13.96464-9.69482-38.59267-3.27912-30.01652,7.81943-45.15091,42.089-47.16882,45.8901s-.75672,6.07128,4.03583,5.819,27.74637-5.297,33.29564-4.28807,12.612,2.77463,13.36871-2.77464,4.28807-8.07167,6.05375-8.82839,4.54031-.25224,5.297,1.76568a5.54889,5.54889,0,0,0,5.54928,3.78359c2.77463-.25223,8.07167-3.53135,9.33287-4.54031s3.27911-.25224,6.81047,2.27016,10.08959,2.77463,17.40454.25224,12.1075-4.03584,11.85526-9.83735-3.78359-11.35079-12.35974-13.11647-24.97173-2.27015-36.07028-2.01791-14.6299,1.76567-17.40454,2.52239,2.27016-4.54031,7.31495-6.55823,19.92694-3.53135,25.72845-2.27016S401.5145,717.63836,398.23538,714.35924Zm-89.2-93.85983c-3.53447-6.93707-7.008-13.48421-14.87181-11.23741s-14.60415,10.95311-16.0084,16.5701-1.96594,9.54887,0,17.13179,1.40425,21.90624-2.80849,30.89341,11.234,3.651,15.4467,0,10.67227-15.72755,12.35736-24.99557S315.76253,633.70276,309.03534,620.49941ZM270.85305,658.4106c1.86841-10.68978,2.52765-14.885,0-17.1318s-8.70632.28085-10.95311,5.33613-7.30208,15.16586-19.94029,16.5701-17.97434-3.651-25.83812,1.966-14.60416,11.234-21.90623,0-23.02963-9.50492-33.1402-9.10562-10.87348-7.26585-7.86378-8.58788c8.32185-3.65541,15.19718-.041,15.19718-.63885s2.54088-2.56612-7.77212-6.36483-11.35924-7.38583-8.071-11.27189,12.555,1.79357,13.6012,4.33445c.89678,1.943,2.69035-1.04625,1.49464-4.78284s-10.46246-12.10656-15.2453-13.90013-13.6012.14947-14.34852,7.32373.89678,22.41956,4.63338,32.1347,15.39476,16.8894,18.5335,23.16687A28.95433,28.95433,0,0,0,172.686,690.761c5.53016,2.69034,8.22051,6.128,18.9819,5.53015s13.1528-2.09249,20.92492,1.34518,17.63672,5.97855,22.27009,0,4.78284-10.61193,9.71514-12.70442,13.15281-.89678,18.384-9.56568S269.79308,664.47507,270.85305,658.4106Zm-18.99524-82.83048c-2.76555,4.682-7.37324,14.74648-14.57891,18.26553s-12.23287,3.29577-15.75192,5.58586-6.53537,3.46311-6.03265,5.13885,1.34059,4.62931,6.3678,4.24175,9.71927-.38756,13.90861-3.40388,7.03809-1.173,7.54081.16757,1.50817,3.8542-3.85419,7.0381-6.87052,3.1839-20.61156,3.519-24.8009,13.40589-28.48752,16.42222-15.75192,4.52449-18.60068,5.02721-1.84331,3.05527,2.01089,6.2197,17.26008,12.09991,20.27641,13.91618,7.876,4.1623,13.741,1.48112,12.568-5.52993,22.2873-5.02721,16.75736,1.09728,24.8009-9.422,16.42222-19.2331,13.40589-25.76848-7.03809-14.80218-6.87052-19.55018,6.53537-9.27248,6.20022-16.64572a13.90769,13.90769,0,0,0-7.70838-12.06531C257.38774,569.37989,255.04171,570.18988,251.85781,575.58012Zm22.21974-4.95369c-.24862-2.73488,5.76215-10.035,9.42185-9.88865s5.85551-.43917,5.70912-2.34221.43916-10.53992,4.39164-9.808,4.83079,2.19582,3.65969,12.73574-12.29657,16.10266-16.68821,19.1768,1.61027,10.97909-1.903,12.88213-9.6616,5.85551-9.75931,7.46578,2.87908,11.85741,5.7165,13.359,3.60365-.47685,5.65308-5.3949,6.58745-7.52491,15.22433-7.81769,12.443,2.635,18.44486,9.808,6.88023,7.173,9.36882,7.173,6.88023-2.635,8.92966-8.49049,1.1711-15.22434,0-20.05513-14.78517-20.93346-15.22434-25.61787,5.12358-17.27376,4.97719-21.07984-6.44106-13.46768-13.02852-14.78517-20.05512.43916-27.37451,4.39163-14.63878,9.36882-15.22434,16.981-4.09885,11.711-1.46387,16.981,7.88958,7.84574,9.076,7.02662C274.52715,572.95227,274.1836,571.793,274.07755,570.62643Zm-77.03517,33.78909c7.93331-5.49652,11.765-8.18435,12.53228-18.159s2.04609-17.90326-6.26614-25.83184-22.89059-11.765-30.30766-4.6037-7.67282,16.62446-10.99771,25.06456-8.18435,15.60141-5.8825,24.8088,11.765,14.32261,16.11293,15.08989,10.90062-.02561,10.5971-2.8088-9.51247-6.38278-12.70709-12.2321-2.50472-17.99792,0-25.34706,10.00384-13.94839,14.20335-12.89851,5.09941,8.849,3.29962,14.84828-7.49913,4.94943-8.399,1.34984c0,0-3.29961-.89989-3.89954,4.79945s-.59993,13.19847,3.29961,16.49809S191.02047,608.58775,197.04238,604.41552Zm29.25544-70.455c-.87632,2.151-2.07743,1.03871-2.07743,1.03871s-9.14066-6.02452-13.08776-10.38711-14.33423-1.86969-19.1123,3.9471-4.15485,15.78842,2.90839,18.07359,18.69681,10.8026,21.18972,17.86584.62323,18.28132-.20774,23.0594,5.609,6.23227,12.04906,1.86968,13.711-10.92953,16.41164-16.68285,9.34841-9.49269,11.21809-11.57011,4.15951-23.47489-3.32155-35.10846-20.56882-10.38711-23.06173-6.85549S228.583,528.35149,226.29782,533.96053Zm-9.641-168.01609c-2.0319-8.88975-5.58787-18.79551-12.44572-20.82748s-16.7636-2.54-18.03358-9.14377-1.016-9.39779-7.61977-7.36589-10.41381-1.016-9.39779-7.1118,5.84182-11.42976,4.31789-15.23968-5.84189-7.1118-6.34986-7.87379-9.39779,7.61984-13.71569,9.14376-8.88982-5.07989-6.34987-8.88974,7.11187-11.42976,8.88982-14.22373-2.286-5.84183-4.064-7.8738-12.19169,4.57192-18.03358,7.11187-8.63579-8.6358-3.5559-13.71569,10.66777-10.15979,10.92172-11.68378-4.06387-7.1118-5.84182-8.38177-14.98566,9.39779-18.03359,9.65174-4.57192-7.8738-1.27-10.41374,11.93774-9.65175,12.95369-10.66777-4.25576-5.84182-4.28683-6.09584-9.93683,6.09584-12.47678,7.61984-5.28311-7.61984-2.76857-12.69974,6.07051-6.85784,7.34049-7.87379.17713-3.97094-.762-5.0799c-1.83517-2.167-5.07989-2.28592-10.41374,0S81.27793,225.99367,74.674,228.53362s-12.69967,4.57192-15.49364,8.12781-10.92172,5.33392-13.20771,8.38184S39.36887,253.933,35.305,259.77491s-9.14383,10.66777-11.17574,17.01763-1.778,9.39779-4.57191,13.96964-8.88982,13.96971-10.66777,27.43138a147.29477,147.29477,0,0,1-6.60382,28.70135c-1.524,4.06394-1.524,5.84189,2.0319,9.14376s6.85785,5.58787,9.65182,4.57192A43.56829,43.56829,0,0,0,28.7011,351.2128c5.33392-5.33385,9.90577-9.90576,13.20771-10.92172s2.28593,4.57185,1.77795,6.3498-5.07989,15.49371-8.88981,20.57353S24.89118,380.42213,24.63723,384.74s-4.3179,10.15979-4.06394,15.23968,1.27,8.38177,2.794,13.20772,3.30187,7.87379,4.06387,10.92171,2.794,4.064,3.80992,8.88982,2.794,5.58787,6.34987,2.54,7.61984-6.60389,11.42976-1.27,1.52393,12.44571,1.016,18.54156,1.52393,8.38177,7.36582,13.46167,17.52561,15.23968,26.41542,17.5256,18.03359,2.794,20.82749,1.77795,9.39779-12.69966,11.42976-19.30355,4.06387-11.17574,6.85784-13.20765,4.06388-6.85784,5.0799-8.38184,5.58787-4.57191,7.36582-9.90576,8.12781-7.11187,12.69966-12.69974,3.556-8.88974,9.65182-10.41374,18.03358-4.57192,22.6055-5.33385,6.60382-3.30194,8.38177-3.80992,3.5559-5.07989,6.60389-5.58787,8.63579-4.06394,10.66769-8.63579,6.85785-5.0799,9.14384-5.84189S218.68875,374.83426,216.65678,365.94444ZM46.2995,406.142c-5.19925,2.59963-6.99905,1.39979-9.79862-1.79973s-1.60533-11.97454.99983-19.79719c1.73691-5.21544,4.19942-8.59879,13.798-12.59827,4.26156-1.77562,7.79889,0,8.19884,8.59879S51.49876,403.54236,46.2995,406.142Zm183.01707-77.6903c2.14263-1.9695,3.2735-1.64125,7.04838,2.79013s5.08788,14.93537,4.43138,19.85912-8.69863,10.83226-10.17576,10.99638-1.64125-3.11837-2.626-8.04212-6.65669-11.2124-10.31967-16.24838C216.69674,336.462,227.174,330.42119,229.31657,328.45169Zm786.00027-49.13388c.168-9.24852.69487-18.02539,1.41077-23.514s-2.38644-6.08513-5.966-6.08513-7.45732-.23866-9.60518-4.71313c-2.14771-4.47448-17.898-18.25592-20.04575-20.04575s-7.33809-3.75857-9.3069-4.11652-5.0114-4.11653-8.05407-5.54834-4.47447-1.2529-7.51714-2.32676-8.233-1.78976-8.949-3.22164-3.04259-1.96874-7.69611-3.22164-14.1394-2.68464-16.28712-3.22164-5.19045-3.0426-9.128-4.11652S903.97058,192.38553,900.033,189.164s-6.98021-.716-8.41209,1.25283c0,0-5.27943,5.66408-1.24368,8.18641s10.08931,8.91228,8.2396,13.28426-9.92113,2.8587-13.62057,1.51341-7.06249.16819-8.2396,2.52233-1.51341,6.55807,1.34522,7.567,10.76193,9.24858,9.09864,13.45244-12.12546,4.37205-15.82482,3.195-5.381.3363-6.39,2.186-.3363,4.37205,2.52233,6.05364,5.04466,5.381,4.20393,7.9033-3.53125,5.54908-8.576,4.20386-9.92113,1.84972-11.77085,5.381-4.70835,10.59381-.33631,14.79767-1.00892,14.12506-5.21284,11.939-9.24852.16819-11.09824,3.195-1.34522,7.06249,3.19494,10.59374,6.89438,7.73518,4.87654,10.25751-9.9212,7.23068-14.12506,5.54915-10.93011-3.86762-13.28432.50442,4.03574,7.39887,7.06256,9.9212.67261,7.567-4.03574,8.7441-9.9212-1.3453-13.28426-3.86763-5.88546-1.68153-8.91228.5045-5.381,9.92113-7.9033,19.00153-5.04465,16.47927,6.39,28.92273,31.94948,24.04625,40.18915,26.90489,31.94948,1.34522,35.48073,2.01783,23.87807,2.5224,25.39148,2.85871,2.85864,1.84965,6.22176,5.21278,12.44353,8.74409,13.62057,10.76193a29.59274,29.59274,0,0,0,5.381,6.22176c2.186,2.0179,7.73511,9.753,11.09824,11.0983s8.07148,1.00892,10.59381-.67268,9.24852-8.744,10.08932-10.93,2.01783-9.41671,1.46622-12.27535a19.37963,19.37963,0,0,0-5.16566-8.576c-1.68153-1.34522-.8408-7.0625-3.02682-8.40772s-2.01784-4.54023-3.69937-5.88546-1.84971-4.54023-3.86762-6.89437-8.5759-8.40779-8.5759-9.753,3.53124-1.1771,10.93011-1.00891,13.45245,2.01783,23.54177,1.84965,14.62955-6.558,17.15174-9.92114c2.52247-3.36312.67275-12.27534-1.68146-16.64738s-2.35421-5.88546.16812-8.57591,5.21278-2.0179,9.24858-3.69943,4.54017-4.03575,9.753-6.89438,5.04466-4.87654,4.87654-7.06256,1.84972-3.86756,3.36306-5.04466.67275-5.21278,3.19494-7.73511c2.52247-2.52233,2.69058-4.87654,3.027-7.39887s3.53118-3.69943,3.364-12.77983S1015.14858,288.5664,1015.31684,279.31781Zm-10.10134,32.09145a16.7403,16.7403,0,0,1-11.44492,10.86552c-2.31816.57947-5.50531-.28974-4.49114-5.36035s4.3461-8.6924,8.40267-9.7065S1006.56537,307.573,1005.2155,311.40926Zm2.46292-27.526c-.57961,4.78087-4.05643,11.73479-9.27194,16.081s-12.16943,4.78087-17.81951,4.49114-5.36027-4.20134-4.20133-6.954,18.09688-14.71553,23.32468-17.96428C1005.92171,275.677,1008.25789,279.10244,1007.67842,283.88324ZM792.76633,326.59176c-1.07387,1.96877-5.54837,14.08255-7.51714,16.79566s-4.29551,8.26148-6.08531,15.77863-3.40061,13.60245-4.83245,13.60245-11.27571-8.23306-12.70755-14.85531-.53694-19.86674,1.07388-29.17368,2.68469-14.13939,4.47449-14.13939,8.949,6.98021,12.88653,7.69613,10.02286,1.07387,12.70755,1.43183S792.76633,326.59176,792.76633,326.59176ZM488.41876,106.71469,537.694,171.63c-2.64641.43621-4.73506,2.15127-6.5871,5.17946l-43.90763-69.337a1.50729,1.50729,0,0,1-.24344-.79116.55748.55748,0,0,1,.78678-.50593l.04726.0209A1.50631,1.50631,0,0,1,488.41876,106.71469ZM452.76287,171.247c0,.74527.01168,1.45762.03032,2.15092,3.06377-.36806,5.51474-.13411,6.75275.97362,1.94478,1.74,4.96573,8.62391,8.06937,16.37841q1.76176.16563,3.78889.24077v4.10915c-.66763-.05483-1.38319-.10523-2.12962-.15255,4.31448,11.03132,8.44842,22.28524,9.72979,22.28524,2.36657,0,24.98034.52594,31.81708.52594s7.89128-2.84075,13.04362-21.05788a136.20784,136.20784,0,0,1,5.21217-15.86142L452.76287,62.90689Zm434.12972-22.72145c-1.29046,10.96876-.90014,21.38544-8.61558,37.4229s-27.71858,53.186-32.00493,59.47271-7.266,7.75081-7.07015,11.66794-3.72121,6.855-6.07153,8.22594-4.113,7.24666-4.89641,11.3597-4.50466,10.38035-6.855,14.68917-9.59691,14.49339-11.75132,18.21467-4.30888,7.05082-11.3597,7.05082-11.35963-2.67379-18.41045-6.03746-12.339-4.147-14.68923-6.30152-5.67985-6.85491-10.57626-9.00939-27.61575-16.45188-36.42929-22.13173-19.38973-5.8757-23.5027-9.00938-14.29755-14.29748-19.78149-18.21461-7.83426-4.30889-12.92651-8.0301-7.83426-3.72129-13.31827-4.89641-12.33891-2.35032-11.35963,0,7.33434,4.9621,8.727,6.52884,0,4.17805-2.43724,4.004-14.62314.52224-18.10488-1.91493-9.22653-7.65979-11.6637-8.70429-7.83385-.87043-10.79328-5.04848-26.80915-34.91512-31.50945-40.1757c-4.25753-4.765-18.71186-12.75559-27.82845-15.373V73.63065q0-7.91586,1.30275-11.92641a9.40268,9.40268,0,0,1,4.76079-5.76275q3.45726-1.75224,10.57319-2.0545V49.77784q-6.81671.60126-19.042.60132-13.63105,0-20.94651-.60132V53.887q8.11806.30074,12.02665,2.0545a9.36471,9.36471,0,0,1,5.2616,5.76275q1.35307,4.00986,1.35308,11.92641V161.4253L466.49324,49.77784q-6.8166.60126-16.03555.60132-12.32733,0-19.04223-.60132V53.887q7.41581.30074,10.774,1.60348a7.67581,7.67581,0,0,1,4.61,4.81064q1.252,3.5095,1.253,11.22491v99.721c0,1.08587-.02308,2.10258-.05988,3.07817-8.982,2.26824-20.09239,7.62408-23.41913,11.61618-.76718.9207-2.17018,2.70779-4.01518,5.09082a36.25584,36.25584,0,0,1-17.76236-10.513c-20.49152-21.06088-36.47353-42.86881-41.93022-49.22639,0,0-1.16878-1.2934-.3-1.92948a1.65887,1.65887,0,0,1,2.13146.38288c11.763,12.622,14.53627,15.71113,32.62954,35.93886,5.02028,5.61252,10.15822,11.42587,17.80353,14.22776a.7319.7319,0,0,0,.801-1.17062L326.85153,80.105l-3.10269,1.14535-2.246,133.40841q-.1683,16.62276-8.95926,22.32348l1.423,3.85485q5.52579-2.68076,14.17689-5.87433,11.18761-4.12991,22.397-7.6268l-1.423-3.85492q-8.62569,2.97144-13.68694,1.8476-5.06108-1.12149-7.31754-7.23417-2.22075-6.01592-1.97611-17.21846l.36628-23.31785,46.44615-17.14546,23.5081,27.2177q4.374,4.90294,5.58842,8.1931a5.78645,5.78645,0,0,1-1.1713,6.52174q-2.59554,2.66836-9.82376,5.65623l1.423,3.85485q6.19445-2.78472,17.51939-7.07574c-12.03914,15.68722-27.27288,35.42166-30.12141,37.4324-4.47017,3.1554-23.92853,4.996-33.13184,11.83278s-18.14366,11.044-20.24727,11.56988-6.31081,4.73307-9.46621,4.73307-6.83674.78891-8.67738,2.10368-9.72925,6.04784-12.35872,6.83667-13.14755,1.31477-15.25115,3.94431-5.522,5.259-8.15151,6.04784-11.04395,4.47017-13.41052,6.83674-17.26906,9.33142-22.51141,13.076-16.66329,10.29752-20.5951,14.04209-8.4252.37448-9.923,0-7.3019-4.119-13.2932-5.05517-10.42849-13.38239-15.33665-24.60108-22.67106-42.53742-25.70949-48.38047-.21919-9.739-4.28436-12.397-7.19217-14.69709-7.81753-17.51141-2.97069-4.69053-3.28344-8.28665-1.09441-6.41043-3.28337-8.28664-2.98025-4.27454-4.38263-12.76919c-4.12964-25.01461-6.45223-24.1958,0-30.648s12.90445-15.808,20.32449-20.00191,30.648-23.228,35.48722-30.0028,13.227-12.90445,25.16361-17.09841,22.90541-6.77481,29.35764-11.93658S251.02644,62.38846,255.22039,61.098s9.03308-5.16177,14.19485-5.48435,28.38976-11.29142,33.5516-12.25923,9.67831-5.807,12.90439-6.45223,7.4201-1.29046,9.35572-1.93569,10.001-5.48435,14.19492-6.45222,11.29134-1.29039,13.54961-1.613,16.77577-5.48435,25.48626-8.7105,35.48722-8.06527,48.069-8.7105,57.42475-3.22608,71.61966-6.12958S520.7292-2.13374,527.504,5.93152s15.48537,16.45319,28.06718,13.22711,34.19675-10.001,40.32633-11.29142,9.67838-1.29046,17.09842,1.613,37.42284,8.06527,47.74637,10.001,43.55249,12.90445,57.10217,17.74357,36.455,19.67927,41.6168,22.26019-7.09746.96781-7.09746,2.25826,5.807,5.48442,11.29142,5.807,14.84007.64523,18.3888-1.613,8.38792,0,11.29142,1.93569,1.29039,13.227,4.51654,17.09835,12.90445,3.54873,15.4853-5.807c0-2.58085,31.93849,19.35668,38.7133,24.1958s8.7105,6.77488,13.54968,9.35573,10.64619,13.227,15.16273,19.034S888.18305,137.55679,886.89259,148.52556ZM295.22852,222.08289c-6.66145-19.86356-24.56072-24.6133-35.216-27.15468-5.381-1.28343-15.7762-3.39761-24.11843-5.50477-6.889-1.74-10.641-3.0923-14.52637-3.95407-1.34093-.39052-1.0023-1.51409.12161-1.30514.33064.06146,10.1266,1.33225,15.80714,1.954,12.53257,1.37179,29.54645,3.99279,39.9102,6.624a37.12686,37.12686,0,0,1,14.78729,7.01619.48663.48663,0,0,0,.7224-.63485A34.50238,34.50238,0,0,0,282.39406,188.481a48.18392,48.18392,0,0,0-17.016-6.81039,235.19605,235.19605,0,0,0-24.61979-3.188q-3.63354-.27318-14.10792-1.03692a80.93762,80.93762,0,0,1-19.56058-3.75768q-9.08692-2.9945-14.16774-12.89189a23.90474,23.90474,0,0,1-2.82333-12.52042,22.11142,22.11142,0,0,1,4.08962-11.56319,27.3361,27.3361,0,0,1,10.128-8.57994q9.62907-4.94389,18.63347-3.31457a34.93516,34.93516,0,0,1,16.42212,7.84771,61.87563,61.87563,0,0,1,12.93716,15.21352l4.19041-2.15153q-13.64078-26.56732-18.24322-37.72528l-4.19041,2.15154a24.98245,24.98245,0,0,1,1.70919,6.83968,3.155,3.155,0,0,1-1.60123,3.24445q-2.13983,1.09864-7.56863.6188a70.37718,70.37718,0,0,0-7.69249-.50033,32.62364,32.62364,0,0,0-7.92153,1.13791,48.95121,48.95121,0,0,0-10.15419,4.03062,46.35364,46.35364,0,0,0-15.3544,12.3338,32.39308,32.39308,0,0,0-7.01156,17.063q-1.018,9.53709,4.29141,19.878a36.67824,36.67824,0,0,0,12.90978,14.72078,49.31586,49.31586,0,0,0,17.17264,6.78642,193.79473,193.79473,0,0,0,23.47156,2.70718,173.2635,173.2635,0,0,1,21.09305,2.46387,44.28876,44.28876,0,0,1,14.55854,5.42474,26.50161,26.50161,0,0,1,9.90986,10.8533q4.21215,8.20378,3.68332,15.4022a23.07169,23.07169,0,0,1-4.59439,12.55476,29.85757,29.85757,0,0,1-10.30755,8.55952q-16.3158,8.3772-30.04378.9489-13.728-7.42677-24.498-25.332l-4.19027,2.15147q17.3498,33.791,21.76313,44.1422l4.19041-2.15154a24.95741,24.95741,0,0,1-1.70926-6.83961,3.1542,3.1542,0,0,1,1.6013-3.24452q2.13972-1.09854,7.56849-.61873a53.76357,53.76357,0,0,0,13.15042-.49937,60.23123,60.23123,0,0,0,32.9375-19.559l.07976-.0997A22.43761,22.43761,0,0,0,295.22852,222.08289Zm62.28436-177.425c-.58009-3.1201-5.22575-4.379-7.2692-1.95084-2.06789,2.45732-3.13778,5.33808-4.73894,9.88275-3.05113,8.66079-6.29032,21.26758-7.676,26.67552a1.27371,1.27371,0,0,0,1.14289,1.58621l.40732.0297a2.02453,2.02453,0,0,0,1.97277-1.14583c1.99332-4.17286,4.09822-7.6604,5.61061-10.83226,1.79065-3.75543,7.97786-14.81044,9.02775-17.085C357.50441,48.5375,357.78418,46.1174,357.51288,44.65786ZM520.47893,8.87845c-5.26624-3.365-10.511-3.46952-14.50766,0s-1.45236,7.40181,8.49376,8.327S523.02557,10.5057,520.47893,8.87845ZM665.133,74.02916l10.5723,3.46166q12.09462,3.96019,16.84678,9.25993a19.06069,19.06069,0,0,1,4.69846,13.34961q-.05327,8.05025-3.487,23.69356l4.47652,1.46575q1.4553-6.37738,4.66772-16.18844,3.61735-11.04781,9.50439-24.518-16.38012-4.73064-54.95371-17.36076-38.86024-12.72405-54.86507-18.59722a251.30759,251.30759,0,0,1-6.7423,25.42235q-3.21246,9.8111-5.811,15.8141l4.47659,1.46582q6.48126-14.6457,11.20217-21.16741a19.05436,19.05436,0,0,1,11.68392-7.98558q6.9645-1.46155,19.061,2.49747l10.5723,3.46167L610.7038,179.0657q-2.65116,8.09664-5.40644,11.35929a9.34592,9.34592,0,0,1-7.22406,3.382q-4.46812.11881-13.22922-2.43342l-1.27871,3.90511q9.5208,2.48471,29.04687,8.87807,18.38106,6.01858,28.48208,9.95862l1.05474-3.2213a47.36665,47.36665,0,0,1-11.71765-6.42314c-.05422-.0409-.1122-.08208-.16471-.12284q-.22155-.17178-.4304-.34956c-10.35918-8.40662-10.85855-19.20987-7.58467-29.2085,3.22683-9.855,16.331-46.23761,18.57023-52.76242a1.68247,1.68247,0,0,1,.76986-.9222l.02-.01127a.91223.91223,0,0,1,1.22518.31972l.07471.12216a1.68733,1.68733,0,0,1,.18368,1.34167c-1.79686,6.32385-10.375,35.8279-15.77,54.46431a20.18415,20.18415,0,0,0-.18751,11.53642.26111.26111,0,0,0,.50237-.00635q.48459-1.81564,1.16058-3.88087ZM777.27949,176.36207c-.48524,17.24659-.6793,21.39343-1.9966,48.50052-.36546,7.52124-.78822,15.26816,2.68881,22.63111a.73192.73192,0,0,0,1.39227-.2713l7.24195-131.37623-3.0135-1.36271-95.26284,93.42289q-11.79041,11.71881-22.0528,9.60633l-1.69307,3.74409q5.817,1.97063,14.21964,5.77026,10.86609,4.9137,21.30343,10.29343l1.69314-3.7441q-8.22848-3.94-11.04361-8.29368-2.81656-4.35186-.13179-10.28891,2.64224-5.84313,10.68149-13.64864l16.63189-16.34741,45.11171,20.39968-2.369,35.88628q-.32756,6.56228-1.77276,9.75779a5.78636,5.78636,0,0,1-5.41292,3.82173q-3.72153.078-10.96658-2.86928l-1.69307,3.74416q8.1922,3.04467,24.17327,10.2713,12.41809,5.61552,19.8426,9.63283l1.57159-3.47533c-8.10036-6.14494-16.3444-15.09846-16.23583-31.49695.19448-29.38414,4.12465-56.13416,4.70248-64.49237,0,0,.0758-1.74162,1.14105-1.58456A1.65883,1.65883,0,0,1,777.27949,176.36207Zm-13.90675,24.67175,4.31913-65.25252L721.00071,181.873ZM326.4903,173.18276l43.62548-16.10424L327.379,107.57994Zm-158.967,716.72772c-4.05643-3.21721-5.45526-9.93131-2.65767-10.7706s3.35705-2.51776.27976-5.595-10.34716-10.99991-11.28936-12.88438-3.769-3.76895-6.03036-5.8419-19.03322-24.8751-23.1791-36.37042S115.978,793.9499,121.06611,788.485s20.35235-1.13067,24.68663.18846,10.36465,3.58049,11.68379,3.20362,1.804-2.33065-7.86082-12.66068c-8.25824-8.82658-26.89267-38.19132-29.71566-41.01438s-4.58742-8.99832-7.05751-11.46848-5.11677-12.52718-8.99839-16.23235-10.057-2.64661-19.23179,2.11726S60.5767,727.96857,55.28355,736.08471s-7.58686,21.702-8.64549,25.40712-1.23508,5.646-3.17589,5.99895-3.88162-3.17589-6.35178-3.70524-6.35178,1.23508-8.11614,7.76331-7.93976,22.937-7.58686,27.70083,6.52823,25.58356,12.17421,34.582,8.64549,15.35017,7.58686,16.93808-4.94025.00239-11.11558-4.498-16.76169-8.5585-19.76113-8.38205-8.29259,6.88113-9.52767,10.057,2.47015,21.349,8.82193,41.11019S27.22982,932.63719,39.0512,948.1638s35.28769,30.87672,40.93374,33.69971,11.46848,4.411,12.17428,5.646,5.646,4.411,8.11614,4.23452,7.41041,3.88162,11.46848,2.29371,6.1754-4.58742,5.8225-9.88057-4.411-5.99888-7.58686-9.52767-3.70517-5.99888-1.41153-10.9392,4.411-3.88162,7.05758-2.64654,11.292,6.52823,12.52711,3.35234,2.82306-4.94032-2.47009-7.58686-10.40992-6.35178-9.70412-9.52767,4.7638-6.17539,9.8805-3.35234,10.057,4.76381,13.58581.70574,3.23543-7.607-2.36377-12.4339-9.6538-12.93608-6.95072-16.4114,7.33687,2.70308,12.743,5.21305,9.96293-.87869,10.66237-2.9769,0-7.69325-3.497-12.72883-2.23806-10.63068-.41962-12.589,7.27363-1.58109,11.33007,2.007,8.25278,4.1476,9.79145,2.32922S171.57975,893.12768,167.52332,889.91048ZM45.47639,827.82312c-7.53442-2.97874-10.86361-16.12022-11.214-19.97507s3.7469-3.62965,6.30787-3.154c2.285.42446,4.55574-1.05133,1.92743-3.32919s-3.154-5.08133-.70088-7.88486,7.35926-1.40176,11.73971,5.43184,6.48316,12.96625,6.48316,21.02633S53.01087,830.80181,45.47639,827.82312Zm970.434,82.67113c.87187-7.62913,3.36347-13.51445,1.2458-19.1818s-3.64344-7.41116-3.64344-7.41116.65391-5.01346-1.5259-7.1932-6.10322-6.97522-7.19306-9.5909-4.79555-8.719-8.28317-11.11674-6.32119-7.41123-9.80893-7.41123c-3.48748,0-7.8471-3.70558-8.501-5.23135s3.26964-7.19319,2.61561-9.37294,4.35961-5.23763,1.74387-11.11988-5.23135-8.71589-13.51445-11.33163-23.10542-1.30781-29.20871-3.48762-4.35948-11.33471.218-16.13012,8.719-8.937,9.37293-17.00213-1.96177-18.74587-6.97515-21.36155-8.719,1.08984-10.68081,4.14152-8.937,6.10329-11.98868,12.20664S898.80615,790.029,889.298,792.88137s-31.37691,3.32789-43.26213,4.041-27.09821,6.418-39.69654,17.35237-30.1884,22.34417-30.90151,30.9015,8.31963,13.07367,12.12293,14.26225,5.93373-5.14443,7.58857-6.79926,7.07055-1.50439,7.37141,1.354-2.85829,6.31832-2.85829,7.97315,3.31478,4.15531,7.94741-.37871,9.65946-2.7599,11.53226-.8871-2.7599,9.46232-3.25272,11.43365,5.32259,1.67566,13.5036,1.47852,16.16488-3.35125,22.17742,3.05557,7.98387,14.11332,2.36554,18.04676-15.7706,8.96036-16.85477,10.24174.78849,1.47851,3.25264,1.47851,4.9283.98564,4.82977,3.9426-2.56276,10.64516-1.77419,13.20792,7.98387-2.26708,12.91217-.9857,8.14168,8.58164,4.08675,12.27889-5.4862,8.22922-3.81648,11.21084a8.48941,8.48941,0,0,0,9.06408,3.69718c2.98162-.95409,7.63295,3.69725,4.65133,7.87147s-3.69718,7.27514-2.38528,9.30267,5.3669,4.17422,8.82556,2.02747,5.72472,8.34851,3.10085,11.56865-2.14676,6.55957-.23852,8.34852a8.63064,8.63064,0,0,0,10.13752,1.19267c4.055-2.38528,9.04114,2.98162,6.96546,6.321s-10.84353,11.44745-5.0284,18.485c1.97338,2.38822,8.06506,2.61575,11.77064-2.17974s11.98868-11.11674,16.13019-12.42461a56.62063,56.62063,0,0,0,12.64258-6.10329c3.26965-2.17974,10.89878-3.05168,13.29649-3.05168s9.155-5.01345,13.29648-5.44939,8.719-2.83364,12.20664-6.10329,8.283-1.96177,12.42469-6.10328c4.14137-4.14159,17.87386-18.30994,19.18166-22.88746s5.88539-.43593,10.245-1.30787c4.35935-.87187,4.57731-4.79542,4.14138-12.20658S1015.0385,918.12338,1015.91037,910.49425Zm-20.58985-35.15794c6.3302,1.78033,9.49524,7.71489,10.48428,12.26468s-4.94537,5.1432-9.693,2.96721-7.7149-7.71482-7.91265-11.07775S991.62314,874.29639,995.32052,875.33631Zm.19789,42.135c-8.11054-3.95632-17.60577-13.45156-18.79271-16.02319s-.5934-6.33013,2.57163-6.73309,7.9651-1.54475,16.22108,2.1833c5.2614,2.37585,6.52782,7.31925,8.30816,10.22172s4.54987,6.59276,4.54987,10.35126S1003.62882,921.42765,995.51841,917.47132ZM773.26494,861.177c2.99426,1.99617,8.48374,3.74282,12.85037,5.24s6.73708,3.49331,5.24,5.739-2.99426,6.73709-4.49139,6.73709-12.47608-3.36854-16.46843-4.74091-9.73135-3.86759-9.60659-5.48948,5.739-10.85419,5.739-10.85419C767.57007,856.06506,770.27068,859.18085,773.26494,861.177Zm113.661,180.85262c-.91844-6.4288-5.20431-20.81717-8.57181-28.31744s-10.25545-21.58245-11.93924-22.19477-1.83681-6.27571-3.52052-7.19415-9.031-16.83735-11.78615-21.07665-7.95949-13.6696-9.64327-15.81253-1.53069-6.42881-3.06131-8.26562-2.75525-4.439-5.35741-8.72484-5.05121-9.33708-5.66346-9.18406-9.64321,1.83682-22.34779,3.3675-58.47171-1.07146-61.22689-1.53068-14.08217-3.3675-16.22511-3.21441-9.64328,3.3675-15.919,7.34725-16.3782,5.35734-21.27639,11.48-7.8064,12.70458-11.78614,12.55149-1.07147-3.82665-3.06138-3.82665-7.041,2.75518-8.57174,4.439-3.2144,7.50028-6.888,10.40855-13.1638,6.12269-16.07208,5.20432-1.07147-4.7451.30613-7.9595.97265-5.83322-1.82575-5.23353-6.99592,2.39859-10.59388,3.59789-8.99477,2.79841-13.792,6.3963-10.19414-1.39917-17.98961,5.197-13.9919,8.19528-16.79031,8.19528-2.59847-2.3986-6.62929-3.398-4.56421,2.79834-8.1621,2.39859-16.19069,2.3986-21.18776,3.398-13.59216-1.799-22.387-1.19929-19.18891,3.398-25.1854,2.99828-19.78859.99942-24.38591,1.39917-12.19292-2.3986-13.9919-3.398-13.39229-3.19815-27.18425-4.79726-27.78393-7.39573-30.78221-9.39451-4.59732-1.19937-14.99133-1.19937-66.56149-4.39745-71.95836-5.79662-28.78336-8.19528-32.58113-8.19528-25.18546-7.19579-27.9838-7.99534-5.99656-4.39745-8.19528-4.59732-8.595-2.59854-11.59331-4.79726-11.39336-4.7972-14.79139-8.19522-9.20952-5.82714-10.58718-7.43438-11.48036-8.26582-12.62838-11.02114-4.13291-4.8217-5.96979-5.96972-6.19937-6.19943-7.11781-5.74021-2.52567,3.21453-6.65858,9.87312-8.03625,13.54675-9.18427,18.36853-4.36255,5.05135-6.65858,8.49546-12.3988,22.96066-12.16916,24.56789.22958,6.88823-2.06645,8.03625-5.58692,9.10737-7.72985,13.69936-2.14294,17.44968-5.51037,20.81718-7.5452,14.77322-10.89932,33.17589c-1.29374,7.09855,4.01908,12.08831,6.92736,15.31548s5.66353,5.95681,6.735,7.94672,12.24536,11.327,12.24536,11.327l5.20424,3.97975c5.20431,3.97968,26.48064,19.59261,32.75642,26.78676s27.246,17.60263,36.88918,20.05176,16.53131,6.27585,20.05183,10.40862,11.1739,9.94933,16.68433,13.16367,10.71468,3.36757,15.30667,5.81656c4.59207,2.44926,11.02087,4.28587,15.30674,5.81655a61.20489,61.20489,0,0,1,7.65337,3.36757c1.98991.9183,8.87793.76535,8.87793.76535s1.2245,2.75518,6.58184,5.3574,11.02087,1.53069,12.55155,3.52053,6.27571,2.90814,10.56165,4.59206c4.28587,1.68365,23.72539,5.66333,24.95,7.34711s7.34718,1.22463,9.7963,1.83674c2.44906.61239,3.97975,2.75532,7.19415,3.21447s17.90883,1.83675,22.3478,3.82672,19.28648,2.90828,32.45029,4.28587c1.702.17823,15.919,1.37759,18.82726.91844s10.56158,1.2245,18.06192,1.83675,33.06254,3.06137,36.79134,4.89811,9.12881,2.14308,18.772-1.68364,11.93924-8.72484,13.46993-10.71482c1.53068-1.98983,8.41871-1.83674,9.49018-.15295,1.07147,1.68364,3.82665,1.98983,6.27578,1.98983s4.43889.3062,5.81655-1.07153c1.3776-1.37746,4.4389-.61211,7.19415.30619s9.49018,2.60222,15.15365,3.97968c5.66346,1.37773,15.76589,1.83688,18.52114,1.07153s4.89812-1.98983,7.8064-1.98983,18.98036-3.97968,24.03157-5.05122,10.71468-1.22449,19.43951-4.13291c8.72484-2.90814,41.94047-11.17383,47.91006-12.70451s11.93924-4.89812,15.766-7.34725,6.12268-.61225,9.64321-2.44913,9.33708-5.05121,13.62295-6.888,7.34725-4.59192,10.40862-7.34724,7.04106-3.52053,7.50028-5.20431-1.68372-1.68365-3.06138-1.37746-3.97974.61211-1.98984-1.68392a9.55536,9.55536,0,0,1,7.65337-3.52052c2.90828.15323,5.66346.45929,8.11252-1.53069s8.57181-.45915,10.86778,1.22463,4.74509,3.06124,5.51043,1.98984,2.90828-.91844,5.51043-2.44913,2.60216-.9183,2.75519-7.04105,1.07146-10.40862,5.20431-13.1638,9.031,2.75518,10.86777,6.12275,3.06131,2.90828,5.35734,1.53068,18.82726-14.0821,22.04167-17.29657,14.69449-8.87794,18.67423-11.78622,7.9595-4.13291,11.93924-8.11259,6.27571-8.57174,8.87787-12.85761,7.95949-5.51043,8.87793-7.50027S887.84428,1048.45846,886.92591,1042.02965Zm-530.18759-5.97013a38.90361,38.90361,0,0,1-9.993,13.504q-6.77092,6.06776-17.6897,8.45689-10.92048,2.39037-25.19407-1.36585l2.16322,1.37916q7.94832,5.101,11.8334,10.15283a23.72671,23.72671,0,0,1,4.7709,11.28854,47.90169,47.90169,0,0,1-.8,15.22412l-3.679,21.48575a67.87574,67.87574,0,0,0-1.505,10.22535,13.78294,13.78294,0,0,0,.85964,6.17027,6.69083,6.69083,0,0,0,3.63832,3.45388,8.83253,8.83253,0,0,0,5.91154.62932,39.48786,39.48786,0,0,0,7.644-3.36838l1.95542,3.38723a39.5807,39.5807,0,0,1-12.00452,5.29868c-5.13042.46462-11.373-3.13034-11.37889-17.01565-.00355-8.15206,3.4291-27.57505,4.50268-34.80675,1.57384-10.60064-.89031-16.47135-2.36889-18.90293a.38091.38091,0,0,0-.70464.24419c.33221,2.59416.62816,8.34-1.26622,17.17667-1.93773,9.03854-3.43933,16.2-5.66721,28.93584-1.596,9.1239-2.01477,16.01677,1.5597,21.02428a.28066.28066,0,0,1-.35972.41081,19.30045,19.30045,0,0,1-8.80685-9.12513q-3.04673-6.72995-.65343-19.38789l4.03554-20.779a134.33369,134.33369,0,0,0,2.39771-17.127,20.969,20.969,0,0,0-2.33653-11.17219q-2.654-4.96019-9.81289-8.06253l-18.12932-7.85666-18.97681,43.78937q-3.103,7.16034-3.35016,10.91653a7.74542,7.74542,0,0,0,2.34254,6.31586q2.58969,2.55866,9.34985,5.81874l-1.6519,3.8117q-8.49826-4.34521-23.93085-11.0333-16.364-7.09172-24.6-9.99822l1.65189-3.81184q7.00015,2.70226,10.63908,2.84382a7.75319,7.75319,0,0,0,6.21043-2.60932q2.57117-2.75,5.67487-9.909l40.935-94.4585q3.10194-7.15778,3.35016-10.91639a7.7604,7.7604,0,0,0-2.34253-6.31593q-2.59287-2.55732-9.34986-5.81867l1.6519-3.81184q7.75309,4.02237,23.00094,10.63035,7.43721,3.223,16.48992,6.92524,9.05127,3.70257,12.39942,5.15269,14.87359,6.4457,23.32161,15.24173,8.446,8.7955,10.40923,18.53582A31.612,31.612,0,0,1,356.73832,1036.05952Zm87.687-29.94933c5.2093-2.17264,17.35824-7.23007,26.20709-10.03783,4.64348-1.47326,7.62025-2.36275,10.86258-2.18882,3.20389.17187,5.01495,4.68848,2.84907,7.05573-1.01315,1.10732-3.13724,2.35435-6.70741,3.12843-2.47507.53666-15.16552,2.26981-19.287,3.10972-3.48112.70949-7.57771,1.13265-12.1596,2.063a2.04691,2.04691,0,0,1-2.12579-.89523l-.22384-.347A1.28776,1.28776,0,0,1,444.42535,1006.11019Zm22.60919,156.47012q-16.345,7.237-35.25423,4.21349-19.511-3.11976-32.761-14.26853-13.25075-11.14705-18.62453-29.19573-5.37543-18.04581-1.67866-41.15976,3.61551-22.61052,14.704-38.69391,11.08755-16.08153,27.43233-23.31888,16.34232-7.23757,35.25429-4.21362,19.51095,3.11987,32.761,14.26859,13.248,11.14921,18.62446,29.19567,5.37288,18.04775,1.67873,41.15976-3.61592,22.61308-14.70412,38.694Q483.37707,1155.3426,467.03454,1162.58031Zm52.84443,26.523c-3.96315,4.21445-9.76537,6.19718-12.58235,3.56819-2.81691-2.62926-5.07047-8.26309,0-9.57772s9.01423-2.81691,11.83115-1.6902S521.97063,1186.879,519.879,1189.10335Zm75.60864-32.63022q-35.36541,2.66518-51.08015,4.459l-.3122-4.14247,75.91667-144.1181-43.44692,3.27423q-12.93464.9748-19.37785,5.11847a21.00087,21.00087,0,0,0-8.82412,12.35039q-2.38,8.20767-2.831,23.78752l-4.74851.35789q.111-6.61246-.67315-17.02016-.88324-11.71974-3.40957-26.36571,15.301-.54349,51.57576-3.27716,35.16136-2.64982,50.17071-4.39055l.31221,4.14261-70.79963,135.61778a.50675.50675,0,0,1-.95-.15078,8.788,8.788,0,0,1,.336-3.443c2.31405-8.7893,37.69372-74.58681,37.69372-74.58681s.54956-1.14241-.51207-1.60163a1.32679,1.32679,0,0,0-1.74422.6653s-38.472,68.56239-42.43451,75.831c-3.96247,7.26831-3.08507,12.545,6.40224,11.83005l25.54731-2.2638,14.90078-1.12289q12.93188-.97449,19.37779-5.1184a21.00949,21.00949,0,0,0,8.82419-12.35039q2.37788-8.20491,2.83064-23.78752l4.74884-.358q-.13684,7.63133.572,17.02781.80714,10.71091,3.51076,26.35806Q631.65806,1153.74745,595.48761,1156.47313Zm179.84233-48.17077q-16.50683,6.479-24.4897,10.2655l-1.51785-3.86715q7.24577-3.17076,9.81317-5.91994a5.85021,5.85021,0,0,0,1.04948-6.61646q-1.29541-3.30043-5.81772-8.16626L730.044,1066.97113l-46.59426,18.2887.11069,23.57721q-.01773,11.32917,2.35257,17.36363,2.407,6.13237,7.54582,7.16137,5.13954,1.03125,13.7966-2.14976l1.51792,3.86714q-11.25757,3.76568-22.48163,8.17118-8.679,3.40635-14.20891,6.2301l-1.51785-3.86715q8.7695-5.94473,8.59564-22.74945l-.48114-134.89559,3.11259-1.2217,90.05456,97.90665a.74.74,0,0,1-.78549,1.19977c-7.7857-2.67447-13.099-8.44473-18.28924-14.0143-18.70592-20.07306-21.57282-23.1384-33.7232-35.6541a1.677,1.677,0,0,0-2.16233-.343c-.86511.6608.343,1.94409.343,1.94409,5.64673,6.31374,22.2511,28.02757,43.39836,48.89343,11.80165,11.64459,24.10171,11.98793,34.26607,10.45451l1.40894,3.58963Q788.15758,1103.2674,775.32994,1108.30236Zm-435.7812-105.20179q3.97165,11.22-2.79609,26.83784a47.973,47.973,0,0,1-9.96059,15.3402,23.96641,23.96641,0,0,1-14.79515,6.61912q-9.02515.94971-21.85456-4.61194l-12.8301-5.56007,20.3064-46.85744q2.9404-6.78525,5.54751-9.74325a8.16765,8.16765,0,0,1,6.16577-3.01521q3.55806-.05768,9.50944,2.51987Q335.57609,991.88192,339.54874,1003.10057Zm343.343,11.407,44.21936,49.15182-43.76458,17.178Zm-186.07318,68.58758a1.92,1.92,0,0,1,.40049,1.39221c-.52689,4.875-3.18893,33.64043-19.57527,55.8029-5.74485,7.76993-13.78752,15.34457-24.16773,19.89866a33.39145,33.39145,0,0,1-8.85451,2.95963l-.00772.00205a14.5177,14.5177,0,0,1-2.1529.316,34.26532,34.26532,0,0,1-9.28833-.24692q-12.607-2.01579-21.55473-12.47658-8.94792-10.45916-12.35906-27.6294-3.41137-17.169-.00341-38.48052,3.37553-21.11,11.39425-36.60655,8.0191-15.49473,19.48834-23.0499a33.63,33.63,0,0,1,24.57649-5.45929q12.60708,2.0159,21.50454,12.46866,8.8963,10.4531,12.30935,27.62141,3.41136,17.16891.00348,38.48037a145.63534,145.63534,0,0,1-3.48195,16.1121.38059.38059,0,0,0,.71318.25908,129.001,129.001,0,0,0,9.2537-30.28708,2.14862,2.14862,0,0,1,.68832-1.12507l.08078-.06214A.74249.74249,0,0,1,496.81856,1083.09518Z"/></svg>