<svg xmlns="http://www.w3.org/2000/svg" viewBox="0 0 1871.84228 291.98779"><defs><style>.a{fill:#ede9df;}</style></defs><path class="a" d="M132.69745,31.46467c-.09-2.45732.58274-3.69068,4.85616-4.66191s8.35259-.48562,9.90656,1.554-1.35972,2.331-2.91369,2.23383-2.58845.31623-2.58845,1.27435.63874,1.14062,2.23561,1.23186,3.1481.59313,3.1481,1.14062-.04562,1.18624-2.00748,1.00375-3.55873-.5475-3.96935.50187.31937,1.14061,1.04936,1.18624,2.64624.1825,2.96561.59312a1.10688,1.10688,0,0,1,.09125,1.04937c-.04563.22812-.22812.50187-1.55124.45625s-2.73748-.09125-2.73748.31937-.22813,1.23186,1.41436,1.23186,1.64249.27375,1.64249.9125S144.238,42.678,142.93834,42.678s-2.1699.22812-2.16823.91249.2298,1.00375,1.32479,1.00375,1.77937.04562,1.87061.63874-.09124,1.18625-1.23186,1.04937-1.96521.04563-1.96354.82125.95979,1.00374,1.64416,1.00374.82125.77562.82125,1.27749a1.11387,1.11387,0,0,1-1.095,1.27749,1.19144,1.19144,0,0,0-1.18625,1.27749c0,.50188.09125.86687,1.095.86687s.68437.86687.50187,2.19-.50187,6.205-.86687,6.61558-1.12557.27375-1.384-.63875-4.63843-13.41366-5.73342-18.06738S132.92682,37.72563,132.69745,31.46467Zm-36.5953,83.48444c.46115-.3294,7.37843-3.7551,7.37843-4.47976s-1.58109-3.55746-1.647-5.995,2.701-5.995,9.75006-9.42067,17.85317-4.94091,19.69777-4.875,1.97637,1.2517,1.05407,1.97636-7.31255,5.27031-7.97134,5.73146-.98818.9223-.65879,1.11994a4.19745,4.19745,0,0,0,1.63928.14835c.53809,0,9.865-7.44359,16.053-11.65863s11.569-7.98168,11.03086-8.34041a21.51157,21.51157,0,0,0-12.64513-1.34523c-3.31822.71746-22.01768,8.48342-24.7288,9.33957s-3.3707.67792-3.2548,1.60512-.81131,2.318-1.62261,1.62261-2.43391-.57951-2.43391.6954-1.2749,2.66571-2.08621,2.08621-2.54981-.6954-2.66571,1.159-1.85441,1.50671-3.12931,1.04311-1.159,1.5067-1.39081,4.05652-1.39081,2.20211-2.43391,1.9703-1.27491-3.12931-1.50671-4.17241-1.5067-1.159-1.7385.8113,1.9703,14.13986,2.54981,16.45787C95.342,114.48511,95.641,115.2785,96.10215,114.94911Zm98.4722-20.46566c-.60516-.055-1.54041,1.65044-2.20059,2.75072s-1.84361.991-2.84274.62184c-1.24462-.4598-1.47088-2.689-.81838-4.57788a.87612.87612,0,1,0-1.67528-.44514c-.3851,1.48541-1.42868,2.44754-2.42067,2.20059a1.61364,1.61364,0,0,1-1.16663-2.13218c.2117-1.10377.40619-2.39075-.1537-2.76412-.22885-.1526-1.40145-.62469-1.8889.21091-.58279.999-1.1563,1.12694-1.86849.89361-.58452-.19147-.91886-1.4346-.97388-2.1498a1.59647,1.59647,0,0,0-1.15712-1.41852c-.72491-.32218-15.619-5.747-17.09925-6.35a2.89785,2.89785,0,0,0-3.125.54824c-.82237.54823-18.91438,14.47359-19.13366,14.6929s.32893,3.78288.43858,7.07233-.932,17.10517-11.45829,19.29816-17.48893-4.87937-18.03717-6.08552,1.64473-4.16662,1.97366-4.55041.16449-1.09647-.21928-.932-3.28945,2.08334-5.04383,3.125-7.59125,4.4477-7.40129,4.87935a5.26414,5.26414,0,0,0,2.43588,2.89012,72.8423,72.8423,0,0,0,7.37213,3.32934c2.7586,1.18906,5.0416,3.18668,7.1819,7.37215s1.33175,8.18069,2.283,11.41491a12.69866,12.69866,0,0,0,4.09035,6.23065,2.58815,2.58815,0,0,0,3.85254-.71341,3.66589,3.66589,0,0,1,2.37811-2.18787c.90369-.19025,1.71223.09512,2.09275,2.56836s.80854,3.13909,1.71223,3.94766,3.13909.61829,3.75742.61829,1.56955-.19024,1.95-1.85491,1.23662-2.711,2.33056-2.711,1.42686,1.71223,1.90247,3.51958,1.99763,2.33055,4.89892,2.33055,3.805-1.18905,4.09034-2.18784.42806-2.7586,1.85495-2.80619,1.56954.90369,2.09272,2.18787,1.9025,1.47442,4.61354,1.04637,2.23541-2.90129,2.23541-3.99522.761-1.71223,1.33174-1.56955a11.88228,11.88228,0,0,1,2.66348,1.85492,5.52085,5.52085,0,0,0,4.51843.71344c1.80735-.42808,2.78638-3.41,3.98293-6.93666s1.82631-9.69839,2.14119-11.71364.44085-4.09349,6.42362-8.75374,9.25754-7.5572,10.9579-11.33579,2.58207-11.08387,2.6678-14.4604C196.20836,94.48423,195.1795,94.53845,194.57435,94.48345Zm-43.50883,39.25018c-.75175.85911-2.57742,1.1813-3.11438.32216s-1.631-4.08088-2.15788-5.3696-.20747-3.584-.90414-3.18809-.80409,2.11418-.80409,3.72505a7.50083,7.50083,0,0,1-1.14669,4.08091,2.40963,2.40963,0,0,1-2.16823,1.28868,4.00626,4.00626,0,0,1-2.91382-2.79219c-.32218-1.39607.75173-3.11436,2.36263-7.19526s3.007-8.52669,4.72525-8.18315,4.51045,5.13611,6.12135,9.076S151.81725,132.87449,151.06552,133.73363Zm25.44593-20.98749c-2.17476,4.99385-7.49082,4.34948-8.699,4.0273s-1.69146.56383-.08054,1.82561,4.67167,1.799,2.89964,2.20171a15.56948,15.56948,0,0,1-10.22935-2.20171c-3.94675-2.44335-7.32971-4.48363-7.93649-10.76622s.20406-9.90718,6.08392-13.6123,10.64828-2.60829,15.06215.886C179.41108,99.69767,178.68617,107.75229,176.51145,112.74614Zm-10.95428,3.14131c.358,1.46149-.16111,1.85254-.96656,1.53036a1.43589,1.43589,0,0,1-.96655-1.53036C163.62406,115.24308,165.3469,115.02916,165.55717,115.88745Zm74.71193-44.7844c-.08516,1.9582-.17028,5.19348-2.89473,6.8111s-4.8529,2.6393-4.8529,3.49068.57036,1.924,2.33924,2.86746,1.35616,1.9458.70756,3.8326-1.06133,2.65335-1.76889,3.184-1.23824,1.00238-1.1203,1.9458.21893,3.48258-.75735,4.99139-2.707,1.9526-5.059,3.55017-13.84565,4.92586-21.301,5.90215-6.701.04439-7.23347-.26625.18667-1.7892.46231-1.74327,1.4242,1.1945,2.84842,1.2864a6.46024,6.46024,0,0,0,1.91682-.09c.21112,0,0-1.02907,0-1.26655s-3.50943-1.95263-4.03716-2.322-.13194-1.24019.07916-1.55683a2.08917,2.08917,0,0,1,2.05817-.1583,17.14906,17.14906,0,0,0,3.37751,1.24016c.65967.02639.87076-.21109.84437-.50134a26.84645,26.84645,0,0,0-3.9844-3.21918,4.41169,4.41169,0,0,1-1.71514-1.68877c-.39581-.63328.2111-1.47765,1.21378-1.3721s2.42759.94991,4.45937,2.05817a43.05014,43.05014,0,0,0,5.33014,2.61229c1.1874.39579,1.45125-.15833,1.5568-.42218s.21109-.76522-1.161-1.74153a100.27416,100.27416,0,0,0-23.0186-12.4253c-13.35194-5.18135-23.06637-6.91144-29.71889-8.82309s-9.45848-3.288-15.81678-3.288-11.94032,2.21752-21.19269,5.73494-31.73331,11.62281-38.6917,15.752a70.00372,70.00372,0,0,0-13.61091,10.62873c-.91758,1.07053.25622,1.1588.63935.96725s4.853-3.06509,7.24763-4.62954a62.65123,62.65123,0,0,1,7.18377-3.991c.57468-.15963,1.02169.12771.98975.54277s.03194.70241-1.50061,1.50061-6.16206,3.63979-6.51327,4.18256.22349.9259,1.53254.894,6.7687-3.00121,7.47111-3.41628a.72842.72842,0,0,1,1.18133.51086c.06385.41507.54277,1.309-.95784,1.756a23.18222,23.18222,0,0,0-5.14037,2.87351c-.5428.47892-.22352.95784.67047,1.02169a10.7998,10.7998,0,0,0,4.11868-1.18133,16.59894,16.59894,0,0,0,1.94762-.98977c.41506-.22349,1.08553-.22349,1.43675.894a4.11446,4.11446,0,0,1,.1277,2.52229c-.19155.54277-.60662,1.21327-2.96927,1.27712s-15.53386-.75061-19.77606-.66578-5.80039-.202-6.78007-.91454-4.0078-3.87421-4.4531-5.789a8.76535,8.76535,0,0,0-2.31563-4.275c-1.24688-1.46955-2.31562-2.80548-2.40469-4.72032s.17814-4.00781-1.11327-5.61092-4.00172-1.69219-4.38328-3.91874a14.16562,14.16562,0,0,1,0-4.34668c.4368-2.62077,10.17658-9.78365,14.88867-13.89161S71.28811,57.5259,72.25469,56.801s1.69895-.376,2.57428,0,3.76387,1.317,5.25191-.42275A8.21011,8.21011,0,0,0,81.744,49.124c-.35013-1.313-.11011-1.46269,1.37221-2.5497s2.42109-1.72937,3.45872-1.03762,5.83044,4.34812,7.41155,4.89163,2.81641.44469,3.11287-2.32229.4815-12.61762.53538-14.07245.24932-1.3982,2.65807-4.26574,7.34091-8.71733,9.17615-11.81427,4.53071-5.50567,5.62038-7.1115,2.86754-4.64543,4.53071-6.19389S121.97143,2.182,122.717,2.182s1.2617.45881,1.43377,2.06462,1.49111,2.86756,1.83521,6.19389,1.89259,15.14063,3.61311,23.68592A197.30185,197.30185,0,0,0,136.94,59.81963c1.66318,4.01455,2.92491,6.59536,4.87484,6.48065s3.441-6.13655,4.58806-11.98634,4.53072-14.50975,6.71006-26.20933,4.47337-23.74324,4.93218-25.52114,1.60581-2.63813,2.52341-2.58078,2.35141,1.77789,4.416,5.27628,12.28189,17.38017,20.966,24.95752S204,46.3277,208.68265,50.32922s20.77384,13.62219,26.05244,16.09121S240.35422,69.14489,240.2691,71.10305ZM84.47222,52.14273s.71,2.20888,1.42,2.68223,1.57778.31554,2.91888-.55224.71-2.76108,0-3.66832-2.36665-2.09053-3.3922-1.53833S84.31445,50.565,84.47222,52.14273ZM57.606,83.17129c2.16479-1.158,3.5941-3.25981,6.2763-4.28536S74.69,71.23374,77.13558,68.86709s2.44554-2.84,2.36665-3.31332-1.3411,0-2.84.86778S69.089,71.23374,65.539,73.206a74.61753,74.61753,0,0,0-10.72884,7.86627c-1.97222,1.79186-2.16974,2.4381-1.81445,2.94146C53.94236,85.35479,55.44126,84.32924,57.606,83.17129Zm4.09294,6.3646c-.41995-1.02556-1.4455-1.89334-3.26,0-1.0428,1.08815-1.02555,2.0511-.39443,2.52442a1.9679,1.9679,0,0,0,2.44554-.31555C61.35789,91.03476,62.11889,90.56144,61.699,89.53589Zm21.609-5.04008c.09382-.84435-1.39841-1.53089-2.72061-.5629-2.25825,1.65329-11.164,7.0361-14.82274,9.85054s-4.22167,3.0959-4.034,4.034.93816,1.87629,2.533.75053,13.13407-8.25572,15.47942-9.94438S83.21409,85.34013,83.3079,84.49581Zm9.94438-7.09614c-1.59485-.06-4.20114,1.303-5.91034,2.78065-1.34861,1.16592-.65668,3.84641,1.40722,2.72061a18.97214,18.97214,0,0,0,4.50312-3.09588C94.00281,78.96074,94.84713,77.45968,93.25228,77.39967Zm.90638-14.21255c-.64794-.31554-3.37538.71-5.66314,2.99777a144.99152,144.99152,0,0,1-11.43883,9.70329c-3.55,2.6822-9.38771,6.31107-11.35993,7.57218s-2.84,3.3933-2.13,4.18219.94666.63112,2.28776,0,12.06994-8.67773,18.22323-13.96324,6.70552-6.86332,8.20442-8.04665S94.80661,63.50267,94.15866,63.18712ZM198.68282,65.0587c.31382-.62757-.05286-1.49221-1.0669-2.69862-1.23606-1.47059-3.95379-4.51861-5.08345-4.89516s-2.071-.31381-2.00827.69034.31379,1.44344,2.25932,3.2007,2.69862,3.51447,3.82828,4.07931S198.369,65.6863,198.68282,65.0587Zm8.47243,21.02417c-.69273-.92059-1.5062-1.75723-2.25932-1.25517a1.29314,1.29314,0,0,0,0,2.071c.6276.62758.75312,1.63172,1.88278,1.63172S207.80312,86.94385,207.15525,86.08287Zm12.04966,4.51861a22.83388,22.83388,0,0,1-3.389-1.31793c-2.00915-.98162-3.996-2.27574-4.64416-2.63586-1.12965-.62758-1.84649-.31379-1.61358,1.0669s1.9644,2.76138,3.92278,3.70276,3.84116,1.94554,4.97082,1.50621S220.448,91.02735,219.20491,90.60148Zm1.12966-6.90344c-1.88275-.87863-9.351-3.76552-12.6145-5.96209s-5.28084-3.14232-6.93938-4.14425-2.7882-.37436-2.851.44149.37655,2.25932,4.20483,4.51864,10.85724,6.33862,13.24207,6.9662,5.33451,1.19241,6.65244.50208C222.7539,85.64042,222.21734,84.57667,220.33457,83.698Zm5.08345-5.33449c-.06276-1.12965-3.20068-1.38068-5.08345-2.38483s-7.65656-3.82828-11.23381-6.9662-5.8993-5.08345-6.90345-5.27175a1.19619,1.19619,0,0,0-1.38068,1.44347,13.10121,13.10121,0,0,0,3.76552,4.76964c2.51035,2.19656,7.15447,5.14621,10.04139,6.02484s6.5269,2.13381,6.5269,2.13381C223.47252,78.99113,225.48078,79.49321,225.418,78.36355Zm1.048-7.06982c-1.03045-.53976-4.269-.63789-16.87978-10.5008S195.209,48.37846,192.46118,47.9859c-1.57022-.04906-1.57022.7851-1.423,1.423a5.136,5.136,0,0,0,2.94413,2.797c1.9137.88324,6.77156,5.739,10.69707,8.41431s6.91874,5.71758,12.41449,8.41639,8.19453,3.87645,9.17593,4.21994,1.22673.53976,1.71741,0C228.53656,72.65221,227.49653,71.83348,226.46607,71.29373Zm-92.25487,99.4671a3.31255,3.31255,0,0,0,3.87984-2.43075c.23373-1.63608.56094-3.3189,0-4.48753s-2.571-1.77631-4.86149-2.71121-3.03024,1.36376-2.8047,3.27215C131.03253,169.54545,132.57512,170.38687,134.2112,170.76083Zm38.19135-16.04992c-.11022-1.12972-1.134-1.34153-2.26372-1.34153s-2.436.0353-2.57719,1.02379.60017,1.0238,1.09442,1.0238.9532.14121.9532.49425,0,.74138-.74136.74138-2.08294.07062-2.08294.60017.28244.812.9532.812,1.37685.0353,1.37685.63546-1.80048.52955-2.11821.52955-.459.38835-.459.812.17652.56487.56484.56487,1.58867,0,1.58867.52954-.14119,1.30623-1.34153,1.23564a1.91334,1.91334,0,0,0-1.8711,2.08291c0,1.02379-.21181,1.65925-.63546,1.65925a1.10074,1.10074,0,0,1-1.20031-1.2356,10.2131,10.2131,0,0,0-1.55336-4.44826c-.77669-1.09441-3.70687-.9179-5.54267.70606s-1.34153,3.49506-1.37683,4.766.0353,4.16582-2.64778,4.16582-1.94169-5.08372-3.35384-6.35465-3.31854-1.23561-5.33083-.91787-2.88713,1.58866-3.06754,3.954-.251,5.43678-2.33391,6.53116-5.54267,1.72988-7.34315-.38832-3.142-6.17814-3.77749-8.7553-1.65928-2.85959-3.81279-2.68307-1.80047-.38-1.80047-.70191.03529-.60432,1.48274-.67492,2.01231-.52957,1.94169-1.27093-.52954-.63546-.9179-.60017-2.29472,0-2.29472-.49424.31773-.9532,1.72988-.9532,1.34153-.24151,1.34153-.63267-.21182-.70888-1.20031-.70888-1.317-.17239-1.28168-.63134,1.17506-.15428,1.17506-1.01358c0-.54655-.91059-.79348-2.64671-.472s-1.89682.48225-1.929,3.05424a42.0241,42.0241,0,0,0,1.76825,14.66035c2.12189,6.52645,8.05576,12.71855,15.8408,13.43128s17.37931.38377,22.91654-1.37061a17.67578,17.67578,0,0,0,10.307-8.60742,36.169,36.169,0,0,0,2.46708-11.89686A68.95216,68.95216,0,0,0,172.40255,154.71091Zm-11.6617,25.13963c-.69057.92078-1.68808.46039-2.37868-.38364s-.844-1.30444,0-2.22522,1.5097-.49574,2.37868,0C161.42769,177.6335,161.43144,178.92979,160.74085,179.85054Zm1.849-2.67609c-.61384-.38367-.63282-.71905,0-1.53465.47159-.60777,1.07426-.38364,1.38117.38366S163.20371,177.55808,162.58984,177.17445Zm70.50225-10.596c1.18952.43255,2.59533,2.59533,3.893,6.48834s.97325,4.54183-1.514,6.27206-52.88,35.57773-57.4218,38.60562-21.84408,12.97668-22.70919,12.54412c-.77534-.38767-15.10069-11.54586-18.0656-13.85759a.373.373,0,0,1,.10218-.64677c30.65051-11.17339,87.32433-45.62735,92.363-48.64881C231.02809,166.56292,231.90256,166.14593,233.09209,166.57849Zm6.54873,15.60243s-47.67232,30.58547-48.3558,31.269.14559.90651,1.40819,1.0522,3.01081,1.16548,2.62232,2.08815-5.43889.8741-8.35259.48561-2.71945.43706-2.18527.82555,3.41164.67986,2.45852,1.84534-6.10064.19424-7.4118.87411-.82554,1.31116,0,1.69965.38849,1.554-1.60253,1.35972-4.17629-.5394-4.80759.02167,1.991.80388,1.65109,1.678-3.05938.67986-5.34177,1.16548-9.71232,4.56478-10.39218,5.00184-1.11691.87411,0,1.554,21.32455,14.79072,22.33178,14.88228,9.706-5.86023,19.77829-14.37589,37.90841-34.14,38.7325-35.15434-.71092-6.142-.52264-7.27168,2.44759-2.51035,2.00827-3.76552-1.31793-1.25518-1.69448-.50207-1.50621,1.0669-1.50621-.18828,1.50621-2.76138,1.82-3.82828S239.64082,182.18092,239.64082,182.18092Zm-17.494-18.581c-.26205-.99577.39306-1.20541.91715-1.022s.91716,2.07016,1.17921,2.96111.49788.91716.75993.865.28825-.0527.49788-.36715-.20963-1.36264-.47168-2.38461.05241-1.1268.52409-1.23161.68132.20963.86475,1.36263.47168,1.57227,1.153,1.36263.55029-.73372.31445-1.36263.28825-.891.891-.86475.47168,1.25782.78613,1.46745a.67454.67454,0,0,0,.99577-.62891,1.02232,1.02232,0,0,1,.91716-1.12679c.49789-.0262.021,1.05412.45876,1.30429s1.93878-.688,2.87691-.37525,2.37658,3.62741,4.31536,7.94277,6.94212,19.70059,7.25482,23.07784-3.68995,5.37857-4.66527,6.37923-.96347,1.93879,3.60207,6.25416,10.38189,4.8157,19.5755,1.8137,17.26147-11.4451,16.38589-11.4451a79.56989,79.56989,0,0,1-11.38256.43779c-5.5662-.31271-10.81969-4.87824-12.07052-8.69327s-5.06587-18.19959-7.37991-25.20425-3.3147-9.56886-6.50432-13.07118-15.88555-7.75515-20.45108-7.88024-6.44178.50034-6.817,4.62808,2.314,13.13372,3.37724,15.76047,1.48715,4.14827,2.189,3.94012C223.67044,167.07535,222.40881,164.59569,222.14677,163.59992Zm33.36749,6.49783c.85725,1.2657,3.71368,5.19915,4.20884,5.7562s1.23789,0,2.352-.80463,3.83747-2.59957,4.704-3.71368,1.176-2.22821-.43327-4.20883-8.85093-9.46989-10.83156-10.76968-3.4661-1.67115-4.27073-.74273a2.52938,2.52938,0,0,0,0,3.28042c.80463.80463,2.47578.92842,3.15662,2.16631s-1.23789,1.73305-.92842,2.78526,1.11411,1.29979,2.53769,1.05221,2.41389,1.23789,1.23789,2.10442S254.58584,168.727,255.51426,170.09775Zm13.278-3.69366c.65558.70915,2.42759,1.94627,5.85787-.37576a69.99423,69.99423,0,0,0,6.069-4.48575c.52774-.475,0-1.68876-1.05547-2.797s-6.64946-6.33283-9.34091-8.54932-5.01349-3.3775-6.54392-2.63867a22.82989,22.82989,0,0,0-5.48845,4.16911c-1.0027,1.21379-.84438,1.74152-.42219,2.00539s.89715.05277,1.89985-.52774,1.47766-.52773,2.11094.05278,1.26656,1.15.26387,1.84154-.94993,1.37764-.42219,1.85261,1.26656.21109,2.00539-.15832,1.95262,1.05547,1.26657,1.68875-1.161,1.10824-.52774,1.68875,1.21379-.20907,1.53044.58152-.94993.52673-.31665,1.68775A23.30747,23.30747,0,0,0,268.79231,166.40409Zm1.38722-22.24534c-.85614,1.0594-.7702,1.26534-.3851,1.8705s1.65044-.49513,2.47566,0,1.76047.82522,1.54041,2.42064,1.21032,1.21032,2.03554,1.21032.93525,1.1003.93525,2.20059,4.12609,4.9368,5.06134,5.4942,1.43038.1723,2.97079-1.038a31.64277,31.64277,0,0,1,4.62123-3.0258,1.81876,1.81876,0,0,0,.55015-2.6407c-.66018-1.15531-1.92552-2.91578-6.32668-6.49173s-6.05161-4.5112-6.65677-4.5112-1.26534.49514-2.47566,1.21033A24.68705,24.68705,0,0,0,270.17953,144.15875ZM289.32462,133.926a5.27923,5.27923,0,0,0-4.29114,1.32035c-1.37536,1.1003-2.58569,1.8705-2.2556,2.91578a1.6195,1.6195,0,0,0,2.2556.93525,1.3785,1.3785,0,0,1,1.8705.55014c.44011.66018-.21992,1.37537-.88017,2.20059s-.1101,1.02133.22,1.30838a1.38051,1.38051,0,0,0,1.76047,0c.71519-.53818,1.04528-.09806,1.59542.72716s-.99026,1.84219,0,3.45176a4.60018,4.60018,0,0,0,3.741,2.32477c1.10029-.055,1.26533-2.03554,1.59542-3.08081s1.37537-.88024,1.43038-2.20059a9.337,9.337,0,0,0-1.76047-5.72152C293.06561,136.51172,292.29541,134.36615,289.32462,133.926Zm9.3623,23.429c-1.4995,2.95447-4.82363,10.37716-17.34207,18.72386s-15.7642,10.328-16.64559,10.91559-.94015,1.05767-.47008,1.35146,1.23395-.47007,1.5865-.70511,1.12386-.48262,1.42022-.24015.10776.59271-.40412.88906-.96989.72741-.48495,1.2393,1.48177-.26942,2.23613-.96989,1.75117-.18859,2.26306.21553.86212,1.29318-.29636,2.07448-2.02059,1.64341-1.45482,1.99365,1.05071.37717,2.85577-.67353c1.24018-.7219,3.583-2.31506,4.98412-2.53248,1.56259-.24247,2.23612.05388,2.55942.7813s-1.21236,1.8097-2.64024,2.64255-1.61647,1.34475-1.40094,1.668.5927.26941,1.48176-.21553a45.40842,45.40842,0,0,0,5.63072-3.58318c2.55941-1.91283,4.9033-3.90648,6.14259-4.93024s1.75118-.96989,2.4786-.88906.96988,1.15847-.05389,2.07447-7.00471,6.19648-7.83989,6.78919-.25586.96063.05318.95813.65317-.01818,3.528-1.77113a92.43858,92.43858,0,0,0,15.6764-13.77936c5.32486-5.94726,9.8007-13.1404,10.22729-20.67681s-4.2571-15.70273-7.2568-19.05759-3.35965-5.09467-3.77961-6.95448a6.67234,6.67234,0,0,0-3.53964-3.9596c-1.25987-.59994-2.45975-.06-4.25956.48s-2.69973,1.49985-2.15978,3.05969,1.79981,2.57974,3.47964,4.01959,3.71962,4.73951,5.63942,7.97918,5.63943,10.139,4.43955,17.87817-3.17967,11.95925-4.67952,13.92881c0,0,.89991-13.89912.53994-18.4735S300.04535,154.67845,298.68692,157.355ZM112.202,226.00476c-16.60459,6.68234-45.76388,15.59212-68.84832,18.02206s-40.094-4.0499-42.929-4.65739-1.68373,2.60485,2.044,8.46263,11.91454,19.16506,34.83274,30.28713,27.764,13.08893,57.52107,13.8686c5.32769,0,4.94326-.30621,5.6411-1.96357s1.919-3.31472,2.87857-2.9658,1.57013,2.87857,2.00627,3.57641,1.30844-.26169,2.18074-1.22121,1.57013-2.70412,2.18073-5.40823,1.14613-4.27424,2.49211-4.79762,3.70118-.69783,6.14361,2.18074,3.053,4.09978,3.75086,4.09978,18.40541-7.67619,28.26234-13.78225,13.86948-9.59523,15.17792-11.427-.62827-3.97722-3.37062-2.79134-3.78.66705-4.2247.07411-.51882-2.07529,1.33412-3.33529,1.03764-2.59411.14823-3.03881-2.22353-.51883-4.2247,1.03764-3.55764.74118-4.2247,0-.22235-2.14941,1.7047-3.40941,1.11177-2.81646.37059-3.187-2.29764.22235-4.37293,1.11176-3.63176-2.52-2.14941-3.48352.66706-2.00117-.07412-2.37176-2.14941-.22235-4.15058,1.26-25.867,11.34-39.50465,13.267-14.60115.88941-14.89762.22235,5.707-1.33412,17.49174-4.66941,30.09172-10.45057,32.83406-11.48822,2.81647-1.03764,3.63176-1.77882-2.81646-2.9647-3.63176-3.4094-2.362-.19295-6.26307-1.45464c-7.21009-2.33191-5.52943-5.28761-5.00279-5.9971.89641-1.20765,2.29764-1.1459,1.85294-1.73884-.36964-.49285-3.70932-1.805-5.16676-2.617a1.74063,1.74063,0,0,0-1.44544-.119Zm8.39373-17.66165c3.1391,2.66348,14.8394,11.12955,20.17442,15.315s28.52926,19.69075,33.0001,23.30547,27.30069,15.315,32.05691,18.07363,22.44935,6.37333,24.73234,6.37333,2.66348.95125,3.044,2.09274,2.37811,1.14149,1.90248.57075-1.71223-5.0416-2.18786-6.18309-.28537-2.09273,0-1.522,2.94886,1.90249,7.03921,4.2806,8.84656,2.56836,17.598,2.75861,14.554-1.33175,15.315-2.09274,1.71224-1.14149,2.66348.28537,1.23662,2.09274,0,2.94886-9.89293,2.283-11.22467,2.37811-2.75861,1.71224-.57075,2.283,5.04159,1.61712,4.85134,2.85373-3.32935.761-10.65393.47562-10.84417-3.5196-18.64437-3.90009-13.98328-2.66349-24.35184-4.566-16.64677-6.849-19.97612-6.75383-9.79781-.66587-11.12955-1.33174-3.42448-2.09274-1.80736-2.09274a17.8,17.8,0,0,0,5.99283-1.61712c.95125-.57074-.09512-1.522-1.522-2.18786s-10.08318-5.23184-19.12-10.5588-19.02488-13.31741-22.54448-15.79065-6.27821-2.66348-9.51244-3.239-5.51721-1.99284-5.42209-2.65871,6.8307-1.90248,6.8307-1.90248a50.107,50.107,0,0,1-7.87706-2.85373c-2.66349-1.42687-13.793-11.22468-16.74189-13.31742s-5.61234-.761-6.27821-1.14149-1.23662-.85612-.3805-1.522-.47562-2.66348-2.94885-4.18547-7.32458-2.56836-11.03443-3.99522-11.37108-6.74509-12.78361-7.01415a2.25339,2.25339,0,0,1-1.8161-2.69052c.33632-.94168.06726-2.62326-.47084-1.74884s-1.68158,1.47979-2.15242.73989,1.68158-3.49768.94168-4.17031-2.08515.87442-2.42147,2.15242-1.41252,1.14347-1.68157.33632,1.14347-3.43042,1.278-4.103-1.00894-.94168-1.95063-.53811-1.278,2.35421-1.68157,3.2959-1.18347.75261-1.35374-.3542,1.1068-5.02318,2.38388-6.04484,1.78791.42569,3.7461,2.04333,10.98289,6.81109,11.83428,7.23678,1.873,3.49069,2.29875,3.49069-.68111-5.95971-.68111-6.3854.17027-.93653.596-.3741S90.93357,189.003,93.062,191.472s8.33649,5.37773,18.39,10.47206A55.22357,55.22357,0,0,1,120.59569,208.34311Zm-18.00987-2.72127c-1.28023-1.28023-5.452-3.785-15.06728-1.28023-11.719,3.05285-17.62772,16.4323-18.41556,17.91632s-.29543,2.37034,1.57567,2.27186,10.83268-2.06806,12.99921-1.67414,4.924,1.08327,5.21939-1.08327a4.26146,4.26146,0,0,1,2.36349-3.44676,1.59066,1.59066,0,0,1,2.06806.68935,2.16639,2.16639,0,0,0,2.16654,1.47718,10.48293,10.48293,0,0,0,3.64372-1.77262c.49239-.39391,1.28022-.09847,2.65893.88631s3.93915,1.08327,6.795.09848,4.727-1.57566,4.62851-3.84067-1.47718-4.43156-4.82547-5.12091a78.75452,78.75452,0,0,0-14.08248-.78783,21.04716,21.04716,0,0,0-6.79505.98479c-1.08327.29544.88631-1.77262,2.85589-2.56045a26.28739,26.28739,0,0,1,10.04485-.88631C102.6843,207.98533,103.866,206.90206,102.58582,205.62184ZM67.76051,168.97727c-1.37992-2.70836-2.73606-5.26448-5.80622-4.38729a10.35822,10.35822,0,0,0-6.25,6.46927,11.49977,11.49977,0,0,0,0,6.68856,21.1778,21.1778,0,0,1-1.09648,12.06134c-1.64473,3.50875,4.38594,1.42543,6.03067,0s4.16664-6.14032,4.82454-9.75872S70.38693,174.13209,67.76051,168.97727Zm-14.907,14.80121c.72946-4.17348.98684-5.81137,0-6.68856s-3.3991.10965-4.27629,2.08332-2.85086,5.921-7.78505,6.46927-7.01751-1.42544-10.08767.76753-5.70172,4.38595-8.55258,0-8.99119-3.71088-12.93853-3.555-4.24521-2.83672-3.07016-3.35286c3.249-1.42714,5.93325-.016,5.93325-.24942s.992-1.00186-3.03438-2.48495S4.6072,173.88426,5.891,172.36707s4.90168.70024,5.31016,1.69225c.35012.75859,1.05036-.40847.58353-1.86731s-4.08473-4.72661-5.952-5.42685-5.31015.05835-5.60192,2.85931a33.7833,33.7833,0,0,0,1.809,12.546c1.45884,3.793,6.0104,6.59393,7.23582,9.04477a11.30427,11.30427,0,0,0,5.2518,5.19345c2.15907,1.05036,3.20943,2.39248,7.41087,2.15907s5.13509-.817,8.16946.52518,6.8857,2.33413,8.69465,0,1.86731-4.14309,3.793-4.96,5.13509-.35012,7.17746-3.73462S52.43963,186.14616,52.85346,183.77848ZM45.43738,151.44c-1.07972,1.82793-2.87865,5.75729-5.69187,7.13119s-4.77594,1.28673-6.14984,2.18082-2.55152,1.35206-2.35525,2.0063a2.02985,2.02985,0,0,0,2.4861,1.65606c1.96271-.15131,3.79458-.15131,5.43017-1.32894s2.7478-.458,2.94407.06542.58882,1.50475-1.50474,2.7478-2.68238,1.24305-8.04713,1.3739-9.68271,5.2339-11.122,6.41153-6.14983,1.76644-7.262,1.96272-.71966,1.19283.78509,2.42828,6.73865,4.724,7.91628,5.43313a5.47967,5.47967,0,0,0,5.36474.57825,17.303,17.303,0,0,1,8.70137-1.96271c3.79457.19627,6.54237.42839,9.68271-3.67852s6.41153-7.50895,5.23391-10.06047-2.7478-5.779-2.68238-7.63275,2.55153-3.62014,2.42068-6.49879a5.42983,5.42983,0,0,0-3.00949-4.71051C47.59636,149.01929,46.68043,149.33552,45.43738,151.44Zm8.675-1.934c-.09706-1.06775,2.24965-3.91786,3.67846-3.86071s2.2861-.17145,2.229-.91444.17145-4.115,1.71457-3.82921,1.886.85729,1.42881,4.97226-4.8008,6.28677-6.51538,7.487.62868,4.28643-.743,5.02942-3.77206,2.28609-3.81021,2.91477,1.124,4.62935,2.23182,5.21559,1.40693-.18618,2.20707-2.10627,2.57186-2.93786,5.94385-3.05217,4.858,1.02875,7.20121,3.82921,2.68616,2.80047,3.65775,2.80047,2.68617-1.02874,3.4863-3.31484.45722-5.94385,0-7.82988-5.77239-8.1728-5.94385-10.00168,2.00033-6.744,1.94318-8.23-2.51471-5.258-5.08656-5.77239a20.00111,20.00111,0,0,0-10.68751,1.71457c-2.85762,1.54312-5.71524,3.65776-5.94385,6.62968s-1.60027,4.5722-.57153,6.62968,3.08024,3.06312,3.54345,2.74332C54.2879,150.414,54.15377,149.96142,54.11236,149.506ZM24.03645,162.69783c3.0973-2.14594,4.59326-3.19532,4.89282-7.08961s.79883-6.98975-2.44641-10.08522-8.9369-4.59326-11.83266-1.79736-2.9956,6.49049-4.2937,9.78565-3.19532,6.09108-2.29664,9.68581,4.59327,5.5918,6.29078,5.89136,4.2558-.01,4.1373-1.09661-3.71384-2.492-4.96108-4.77563-.97788-7.02671,0-9.89595,3.90568-5.4457,5.54525-5.03581,1.9909,3.4548,1.28823,5.797-2.9278,1.93234-3.27913.527c0,0-1.28823-.35133-1.52246,1.87379s-.23422,5.15292,1.28823,6.44115S21.68538,164.32674,24.03645,162.69783Zm11.42184-27.5069c-.34213.83978-.81106.40554-.81106.40554a35.23377,35.23377,0,0,1-5.1097-4.05532c-1.541-1.70324-5.59634-.73-7.46178,1.541s-1.62213,6.16408,1.13549,7.05625,7.29957,4.21753,8.27284,6.97515.24332,7.13736-.0811,9.0028,2.18987,2.43319,4.70417.73,5.353-4.26709,6.4074-6.51329,3.64978-3.70611,4.37974-4.51717,1.624-9.165-1.29679-13.707-8.03044-4.05532-9.00372-2.67651S36.35046,133.00106,35.45829,135.19093ZM1577.947,82.54575q1.69861,21.18435,1.69883,35.23047a149.67163,149.67163,0,0,1-.79282,17.67162h5.43733q3.05889-25.82762,15.123-36.70289,12.0645-10.87466,31.209-10.87507h26.50786l-80.996,154.28858V246.803q19.25725-.67983,62.41794-.67962,40.55272,0,57.773.67962a300.1618,300.1618,0,0,1-1.69924-35.23047q0-12.9135.79323-20.5037h-5.43775q-1.9271,18.01185-9.34563,29.28291-7.42061,11.27357-17.72822,16.1992a50.06266,50.06266,0,0,1-21.86334,4.92793h-14.22742l-11.89615.1017a8.39018,8.39018,0,0,1-7.30856-12.5109l48.29452-85.04886a1.5182,1.5182,0,0,1,2.04748-.60918,1.323,1.323,0,0,1,.44666,1.87165s-41.11394,76.06681-41.75755,82.49786a7.95531,7.95531,0,0,0,2.53544,6.77757l77.14653-147.36843V82.54575q-20.3903.67981-66.156.67961Q1593.23832,83.22536,1577.947,82.54575ZM991.0506,139.63956a174.2574,174.2574,0,0,1-.79323-17.672q0-15.85815,1.69924-39.42177-20.95836.67981-71.48015.67961-50.52469,0-71.70655-.67961,1.69925,23.56341,1.69924,39.42177a174.74534,174.74534,0,0,1-.79323,17.672h5.32413q3.96407-19.48261,9.51585-30.75575,5.54907-11.27107,13.31052-16.1426,7.75772-4.86925,18.97426-4.87133h5.09773V220.40874q0,9.62925-1.92565,14.04674a10.63953,10.63953,0,0,1-6.96677,6.00374q-5.04216,1.5875-15.9162,1.69924V246.803q27.86709-.67983,42.48066-.67962,14.83872,0,44.06586.67962V242.8772c-29.75142-.81648-37.84113-16.48236-37.84113-33.01075,0-12.13265,1.32479-57.35756,1.439-65.42735a1.96816,1.96816,0,0,1,.52032-1.30549l.01821-.01987a1.06728,1.06728,0,0,1,1.47856-.09052l.12746.10862a1.9692,1.9692,0,0,1,.69272,1.42259c.30423,7.68077,1.50791,43.61411,2.29417,66.30241.2523,7.28255,2.9564,12.45227,6.75452,16.16674q-.29123-2.9256-.29205-6.61484V87.86988h5.32413q11.10063,0,18.861,4.92793,7.75833,4.92792,13.31053,16.1992,5.54907,11.27292,9.40223,30.64255ZM460.96279,177.10744c-5.01657-4.29867-14.90718-12.215-22.62046-19.00417-6.36956-5.60635-9.618-9.08957-13.27568-12.12448-1.21169-1.1463-.23909-2.15527.841-1.32026.31775.24564,10.03169,6.93914,15.72746,10.69835,12.5662,8.29354,29.21175,20.35866,38.78679,28.80722,8.79711,7.76219,12.80425,15.44665,13.9402,22.55305.02248-.64065.03538-1.287.03538-1.9412a41.9072,41.9072,0,0,0-4.98453-20.73051A55.8949,55.8949,0,0,0,476.499,168.41266a247.21665,247.21665,0,0,0-21.52333-15.746q-3.85233-2.60442-14.95317-10.13844a107.12065,107.12065,0,0,1-18.01164-14.89657q-6.91122-7.36255-6.91017-18.91807a23.8582,23.8582,0,0,1,3.22868-12.5173,21.01119,21.01119,0,0,1,9.06221-8.2128,29.84577,29.84577,0,0,1,13.19733-2.83207,31.17061,31.17061,0,0,1,20.3339,7.08,47.03433,47.03433,0,0,1,13.48033,18.40826,72.31392,72.31392,0,0,1,5.60754,23.90218h5.32413q0-37.38272,1.13283-52.90209h-5.32413a28.2616,28.2616,0,0,1-1.81244,7.75958,3.56649,3.56649,0,0,1-3.28529,2.43546q-2.26732,0-7.81618-3.28487a100.85459,100.85459,0,0,0-9.006-4.70112,48.776,48.776,0,0,0-10.30866-3.11548,74.50884,74.50884,0,0,0-14.55655-1.246,70.14382,70.14382,0,0,0-25.941,4.64451,42.44582,42.44582,0,0,0-18.91807,14.21654q-7.13656,9.57432-7.13657,23.61919a41.31161,41.31161,0,0,0,5.38073,21.29692A58.26657,58.26657,0,0,0,401.337,159.12363a256.78168,256.78168,0,0,0,22.26,15.746A215.14029,215.14029,0,0,1,442.798,188.63336a50.30735,50.30735,0,0,1,11.44149,13.14031,31.36855,31.36855,0,0,1,4.24789,16.2558,25.79669,25.79669,0,0,1-3.7951,14.27355,23.1551,23.1551,0,0,1-10.30824,8.77922,35.82381,35.82381,0,0,1-14.67017,2.88867q-20.72988,0-30.75575-16.1426-10.025-16.14219-11.49767-42.08363H382.1359q0,48.14627-.906,62.64434H386.554a28.22,28.22,0,0,1,1.81244-7.76,3.56566,3.56566,0,0,1,3.28529-2.43546q2.83041,0,7.81618,3.28529a72.11837,72.11837,0,0,0,15.80259,6.28716q8.55177,2.32038,21.58034,2.32225a80.13952,80.13952,0,0,0,29.11311-5.04112l.16954-.0659a28.32,28.32,0,0,0,17.95105-25.35773C484.82887,198.18471,470.1312,184.96373,460.96279,177.10744Zm167.36293,40.1185c-14.06037-31.64944-22.83-62.28419-26.26834-71.54055,0,0-.76431-1.90707.45592-2.25567a1.95484,1.95484,0,0,1,2.20032,1.29326c7.85405,18.75634,9.65942,23.30378,21.40835,53.05307,3.67379,9.30244,7.40573,18.94949,16.86019,25.25053L588.34545,82.09253q-3.51273.34023-8.043.34-4.30617,0-8.043-.34l-52.9021,135.71054q-8.38446,22.42976-19.93728,24.35539V246.803q7.02233-.67983,17.67163-.67962,13.14011,0,28.77351.67962v-4.64452q-10.3097-.33958-15.40638-3.73808-5.09711-3.39849-5.09732-12.0079,0-9.51564,6.34376-25.82824l6.11694-15.97238h50.52324L602.279,222.674q2.83041,7.4768,2.83207,10.98827a6.45,6.45,0,0,1-3.7951,6.34376q-3.79677,1.81349-12.5173,2.15245V246.803q11.44024-.67983,35.23006-.67962,21.29608,0,35.23047.67962v-4.0716C648.0415,239.89452,635.77276,233.98879,628.32572,217.22594Zm-88.69107-37.2586L563.65,117.323l22.99617,62.64434ZM733.1965,148.08011a1.74372,1.74372,0,0,1-.37456-.84661.64807.64807,0,0,1,.83682-.71327l.057.018a1.74376,1.74376,0,0,1,.78834.51741l78.88006,83.3414v-112.219q0-11.8947,1.30262-17.84184,1.301-5.94735,4.87092-8.83581,3.56827-2.88847,11.15807-3.9083V82.94761q-7.25082.67983-20.16369.67962-16.08662,0-25.035-.67962v4.64452q10.42081,1.01941,15.00977,3.9649,4.5877,2.94714,6.06034,9.34562,1.47076,6.40119,1.47243,20.1075v72.613L718.22824,82.94761q-8.27024.67983-19.93728.67962-12.803,0-20.1641-.67962v4.64452q7.70216.34022,11.21467,1.81244a8.39212,8.39212,0,0,1,4.81431,5.43774q1.301,3.96657,1.303,12.68752V211.97437q0,11.8947-1.303,17.84184-1.30345,5.94735-4.87091,8.83582-3.56829,2.88909-11.15807,3.9083v4.64451q7.36256-.67981,20.1641-.67961,16.08412,0,25.035.67961v-4.64451q-10.42394-1.01943-15.00977-3.9649-4.5877-2.944-6.06076-9.34563-1.47325-6.39868-1.47243-20.1075V120.10372L801.48948,247.65806q2.15058-.11424,6.23055-.1132c2.08775,0,3.69709.02356,4.84272.0708ZM1864.1393,238.477q-3.85233-3.45467-6.91017-11.15849l-56.30058-145.226q-3.51273.34023-8.043.34-4.30617,0-8.043-.34l-52.9021,135.71054q-8.38446,22.42976-19.93728,24.35539V246.803q7.02232-.67983,17.67163-.67962,13.14011,0,28.77351.67962v-4.64452q-10.30969-.33958-15.40639-3.73808-5.09711-3.39849-5.09731-12.0079,0-9.51564,6.34376-25.82824l6.11694-15.97238h50.52324l13.93354,38.06212q2.83041,7.4768,2.83207,10.98827a6.45,6.45,0,0,1-3.7951,6.34376q-3.79677,1.81349-12.5173,2.15245V246.803q11.44025-.67983,35.23005-.67962,21.2961,0,35.23047.67962v-4.64452Q1867.99,241.93249,1864.1393,238.477Zm-111.92155-58.50964,24.01538-62.64434,22.99617,62.64434Zm-364.9873,57.773a9.72019,9.72019,0,0,1-4.75771,1.35964,7.78889,7.78889,0,0,1-6.85357-3.62488q-2.43712-3.62447-4.36152-13.02753l-5.32413-23.90218a37.07886,37.07886,0,0,0-7.13657-16.0294,33.20287,33.20287,0,0,0-14.10334-9.79884q-9.00624-3.50961-23.05277-4.75772h-.2264q19.14239-2.26482,30.81236-9.11881,11.66559-6.85315,16.53879-16.1426a41.62881,41.62881,0,0,0,4.87092-19.59768q0-19.37088-16.19879-29.84933-16.20149-10.477-48.14438-10.47846-4.41791,0-15.746.2264-11.32913.22848-20.61731.2264-23.44918,0-35.23047-.67961v4.64451q7.70277.34023,11.21508,1.81245a8.3932,8.3932,0,0,1,4.81432,5.43774q1.30095,3.96657,1.30262,12.68751V222.22118q0,8.72407-1.30262,12.68751a8.38385,8.38385,0,0,1-4.81432,5.43733q-3.51271,1.47327-11.21508,1.81244V246.803q11.78046-.67983,36.58969-.67962,22.65575,0,35.00407.67962v-4.64452q-7.8164-.33958-11.32828-1.81244a8.20525,8.20525,0,0,1-4.75772-5.43733q-1.24789-3.96406-1.246-12.68751V168.86587h15.06637q6.797,0,10.93167,4.0215a25.95866,25.95866,0,0,1,6.34375,10.87507,146.42185,146.42185,0,0,1,4.2479,18.06824l4.1913,23.109q2.37906,13.82243,10.19546,19.48448,7.81639,5.66331,21.18331,5.66414a55.43271,55.43271,0,0,0,6.449-.3617c-6.46055-1.953-12.96271-8.3698-16.42508-21.843-3.51392-13.67385-2.39228-32.81-8.88388-42.84393-3.18187-4.91809-8.18117-7.20383-11.31247-8.75231a.21179.21179,0,0,1,.16043-.39027c12.60907,3.79978,15.66567,6.728,20.36522,16.69871,4.8913,10.37753,5.799,20.20442,8.532,34.26068,4.0316,20.7354,20.77848,17.68889,23.97512,16.90721a44.99721,44.99721,0,0,0,7.952-7.15618l-3.17167-2.83165A22.21377,22.21377,0,0,1,1387.23045,237.74035Zm-85.30049-73.519h-9.96864V107.128a53.59425,53.59425,0,0,1,1.07622-12.51771,8.64863,8.64863,0,0,1,4.0781-5.77734q3.00021-1.64057,9.23243-1.64265,15.29256,0,22.03314,9.74225,6.7383,9.74411,6.74,28.77351a64.533,64.533,0,0,1-2.77547,20.16368,25.45286,25.45286,0,0,1-10.08184,13.36713Q1314.95748,164.22282,1301.93,164.22136Zm222.26579-74.99184q-18.52125-9.967-42.99005-9.96864-23.903,0-42.59344,10.87465a75.29439,75.29439,0,0,0-29.11311,30.586q-10.42395,19.7111-10.42186,45.31231,0,26.16784,10.13844,45.14251a68.99694,68.99694,0,0,0,28.66031,28.9429q18.52125,9.97009,43.10326,9.969,23.78877,0,42.48024-10.87507a75.68183,75.68183,0,0,0,29.16971-30.58595q10.477-19.71046,10.47845-45.31231,0-26.16784-10.195-45.1421A69.36824,69.36824,0,0,0,1524.19575,89.22952Zm-29.81385,153.8412c-.20543.09931-.41.20143-.61692.29548-.03169.01457-.06181.03023-.09349.04474-.35515.16268-.71337.31323-1.07238.45473-.09348.03756-.18748.07314-.28128.10961q-.27717.10511-.554.20226a28.59519,28.59519,0,0,1-9.87849,1.719q-12.34791,0-22.42934-9.96864-10.08372-9.967-15.9728-28.31988-5.89116-18.35208-5.89054-42.48066,0-23.89989,5.26753-42.42364,5.26752-18.52125,14.95317-28.88629,9.68543-10.36527,22.48635-10.36526,12.2343,0,22.37274,9.96864,10.13677,9.96948,16.0294,28.3769,5.88867,18.4095,5.89054,42.42364,0,23.903-5.26752,42.42364c-.12855.45191-.26318.89238-.39563,1.337,8.90833-12.12745,16.48709-31.50882,17.3005-62.46049a1.81062,1.81062,0,0,1,.56766-1.14l.08012-.08479a.85988.85988,0,0,1,1.22319-.02763,2.19708,2.19708,0,0,1,.6677,1.46645C1539.17894,153.794,1545.57508,218.98859,1494.3819,243.07072Zm-377.9682-25.84478c-14.43066-31.48235-23.53085-62.28419-26.96918-71.54055,0,0-.39235-1.16654-.047-1.313.42949-.1452.67941.48162.94316,1.01094,8.76079,18.39587,10.9712,26.11545,23.34523,53.97707,4.31449,9.71478,10.05875,23.92185,19.28015,30.85829.83443.62765,1.72119,1.27818,2.63688,1.9387a46.96572,46.96572,0,0,1-2.22279-4.83892l-56.30058-145.226q-3.51273.34023-8.043.34-4.30617,0-8.043-.34l-52.90209,135.71054q-8.38447,22.42976-19.93729,24.35539V246.803q7.02234-.67983,17.67163-.67962,13.14011,0,28.77351.67962v-4.64452q-10.3097-.33958-15.40638-3.73808-5.0971-3.39849-5.09732-12.0079,0-9.51564,6.34376-25.82824l6.11694-15.97238h50.52324l13.93354,38.06212q2.83041,7.4768,2.83207,10.98827a6.45,6.45,0,0,1-3.7951,6.34376q-3.79676,1.81349-12.5173,2.15245V246.803q11.44025-.67983,35.23006-.67962,21.29609,0,35.23047.67962v-3.8839C1136.31343,239.57719,1123.08072,231.77073,1116.4137,217.22594Zm-88.045-37.2586,24.01539-62.64434,22.99617,62.64434Zm437.495-109.29382c3.11361-1.16779,6.03495-2.10377,8.86015-3.00936,2.45315-.78616,4.7702-1.52862,6.89811-2.3285,2.8148-1.05834,8.948-3.01436,14.35908-4.74024,4.91981-1.56939,9.16875-2.92446,10.684-3.51585,4.22127-1.64722,7.37171-3.80758,8.871-6.08323a6.79125,6.79125,0,0,0,.07408-6.953,6.92158,6.92158,0,0,0-5.95-3.84629,6.01682,6.01682,0,0,0-.62364.03287c-4.55608.48027-8.45647,2.3489-14.44315,5.35826-11.35908,5.71034-26.98542,15.37059-32.86826,19.00755a3.01545,3.01545,0,0,0-.6561,4.58084l.37206.41451a4.0389,4.0389,0,0,0,4.4227,1.08247ZM614.61176,113.88a4.01818,4.01818,0,0,0,2.81688-1.14324c2.38405-2.31851,4.68488-4.34778,6.91017-6.31046,1.93167-1.70382,3.75619-3.31275,5.38468-4.8988,2.156-2.1,6.99465-6.35582,11.26378-10.11055,3.8723-3.406,7.21668-6.34709,8.36678-7.49532,3.20663-3.20246,5.22612-6.4453,5.68662-9.13088a6.427,6.427,0,0,0-1.54755-5.27,7.63975,7.63975,0,0,0-5.72761-2.76881,5.97983,5.97983,0,0,0-2.99646.78282c-3.98176,2.26732-6.80509,5.54345-11.08191,10.70111-8.11313,9.783-18.556,24.90142-22.4874,30.593a3.01578,3.01578,0,0,0,1.23688,4.45973l.50627.22973a4.00268,4.00268,0,0,0,1.66887.36166Z"/></svg>