<svg xmlns="http://www.w3.org/2000/svg" viewBox="0 0 1017.98782 1200"><defs><style>.a{fill:#ede9df;}</style></defs><path class="a" d="M421.83569,415.022c-.29687-2.37494,1.39258-1.91845,8.3368-4.11132s54.84008-22.08429,63.33923-23.92194a55.0984,55.0984,0,0,1,32.38867,3.44562c1.3783.91882-12.404,10.56653-28.25391,21.36273s-39.73925,29.86194-41.11755,29.86194-3.3551.12622-4.19885-.38,0-1.68738,1.6875-2.86853c1.68725-1.18121,18.055-12.82422,20.41748-14.6803s2.02478-4.89343-2.7-5.06219-32.398,3.71228-50.453,12.48669-25.14221,17.88636-24.97338,24.1297,4.2185,13.49915,4.2185,15.35529-17.71765,10.63055-18.8988,11.47424-1.94715-1.18841-1.94715-1.18841c-1.48425-5.93726-7.12475-37.10785-6.531-42.15454s3.85925-4.74976,4.453-2.078,1.18738,10.09333,3.85913,10.68708,5.64038,1.48425,6.23413-5.0467.29688-11.57763,3.56238-10.39019,7.71838,2.07806,8.01526-2.67176,4.74976-4.45294,6.82788-2.96862,5.34351-2.07807,5.34351-5.34351,4.156-3.56238,6.23413-1.78119S422.13257,417.39691,421.83569,415.022Zm54.88916,185.38111c-5.8667-2.3946-7.76147,3.4931-7.18383,8.38116,1.55664,13.17041,5.50769,15.32556,9.69824,16.28345s9.33911-2.03546,9.93774-6.226,1.43677-8.50092,0-11.49421S482.5918,602.79779,476.72485,600.40314ZM387.26416,493.44122c-.48657-1.10559,14.46375-9.82971,18.95728-12.49774s11.93615-7.583,12.91919-8.00421,1.40405,1.40417.56152,2.38715-6.45947,8.566-5.05518,11.65527,19.238,21.20416,46.19959,15.58716,29.62964-41.004,29.34875-49.42945-1.68506-17.553-1.12329-18.1148c.56152-.56171,46.90173-36.22956,49.00806-37.63373s4.21277-2.94891,8.00427-1.40424,41.94055,15.43946,43.79724,16.26471,2.823,1.80152,2.96387,3.63336.99731,5.01593,2.49438,5.50635c1.82422.59766,3.29322.27008,4.78589-2.28882,1.24854-2.14025,4.252-.93109,4.83814-.54022,1.43408.95636.936,4.25275.3938,7.0799-.58411,3.04461.65161,4.87964,2.988,5.4613,2.5409.63251,5.21387-1.83185,6.2002-5.63654s5.249-1.63275,4.291,1.1402c-1.67126,4.83795-1.09179,10.54785,2.0962,11.72559,2.55908.94543,5.59033,1.22552,7.28125-1.59277s4.08642-7.18653,5.63647-7.0456,4.1853.002,3.94556,9.4411c-.21961,8.6485-2.47791,27.36-6.83326,37.03827s-12.74292,17.09833-28.067,29.035-15.64661,17.2597-16.45325,22.4215c-.8064,5.16175-2.41943,20.96973-5.48437,30.00281-3.0647,9.033-5.57227,16.67078-10.20166,17.76721s-9.13672.12183-11.57325-1.82733-5.36023-4.38568-6.82214-4.7511-3.411,1.2182-3.411,4.02014,1.21826,9.13678-5.72583,10.23322c-6.94385,1.09637-10.47681.60907-11.8169-2.68018s-1.70544-5.7257-5.3601-5.60388-4.02027,4.62934-4.75122,7.18762-3.04566,5.60389-10.47681,5.60389-11.32959-1.34-12.54785-5.96936-2.07105-9.015-4.873-9.015-4.99463,2.68018-5.96924,6.944-3.41113,4.7511-4.99487,4.7511-7.30933.48731-9.624-1.58368-3.41114-3.77655-4.38562-10.11139c-.97473-6.33484-3.04554-7.06573-5.36023-6.57849s-4.75122,2.55835-6.09131,5.60394-6.57837,4.62928-9.86768,1.82734a32.52611,32.52611,0,0,1-10.4768-15.959c-2.43653-8.28393-.36548-18.51715-5.84754-29.23761s-11.32971-15.83716-18.39538-18.88275-14.74073-5.9693-18.88269-8.52759A13.48377,13.48377,0,0,1,387.26416,493.44122Zm138.73145-29.55456c1.55419,16.09192,10.21923,21.31781,20.32824,27.57611s21.66223,6.6709,26.20105,5.63934-3.301-2.40747-7.427-5.63934c-4.12622-3.23187-2.88843-5.50128.2063-4.676,3.09448.8252,16.71081,2.47571,22.28113-10.31537s7.427-33.42175-7.42713-45.18127c-11.30542-8.9502-23.519-11.75952-38.57946-2.26941S524.44141,447.79468,525.99561,463.88666Zm-37.41993,61.38989a10.2615,10.2615,0,0,0,7.46338,7.15179,6.17175,6.17175,0,0,0,5.55347-3.30078,19.21221,19.21221,0,0,0,2.93726-10.45269c0-4.126.2749-8.5271,2.05944-9.54114s.96619,4.865,2.3158,8.16583,4.15185,11.55286,5.5271,13.75342c1.37549,2.20062,6.05151,1.37536,7.977-.82514s4.126-11.00274,0-21.09411-11.27783-22.36688-15.679-23.24677-7.977,10.50733-12.103,20.9599S487.75049,521.70068,488.57568,525.27655Zm68.47608-36.83936c2.06311.82526,3.39282-.17639,2.47583-3.91979-.53858-2.19837-4.95142-1.65046-4.95142,0A3.67787,3.67787,0,0,0,557.05176,488.43719ZM505.71167,266.04156c3.98022.24878,11.44324-.49749,7.46289-5.72161s-14.42847-6.468-25.37414-3.98029-12.66895,5.64679-12.43836,11.94086c.5874,16.03656,1.9834,17.38568,4.78809,29.30554s14.02343,43.93976,14.6853,46.277c.66211,2.33722,2.61011,2.6878,3.545,1.63611s1.75293-13.55591,2.22034-16.94489,1.28552-5.60931-1.2854-5.60931-2.80469-.93494-2.80469-2.2204.46753-2.92151,3.03833-3.2721a2.853,2.853,0,0,0,2.80469-3.27209c0-1.28552-.35059-3.27216-2.10352-3.27216s-4.207-.58429-4.21118-2.57092c-.00439-1.98663,2.10767-2.4541,5.0293-2.10352s3.38892-1.16857,3.15527-2.6878-1.98669-1.636-4.79138-1.636-3.389-.81805-3.39319-2.57092c-.00439-1.75293,2.22461-2.33722,5.55347-2.33722,3.3291,0,3.33227-1.40234,3.33227-3.03839s0-2.33722-4.207-2.33722-3.6228-2.10352-3.6228-3.15527,3.6228-.93488,7.01172-.81806,3.85644-.58429,3.97339-1.16858a2.83536,2.83536,0,0,0-.23389-2.6878c-.81787-1.05176-5.72607-1.40235-7.59595-1.51923s-3.7395-.35058-2.68774-3.03839,5.14185-1.75287,10.167-1.28546c5.0249.46747,5.14185-1.16858,5.14185-2.57092s-3.97339-2.68781-8.06348-2.92157-5.72619-.70111-5.72619-3.15522S501.73145,265.79285,505.71167,266.04156ZM211.13257,524.61212c-3.947-4.36261-14.33423-1.86969-19.11231,3.94708s-4.15478,15.78846,2.90845,18.07361,18.69678,10.80261,21.1897,17.86585.62329,18.28131-.20777,23.05938,5.60914,6.23224,12.04908,1.86969,13.71106-10.92956,16.41162-16.68286,9.34839-9.49267,11.21814-11.57013,4.15954-23.47485-3.32154-35.10846-20.56884-10.38708-23.06164-6.85546-.62329,9.14068-2.90845,14.74969c-.87634,2.151-2.07739,1.0387-2.07739,1.0387S215.07971,528.97467,211.13257,524.61212ZM813.491,896.99921c3.41113-.24366,25.583-3.89838,28.75049-6.09119s2.43652-3.89838,0-7.553-4.87281-2.68018-6.822-.731-16.81176,5.84754-39.22729,5.36023-34.598-.97461-45.07483-7.06579-17.29895-9.50226-18.02991-10.96411-1.21826.97461,0,3.89837,4.38562,14.37519,5.60388,15.837-3.89831,1.46191-4.87292-1.46185-1.94922-5.36023-7.79675-5.36023-51.1659-9.25861-63.34827-16.32441-70.65784-37.03442-82.10938-46.293-70.8601-48.97314-84.5249-59.6936-43.63354-32.40515-51.67395-39.22729-17.53894-13.4101-23.42029-16.39032c-25.75048-13.0484-41.65149-20.4986-47.10327-26.82264s-11.99389-15.65484-13.08423-17.09545-1.52649-.13215-1.52649.95819,2.835,16.35528,1.74451,16.35528-3.707-7.85052-5.88782-8.94086-25.29626-14.3927-30.31189-18.536-6.324-7.85052-9.595-5.2337-6.54223,12.64807-6.106,15.483c.436,2.8349,2.43359,3.31916,3.46728.90717s1.89527-7.40821,4.30713-8.442c2.41211-1.03369,5.34082-.34454,4.99634,1.3783s-3.96265,8.442-3.27344,10.5094,3.44568,2.412,4.30713-.86145,4.30713-7.236,6.20215-5.51312c1.89526,1.72283-3.61792,8.78656-2.41187,10.6817s4.13477.34454,5.51307-1.89514,2.0675,2.06738,1.20593,4.47937c-.86133,2.412,1.03369,6.20227,4.65173,6.89141s23.24109,14.311,32.74341,17.9657,21.92834,6.33484,28.26306,10.23322c6.335,3.89837,9.746,9.01495,7.5531,10.72046s-.73083,2.92382.97461,3.89837,8.52771-2.43646,16.08069,2.92377,36.05981,30.45593,42.88208,34.11066c6.822,3.65472,20.1759,7.30944,20.1759,7.30944s-17.25219,3.16742-17.49585,4.87293,5.60388,5.33582,13.88782,6.80988c8.28418,1.47412,15.34985,1.96142,24.36475,8.29626s34.598,26.80121,57.7445,40.4455,45.31848,25.33935,48.97315,27.04486,6.33484,4.142,3.89831,5.60388-11.20776,4.142-15.34973,4.142,1.21826,3.65472,4.62927,5.36023,19.97913,3.65472,28.50684,3.41107,24.6084,12.426,51.166,17.29895,42.39453,10.72052,62.37365,11.69513,28.994,9.2586,47.755,9.9895c18.76074.731,26.801,1.94922,27.28833-1.2182s-6.822-5.84754-12.42578-7.30945C806.42529,901.38489,810.08008,897.24286,813.491,896.99921Zm-80.98243-282.644c-3.04675-1.10791-5.28662-.03985-8.58642,1.93891-12.906,7.739-158.06787,95.988-236.57471,124.607a.95527.95527,0,0,0-.26172,1.65662c7.59412,5.92114,44.2865,34.50128,46.27246,35.4942,2.21582,1.108,46.533-24.37445,58.16626-32.12994S732.23157,651.471,738.60217,647.03918s7.20154-6.09362,3.87781-16.065S735.55542,615.4632,732.50854,614.35522ZM230.62061,362.09729c1.477-.16412,9.51928-6.07263,10.17578-10.99634s-.6565-15.42779-4.4314-19.85913-4.90576-4.75964-7.04834-2.79016-12.61987,8.01032-11.64172,9.35516c3.663,5.03595,9.33484,11.32459,10.3197,16.24836C228.97925,358.97894,229.14343,362.26141,230.62061,362.09729ZM340.59229,332.093c3.81127-4.456,6.27758-12.303,4.25976-18.58075-.89673-3.363-.282-3.74646,3.51477-6.53064s6.2013-4.42957,8.859-2.65778,14.93384,11.13709,18.98364,12.52924,7.21387,1.139,7.97315-5.94818c.75927-7.08735,1.23327-32.31824,1.37134-36.04462s.63854-3.5813,6.80822-10.92609,18.80261-22.32818,23.5033-30.26056,11.60486-14.102,14.39587-18.21508,7.34485-11.89862,11.60486-15.86475,6.02271-6.31659,7.93237-6.31659,3.23169,1.17523,3.67237,5.28827,3.81933,7.34485,4.70068,15.86475,4.84754,38.78057,9.2544,60.66809,14.54272,55.52673,18.80273,65.80944,7.4917,16.89307,12.48608,16.59925c4.99463-.29376,8.81385-15.7179,11.75171-30.7013s11.60474-37.16467,17.18689-67.13147,11.45789-60.81494,12.63306-65.36877,4.113-6.7572,6.46338-6.61029,6.02283,4.55383,11.31091,13.51446c5.28833,8.96064,31.45838,44.51679,53.70166,63.92511s46.231,41.21534,58.22485,51.46467,53.20923,34.89129,66.72962,41.21533,14.39258,6.97827,14.17456,11.99389-.43616,13.30231-7.41443,17.44562-12.43,6.76019-12.43,8.94092,1.46093,4.92816,5.99157,7.34454,3.47364,4.98389,1.81238,9.81665-2.71838,6.79621-4.53076,8.1554-3.17151,2.5675-2.86951,4.98389.56079,8.92016-1.93982,12.78479-6.93371,5.00128-12.95788,9.0932-35.46362,12.61694-54.55945,15.11755-17.16357.11371-18.52747-.682.478-4.58276,1.18409-4.46508,3.64795,3.0595,7.29589,3.29492a16.54966,16.54966,0,0,0,4.90967-.23059c.54077,0,0-2.63587,0-3.24414s-8.989-5.00135-10.3407-5.94751-.338-3.17658.20276-3.98761,3.24414-1.28412,5.27173-.40546,6.96143,3.10889,8.651,3.17645,2.23035-.54065,2.16272-1.28406-7.09643-6.08276-10.20544-8.24548-3.37927-2.70349-4.39307-4.32556.54065-3.78479,3.10889-3.51447,6.21789,2.43311,11.422,5.27173,10.61108,5.67719,13.65234,6.691c3.0415,1.01374,3.71728-.40558,3.98755-1.08136s.54077-1.96-2.97363-4.46069-24.75989-18.55432-58.959-31.82562-59.08118-17.7027-76.1206-22.59906-24.22657-8.42188-40.51246-8.42188-30.58349,5.67987-54.282,14.68921c-23.69873,9.0094-81.28039,29.77014-99.10327,40.34644s-32.51221,24.48205-34.86255,27.224c-2.3501,2.742.65637,2.96807,1.6377,2.47747s12.43042-7.85083,18.56372-11.85791,16.92822-9.81347,18.40027-10.22235,2.61682.32709,2.535,1.3902.08179,1.79913-3.84351,3.84357-15.7832,9.32281-16.68286,10.71307.57251,2.37152,3.92542,2.28973,17.337-7.68713,19.13611-8.7503a1.8658,1.8658,0,0,1,3.02588,1.30847c.16357,1.06317,1.39013,3.353-2.45337,4.49786s-11.77613,6.13337-13.16626,7.36005c-1.39038,1.22669-.57251,2.45337,1.71728,2.61694s6.624-1.22668,10.54932-3.02581a42.51063,42.51063,0,0,0,4.98852-2.53516c1.06324-.57245,2.78052-.57245,3.68018,2.2898a10.54025,10.54025,0,0,1,.327,6.46051c-.4906,1.39019-1.55384,3.1076-7.60535,3.27111-6.05176.16358-39.78784-1.92254-50.65357-1.70526-10.866.21735-14.85693-.51745-17.36621-2.34247s-10.26538-9.92327-11.406-14.82782-2.73755-7.18579-5.93115-10.94976-5.93116-7.18579-6.15918-12.0904c-.22828-4.9046.45629-10.26544-2.85157-14.37158s-10.24975-4.33429-11.227-10.03729a36.27974,36.27974,0,0,1,0-11.13342c1.11865-6.71271,26.0658-25.05939,38.13513-35.58136s27.23328-23.51966,29.709-25.37647,4.35168-.96295,6.59363,0S336.78076,336.54907,340.59229,332.093Zm325.48278,76.08429c-1.77429-2.358-3.85791-4.50092-5.787-3.215-1.92884,1.28595-1.60743,3.6972,0,5.30469,1.60766,1.60742,1.92907,4.17938,4.82251,4.17938S667.7345,410.38251,666.07507,408.17725ZM696.93848,419.751a58.48012,58.48012,0,0,1-8.68018-3.37567c-5.14624-2.51429-10.23511-5.829-11.89538-6.75141-2.89344-1.60742-4.72962-.80371-4.13294,2.73273.59644,3.53644,5.03149,7.07287,10.04761,9.48413s9.83862,4.98315,12.732,3.85791S700.12256,420.8418,696.93848,419.751Zm2.89355-17.68219c-4.82239-2.25043-23.95141-9.64484-32.3103-15.271s-13.52612-8.04858-17.77417-10.61493-7.1416-.95886-7.30225,1.1308c-.16089,2.08978.96436,5.78693,10.77,11.57385s27.80921,16.23554,33.9176,17.843,13.6637,3.0542,17.03931,1.286C706.02881,407.044,704.65454,404.31927,699.832,402.06879Zm13.02051-13.66352c-.16065-2.89343-8.198-3.53643-13.02051-6.10839s-19.6112-9.80561-28.7738-17.8429S655.948,351.43341,653.376,350.95111a3.0639,3.0639,0,0,0-3.53638,3.69727c.48218,1.60742,3.21484,6.59063,9.64478,12.21673s18.32519,13.18128,25.71972,15.43177c7.39429,2.25048,16.71765,5.46545,16.71765,5.46545C707.86938,390.01276,713.01331,391.29877,712.85254,388.40527Zm-88.05908-74.1632c.37719,1.63391,2.6394,4.90167,7.541,7.16394s17.34436,14.6997,27.39893,21.55206,17.72143,14.64477,31.79809,21.55743,20.989,9.929,23.50269,10.80878,3.14209,1.38251,4.39893,0c1.40722-1.54779-1.25684-3.64484-3.89612-5.02734s-10.93445-1.63385-43.23523-26.89631c-32.30054-25.26232-36.8252-31.79785-43.86353-32.80334C624.4165,310.47162,624.4165,312.60822,624.79346,314.24207Zm-1.31641,22.40258c.16065,2.572.80371,3.69715,5.78687,8.19812s6.91211,9.00183,9.80566,10.44855,4.50085.643,5.30457-.96454-.13538-3.822-2.73279-6.91211c-3.1659-3.76666-10.127-11.57379-13.02051-12.53821C625.72754,333.91193,623.31628,334.07263,623.47705,336.64465Zm-340.45093,64.075c5.54468-2.96594,9.20569-8.34948,16.07569-10.97631,6.87024-2.62683,27.68261-19.6,33.94641-25.66181s6.26391-7.27423,6.06189-8.48663-3.43506,0-7.27417,2.22272-19.39795,12.32574-28.49073,17.37732-22.42883,15.55877-27.48046,20.14831-5.55738,6.24481-4.64746,7.53412C273.64209,406.31238,277.48132,403.68555,283.02612,400.7196Zm10.4834,16.302c-1.07568-2.62677-3.70239-4.84949-8.34985,0-2.671,2.78717-2.62683,5.25366-1.01026,6.466s4.04114,1.01031,6.26392-.80823S294.58521,419.64844,293.50952,417.02161Zm55.34827-12.90943c.24035-2.16266-3.58191-3.92114-6.96851-1.44177-5.78418,4.23468-28.59485,18.022-37.96631,25.23071s-10.81323,7.92975-10.33264,10.33264,2.40308,4.80585,6.488,1.92237,33.641-21.14582,39.64819-25.47107C345.734,410.35974,348.61743,406.27478,348.85779,404.11218Zm25.47107-18.17572c-4.085-.15375-10.76062,3.3374-15.13843,7.12219-3.45435,2.98633-1.68213,9.85206,3.60425,6.96851,5.28662-2.88348,9.61181-5.767,11.53418-7.92969S378.41382,386.09015,374.32886,385.93646Zm-22.48877-64.69208s1.81836,5.65772,3.637,6.87018,4.04126.80823,7.47632-1.41449,1.8186-7.07214,0-9.39587-6.06177-5.35462-8.6886-3.94019S351.43591,317.20319,351.84009,321.24438ZM332.84619,382.065c-9.09277,6.87006-24.04529,16.16486-29.09692,19.395s-7.27417,8.69147-5.45557,10.7121,2.42468,1.61652,5.85974,0,30.91541-22.22681,46.67615-35.76483c15.761-13.53815,17.17529-17.57947,21.01453-20.61035s6.46594-5.45569,4.80627-6.26392-8.64551,1.8186-14.50537,7.67834C356.2854,363.07117,341.939,375.19489,332.84619,382.065Zm558.7749-191.64825c1.43164-1.96875,4.47437-4.47443,8.41187-1.25281,3.93774,3.22156,10.2019,8.949,14.1394,10.02283s6.98023,3.57959,9.12793,4.11651,11.63379,1.96881,16.28711,3.22162c4.65357,1.25293,6.98023,1.78986,7.69629,3.22168.71582,1.43183,5.90625,2.14777,8.949,3.22162s4.47436.8949,7.51709,2.32678,6.0852,5.19037,8.05395,5.54828c1.969.358,7.15918,2.32678,9.30713,4.11658,2.14746,1.78979,17.89795,15.57123,20.04565,20.04571s6.02564,4.71314,9.60523,4.71314,6.68188.59662,5.96582,6.08514c-.71582,5.48859-1.24268,14.26544-1.41065,23.514-.16845,9.2486,1.34717,14.29321,1.51416,23.37354.16724,9.08044-3.02783,10.2575-3.364,12.77984s-.50439,4.87653-3.02685,7.39887c-2.52222,2.52234-1.6814,6.5581-3.19507,7.7351-1.51319,1.17713-3.531,2.85865-3.363,5.04468.16821,2.186.33643,4.20392-4.87646,7.06256-5.21265,2.85864-5.717,5.21277-9.75293,6.89435s-6.72632,1.009-9.24854,3.69946c-2.52246,2.69043-2.52246,4.20386-.16821,8.57593s4.2041,13.28424,1.68164,16.64734-7.0625,9.75305-17.15186,9.92114S948.22266,386.7691,940.824,386.601c-7.39892-.16821-10.93017-.3363-10.93017,1.00891s6.5581,7.39881,8.57593,9.753,2.186,5.54907,3.86767,6.8944c1.6814,1.34522,1.51319,4.54017,3.69922,5.88544s1.34546,7.0625,3.02686,8.40772a19.37852,19.37852,0,0,1,5.16577,8.576c.55151,2.85865-.62549,10.0893-1.46631,12.27533s-7.5669,9.24854-10.08936,10.93006c-2.52221,1.68158-7.23071,2.01788-10.59375.67267s-8.91235-9.08039-11.09814-11.09833a29.58965,29.58965,0,0,1-5.3811-6.22174c-1.177-2.01782-10.25733-7.39881-13.62061-10.7619-3.363-3.36316-4.70825-4.87653-6.22168-5.21283s-21.86035-2.186-25.3916-2.85871-27.24121.84082-35.48071-2.01782-28.75464-14.46136-40.18921-26.90491-8.91211-19.84228-6.3899-28.92273,4.87671-16.81549,7.90333-19.00152c3.02685-2.186,5.54907-3.0268,8.91235-.50446,3.363,2.52234,8.57593,5.04462,13.28418,3.86762,4.70849-1.17713,7.0625-6.2218,4.03564-8.74408s-9.4165-5.5492-7.0625-9.92121c2.35425-4.37207,9.08057-2.186,13.28443-.50445s12.10717-3.0268,14.125-5.54913-.33618-6.72626-4.87647-10.25751-5.04468-7.567-3.19507-10.59375c1.84986-3.0268,6.89453-5.381,11.09839-3.195s9.58472-7.73511,5.21265-11.939-1.51318-11.26641.33642-14.79766,6.72608-6.7262,11.77076-5.381,7.73535-1.68152,8.57592-4.20386c.84082-2.52234-1.34521-6.22174-4.20385-7.90326s-3.53125-4.204-2.52222-6.05365c1.00879-1.84973,2.69043-3.3631,6.38989-2.186s14.16138,1.009,15.825-3.19494c1.66309-4.20386-6.24023-12.44348-9.09863-13.45246-2.85889-1.00891-2.52246-5.21277-1.34521-7.567,1.177-2.35413,4.54-3.86756,8.2395-2.52228s11.77075,2.85858,13.6206-1.51343c1.84961-4.372-4.20385-10.762-8.23974-13.28424C886.34155,196.08087,891.62109,190.41675,891.62109,190.41675Zm106.061,116.79114c-4.05664,1.01416-7.38867,4.636-8.40259,9.70654-1.0144,5.07062,2.17285,5.93982,4.491,5.36035a16.7407,16.7407,0,0,0,11.44507-10.86554C1006.56543,307.57294,1001.73853,306.19379,997.68213,307.20789Zm-17.09522-2.75257c5.65015.28974,12.604-.1449,17.81958-4.49115s8.69239-11.3,9.272-16.08093c.57934-4.78082-1.75684-8.20624-7.968-4.34619-5.228,3.24878-22.16577,15.21167-23.32471,17.96429C975.22656,300.254,974.937,304.16553,980.58691,304.45532ZM881.17139,667.13623c-2.62207,2.34619-17.94141,15.8714-20.08057,17.38953-2.1394,1.51812-.65552,2.46051.136,2.4541.79174-.00641,1.67309-.04657,9.03662-4.5365s26.51391-20.06085,40.15283-35.29388,25.103-33.65723,26.1958-52.9607c1.09253-19.30347-10.90405-40.22027-18.5874-48.81329s-8.60523-13.04926-9.68091-17.81293-5.83936-8.60522-9.06616-10.14191c-3.22705-1.53668-6.3003-.15368-10.9104,1.22931-4.60987,1.383-6.915,3.84168-5.532,7.837s4.6101,6.6076,8.91259,10.29559c4.30274,3.688,9.52735,12.13959,14.44458,20.43756,4.91748,8.29792,14.44458,25.96949,11.37134,45.79236s-8.14429,30.6319-11.98584,35.67664c0,0,2.30493-35.60059,1.38306-47.3172-.92212-11.71662-2.96118-7.49689-6.44043-.6413-3.84082,7.56744-12.35523,26.57965-44.41944,47.9585s-40.37768,26.45373-42.63525,27.95874-2.408,2.709-1.2041,3.46161c1.2041.7525,3.16064-1.204,4.06372-1.8061s2.87866-1.23614,3.63769-.61511.27588,1.51813-1.03515,2.27722-2.48413,1.86316-1.24219,3.17426c1.24219,1.31116,3.79541-.69006,5.72754-2.48419s4.48535-.483,5.79663.55206c1.311,1.0351,2.208,3.31226-.75928,5.31348s-5.17529,4.20935-3.72607,5.10644c1.449.897,2.69116.96607,7.31445-1.72516,3.17676-1.84906,9.17725-5.92968,12.76612-6.48657,4.00244-.62109,5.72753.138,6.55566,2.00116s-3.10522,4.63532-6.7627,6.76856c-3.65722,2.13324-4.14013,3.44433-3.58837,4.2724.55224.82806,1.51831.69006,3.79541-.552a116.30142,116.30142,0,0,0,14.42236-9.17785c6.55566-4.89942,12.55908-10.00586,15.7334-12.62812s4.48535-2.48419,6.34863-2.27716C883.17261,662.02979,883.7937,664.79,881.17139,667.13623ZM749.28223,654.31866s-122.10584,78.34034-123.85645,80.091.3728,2.3219,3.60681,2.69507,7.71179,2.98516,6.71668,5.34851-13.93091,2.23889-21.39392,1.24383-6.96546,1.11945-5.59729,2.1145,8.73852,1.74134,6.29712,4.72657c-2.44117,2.98523-15.62586.49755-18.98414,2.23889s-2.1145,3.3584,0,4.35345.995,3.98029-4.10473,3.48273-10.697-1.38165-12.314.05548,5.09974,2.059,4.229,4.29791-7.83618,1.7414-13.68213,2.98523-24.87671,11.69208-26.61817,12.81153c-1.74121,1.11944-2.86071,2.23889,0,3.98022s54.61988,37.88434,57.19971,38.1189,24.8606-15.0102,50.6593-36.82184,97.097-87.44483,99.20777-90.04279-1.82093-15.73193-1.33875-18.62536,6.26929-6.42994,5.144-9.6449-3.37574-3.21491-4.34021-1.28595-3.858,2.73273-3.858-.48224,3.858-7.07288,4.66175-9.8056S749.28223,654.31866,749.28223,654.31866ZM128.75684,185.94843c-4.12964-25.01459-6.45215-24.19581,0-30.648s12.90454-15.80793,20.32458-20.0019,30.64807-23.228,35.48718-30.0028,13.227-12.90448,25.16358-17.09845c11.93677-4.19385,22.90552-6.77478,29.35766-11.93653S251.02637,62.38843,255.22046,61.098c4.19385-1.2904,9.033-5.16174,14.19482-5.48431S297.80493,44.3222,302.9668,43.35443s9.67834-5.807,12.90442-6.45227,7.42-1.2904,9.35571-1.93567,10.001-5.48431,14.195-6.45221,11.29125-1.2904,13.54956-1.613,16.77587-5.48438,25.48632-8.71052,35.48719-8.06524,48.0691-8.71051,57.42468-3.22607,71.61962-6.12957S520.72925-2.13373,527.504,5.93152s15.48535,16.45318,28.06714,13.22711,34.19677-10.001,40.32629-11.29144,9.67847-1.29047,17.09851,1.613,37.42273,8.06531,47.74634,10.001,43.55249,12.90442,57.10217,17.74359,36.45508,19.67926,41.61682,22.26013-7.09753.96784-7.09753,2.25831,5.80713,5.48443,11.2915,5.807,14.84009.6452,18.38868-1.613c3.54882-2.2583,8.38793,0,11.2915,1.93567s1.29053,13.227,4.5166,17.09833,12.9043,3.54877,15.48535-5.807c0-2.58081,31.93848,19.35669,38.71314,24.19587,6.7749,4.83917,8.71069,6.77484,13.5498,9.35571s10.64624,13.227,15.1626,19.034c4.5166,5.807,7.42017,5.807,6.12964,16.77575s-.90015,21.3855-8.61548,37.42292c-7.71558,16.03747-27.71875,53.186-32.00513,59.47271-4.28613,6.28668-7.26587,7.7508-7.07007,11.668.19605,3.91712-3.72119,6.855-6.07153,8.226-2.3501,1.371-4.11279,7.24665-4.89648,11.35968-.78321,4.113-4.50464,10.38037-6.855,14.68915-2.3501,4.3089-9.59668,14.49341-11.75122,18.21466s-4.30884,7.05084-11.35962,7.05084-11.35962-2.67376-18.41065-6.03747c-7.05078-3.36365-12.33887-4.147-14.68909-6.30151s-5.6798-6.85492-10.57629-9.0094-27.61572-16.45185-36.4292-22.13172-19.38989-5.87567-23.50281-9.0094-14.29748-14.29748-19.78137-18.2146c-5.48413-3.91711-7.83435-4.3089-12.92651-8.03009-5.09241-3.72131-7.83435-3.72131-13.31836-4.89642s-12.33887-2.35028-11.35962,0,7.33435,4.9621,8.727,6.52887,0,4.178-2.43726,4.004-14.62316.52227-18.105-1.91492c-3.48156-2.4372-9.22644-7.65979-11.66357-8.70429s-7.834-.87042-10.79333-5.04846-26.80921-34.91516-31.5094-40.17572c-4.25757-4.765-18.71192-12.75561-27.8285-15.373-8.05029-3.03876-14.58691,8.524-14.58691,8.524a136.20093,136.20093,0,0,0-5.21228,15.86145c-5.15234,18.2171-6.20679,21.05786-13.04346,21.05786s-29.45056-.52594-31.81714-.52594c-1.10083,0-4.30761-8.30786-7.92529-17.64349L465.787,186.27594a71.193,71.193,0,0,0-5.1062-10.50623l-20.37146,1.03913c-6.81787,2.63165-13.32373,6.238-15.73584,9.13251-.76722.92071-2.17017,2.70776-4.01514,5.09075v.00007L409.9729,204.78833l.02026-.00775c-12.03906,15.68719-27.27295,35.42163-30.12133,37.43237-4.47022,3.1554-23.92871,4.996-33.132,11.83277s-18.14368,11.044-20.24719,11.56988-6.3108,4.73309-9.46631,4.73309c-3.15528,0-6.83667.78888-8.67725,2.1037-1.84082,1.3147-9.72925,6.04779-12.35889,6.83667-2.62939.78888-13.14746,1.31476-15.251,3.94428-2.10376,2.62945-5.5221,5.259-8.15161,6.04785s-11.04395,4.47015-13.41053,6.83673-17.269,9.33142-22.51135,13.076-16.66333,10.29755-20.59521,14.04211c-3.93164,3.74457-8.425.37445-9.923,0s-7.30188-4.11895-13.29321-5.05517-10.42847-13.38239-15.33667-24.60108-22.671-42.53741-25.70947-48.38049-.21912-9.739-4.2843-12.397-7.19214-14.69709-7.81763-17.51136-2.9707-4.69055-3.28345-8.28668-1.09436-6.4104-3.28332-8.28662S130.1593,194.44312,128.75684,185.94843Zm585.49371,15.14691q-14.78686,11.2922-23.18366,7.78424l-1.91961,3.05578q4.90127,2.45517,11.90771,6.85669,8.64541,5.43082,18.65033,12.33936l1.91962-3.05579q-6.64288-4.48452-8.59149-8.827-1.94889-4.34262,1.60919-10.0072,3.93284-6.26065,14.84875-14.37153l10.626-7.98065,33.24127,20.88153-6.5639,30.80139q-1.2279,6.089-2.6781,8.40009a5.01147,5.01147,0,0,1-5.11884,2.60529q-3.24774-.37611-9.12524-3.75727l-1.91962,3.05579q7.80789,4.281,23.46008,14.11365,14.01161,8.80177,22.89856,15.008l1.60523-2.55536c-6.30341-7.02612-11.78314-17.6314-10.15827-29.95654,3.51734-26.67773,10.26056-50.70453,11.824-58.21588,0,0,.224-.92963.51178-.88318.34259.08191.24792.5976.20276,1.05493-1.83911,15.72425-3.57538,21.7168-6.94928,45.16236-1.17658,8.17486-3.26911,19.89636-.06879,28.27142.28961.75781.60413,1.55231.9336,2.36536a36.5046,36.5046,0,0,1,.53753-4.10236L815.73047,140.3194q-2.45169-1.22792-5.43237-3.10059-2.83311-1.7796-5.15125-3.54785ZM594.66748,173.92975q20.75949,6.17605,31.56036,9.6784,10.96729,3.55618,32.40625,11.06293l.94086-2.90155c-21.79364-7.73352-24.01837-21.25091-20.05725-33.4671,2.90765-8.96722,14.72522-42.0755,16.74359-48.01251a1.52908,1.52908,0,0,1,.69745-.84021l.01825-.01032a.82926.82926,0,0,1,1.1145.28742l.06812.11084a1.52987,1.52987,0,0,1,.17108,1.21746c-1.61591,5.74976-9.33783,32.59662-14.19409,49.554a17.67833,17.67833,0,0,0,1.11779,13.56763q.486-2.23215,1.36945-4.95905l31.76367-97.95959,3.93506,1.276a26.78479,26.78479,0,0,1,12.75922,8.16235q4.55319,5.5016,5.95556,15.16278,1.39976,9.66174-.39441,24.90125l3.93537,1.27606a135.39342,135.39342,0,0,1,3.64892-13.25153q3.80045-11.72076,10.70356-28.72943-15.65333-4.52032-52.994-16.62829Q628.594,51.31876,613.10132,45.74q-4.39114,17.823-8.19171,29.544a135.77,135.77,0,0,1-4.82148,12.87127l3.93506,1.276q7.599-13.44965,14.404-20.45111,6.80246-7.00058,13.70648-8.74109,6.9006-1.73969,15.19128.9469l3.76776,1.22168L619.329,160.36725q-2.30768,7.117-4.78961,9.92047a8.26659,8.26659,0,0,1-6.588,2.76776q-4.10715-.03507-12.1709-2.55847ZM514.46509,17.20544c9.946.92518,8.56054-6.69976,6.01391-8.327-5.26635-3.36493-10.511-3.46948-14.50781,0C501.97461,12.348,504.51892,16.28021,514.46509,17.20544ZM444.88391,163.40509q5.72058-.52826,15.66724-.52808,12.497,0,19.45178.52808v-3.6087q-8.09922-.79212-11.66235-3.08069a11.12931,11.12931,0,0,1-4.70911-7.26142q-1.14468-4.97168-1.144-15.62323V64.64948l78.24731,99.10772q1.671-.08871,4.84107-.088c1.62213,0,2.87262.01831,3.76269.055L487.67218,86.38672a1.35485,1.35485,0,0,1-.291-.65784.50358.50358,0,0,1,.65021-.5542l.04431.014a1.35476,1.35476,0,0,1,.61249.402l61.28858,64.75494V63.15326a70.00722,70.00722,0,0,1,1.01214-13.86279,11.69217,11.69217,0,0,1,3.78461-6.8653q2.7725-2.24432,8.66968-3.03668v-3.6087q-5.63379.52817-15.66687.528-12.49906,0-19.45185-.528v3.6087q8.09683.792,11.66236,3.08063a11.1409,11.1409,0,0,1,4.7088,7.26141q1.14276,4.9737,1.144,15.62323v56.41913l-69.79761-85.9931q-6.42581.52817-15.4909.528-9.94776,0-15.66724-.528v3.6087q5.98453.26432,8.71362,1.4082a6.52055,6.52055,0,0,1,3.74067,4.225q1.01082,3.082,1.01245,9.858v81.1518a70.10334,70.10334,0,0,1-1.01245,13.86285,11.69878,11.69878,0,0,1-3.78461,6.86523q-2.77249,2.24478-8.66968,3.03675ZM342.60425,89.78448a2.33934,2.33934,0,0,0,1.78076.88038l.43188.0094a3.13757,3.13757,0,0,0,2.96564-1.92908c.99463-2.38477,2.01813-4.53754,3.00806-6.61963.85931-1.80743,1.671-3.51434,2.34973-5.145.89844-2.15906,3.05457-6.67786,4.95691-10.66467,1.72552-3.61646,3.21588-6.73944,3.68658-7.91113,1.31214-3.26764,1.76386-6.20136,1.27216-8.26056a4.9935,4.9935,0,0,0-2.71588-3.29187,5.936,5.936,0,0,0-4.93775-.22773,4.64635,4.64635,0,0,0-1.90136,1.47486c-2.15161,2.83648-3.16742,6.03961-4.64661,11.031-2.80627,9.4679-5.64648,23.45917-6.71576,28.72644A2.3355,2.3355,0,0,0,342.60425,89.78448ZM303.02911,217.26117l1.41925,3.31787q4.80863-2.63141,12.41633-5.88544,9.38689-4.01541,20.76275-8.30719l-1.41925-3.31787q-7.46879,2.90781-12.14825,2.03754-4.67973-.8703-7.31073-7.02045-2.90781-6.7977-3.36066-20.38952l-.51111-13.27936,36.09241-15.43884,21.58459,22.93273q4.30683,4.47621,5.38092,6.98426a5.01136,5.01136,0,0,1-.77258,5.69146q-2.15808,2.45572-8.28424,5.36268l1.41925,3.31787q7.965-3.98154,24.95966-11.251,15.21341-6.50766,25.37536-10.28027l-1.2442-2.90863c-8.88037,1.4013-19.44952.93158-29.89184-8.76776-19.7157-18.31287-35.34186-37.51764-40.62665-43.07947,0,0-1.12885-1.12879-.36365-1.75061a1.51886,1.51886,0,0,1,1.9671.25146c11.34235,10.9989,14.02161,13.6958,31.50543,31.35767,5.46711,5.5227,11.08106,11.27386,19.76038,12.88617L317.64209,75.741q-2.40546,1.31643-5.64172,2.70062-3.07637,1.316-5.84967,2.2149L309.82916,193.77Q310.69361,212.35535,303.02911,217.26117ZM170.83185,193.93842a32.099,32.099,0,0,0,11.611,12.50915,45.27153,45.27153,0,0,0,15.18067,5.7395,199.50806,199.50806,0,0,0,21.04553,2.42987,167.16619,167.16619,0,0,1,18.22125,2.21973,39.08685,39.08685,0,0,1,12.69977,4.689,24.37291,24.37291,0,0,1,8.95856,9.4956,20.0436,20.0436,0,0,1,2.73706,11.14447,17.99107,17.99107,0,0,1-3.75159,9.8288,27.83492,27.83492,0,0,1-8.92188,7.44067q-14.12961,7.732-26.98425.46863-12.85391-7.26343-23.53345-24.396l-3.62927,1.986q17.95788,32.8167,22.74793,43.03662l3.629-1.98584a21.92413,21.92413,0,0,1-1.659-5.96527A2.77042,2.77042,0,0,1,220.514,269.694q1.9292-1.0557,6.55292-.676a56.03377,56.03377,0,0,0,13.11615-1.60883,65.35046,65.35046,0,0,0,15.57543-6.46631A62.26646,62.26646,0,0,0,273.72192,246.648l.091-.10815a22.0042,22.0042,0,0,0,2.77746-23.97944c-7.48907-14.89044-22.43835-18.41992-31.61786-20.3551-5.02264-1.0589-14.71685-2.76568-22.50653-4.51623-6.43261-1.44556-9.946-2.6081-13.571-3.31244-1.25342-.32941-.96686-1.37988.08081-1.21356.30817.04889,9.42584.988,14.71027,1.4259,11.65856.96588,27.50439,2.981,37.182,5.16821,8.8913,2.00958,14.48883,5.75275,17.91364,10.17279q-.33546-.66761-.69989-1.3363a32.56114,32.56114,0,0,0-11.1297-12.27088,43.4291,43.4291,0,0,0-14.633-5.83868,192.08613,192.08613,0,0,0-20.54346-2.70465q-3.5972-.33839-13.97363-1.33307a83.2297,83.2297,0,0,1-17.83307-3.43555q-7.45687-2.44052-11.76617-10.31726a18.53694,18.53694,0,0,1-2.46814-9.73608,16.32525,16.32525,0,0,1,3.11365-8.978,23.18914,23.18914,0,0,1,7.939-6.85278,24.21939,24.21939,0,0,1,16.50043-2.75854,36.54516,36.54516,0,0,1,16.05426,7.51922,56.18734,56.18734,0,0,1,12.73737,14.20032l3.6289-1.98584Q231.765,138.6217,226.74866,127.621l-3.629,1.98584a21.95725,21.95725,0,0,1,1.65887,5.965,2.77114,2.77114,0,0,1-1.33087,2.88544q-1.5454.84567-6.55279.67633a78.372,78.372,0,0,0-7.892.15478,37.89736,37.89736,0,0,0-8.18848,1.7215A57.88913,57.88913,0,0,0,190.42786,145.59a54.50044,54.50044,0,0,0-15.94922,12.84137,32.98006,32.98006,0,0,0-7.5921,16.74627Q165.59335,184.36529,170.83185,193.93842ZM117.56641,984.15723c.35278,5.29315-1.76441,8.29254-5.82251,9.88055s-8.99829-2.47015-11.46851-2.2937-7.4104-2.99945-8.11621-4.23456-6.5282-2.82294-12.17432-5.646-29.1123-18.17316-40.93359-33.69971S15.93774,908.818,9.58594,889.05688-.47095,851.12262.76416,847.94672s6.52808-9.88056,9.52759-10.057,13.58569,3.88165,19.76123,8.382c6.17529,4.50036,10.05688,6.08594,11.11548,4.498s-1.9408-7.93969-7.58692-16.93811-11.82129-29.818-12.17407-34.582c-.353-4.76379,5.82239-21.17254,7.58679-27.7008s5.646-8.2926,8.11609-7.76331,4.411,4.05817,6.35181,3.70526,2.11731-2.2937,3.1759-5.999,3.35242-17.29089,8.64551-25.4071,20.11389-18.70246,29.28882-23.46631c9.17468-4.76392,15.35022-5.82251,19.23181-2.11731s6.5282,13.76221,8.99829,16.23236,4.23462,8.64551,7.05762,11.46851,21.45727,32.1878,29.71557,41.01434c9.6648,10.33008,9.17994,12.28375,7.86084,12.6607s-7.34936-1.88446-11.68383-3.20361c-4.33423-1.31915-19.59852-5.6535-24.68653-.18848s-.56543,18.4679,3.58045,29.9632,20.91772,34.29755,23.17907,36.37042,5.08814,3.9574,6.0304,5.84192,8.212,9.807,11.28943,12.88434c3.07715,3.07733,2.51758,4.75586-.27979,5.595-2.7976.83936-1.3988,7.55341,2.6576,10.77063s4.75573,5.31537,3.21716,7.13379-5.735,1.25891-9.79138-2.32922-9.51172-3.96527-11.33008-2.007-3.07739,7.55328.41955,12.58893,4.19642,10.63073,3.49707,12.72888-5.25634,5.48688-10.66235,2.97687c-5.40625-2.51-10.04-8.68842-12.743-5.213s1.35144,11.58448,6.9508,16.41138c5.59913,4.82691,5.89234,8.37579,2.36377,12.4339-3.5288,4.058-8.46911,2.11725-13.58593-.70575s-9.17481.17639-9.88037,3.35236c-.70581,3.1759,4.41088,6.881,9.7041,9.52765s3.70508,4.411,2.47,7.58685-9.8805-2.11725-12.5271-3.3523-4.7638-2.29376-7.05762,2.64655c-2.29358,4.94031-1.76428,7.4104,1.41162,10.93915S117.21338,978.86407,117.56641,984.15723ZM60.01965,819.93817c0-8.06006-2.10266-14.19281-6.48315-21.0263s-9.28662-8.23536-11.73975-5.43183-1.92737,5.60706.70081,7.88483c2.62842,2.27789.35766,3.75366-1.92725,3.32922-2.561-.47571-6.65844-.70093-6.308,3.15393s3.67956,16.99634,11.214,19.9751S60.01965,827.99835,60.01965,819.93817ZM2.28577,346.8949a147.30491,147.30491,0,0,0,6.60388-28.70136c1.77783-13.46167,7.87378-22.85943,10.66772-27.43139s2.53992-7.61982,4.5719-13.96961,7.1117-11.17578,11.17566-17.01764,8.38184-11.68371,10.66773-14.73163,10.41381-4.82592,13.20776-8.38183,8.88989-5.58789,15.49365-8.12781,25.65332-11.93774,30.98731-14.22369,8.57861-2.16706,10.41382,0c.93908,1.10894,2.032,4.0639.762,5.07989s-4.82593,2.79389-7.34058,7.87378c-2.5144,5.0799.22876,14.22369,2.76856,12.69977,2.54-1.524,12.4458-7.8739,12.4768-7.61987s5.30274,5.07989,4.28687,6.09588-9.65173,8.12781-12.95361,10.66773-1.77808,10.66778,1.26989,10.41375,16.25562-10.92169,18.03357-9.65173,6.096,6.85785,5.8418,8.38178c-.25391,1.524-5.8418,6.60388-10.92163,11.68377s-2.28589,16.25562,3.55591,13.7157,16.25561-9.14386,18.03344-7.11188c1.77808,2.032,5.842,5.0799,4.064,7.87378-1.77783,2.794-6.34986,10.41382-8.88977,14.22376s2.032,10.41375,6.35,8.88971S166.62,297.62,167.12793,298.382s4.82593,4.06384,6.34985,7.87378-3.30188,9.14386-4.31787,15.23968,2.79395,9.1438,9.39783,7.11182,6.34973.762,7.61975,7.36584,11.17578,7.11182,18.03357,9.1438,10.41382,11.93775,12.44568,20.82746.762,15.74768-1.52393,16.5097-7.11181,1.27-9.1438,5.84186-7.61975,8.12781-10.66772,8.6358-4.82593,5.0799-6.60388,5.58789-3.80994,3.04792-8.38172,3.80988c-4.572.762-16.50976,3.80987-22.60547,5.33386-6.09594,1.524-5.07995,4.82587-9.65185,10.41376s-10.92175,7.36584-12.69971,12.69971-6.34985,8.38177-7.36572,9.90582c-1.01611,1.524-2.28613,6.34985-5.08,8.38183-2.79406,2.03186-4.8258,6.60382-6.85778,13.20765s-8.63587,18.28759-11.42981,19.30352-11.93775.508-20.82752-1.77795-20.57349-12.44568-26.4154-17.52557-7.87378-7.36585-7.36585-13.46167,2.794-13.20771-1.01587-18.54157c-3.81006-5.33392-7.8739-1.77795-11.42981,1.27s-5.33386,2.286-6.35-2.53992c-1.01587-4.82593-3.04785-5.84192-3.80982-8.88983s-2.54-6.09589-4.064-10.92175-2.5398-8.12781-2.794-13.2077c-.2539-5.0799,3.81006-10.92176,4.064-15.23969s6.34985-12.44568,10.15967-17.52557c3.81-5.07984,8.38183-18.79554,8.88989-20.57355s1.52392-7.36585-1.778-6.34979S34.035,345.879,28.70117,351.21277a43.57033,43.57033,0,0,1-14.73169,9.39783c-2.79394,1.01593-6.09582-1.27-9.65185-4.572S.76172,350.95886,2.28577,346.8949Zm35.215,37.65014c-2.60522,7.82264-3.79956,16.5976-.99988,19.79718s4.59949,4.39936,9.79871,1.79975,13.5979-16.99762,13.198-25.59638-3.93726-10.37445-8.19873-8.59881C41.7002,375.94629,39.23755,379.32959,37.50073,384.545ZM346.33661,146.1792,310.76611,108.455l1.98682,52.09ZM779.001,586.27228c-2.061,2.37805-2.061,6.34143,0,8.40234,2.06079,2.061,6.34131,2.37805,8.0852,5.54871s-3.17065,4.439-2.37817,7.134c.79272,2.69507,2.85376,3.32922,6.5,2.69507s6.18286,3.17071,3.17065,5.3902c-3.012,2.21948-6.81689,4.41565-4.439,7.92669,2.1958,3.24195,9.5122,13.3169,10.78051,14.74372,1.26807,1.42682,3.17066,0,6.02417-2.061,2.85376-2.06091,9.82911-6.65838,12.04859-9.512s3.01221-5.70728-1.10962-10.78034-22.67041-24.25573-27.74365-27.585C784.8667,584.84552,781.06177,583.89429,779.001,586.27228Zm5.92053-432.9801-41.692,31.29034,30.93079,19.43018Zm7.84485,170.43591c-2.68482-.358-8.77-.71594-12.70752-1.43189-3.93775-.71588-11.0968-7.6961-12.8866-7.6961s-2.86365,4.83246-4.47449,14.1394-2.50561,22.55145-1.07385,29.17365,11.27576,14.85534,12.70752,14.85534,3.0426-6.08532,4.8324-13.60247,4.11645-13.0655,6.08545-15.77863c1.96875-2.71307,6.44311-14.82684,7.51709-16.79565C792.76636,326.59174,795.45117,324.086,792.76636,323.72809ZM329.14557,993.67255q-4.49882-1.87629-7.16016-1.594a6.76532,6.76532,0,0,0-4.68384,2.94318,41.92479,41.92479,0,0,0-4.54608,8.71332l-17.191,41.21978,7.19709,3.00159q9.40383,3.92193,16.18133,2.52393a19.91066,19.91066,0,0,0,11.30371-6.615,50.482,50.482,0,0,0,8.07514-13.72193q5.73037-13.74,3.79773-22.803Q340.1854,998.27787,329.14557,993.67255Zm557.78021,48.35711c.91846,6.42884.91846,17.29651,0,19.2865-.91821,1.98975-6.27563,3.21436-8.87793,7.50025-2.60205,4.28588-4.898,8.87793-8.87768,12.85766s-7.95948,5.20423-11.93921,8.11255-15.46,8.57178-18.67432,11.78613c-3.21435,3.2146-19.7456,15.91907-22.04175,17.29663-2.2959,1.37769-3.52051,1.83692-5.35718-1.53076-1.83691-3.36743-6.7351-8.87793-10.86792-6.12268s-5.051,7.04114-5.20434,13.16382c-.15283,6.12268-.15283,5.51038-2.75513,7.04114-2.60205,1.53052-4.74511,1.37768-5.5105,2.449-.76513,1.07154-3.21435-.30591-5.51025-1.98974s-8.4187-3.21448-10.86792-1.22461c-2.449,1.99-5.2041,1.68384-8.11243,1.53064a9.55544,9.55544,0,0,0-7.65344,3.52051c-1.98987,2.296.61231,1.99,1.98987,1.684s3.52063-.30616,3.0614,1.37744c-.45923,1.68383-4.439,2.44909-7.50024,5.20434s-6.12281,5.5105-10.40869,7.34717-10.1023,5.05127-13.62293,6.88794c-3.52051,1.83691-5.81653,0-9.64319,2.44922s-9.79638,5.81653-15.766,7.34717-39.18518,9.79638-47.91,12.70459c-8.72486,2.90844-14.38831,3.06128-19.43946,4.13281s-21.12329,5.05127-24.03161,5.05127-5.05115,1.22449-7.8064,1.98987-12.85767.30615-18.52112-1.07154-12.39843-3.06128-15.15368-3.97973-5.81653-1.6836-7.19422-.30616c-1.37756,1.37781-3.36743,1.07154-5.8164,1.07154-2.44922,0-5.20435-.30628-6.27588-1.98987-1.07154-1.68384-7.95948-1.83691-9.49024.15295s-3.82666,6.88807-13.46985,10.71485-15.04321,3.52051-18.77209,1.68371-29.291-4.28589-36.79126-4.89819-15.15356-2.2959-18.062-1.83667c-2.90821.45911-17.12525-.74023-18.82715-.91846-13.16382-1.37768-28.01135-2.29614-32.45032-4.28589-4.439-1.99-19.13342-3.36743-22.34778-3.82678-3.21435-.4591-4.74511-2.602-7.19409-3.21448-2.44922-.61206-8.5719-.153-9.79638-1.83667s-20.66407-5.66357-24.95-7.34716c-4.28588-1.68384-9.031-2.6023-10.56164-4.592s-7.19422-.91846-12.55164-3.52051c-5.35717-2.6023-6.58178-5.35742-6.58178-5.35742s-6.88794.15295-8.87793-.76539a61.18787,61.18787,0,0,0-7.65332-3.36755c-4.28589-1.53064-10.71473-3.36731-15.30677-5.81653-4.59192-2.449-9.79626-2.602-15.30664-5.81665-5.51037-3.21423-13.16382-9.03076-16.68432-13.16357s-10.40857-7.95947-20.05188-10.40869-30.61341-12.85755-36.88916-20.05176-27.55213-22.807-32.75635-26.78662l-5.20435-3.97986s-11.17383-9.337-12.24536-11.327-3.82666-4.71948-6.735-7.94665-8.22107-8.21692-6.92737-15.31555c3.35412-18.40259,7.53186-29.80835,10.89941-33.17585s3.36743-16.22509,5.51026-20.81713c2.14306-4.59205,5.43383-12.5514,7.73-13.69941,2.29589-1.148,2.29589-6.429,2.0664-8.03625-.22973-1.60718,9.873-21.12372,12.16919-24.56787,2.2959-3.44409,5.5105-3.67377,6.65845-8.49549s5.05151-11.7099,9.18433-18.36847,5.74023-9.41394,6.65856-9.87316,5.281,4.59216,7.1178,5.74023,4.82178,3.21448,5.96985,5.96973,11.25061,9.41388,12.6283,11.02111,7.18921,4.03638,10.58716,7.43439c3.39819,3.398,11.79321,5.99652,14.7915,8.19519s9.39453,4.59741,11.59326,4.7973,5.397,3.79773,8.19531,4.59729,24.186,7.99537,27.98377,7.99537,27.1842,6.79614,32.58117,8.19531,61.56434,5.79657,71.95826,5.79657,11.99316-.79944,14.99145,1.1994,16.99011,7.79547,30.78223,9.39447,25.38525,3.79785,27.1842,4.7973,9.39466,3.79773,13.99182,3.398c4.59742-.39972,18.38941-1.799,24.386-1.39917s16.3905-2.39868,25.1853-2.99829,17.39,2.19873,22.38721,1.19928,17.58972-3.79779,21.18774-3.398,4.13135-3.398,8.16211-2.39856,3.83081,3.398,6.62915,3.398,8.99488-1.59912,16.79041-8.19531,13.19226-1.599,17.98962-5.197c4.79712-3.5979,10.1941-5.197,13.792-6.3963s7.79541-2.99823,10.59375-3.5979,3.20349,2.019,1.8258,5.23352-3.21448,7.04107-.306,7.95947c2.9082.9184,12.39844-2.296,16.072-5.20428s5.3573-8.72486,6.88794-10.40857,6.582-4.439,8.57178-4.439c1.99,0-.91834,3.67365,3.0614,3.82666s6.88806-6.42883,11.78613-12.55151,15.00061-7.50025,21.27637-11.48,13.776-7.19415,15.91907-7.34729c2.14282-.15308,13.46972,2.75519,16.2251,3.21441,2.75512.45923,48.52221,3.06141,61.2268,1.53071s21.7356-3.21442,22.3479-3.3675,3.06128,4.8982,5.66333,9.18408c2.6023,4.28583,3.82691,6.888,5.35742,8.7248,1.53077,1.83685,1.37769,6.12268,3.06128,8.26562,1.68384,2.143,6.88819,11.57324,9.64331,15.81256s10.10254,20.15827,11.78614,21.07666c1.68384.9184,1.83691,6.58185,3.5205,7.19416,1.68384.6123,8.572,14.69445,11.93921,22.19476C881.72168,1021.21246,886.00757,1035.60083,886.92578,1042.02966Zm-522.71985-28.5982q-8.54232-12.44238-31.60376-22.06153-3.1896-1.33026-11.43634-4.57775-8.24808-3.24629-14.95324-6.04444-16.92966-7.06064-25.23072-11.09869l-1.3985,3.35321q5.45874,2.56494,7.55121,4.68542a6.5655,6.5655,0,0,1,1.8385,5.37549q-.25506,3.25552-2.87982,9.55225l-34.65491,83.09405q-2.62683,6.29847-4.76068,8.7677a6.55808,6.55808,0,0,1-5.113,2.476q-2.97967.006-8.6427-2.06836l-1.39844,3.35327q8.70987,3.05639,26.62134,10.52661,16.35672,6.82177,25.06726,11.03052l1.3985-3.35328q-5.541-2.59863-7.633-4.71948a6.41871,6.41871,0,0,1-1.79773-5.35815q.2927-3.23768,2.92065-9.53516l16.0655-38.521,10.87744,4.53649a11.74732,11.74732,0,0,1,6.68145,6.195,20.30582,20.30582,0,0,1,1.30555,9.7616,114.54321,114.54321,0,0,1-2.3736,14.32385l-3.93213,17.946q-2.44437,10.69557,1.494,17.137,3.938,6.44238,13.58826,10.46777a43.3631,43.3631,0,0,0,4.76489,1.68067c-4.0763-3.35523-6.8385-9.94581-5.28143-20.71558,1.58026-10.93018,8.152-24.4082,6.48651-33.60706-.81635-4.50879-3.73749-7.6643-5.53192-9.72522a.16564.16564,0,0,1,.23333-.23339c7.95923,6.54,9.2843,9.57446,9.675,18.188.40668,8.96509-1.89685,16.33326-4.15613,27.3042-3.33276,16.18433,9.6753,19.02735,12.21857,19.42554a35.20108,35.20108,0,0,0,7.89587-2.77209l-1.43725-2.99939a17.37219,17.37219,0,0,1-4.46521,1.4978,7.6031,7.6031,0,0,1-3.8443-.45093,6.09254,6.09254,0,0,1-3.85663-4.68066q-.66824-3.35047.77374-10.71875l3.35315-18.85987a29.00372,29.00372,0,0,0-.32592-13.72155,25.97225,25.97225,0,0,0-7.23169-11.32105,66.73306,66.73306,0,0,0-15.21088-10.3761l-.16345-.06824q14.50213,4.12867,24.99133,2.69422,10.48572-1.43537,16.80109-6.67468a32.564,32.564,0,0,0,9.4176-12.68225Q372.74592,1025.87415,364.20593,1013.43146Zm72.73218,2.65631.24933.35736a3.15938,3.15938,0,0,0,3.3305,1.26233c2.52881-.60956,4.8863-1.05756,7.16614-1.49115,1.97968-.37634,3.84949-.73169,5.57788-1.14972,2.28638-.55316,7.23487-1.48669,11.60071-2.31043,3.96948-.74908,7.39764-1.39581,8.63056-1.71038,3.43457-.87616,6.08667-2.25293,7.46783-3.87671a5.31235,5.31235,0,0,0,.72089-5.3913,5.41438,5.41438,0,0,0-4.25269-3.55395,4.7151,4.7151,0,0,0-.4873-.03394c-3.5832-.06183-6.78974,1.01691-11.725,2.78223-9.364,3.34979-22.418,9.35919-27.33246,11.6217a2.35872,2.35872,0,0,0-.94641,3.494Zm57.78326,117.00549q10.015-14.30384,12.45862-34.18091,2.49656-20.317-3.60864-36.02124a54.263,54.263,0,0,0-19.53461-25.21142q-13.429-9.50538-32.42657-11.84131-18.55838-2.28039-34.10718,4.37952a58.89886,58.89886,0,0,0-25.52167,20.9696q-9.97366,14.30915-12.41461,34.18628-2.49656,20.31683,3.5647,36.01611a53.97181,53.97181,0,0,0,19.49066,25.20569q13.42867,9.50775,32.5144,11.85242,18.46967,2.26941,34.01935-4.39063A59.20245,59.20245,0,0,0,494.72137,1133.09326Zm24.40632,48.3103c-2.8169-1.1267-6.7605.37574-11.83106,1.69019-5.07056,1.3147-2.81689,6.94849,0,9.57776,2.8169,2.629,8.61914.64636,12.58228-3.56824C521.9707,1186.879,521.94482,1182.53052,519.12769,1181.40356Zm115.39141-34.44287a234.80827,234.80827,0,0,1-3.52172-27.36523q-.80522-10.06934-.65992-16.03735l-4.24011.33911q-.37958,14.165-5.46142,23.41626a34.59735,34.59735,0,0,1-12.8136,13.73681,39.16257,39.16257,0,0,1-16.74079,5.20581l-11.09393.887-9.26971.82116a6.56314,6.56314,0,0,1-6.47895-9.29968l32.3548-69.32861a1.18763,1.18763,0,0,1,1.55853-.60266c.95233.40661.465,1.43151.465,1.43151s-27.3158,61.87708-27.41669,66.93189a6.223,6.223,0,0,0,2.39966,5.12671l50.96649-119.72156-.28961-3.62158q-15.857,1.80148-51.54309,4.655-28.79691,2.30264-40.76276,2.72625,2.64541,16.41267,3.52137,27.36524a117.07306,117.07306,0,0,1,.4837,13.82886l4.23981-.33887q.77472-20.33021,9.50366-29.56226,8.72928-9.23181,23.65723-10.4259l20.66961-1.65283L540.51,1150.83325l.28961,3.62158q14.97354-1.7307,48.6283-4.42187Q621.04914,1147.50445,634.5191,1146.96069Zm149.71808-61.91479-1.56634-3.2782a10.00134,10.00134,0,0,1-6.67841-.00073q-3.88412-1.1391-8.64038-5.54553l-88.7135-83.51606q-2.36463,1.42475-5.5622,2.9524-3.03936,1.45221-5.79156,2.47241l8.42755,113.62726q1.64631,18.65882-5.85846,23.91394l1.56629,3.27832q4.72723-2.848,12.24371-6.43933,9.27447-4.43135,20.538-9.22376l-1.56634-3.2782q-7.39124,3.23712-12.13464,2.55725-4.74372-.67986-7.64728-6.75634-3.20911-6.71631-4.23279-20.36939l-1.069-13.33642,35.66009-17.03833,22.67054,22.16589q4.51913,4.32276,5.70453,6.80066a5.04528,5.04528,0,0,1-.53925,5.75732q-2.06828,2.56055-8.109,5.74048l1.56628,3.27832q7.84543-4.33813,24.63672-12.36059Q774.17286,1089.26532,784.23718,1085.0459Zm232.76306-147.95862c.4358,7.41113.218,11.33472-4.14135,12.20654-4.35962.87195-8.937-3.26953-10.24512,1.30793-1.30762,4.57751-15.04028,18.74585-19.18164,22.88745-4.1416,4.14148-8.937,2.83361-12.42456,6.10327s-8.06519,5.66736-12.20679,6.10327-10.89868,5.4494-13.29639,5.4494-10.02685.872-13.29638,3.0517a56.62866,56.62866,0,0,1-12.64258,6.10327c-4.1416,1.30786-12.4248,7.62915-16.13037,12.42462s-9.79736,4.56793-11.77051,2.17975c-5.81518-7.0376,2.95264-15.14563,5.02832-18.485s-2.9104-8.70623-6.96533-6.321a8.63083,8.63083,0,0,1-10.1377-1.19269c-1.9082-1.78894-2.38525-5.12836.23853-8.34851s.35791-13.71539-3.10083-11.56866-7.51367,0-8.82568-2.02747c-1.31177-2.02753-.5962-5.12836,2.38549-9.30267,2.98145-4.1742-1.66967-8.8255-4.65136-7.87146a8.48962,8.48962,0,0,1-9.06421-3.69715c-1.66968-2.98162-.23853-7.51367,3.8164-11.21087,4.05518-3.69721.8418-10.9975-4.08667-12.27887-4.92822-1.28137-12.12353,3.5484-12.91211.98572s1.67554-10.25092,1.77417-13.20795-2.36572-3.94257-4.82959-3.94257c-2.46435,0-4.33691-.19714-3.25293-1.47851,1.08423-1.28144,11.23658-6.30823,16.855-10.24176,5.61816-3.93347,3.647-11.64-2.36573-18.04676-6.01245-6.4068-13.99634-3.25274-22.17724-3.0556-8.18116.19714-13.99659.49286-13.50367-1.47851s5.12549-9.56092,3.25269-11.43366-6.89966-3.647-11.53223.88715-7.94726,2.0335-7.94726.37866,3.15893-5.11481,2.85815-7.97315-5.71655-3.00878-7.37134-1.35394-3.7854,7.98773-7.58862,6.79926c-3.80347-1.1886-12.83606-5.7049-12.12292-14.26227s18.3031-19.96716,30.90149-30.90149,27.81152-16.63928,39.69653-17.35236c11.88525-.71313,33.7539-1.18853,43.26221-4.041,9.50805-2.85242,27.43359-16.87793,30.4851-22.9812,3.05176-6.10334,10.02686-9.155,11.98877-12.20667,1.96167-3.05163,5.66724-6.75726,10.68067-4.14148s7.62915,13.29645,6.97534,21.36151c-.65405,8.06513-4.79541,12.20667-9.37305,17.00214-4.57739,4.79541-6.32129,13.95038-.218,16.13013,6.10352,2.17981,20.92579.87194,29.20874,3.48761,8.28321,2.61578,10.89869,5.4494,13.51441,11.33166s-2.39771,8.94006-1.74365,11.11987c.6538,2.17975-3.26953,7.84711-2.61573,9.37293s5.01343,5.23138,8.501,5.23138c3.48779,0,6.32129,5.01343,9.80908,7.4112,3.48755,2.3977,7.19312,8.501,8.283,11.11676s5.01343,7.41113,7.19312,9.59088,1.52588,7.19318,1.52588,7.19318,1.52587,1.74383,3.64355,7.41119-.374,11.55267-1.24585,19.18182S1016.56421,929.67609,1017.00024,937.08728Zm-28.801-57.59686c.19775,3.36291,3.165,8.90179,7.9126,11.07776s10.68213,1.58252,9.69287-2.96723c-.989-4.54974-4.15381-10.48431-10.48413-12.26465C991.62305,874.29639,988.00122,876.12756,988.19922,879.49042Zm20.17724,37.98089c0-3.75848-2.76953-7.44879-4.5498-10.35125s-3.04687-7.84589-8.30811-10.22174c-8.2561-3.728-13.05615-2.58619-16.22119-2.18329s-3.75854,4.16143-2.57177,6.73309c1.187,2.57166,10.68237,12.06683,18.793,16.02319C1003.62891,921.42761,1008.37646,921.2298,1008.37646,917.47131ZM488.62915,1081.64392l-.07025.05823a1.41644,1.41644,0,0,0-.5495.83093c-3.58453,23.95349-11.31781,38.2782-19.3913,46.844.14527-.33265.29181-.66175.43476-1.00037q5.85672-13.8772,8.1372-32.4353,2.29111-18.64509-.526-33.49976-2.81826-14.85388-9.738-23.56128-6.9213-8.70574-16.41919-9.87427-9.93988-1.22132-18.44745,5.90235-8.50865,7.12353-14.3656,21.00073-5.85681,13.87792-8.13721,32.43542-2.302,18.73371.52057,33.54407,2.82165,14.81011,9.69946,23.51172,6.87589,8.7019,16.46314,9.87952a22.3695,22.3695,0,0,0,7.83374-.39221q.22411-.04908.4494-.10425c.07629-.01929.15271-.038.22888-.05811.29224-.07568.58472-.15845.876-.25073.026-.0083.05084-.01758.07684-.02588.16962-.05322.3382-.113.5072-.17065,42.04413-13.81324,43.2981-65.04078,43.74817-71.33667a1.71873,1.71873,0,0,0-.37854-1.20215A.67255.67255,0,0,0,488.62915,1081.64392Zm188.63562-3.42981,33.18152-15.854-37.35712-36.46021ZM173.00085,555.82092c-7.41711,7.16132-7.67272,16.62445-10.99768,25.06458s-8.18432,15.60144-5.88256,24.80884,11.76513,14.32257,16.113,15.08984,10.90064-.02557,10.597-2.80878-9.51245-6.38281-12.70715-12.23211-2.50464-17.99793,0-25.347,10.0039-13.94836,14.20336-12.8985,5.09937,8.84894,3.29969,14.84827-7.49915,4.9494-8.399,1.34985c0,0-3.29956-.8999-3.89954,4.79944s-.6,13.19849,3.29969,16.49811c3.89941,3.29956,12.39282,3.5943,18.41479-.57788,7.93323-5.49652,11.76489-8.18439,12.53223-18.15906s2.04614-17.90326-6.26612-25.83185S180.418,548.65967,173.00085,555.82092Zm272.06983,69.897c-5.43494-16.7165-4.61145-30.96265-4.52918-37.55042s.49414-6.99957,4.94092-7.823,6.779-.191,6.779,1.20887c0,2.201-2.91918,1.42059-3.00976,2.59613-.09033,1.17553.751,1.61706,3.283,1.61706,2.53174,0,3.07434.81384,3.07434,1.81574s.18091,1.62048-3.43616,1.62048-4.43078,1.17554-4.43078,2.44147,4.88293,1.35638,5.87756,1.26593,2.17029-.3617,2.35107,1.53723-1.26587,3.07446-4.97339,3.25531-3.79785.90423-3.79785,1.72876-.90429,2.24994,4.6117,1.79779,8.1383.2713,9.766,6.87231,5.06372,16.99994,9.67554,22.42548c4.61157,5.42548,13.47326,3.79779,18.80835.99463s5.51586-10.67017,5.978-16.72864,2.70276-9.31372,7.85694-10.12756,10.03723-.9043,13.65429,2.351,1.718,16.27649,8.59034,16.27649,6.6914-7.41486,6.782-10.67017c.09033-3.25531-1.17554-8.04785,3.52649-12.20739s12.20739-4.61164,14.19665-1.80848c1.9895,2.80323,3.97876,8.5904,3.97876,11.39362a2.8194,2.8194,0,0,0,3.07446,3.1648c1.08521,0,1.62769-1.62763,1.62769-4.24994s1.718-5.51587,4.79248-5.33509,3.43616-1.80847,3.43616-3.16491-3.07434-1.35633-4.06922-1.35633c-.99462,0-1.44665-.36169-1.44665-1.44684s.36169-2.07977,1.17541-2.07977c.814,0,5.42554.18091,5.42554-1.35632s-1.80835-1.62769-3.52661-1.62769c-1.718,0-2.44141-.72339-2.44141-2.07977s3.43616-1.53723,5.33521-1.53723c1.8988,0,1.8988-.99463,1.8988-1.899s-1.17554-1.26593-2.44153-1.26593-3.16479-.09039-2.80322-2.62231c.36182-2.53186,3.70752-2.62226,6.6012-2.62226s5.51587.54255,5.79822,3.4361a176.66212,176.66212,0,0,1,0,20.13269c-.42139,10.5318-3.08936,23.59125-6.3191,30.47211s-12.217,17.5531-26.3999,22.04669-38.75708,5.33606-58.69751,3.51062C465.70435,658.29468,450.50562,642.43451,445.07068,625.718ZM551.92712,641.4953c1.57239.98261,4.32386-.98273,3.53772-2.94812s-2.32983-2.53937-3.53772-.98267C550.30627,639.65356,550.35486,640.51257,551.92712,641.4953Zm-10.82849,5.87177c1.7688,2.16186,4.32373,3.34112,6.09253.98266s1.75928-5.67865,0-6.68225c-2.22571-1.26971-3.93066-2.3584-6.09253,0S539.32983,645.2052,541.09863,647.36707ZM239.4574,612.61389c-5.36243,3.1839-6.87049,3.1839-20.61157,3.519s-24.80091,13.40589-28.48755,16.42225-15.75183,4.52447-18.60071,5.02716c-2.84863.50274-1.84326,3.05529,2.011,6.21972s17.26,12.09992,20.27637,13.9162,7.876,4.16229,13.741,1.48108,12.56811-5.52991,22.28735-5.02722,16.75733,1.09729,24.80091-9.422S271.29639,625.517,268.28,618.98169s-7.03809-14.80219-6.87048-19.55017,6.53527-9.27252,6.20019-16.64575a13.90746,13.90746,0,0,0-7.70837-12.06531c-2.51367-1.34058-4.85962-.53058-8.04358,4.85962-2.7655,4.682-7.37317,14.74652-14.57886,18.26556s-12.23291,3.29578-15.75195,5.58588-6.53528,3.46307-6.0326,5.13885,1.34058,4.62928,6.36768,4.2417c5.02734-.38751,9.71936-.38751,13.90869-3.40387s7.03809-1.173,7.54077.16761S244.8197,609.43,239.4574,612.61389Zm51.33593,61.24341c4.21277-3.65106,10.67225-15.72754,12.3573-24.99561s12.61182-15.15893,5.88477-28.3623c-3.53455-6.93707-7.00806-13.48419-14.87183-11.23743s-14.60424,10.95313-16.00842,16.57013-1.96594,9.54889,0,17.13178,1.40418,21.90625-2.80847,30.89343S286.58057,677.5083,290.79333,673.8573ZM136.06738,622.1571c-.74731,7.17426.89673,22.41956,4.6333,32.13471s15.39478,16.8894,18.53357,23.16687A28.954,28.954,0,0,0,172.686,690.76093c5.53,2.69036,8.22045,6.128,18.98181,5.53021s13.15283-2.09253,20.92492,1.34515,17.63672,5.97852,22.27015,0,4.78283-10.61194,9.71508-12.70441,13.15283-.89678,18.38416-9.56567,6.83093-10.89117,7.89087-16.95563c1.86841-10.68975,2.52759-14.885,0-17.13177s-8.7063.28082-10.95313,5.33612-7.302,15.16583-19.94018,16.57007-17.97437-3.651-25.83814,1.96594-14.60425,11.234-21.90625,0-23.02966-9.50488-33.14013-9.10559-10.87354-7.26587-7.8639-8.58789c8.3219-3.6554,15.19715-.041,15.19715-.63886s2.541-2.5661-7.772-6.3648-11.35937-7.38587-8.071-11.27192c3.28809-3.886,12.55493,1.79358,13.60107,4.33448.89685,1.943,2.69043-1.04627,1.49463-4.78284s-10.4624-12.10657-15.24524-13.90015S136.8147,614.98285,136.06738,622.1571Zm187.24951-4.1817c2.48853,0,6.88025-2.635,8.92969-8.49048s1.17114-15.22436,0-20.05517-14.78515-20.93341-15.22436-25.61786,5.12353-17.27374,4.97717-21.07983-6.441-13.46766-13.02844-14.78516-20.05518.43915-27.37451,4.3916-14.63892,9.36884-15.22437,16.981-4.09888,11.711-1.46387,16.981,7.88953,7.84576,9.07593,7.02661c.543-.37482.19946-1.53406.09351-2.70069-.24878-2.73486,5.76208-10.035,9.42175-9.88861s5.85559-.43921,5.70911-2.34222.43921-10.53992,4.3916-9.808,4.83081,2.1958,3.65979,12.73571-12.29663,16.10266-16.68823,19.17682,1.61022,10.97907-1.90308,12.88214-9.6615,5.85547-9.75928,7.46576,2.879,11.85742,5.71643,13.35895,3.60376-.47681,5.65308-5.3949c2.04956-4.918,6.58752-7.5249,15.22436-7.81769s12.443,2.635,18.44483,9.808S320.82837,617.9754,323.31689,617.9754Zm43.64075,103.44654c5.0448-2.01795,19.92688-3.53138,25.7284-2.27015s8.82849-1.51342,5.54931-4.79254-13.9646-9.69482-38.59265-3.27911c-30.01648,7.8194-45.15088,42.08893-47.16882,45.89007s-.75672,6.07129,4.03589,5.819,27.74633-5.29706,33.29565-4.28809,12.61194,2.77466,13.36865-2.7746,4.28809-8.07171,6.05371-8.82843,4.54029-.25219,5.29712,1.76569a5.54887,5.54887,0,0,0,5.54932,3.78363c2.77453-.25226,8.07153-3.53137,9.33276-4.54035s3.27906-.25225,6.81055,2.27015c3.53125,2.5224,10.0896,2.77465,17.40454.25225s12.10742-4.03582,11.85522-9.83734-3.78369-11.35077-12.35974-13.11645-24.9718-2.2702-36.07031-2.018-14.62988,1.76569-17.40454,2.5224S361.91284,723.43988,366.95764,721.42194Zm510.287-156.355c2.53662,4.12268,6.76391,6.09545,9.582,5.95452,2.81836-.14086,3.24121-5.21374,4.08643-7.891.8457-2.6773,3.523-2.25458,3.66381-5.63647a23.91693,23.91693,0,0,0-4.509-14.65485c-3.9458-5.4956-5.91846-10.99115-13.52783-12.11847-4.04224-.59887-7.46826.56366-10.991,3.3819s-6.6228,4.791-5.77734,7.46832,3.5227,3.241,5.77734,2.39551,3.66382-.2818,4.791,1.40912-.56323,3.52283-2.2544,5.63653-.282,2.616.56348,3.3512a3.53569,3.53569,0,0,0,4.509,0c1.832-1.37848,2.67749-.25116,4.08643,1.86255C878.65381,558.33942,874.70825,560.94421,877.24463,565.067Zm-38.60986-16.59137c-3.1001,1.83184-9.51978,6.45977-11.13208,8.45471-2.19288,2.7135-1.97266,3.241-.98633,4.791s4.22729-1.26818,6.34106,0,4.50928,2.11371,3.94556,6.20014,3.1001,3.1,5.21362,3.1c2.11377,0,2.39551,2.8183,2.39551,5.63654s10.5686,12.6449,12.96411,14.07257,3.66357.44135,7.60913-2.65869a81.03757,81.03757,0,0,1,11.83667-7.75018c1.9729-.84546,3.1001-3.80463,1.40918-6.7638-1.69116-2.95917-4.93188-7.46832-16.20483-16.62762s-15.50049-11.55481-17.05054-11.55481S841.73486,546.64374,838.63477,548.47559ZM813.96387,723.0813c23.54809-7.68915,44.21289-29.315,41.97021-29.315s-14.898,1.9223-29.15478,1.12133c-14.25708-.801-27.71314-12.49493-30.917-22.2666s-12.97558-46.6156-18.90258-64.55707-8.49012-24.50921-16.65992-33.48-40.68847-19.8637-52.38256-20.18408c-11.69385-.32037-16.49964,1.28156-17.4607,11.85419s5.927,33.64014,8.65027,40.36816,3.80908,10.62525,5.60669,10.092c3.66284-1.08642.4314-7.43768-.23987-9.98822s1.00684-3.08746,2.34925-2.61761,2.34924,5.30237,3.02038,7.58441,1.27515,2.34918,1.94641,2.2157.73841-.135,1.27527-.94043-.53686-3.49017-1.20813-6.10785.13416-2.88611,1.34241-3.1546,1.74512.537,2.21484,3.49023,1.20825,4.02716,2.95337,3.49018,1.40943-1.87934.80542-3.49018.73828-2.282,2.282-2.215,1.20813,3.22174,2.01355,3.75866a1.72774,1.72774,0,0,0,2.55054-1.61084,2.61845,2.61845,0,0,1,2.34924-2.8861c1.27515-.06714.05372,2.7,1.17505,3.34076s4.96582-1.76215,7.36866-.96119,6.0874,9.29108,11.05322,20.3443,17.78125,50.46027,18.58227,59.1106-9.45141,13.77643-11.94946,16.33948-2.46777,4.96594,9.22607,16.0191C775.51807,729.489,790.41577,730.77051,813.96387,723.0813ZM141.79956,822.47467c9.54785,15.00385,30.51733,49.08856,89.219,77.57617s71.11353,33.52545,147.332,35.52246c13.64611,0,12.66149-.7843,14.449-5.02942s4.91528-8.49017,7.37305-7.59649c2.45752.89374,4.02148,7.373,5.13867,9.16046s3.35144-.67029,5.58569-3.12793,4.02173-6.92621,5.5857-13.85242,2.93554-10.94787,6.38305-12.28839,9.48011-1.78741,15.73609,5.58563,7.81982,10.501,9.60717,10.501,47.14283-19.66144,72.39-35.30121,35.52466-24.57684,38.8761-29.2688-1.60926-10.18707-8.63343-7.14959-9.68188,1.70855-10.82092.18982-1.32886-5.31556,3.41712-8.54285,2.65783-6.64447.37976-7.78351-5.69532-1.32892-10.82105,2.65778-9.1123,1.89837-10.82092,0-.56946-5.50544,4.36633-8.73273,2.84766-7.214.94922-8.16321-5.885.56958-11.20068,2.84766-9.30225-6.45459-5.50537-8.92255,1.70849-5.12573-.19-6.07495-5.50537-.56952-10.6311,3.22729-66.25464,29.04578-101.18542,33.98163-37.39881,2.27814-38.15808.56952c-.75953-1.70856,14.61767-3.41711,44.80249-11.96s77.07568-26.7677,84.09985-29.42548,7.21387-2.65777,9.30225-4.55615c2.08813-1.89843-7.21412-7.59369-9.30225-8.73272-2.08838-1.139-6.05-.49421-16.042-3.72583-18.46765-5.9729-14.16284-13.54352-12.814-15.36072,2.296-3.09326,5.885-2.93506,4.7461-4.4538-.94678-1.26239-9.501-4.62329-13.23389-6.70318a4.45833,4.45833,0,0,0-3.70239-.30488l-25.61109,9.3299c-42.53027,17.11584-117.21753,39.937-176.34509,46.16089s-102.69519-10.37323-109.95642-11.9292S132.25159,807.47083,141.79956,822.47467ZM811.1084,565.63593c-3.92017,1.89239-11.48975,7.56964-14.05811,10.67858-2.56811,3.10895-2.16259,4.4607-1.0813,5.13654s2.2981.13519,4.86622-1.35175c2.56835-1.48687,3.78491-1.35168,5.407.1352s3.24414,2.94543.67578,4.71685-2.43311,3.52863-1.08154,4.74518c1.3518,1.21656,3.24414.54071,5.13671-.40551,1.89234-.94623,5.00147,2.70343,3.24415,4.3255s-2.97388,2.83862-1.35181,4.3255,3.10913-.53553,3.92016,1.4895c.8108,2.025-2.4331,1.34912-.811,4.32287,1.62183,2.97382,4.866,6.79114,7.9751,10.15418,1.6792,1.81641,6.21777,4.98511,15.0039-.96246a179.31715,179.31715,0,0,0,15.54493-11.48963c1.35156-1.21655,0-4.3255-2.70362-7.16412-2.70337-2.83862-17.03149-16.22064-23.92529-21.89783S815.02832,563.74353,811.1084,565.63593Z"/></svg>