<?xml version="1.0" encoding="utf-8"?>
<!-- Generator: Adobe Illustrator 24.2.0, SVG Export Plug-In . SVG Version: 6.00 Build 0)  -->
<svg version="1.1" id="Layer_1" xmlns="http://www.w3.org/2000/svg" xmlns:xlink="http://www.w3.org/1999/xlink" x="0px" y="0px"
	 viewBox="0 0 1200 130.36" height="100%" width="100%" preserveAspectRatio="none" style="enable-background:new 0 0 1200 130.36;" xml:space="preserve">
<path fill="#C3B1A1" d="M1200,14.23c-3.14,0.38-6.28,0.71-9.41,1.12c-3.13,0.35-6.25,0.74-9.36,1.14c-6.23,0.82-12.38,1.8-18.58,2.88
	c-6.2,1.04-12.55,2.05-18.93,2.88c-6.38,0.85-12.76,1.43-19.13,1.99c-6.35,0.57-12.8,1.02-19.28,1.26
	c-6.48,0.26-13.12,0.28-19.63,0.08c-6.53-0.17-12.7-0.57-18.69-0.62c-6-0.07-12,0.07-18.09,0.39l-9.17,0.49
	c-3.25,0.15-6.48,0.35-9.76,0.44c-6.53,0.24-13.21,0.31-19.9,0.1c-6.7-0.17-13.15-0.7-19.09-0.95c-5.95-0.26-11.76-0.3-17.74-0.17
	c-3,0.09-5.98,0.16-9.02,0.32c-1.49,0.07-3.08,0.13-4.48,0.22l-4.05,0.31c-5.33,0.51-10.3,1.31-14.82,2.67
	c-1.14,0.39-2.26,0.73-3.41,1.13c-1.17,0.47-2.27,0.84-3.51,1.37c-1.27,0.54-2.39,0.99-3.82,1.63l-4.3,1.88
	c-0.78,0.33-1.49,0.66-2.32,1l-2.52,1.03c-1.62,0.7-3.54,1.31-5.33,1.96c-1.8,0.65-3.76,1.16-5.65,1.73
	c-1.9,0.57-3.85,0.94-5.77,1.41l-1.45,0.33l-1.44,0.25l-2.88,0.49c-0.96,0.15-1.93,0.34-2.87,0.46l-2.81,0.32l-2.82,0.31l-1.41,0.15
	l-1.37,0.08l-5.48,0.31l-1.37,0.07l-1.33,0.02l-2.66,0.03c-1.79,0-3.52,0.09-5.37,0l-5.49-0.17c-1.86-0.11-3.75-0.28-5.62-0.42
	c-3.77-0.35-7.62-0.9-11.41-1.64c-1.93-0.32-3.72-0.79-5.59-1.2c-1.85-0.42-3.51-0.88-5.28-1.33l-4.73-1.29
	c-1.42-0.38-2.95-0.81-4.2-1.11l-1.96-0.49l-1.84-0.39c-0.61-0.12-1.22-0.27-1.82-0.38l-1.78-0.3c-4.72-0.78-9.66-1.09-14.94-1.17
	l-8.59,0.1l-4.94,0.06l-4.99-0.01c-6.67-0.04-13.54-0.24-20.32-0.68c-3.39-0.21-6.66-0.47-9.82-0.71c-3.1-0.24-6.1-0.47-8.97-0.63
	c-5.77-0.33-11.49-0.48-17.4-0.55l-4.44-0.03l-4.49,0.03l-9.41,0.09l-19.11,0.11l-18.99-0.04l-18.64-0.09l-9.35,0
	c-3.05,0.02-6.52-0.01-8.8,0.1c-5.18,0.07-9.76,0.6-13.95,1.46c-4.24,0.87-8,2.18-13.83,4.4l-4.79,1.77l-2.66,0.93l-1.33,0.46
	l-1.44,0.45c-1.93,0.59-3.81,1.21-5.86,1.7c-2.01,0.51-4.02,1.05-6.06,1.41c-4.09,0.87-8.1,1.37-12.07,1.82l-5.84,0.44
	c-0.99,0.09-1.92,0.11-2.86,0.12l-2.81,0.06l-37.96,0.15l-19,0.08c-6.4,0-12.79-0.03-19.15-0.09c-12.65-0.12-25.62-0.27-38.62-0.97
	l-18.89-1.04c-6.1-0.32-12.17-0.56-18.32-0.75l-9.25-0.24l-4.75-0.13l-4.89-0.16c-6.54-0.25-13.17-0.58-19.85-1.09
	c-6.67-0.5-13.31-1.22-19.32-1.84c-6.04-0.63-11.83-1.06-17.82-1.48c-2.98-0.21-6-0.35-9.02-0.51l-4.57-0.19l-2.29-0.1l-2.14-0.05
	l-4.27-0.11l-4.16,0.03c-1.41-0.02-2.73,0.07-4.08,0.12l-2.03,0.08l-1.98,0.16c-5.31,0.4-10.29,1.18-16.43,2.32
	c-6.15,1.18-13.6,2.49-20.78,3.06c-7.21,0.6-14.27,0.73-21.04,0.49c-3.32-0.02-7.06-0.35-10.6-0.6c-1.81-0.17-3.67-0.43-5.49-0.65
	c-0.92-0.13-1.82-0.21-2.75-0.38l-2.79-0.51l-2.79-0.52c-0.93-0.17-1.87-0.44-2.8-0.66c-1.86-0.47-3.73-0.9-5.56-1.51
	c-1.83-0.58-3.68-1.13-5.4-1.82l-2.62-0.99c-0.86-0.33-1.65-0.69-2.48-1.03l-2.43-1.04l-2.25-1.02l-4.23-1.93l-3.85-1.72l-3.62-1.47
	c-1.19-0.4-2.38-0.85-3.59-1.24l-3.67-1.04l-3.83-0.82c-1.28-0.29-2.65-0.42-3.98-0.64l-2.01-0.31l-2.09-0.19l-4.19-0.39
	c-3.24-0.21-6.45-0.38-9.71-0.68c-6.48-0.53-13.04-1.21-19.56-2.13c-6.53-0.92-12.85-2.03-18.86-3.06c-6.03-1.02-12-1.83-18.13-2.47
	c-3.06-0.31-6.12-0.61-9.22-0.88l-4.63-0.41l-4.58-0.33c-6.1-0.41-12.17-0.59-18.2-0.48c-6.04,0.1-12.08,0.72-18.45,1.33
	c-6.36,0.58-12.93,0.95-19.38,0.85c-3.23-0.08-6.43-0.16-9.62-0.39c-3.2-0.18-6.37-0.58-9.53-0.87l0-3
	c6.26-0.08,12.52-0.25,18.73-0.79c6.22-0.53,12.36-1.49,18.52-2.7c6.16-1.19,12.41-2.43,18.74-3.16C63.4,5.02,69.75,4.7,76.08,4.55
	c12.65-0.21,25.31-0.02,37.95,1.09c6.31,0.54,12.55,1.23,18.78,1.67c6.23,0.45,12.48,0.68,18.74,0.75c3.13,0.07,6.27,0.03,9.4,0.06
	l4.8,0.11l2.4,0.06l2.4,0.19c1.6,0.15,3.21,0.2,4.8,0.44l4.79,0.68l4.76,0.97c1.57,0.38,3.13,0.83,4.69,1.24
	c6.23,1.81,12.06,4.44,17.86,6.56c5.79,2.16,11.69,3.71,17.78,4.53l2.28,0.32c0.76,0.11,1.53,0.13,2.3,0.2
	c1.54,0.11,3.06,0.27,4.6,0.34c3.1,0.05,6.17,0.22,9.29,0.11c6.23-0.04,12.44-0.42,18.57-1.17c6.14-0.74,12.16-2.02,18.29-3.48
	c6.13-1.45,12.45-2.77,18.82-3.51l2.39-0.29l2.39-0.2c1.59-0.13,3.19-0.3,4.78-0.35l4.78-0.23l4.77-0.08
	c6.35-0.08,12.64-0.01,18.98,0.16c6.33,0.16,12.67,0.48,18.97,0.93c6.31,0.45,12.54,0.95,18.79,1.25c6.24,0.31,12.5,0.44,18.77,0.51
	l18.88,0.06c6.31,0.05,12.63,0.16,18.94,0.35l18.87,0.63c12.54,0.37,25.09,0.39,37.67,0.33c12.58-0.04,25.12-0.25,37.72-0.51
	c6.3-0.12,12.61-0.2,18.91-0.25l9.45-0.05c3.15-0.01,6.33,0.01,9.38-0.1c6.17-0.09,12.28-0.69,18.22-1.94
	c5.96-1.21,11.68-3.22,17.55-5.49c5.87-2.27,12.09-4.41,18.49-5.67c6.39-1.28,12.87-1.9,19.29-1.96c3.24-0.11,6.35-0.05,9.51-0.05
	l9.45,0.05c6.3,0.04,12.61,0.12,18.91,0.22c12.6,0.23,25.15,0.41,37.73,0.45c6.28,0.03,12.6,0,18.94,0.17
	c6.33,0.16,12.69,0.46,19.01,0.98c6.33,0.51,12.59,1.24,18.81,1.76c6.22,0.53,12.45,0.84,18.7,1c3.13,0.08,6.25,0.13,9.39,0.14
	c3.1,0,6.36,0.11,9.53,0.17c6.39,0.31,12.82,0.94,19.15,2.24c6.34,1.26,12.47,3.26,18.42,5.05c5.95,1.78,11.92,3.12,18.03,3.87
	c6.09,0.81,12.32,0.97,18.51,0.98c6.19-0.04,12.33-0.51,18.35-1.58c6.03-1.06,11.81-2.96,17.64-5.23c5.82-2.25,11.87-4.64,18.2-6.1
	c6.32-1.5,12.77-2.15,19.17-2.41l4.8-0.11c1.6-0.02,3.17,0.02,4.75,0.02c3.16,0.01,6.33,0.11,9.5,0.19
	c6.33,0.21,12.68,0.62,18.99,1.25c6.31,0.63,12.54,1.43,18.75,1.97c6.22,0.55,12.45,0.84,18.71,0.98c3.13,0.1,6.26,0.09,9.39,0.13
	c3.16,0.04,6.32,0.02,9.48,0.12c6.33,0.14,12.67,0.46,18.99,1.01c6.33,0.54,12.59,1.37,18.81,2.02c12.43,1.37,24.94,1.66,37.5,1.65
	c6.28-0.01,12.55-0.08,18.81-0.33c6.26-0.23,12.51-0.66,18.8-1.09c6.29-0.43,12.61-0.78,18.92-0.94c6.32-0.17,12.63-0.2,18.93-0.18
	V14.23z"/>
</svg>

